%TF.GenerationSoftware,KiCad,Pcbnew,9.0.4*%
%TF.CreationDate,2025-12-07T17:14:32+03:30*%
%TF.ProjectId,MCU_Data logger003,4d43555f-4461-4746-9120-6c6f67676572,1*%
%TF.SameCoordinates,Original*%
%TF.FileFunction,Soldermask,Top*%
%TF.FilePolarity,Negative*%
%FSLAX46Y46*%
G04 Gerber Fmt 4.6, Leading zero omitted, Abs format (unit mm)*
G04 Created by KiCad (PCBNEW 9.0.4) date 2025-12-07 17:14:32*
%MOMM*%
%LPD*%
G01*
G04 APERTURE LIST*
G04 Aperture macros list*
%AMRoundRect*
0 Rectangle with rounded corners*
0 $1 Rounding radius*
0 $2 $3 $4 $5 $6 $7 $8 $9 X,Y pos of 4 corners*
0 Add a 4 corners polygon primitive as box body*
4,1,4,$2,$3,$4,$5,$6,$7,$8,$9,$2,$3,0*
0 Add four circle primitives for the rounded corners*
1,1,$1+$1,$2,$3*
1,1,$1+$1,$4,$5*
1,1,$1+$1,$6,$7*
1,1,$1+$1,$8,$9*
0 Add four rect primitives between the rounded corners*
20,1,$1+$1,$2,$3,$4,$5,0*
20,1,$1+$1,$4,$5,$6,$7,0*
20,1,$1+$1,$6,$7,$8,$9,0*
20,1,$1+$1,$8,$9,$2,$3,0*%
G04 Aperture macros list end*
%ADD10C,2.100000*%
%ADD11RoundRect,0.243750X-0.243750X-0.456250X0.243750X-0.456250X0.243750X0.456250X-0.243750X0.456250X0*%
%ADD12RoundRect,0.250000X-0.250000X-0.475000X0.250000X-0.475000X0.250000X0.475000X-0.250000X0.475000X0*%
%ADD13RoundRect,0.250000X-0.262500X-0.450000X0.262500X-0.450000X0.262500X0.450000X-0.262500X0.450000X0*%
%ADD14R,1.700000X1.700000*%
%ADD15C,1.700000*%
%ADD16RoundRect,0.250000X0.250000X0.475000X-0.250000X0.475000X-0.250000X-0.475000X0.250000X-0.475000X0*%
%ADD17RoundRect,0.162500X-0.650000X-0.162500X0.650000X-0.162500X0.650000X0.162500X-0.650000X0.162500X0*%
%ADD18RoundRect,0.250000X0.262500X0.450000X-0.262500X0.450000X-0.262500X-0.450000X0.262500X-0.450000X0*%
%ADD19RoundRect,0.099250X-0.987750X-0.297750X0.987750X-0.297750X0.987750X0.297750X-0.987750X0.297750X0*%
%ADD20RoundRect,0.094250X-0.742750X-0.282750X0.742750X-0.282750X0.742750X0.282750X-0.742750X0.282750X0*%
%ADD21RoundRect,0.094250X-0.282750X-0.742750X0.282750X-0.742750X0.282750X0.742750X-0.282750X0.742750X0*%
%ADD22RoundRect,0.250001X0.949999X-1.499999X0.949999X1.499999X-0.949999X1.499999X-0.949999X-1.499999X0*%
%ADD23RoundRect,0.250001X-1.499999X-0.949999X1.499999X-0.949999X1.499999X0.949999X-1.499999X0.949999X0*%
G04 APERTURE END LIST*
D10*
%TO.C,H4*%
X149984735Y-123438000D03*
%TD*%
%TO.C,H3*%
X149984735Y-92513000D03*
%TD*%
%TO.C,H2*%
X101009735Y-92513000D03*
%TD*%
%TO.C,H1*%
X101009735Y-123438000D03*
%TD*%
D11*
%TO.C,D2*%
X134356400Y-94363000D03*
X136231400Y-94363000D03*
%TD*%
D12*
%TO.C,C2*%
X136223900Y-115089400D03*
X134323900Y-115089400D03*
%TD*%
D13*
%TO.C,R4*%
X136166400Y-106301000D03*
X134341400Y-106301000D03*
%TD*%
D12*
%TO.C,C4*%
X136223900Y-110517400D03*
X134323900Y-110517400D03*
%TD*%
D13*
%TO.C,R7*%
X136166400Y-98274600D03*
X134341400Y-98274600D03*
%TD*%
%TO.C,R3*%
X136166400Y-102287800D03*
X134341400Y-102287800D03*
%TD*%
%TO.C,R6*%
X140498400Y-102198200D03*
X138673400Y-102198200D03*
%TD*%
D11*
%TO.C,D1*%
X140625000Y-94375000D03*
X138750000Y-94375000D03*
%TD*%
D13*
%TO.C,R5*%
X140600000Y-98489800D03*
X138775000Y-98489800D03*
%TD*%
D14*
%TO.C,J4*%
X147561700Y-102859000D03*
D15*
X145021700Y-102859000D03*
X147561700Y-100319000D03*
X145021700Y-100319000D03*
X147561700Y-97779000D03*
X145021700Y-97779000D03*
%TD*%
D12*
%TO.C,C1*%
X119225500Y-94273800D03*
X121125500Y-94273800D03*
%TD*%
D16*
%TO.C,C3*%
X125799100Y-94273800D03*
X123899100Y-94273800D03*
%TD*%
D17*
%TO.C,U3*%
X108460000Y-94146800D03*
X108460000Y-95416800D03*
X108460000Y-96686800D03*
X108460000Y-97956800D03*
X115635000Y-97956800D03*
X115635000Y-96686800D03*
X115635000Y-95416800D03*
X115635000Y-94146800D03*
%TD*%
D14*
%TO.C,BT1*%
X103360700Y-100827000D03*
D15*
X103360700Y-98287000D03*
%TD*%
D18*
%TO.C,R1*%
X111740800Y-116778200D03*
X109915800Y-116778200D03*
%TD*%
D19*
%TO.C,U2*%
X109674100Y-109539200D03*
X109674100Y-110809200D03*
X109674100Y-112079200D03*
X109674100Y-113349200D03*
X114624100Y-113349200D03*
X114624100Y-112079200D03*
X114624100Y-110809200D03*
X114624100Y-109539200D03*
%TD*%
D20*
%TO.C,U4*%
X120573900Y-101463000D03*
X120573900Y-102263000D03*
X120573900Y-103063000D03*
X120573900Y-103863000D03*
X120573900Y-104663000D03*
X120573900Y-105463000D03*
X120573900Y-106263000D03*
X120573900Y-107063000D03*
D21*
X121943900Y-108433000D03*
X122743900Y-108433000D03*
X123543900Y-108433000D03*
X124343900Y-108433000D03*
X125143900Y-108433000D03*
X125943900Y-108433000D03*
X126743900Y-108433000D03*
X127543900Y-108433000D03*
D20*
X128913900Y-107063000D03*
X128913900Y-106263000D03*
X128913900Y-105463000D03*
X128913900Y-104663000D03*
X128913900Y-103863000D03*
X128913900Y-103063000D03*
X128913900Y-102263000D03*
X128913900Y-101463000D03*
D21*
X127543900Y-100093000D03*
X126743900Y-100093000D03*
X125943900Y-100093000D03*
X125143900Y-100093000D03*
X124343900Y-100093000D03*
X123543900Y-100093000D03*
X122743900Y-100093000D03*
X121943900Y-100093000D03*
%TD*%
D14*
%TO.C,J3*%
X107780300Y-121096200D03*
D15*
X110320300Y-121096200D03*
X112860300Y-121096200D03*
X115400300Y-121096200D03*
X117940300Y-121096200D03*
X120480300Y-121096200D03*
X123020300Y-121096200D03*
X125560300Y-121096200D03*
X128100300Y-121096200D03*
%TD*%
D22*
%TO.C,Y1*%
X103716300Y-113028200D03*
X103716300Y-107828200D03*
%TD*%
D23*
%TO.C,Y2*%
X120471100Y-113984200D03*
X125671100Y-113984200D03*
%TD*%
D14*
%TO.C,J2*%
X134348700Y-121147000D03*
D15*
X136888700Y-121147000D03*
X139428700Y-121147000D03*
X141968700Y-121147000D03*
%TD*%
D14*
%TO.C,J1*%
X146773900Y-107903000D03*
D15*
X146773900Y-110443000D03*
X146773900Y-112983000D03*
X146773900Y-115523000D03*
%TD*%
D13*
%TO.C,R2*%
X114030600Y-116676600D03*
X115855600Y-116676600D03*
%TD*%
D17*
%TO.C,U1*%
X108256800Y-101868400D03*
X108256800Y-103138400D03*
X108256800Y-104408400D03*
X108256800Y-105678400D03*
X115431800Y-105678400D03*
X115431800Y-104408400D03*
X115431800Y-103138400D03*
X115431800Y-101868400D03*
%TD*%
D16*
%TO.C,C5*%
X130167900Y-94273800D03*
X128267900Y-94273800D03*
%TD*%
M02*
