%TF.GenerationSoftware,KiCad,Pcbnew,9.0.4*%
%TF.CreationDate,2025-12-07T20:09:45+03:30*%
%TF.ProjectId,MCU_Datalogger003_4Layer,4d43555f-4461-4746-916c-6f6767657230,2*%
%TF.SameCoordinates,Original*%
%TF.FileFunction,Copper,L1,Top*%
%TF.FilePolarity,Positive*%
%FSLAX46Y46*%
G04 Gerber Fmt 4.6, Leading zero omitted, Abs format (unit mm)*
G04 Created by KiCad (PCBNEW 9.0.4) date 2025-12-07 20:09:45*
%MOMM*%
%LPD*%
G01*
G04 APERTURE LIST*
G04 Aperture macros list*
%AMRoundRect*
0 Rectangle with rounded corners*
0 $1 Rounding radius*
0 $2 $3 $4 $5 $6 $7 $8 $9 X,Y pos of 4 corners*
0 Add a 4 corners polygon primitive as box body*
4,1,4,$2,$3,$4,$5,$6,$7,$8,$9,$2,$3,0*
0 Add four circle primitives for the rounded corners*
1,1,$1+$1,$2,$3*
1,1,$1+$1,$4,$5*
1,1,$1+$1,$6,$7*
1,1,$1+$1,$8,$9*
0 Add four rect primitives between the rounded corners*
20,1,$1+$1,$2,$3,$4,$5,0*
20,1,$1+$1,$4,$5,$6,$7,0*
20,1,$1+$1,$6,$7,$8,$9,0*
20,1,$1+$1,$8,$9,$2,$3,0*%
G04 Aperture macros list end*
%TA.AperFunction,SMDPad,CuDef*%
%ADD10RoundRect,0.250000X0.250000X0.475000X-0.250000X0.475000X-0.250000X-0.475000X0.250000X-0.475000X0*%
%TD*%
%TA.AperFunction,ComponentPad*%
%ADD11R,1.700000X1.700000*%
%TD*%
%TA.AperFunction,ComponentPad*%
%ADD12C,1.700000*%
%TD*%
%TA.AperFunction,SMDPad,CuDef*%
%ADD13RoundRect,0.250000X-0.262500X-0.450000X0.262500X-0.450000X0.262500X0.450000X-0.262500X0.450000X0*%
%TD*%
%TA.AperFunction,SMDPad,CuDef*%
%ADD14RoundRect,0.243750X-0.243750X-0.456250X0.243750X-0.456250X0.243750X0.456250X-0.243750X0.456250X0*%
%TD*%
%TA.AperFunction,SMDPad,CuDef*%
%ADD15RoundRect,0.250000X-0.250000X-0.475000X0.250000X-0.475000X0.250000X0.475000X-0.250000X0.475000X0*%
%TD*%
%TA.AperFunction,SMDPad,CuDef*%
%ADD16RoundRect,0.162500X-0.650000X-0.162500X0.650000X-0.162500X0.650000X0.162500X-0.650000X0.162500X0*%
%TD*%
%TA.AperFunction,SMDPad,CuDef*%
%ADD17RoundRect,0.250000X0.262500X0.450000X-0.262500X0.450000X-0.262500X-0.450000X0.262500X-0.450000X0*%
%TD*%
%TA.AperFunction,SMDPad,CuDef*%
%ADD18RoundRect,0.073750X-0.911250X-0.221250X0.911250X-0.221250X0.911250X0.221250X-0.911250X0.221250X0*%
%TD*%
%TA.AperFunction,SMDPad,CuDef*%
%ADD19RoundRect,0.068750X-0.666250X-0.206250X0.666250X-0.206250X0.666250X0.206250X-0.666250X0.206250X0*%
%TD*%
%TA.AperFunction,SMDPad,CuDef*%
%ADD20RoundRect,0.068750X-0.206250X-0.666250X0.206250X-0.666250X0.206250X0.666250X-0.206250X0.666250X0*%
%TD*%
%TA.AperFunction,SMDPad,CuDef*%
%ADD21RoundRect,0.250001X0.949999X-1.499999X0.949999X1.499999X-0.949999X1.499999X-0.949999X-1.499999X0*%
%TD*%
%TA.AperFunction,SMDPad,CuDef*%
%ADD22RoundRect,0.250001X-1.499999X-0.949999X1.499999X-0.949999X1.499999X0.949999X-1.499999X0.949999X0*%
%TD*%
%TA.AperFunction,ViaPad*%
%ADD23C,0.600000*%
%TD*%
%TA.AperFunction,Conductor*%
%ADD24C,0.200000*%
%TD*%
G04 APERTURE END LIST*
D10*
%TO.P,C4,2*%
%TO.N,Net-(U4-AREF)*%
X134228800Y-110439200D03*
%TO.P,C4,1*%
%TO.N,GND*%
X136128800Y-110439200D03*
%TD*%
D11*
%TO.P,J4,1,Pin_1*%
%TO.N,/MISO*%
X144780000Y-97688400D03*
D12*
%TO.P,J4,2,Pin_2*%
%TO.N,/Vcc*%
X147320000Y-97688400D03*
%TO.P,J4,3,Pin_3*%
%TO.N,/SCK*%
X144780000Y-100228400D03*
%TO.P,J4,4,Pin_4*%
%TO.N,/MOSI*%
X147320000Y-100228400D03*
%TO.P,J4,5,Pin_5*%
%TO.N,/RESET*%
X144780000Y-102768400D03*
%TO.P,J4,6,Pin_6*%
%TO.N,GND*%
X147320000Y-102768400D03*
%TD*%
D13*
%TO.P,R7,1*%
%TO.N,Net-(D2-K)*%
X134341400Y-98274600D03*
%TO.P,R7,2*%
%TO.N,GND*%
X136166400Y-98274600D03*
%TD*%
D14*
%TO.P,D1,1,K*%
%TO.N,Net-(D1-K)*%
X138750000Y-94375000D03*
%TO.P,D1,2,A*%
%TO.N,/SCK*%
X140625000Y-94375000D03*
%TD*%
D13*
%TO.P,R6,1*%
%TO.N,/Vcc*%
X138673400Y-102198200D03*
%TO.P,R6,2*%
%TO.N,/RESET*%
X140498400Y-102198200D03*
%TD*%
D15*
%TO.P,C1,1*%
%TO.N,/Vcc*%
X119225500Y-94273800D03*
%TO.P,C1,2*%
%TO.N,GND*%
X121125500Y-94273800D03*
%TD*%
D10*
%TO.P,C3,1*%
%TO.N,Net-(U4-PB7)*%
X125799100Y-94273800D03*
%TO.P,C3,2*%
%TO.N,GND*%
X123899100Y-94273800D03*
%TD*%
D16*
%TO.P,U3,1,A0*%
%TO.N,/Vcc*%
X107613700Y-94615000D03*
%TO.P,U3,2,A1*%
%TO.N,GND*%
X107613700Y-95885000D03*
%TO.P,U3,3,A2*%
%TO.N,/Vcc*%
X107613700Y-97155000D03*
%TO.P,U3,4,GND*%
%TO.N,GND*%
X107613700Y-98425000D03*
%TO.P,U3,5,SDA*%
%TO.N,/SDA*%
X114788700Y-98425000D03*
%TO.P,U3,6,SCL*%
%TO.N,/SCK*%
X114788700Y-97155000D03*
%TO.P,U3,7,WP*%
%TO.N,GND*%
X114788700Y-95885000D03*
%TO.P,U3,8,VCC*%
%TO.N,/Vcc*%
X114788700Y-94615000D03*
%TD*%
D17*
%TO.P,R3,1*%
%TO.N,/Vcc*%
X136166400Y-102287800D03*
%TO.P,R3,2*%
%TO.N,/SDA*%
X134341400Y-102287800D03*
%TD*%
%TO.P,R5,1*%
%TO.N,GND*%
X140612500Y-98247200D03*
%TO.P,R5,2*%
%TO.N,Net-(D1-K)*%
X138787500Y-98247200D03*
%TD*%
D11*
%TO.P,BT1,1,+*%
%TO.N,/Vcc*%
X103360700Y-100827000D03*
D12*
%TO.P,BT1,2,-*%
%TO.N,GND*%
X103360700Y-98287000D03*
%TD*%
D17*
%TO.P,R1,1*%
%TO.N,/Vcc*%
X110943400Y-116535200D03*
%TO.P,R1,2*%
%TO.N,Net-(U2-~{INTA})*%
X109118400Y-116535200D03*
%TD*%
D14*
%TO.P,D2,1,K*%
%TO.N,Net-(D2-K)*%
X134356400Y-94363000D03*
%TO.P,D2,2,A*%
%TO.N,/Vcc*%
X136231400Y-94363000D03*
%TD*%
D15*
%TO.P,C2,1*%
%TO.N,Net-(U4-PB6)*%
X134323900Y-115089400D03*
%TO.P,C2,2*%
%TO.N,GND*%
X136223900Y-115089400D03*
%TD*%
D18*
%TO.P,U2,1,X1*%
%TO.N,Net-(U2-X1)*%
X108980200Y-109601000D03*
%TO.P,U2,2,X2*%
%TO.N,Net-(U2-X2)*%
X108980200Y-110871000D03*
%TO.P,U2,3,~{INTA}*%
%TO.N,Net-(U2-~{INTA})*%
X108980200Y-112141000D03*
%TO.P,U2,4,GND*%
%TO.N,GND*%
X108980200Y-113411000D03*
%TO.P,U2,5,SDA*%
%TO.N,/SDA*%
X113930200Y-113411000D03*
%TO.P,U2,6,SCL*%
%TO.N,/SCK*%
X113930200Y-112141000D03*
%TO.P,U2,7,SQW/~INT*%
%TO.N,Net-(U2-SQW{slash}~INT)*%
X113930200Y-110871000D03*
%TO.P,U2,8,VCC*%
%TO.N,/Vcc*%
X113930200Y-109601000D03*
%TD*%
D19*
%TO.P,U4,1,PD3*%
%TO.N,/D3*%
X120499200Y-101463000D03*
%TO.P,U4,2,PD4*%
%TO.N,/D4*%
X120499200Y-102263000D03*
%TO.P,U4,3,GND*%
%TO.N,GND*%
X120499200Y-103063000D03*
%TO.P,U4,4,VCC*%
%TO.N,/Vcc*%
X120499200Y-103863000D03*
%TO.P,U4,5,GND*%
%TO.N,GND*%
X120499200Y-104663000D03*
%TO.P,U4,6,VCC*%
%TO.N,unconnected-(U4-VCC-Pad6)*%
X120499200Y-105463000D03*
%TO.P,U4,7,PB6*%
%TO.N,Net-(U4-PB6)*%
X120499200Y-106263000D03*
%TO.P,U4,8,PB7*%
%TO.N,Net-(U4-PB7)*%
X120499200Y-107063000D03*
D20*
%TO.P,U4,9,PD5*%
%TO.N,/D5*%
X121869200Y-108433000D03*
%TO.P,U4,10,PD6*%
%TO.N,/D6*%
X122669200Y-108433000D03*
%TO.P,U4,11,PD7*%
%TO.N,/D7*%
X123469200Y-108433000D03*
%TO.P,U4,12,PB0*%
%TO.N,/D8*%
X124269200Y-108433000D03*
%TO.P,U4,13,PB1*%
%TO.N,unconnected-(U4-PB1-Pad13)*%
X125069200Y-108433000D03*
%TO.P,U4,14,PB2*%
%TO.N,unconnected-(U4-PB2-Pad14)*%
X125869200Y-108433000D03*
%TO.P,U4,15,PB3*%
%TO.N,/MOSI*%
X126669200Y-108433000D03*
%TO.P,U4,16,PB4*%
%TO.N,/MISO*%
X127469200Y-108433000D03*
D19*
%TO.P,U4,17,PB5*%
%TO.N,/SCK*%
X128839200Y-107063000D03*
%TO.P,U4,18,AVCC*%
%TO.N,/Vcc*%
X128839200Y-106263000D03*
%TO.P,U4,19,ADC6*%
%TO.N,unconnected-(U4-ADC6-Pad19)*%
X128839200Y-105463000D03*
%TO.P,U4,20,AREF*%
%TO.N,Net-(U4-AREF)*%
X128839200Y-104663000D03*
%TO.P,U4,21,GND*%
%TO.N,GND*%
X128839200Y-103863000D03*
%TO.P,U4,22,ADC7*%
%TO.N,unconnected-(U4-ADC7-Pad22)*%
X128839200Y-103063000D03*
%TO.P,U4,23,PC0*%
%TO.N,unconnected-(U4-PC0-Pad23)*%
X128839200Y-102263000D03*
%TO.P,U4,24,PC1*%
%TO.N,unconnected-(U4-PC1-Pad24)*%
X128839200Y-101463000D03*
D20*
%TO.P,U4,25,PC2*%
%TO.N,unconnected-(U4-PC2-Pad25)*%
X127469200Y-100093000D03*
%TO.P,U4,26,PC3*%
%TO.N,unconnected-(U4-PC3-Pad26)*%
X126669200Y-100093000D03*
%TO.P,U4,27,PC4*%
%TO.N,/SDA*%
X125869200Y-100093000D03*
%TO.P,U4,28,PC5*%
%TO.N,/SCK*%
X125069200Y-100093000D03*
%TO.P,U4,29,PC6/~{RESET}*%
%TO.N,/RESET*%
X124269200Y-100093000D03*
%TO.P,U4,30,PD0*%
%TO.N,/RX*%
X123469200Y-100093000D03*
%TO.P,U4,31,PD1*%
%TO.N,/TX*%
X122669200Y-100093000D03*
%TO.P,U4,32,PD2*%
%TO.N,/D2*%
X121869200Y-100093000D03*
%TD*%
D11*
%TO.P,J3,1,Pin_1*%
%TO.N,/D2*%
X107780300Y-121096200D03*
D12*
%TO.P,J3,2,Pin_2*%
%TO.N,/D3*%
X110320300Y-121096200D03*
%TO.P,J3,3,Pin_3*%
%TO.N,/D4*%
X112860300Y-121096200D03*
%TO.P,J3,4,Pin_4*%
%TO.N,/D5*%
X115400300Y-121096200D03*
%TO.P,J3,5,Pin_5*%
%TO.N,/D6*%
X117940300Y-121096200D03*
%TO.P,J3,6,Pin_6*%
%TO.N,/D7*%
X120480300Y-121096200D03*
%TO.P,J3,7,Pin_7*%
%TO.N,/D8*%
X123020300Y-121096200D03*
%TO.P,J3,8,Pin_8*%
%TO.N,GND*%
X125560300Y-121096200D03*
%TO.P,J3,9,Pin_9*%
%TO.N,/Vcc*%
X128100300Y-121096200D03*
%TD*%
D21*
%TO.P,Y1,1,1*%
%TO.N,Net-(U2-X2)*%
X103716300Y-113028200D03*
%TO.P,Y1,2,2*%
%TO.N,Net-(U2-X1)*%
X103716300Y-107828200D03*
%TD*%
D22*
%TO.P,Y2,1,1*%
%TO.N,Net-(U4-PB7)*%
X121606000Y-114554000D03*
%TO.P,Y2,2,2*%
%TO.N,Net-(U4-PB6)*%
X126806000Y-114554000D03*
%TD*%
D11*
%TO.P,J2,1,Pin_1*%
%TO.N,GND*%
X134348700Y-121147000D03*
D12*
%TO.P,J2,2,Pin_2*%
%TO.N,/Vcc*%
X136888700Y-121147000D03*
%TO.P,J2,3,Pin_3*%
%TO.N,/RX*%
X139428700Y-121147000D03*
%TO.P,J2,4,Pin_4*%
%TO.N,/TX*%
X141968700Y-121147000D03*
%TD*%
D11*
%TO.P,J1,1,Pin_1*%
%TO.N,GND*%
X146773900Y-107903000D03*
D12*
%TO.P,J1,2,Pin_2*%
%TO.N,/Vcc*%
X146773900Y-110443000D03*
%TO.P,J1,3,Pin_3*%
%TO.N,/SDA*%
X146773900Y-112983000D03*
%TO.P,J1,4,Pin_4*%
%TO.N,/SCK*%
X146773900Y-115523000D03*
%TD*%
D13*
%TO.P,R2,1*%
%TO.N,/Vcc*%
X113233200Y-116433600D03*
%TO.P,R2,2*%
%TO.N,Net-(U2-SQW{slash}~INT)*%
X115058200Y-116433600D03*
%TD*%
D16*
%TO.P,U1,1,A0*%
%TO.N,/Vcc*%
X107664500Y-101868400D03*
%TO.P,U1,2,A1*%
X107664500Y-103138400D03*
%TO.P,U1,3,A2*%
X107664500Y-104408400D03*
%TO.P,U1,4,GND*%
%TO.N,GND*%
X107664500Y-105678400D03*
%TO.P,U1,5,SDA*%
%TO.N,/SDA*%
X114839500Y-105678400D03*
%TO.P,U1,6,SCL*%
%TO.N,/SCK*%
X114839500Y-104408400D03*
%TO.P,U1,7,WP*%
%TO.N,GND*%
X114839500Y-103138400D03*
%TO.P,U1,8,VCC*%
%TO.N,/Vcc*%
X114839500Y-101868400D03*
%TD*%
D10*
%TO.P,C5,1*%
%TO.N,/Vcc*%
X130167900Y-94273800D03*
%TO.P,C5,2*%
%TO.N,GND*%
X128267900Y-94273800D03*
%TD*%
D17*
%TO.P,R4,1*%
%TO.N,/Vcc*%
X136166400Y-106301000D03*
%TO.P,R4,2*%
%TO.N,/SCK*%
X134341400Y-106301000D03*
%TD*%
D23*
%TO.N,/SDA*%
X125831600Y-101854000D03*
X117094000Y-99771200D03*
%TO.N,/Vcc*%
X137414000Y-106273600D03*
X137363200Y-102260400D03*
X125669200Y-103479600D03*
X122021600Y-103886000D03*
X130200400Y-95453200D03*
X113385600Y-94589600D03*
X105206800Y-95961200D03*
X113639600Y-101803200D03*
X105968800Y-104394000D03*
X110947200Y-115112800D03*
%TO.N,GND*%
X123139200Y-103936800D03*
X138633200Y-99872800D03*
X128267900Y-95451100D03*
X110693200Y-97180400D03*
X113334800Y-95910400D03*
X113588800Y-103124000D03*
X126390400Y-103835200D03*
X138633200Y-112623600D03*
X106984800Y-113436400D03*
X105968800Y-105613200D03*
%TO.N,/RESET*%
X125120400Y-97955197D03*
%TO.N,/MISO*%
X129032000Y-109270800D03*
%TO.N,/SCK*%
X121920000Y-97817800D03*
X125120400Y-98755200D03*
%TO.N,Net-(U4-PB6)*%
X132420600Y-114706400D03*
X130819600Y-114604800D03*
%TO.N,/SCK*%
X135072706Y-105127667D03*
X143572592Y-110994721D03*
%TO.N,/SDA*%
X135229600Y-104343200D03*
X142646400Y-109159600D03*
%TO.N,Net-(U4-AREF)*%
X134183729Y-109159600D03*
X130079450Y-105969985D03*
%TO.N,Net-(U4-PB7)*%
X119613600Y-112623600D03*
%TO.N,Net-(U4-PB6)*%
X126847600Y-112217200D03*
X122275600Y-106375200D03*
%TO.N,Net-(U4-PB7)*%
X117998800Y-106984800D03*
X116779600Y-102319273D03*
%TO.N,/SCK*%
X132420600Y-106273600D03*
X130819600Y-106273600D03*
%TO.N,/SDA*%
X130819600Y-101092000D03*
X132420600Y-101092000D03*
%TO.N,/MOSI*%
X126695200Y-106984800D03*
X133502400Y-108559600D03*
%TD*%
D24*
%TO.N,/SDA*%
X125831600Y-100130600D02*
X125869200Y-100093000D01*
X125831600Y-101854000D02*
X125831600Y-100130600D01*
X117087900Y-99765100D02*
X117094000Y-99771200D01*
X116128800Y-99765100D02*
X117087900Y-99765100D01*
X125869200Y-98616000D02*
X125869200Y-100093000D01*
X114839500Y-105678400D02*
X115651999Y-105678400D01*
X126802200Y-97683000D02*
X125869200Y-98616000D01*
X129881900Y-97683000D02*
X126802200Y-97683000D01*
X131018600Y-98819700D02*
X129881900Y-97683000D01*
X131018600Y-100893000D02*
X131018600Y-98819700D01*
X130819600Y-101092000D02*
X131018600Y-100893000D01*
%TO.N,/Vcc*%
X137386600Y-106301000D02*
X137414000Y-106273600D01*
X136166400Y-106301000D02*
X137386600Y-106301000D01*
X137425400Y-102198200D02*
X137363200Y-102260400D01*
X138673400Y-102198200D02*
X137425400Y-102198200D01*
X137335800Y-102287800D02*
X137363200Y-102260400D01*
X136166400Y-102287800D02*
X137335800Y-102287800D01*
X125669200Y-103977600D02*
X125669200Y-103479600D01*
X127954600Y-106263000D02*
X125669200Y-103977600D01*
X128839200Y-106263000D02*
X127954600Y-106263000D01*
X121998600Y-103863000D02*
X122021600Y-103886000D01*
X120499200Y-103863000D02*
X121998600Y-103863000D01*
X130167900Y-95420700D02*
X130200400Y-95453200D01*
X130167900Y-94273800D02*
X130167900Y-95420700D01*
X113411000Y-94615000D02*
X113385600Y-94589600D01*
X114788700Y-94615000D02*
X113411000Y-94615000D01*
X105968800Y-95961200D02*
X105206800Y-95961200D01*
X105968800Y-95961200D02*
X105968800Y-95447401D01*
X113704800Y-101868400D02*
X113639600Y-101803200D01*
X114839500Y-101868400D02*
X113704800Y-101868400D01*
X105983200Y-104408400D02*
X105968800Y-104394000D01*
X107664500Y-104408400D02*
X105983200Y-104408400D01*
X110943400Y-115116600D02*
X110947200Y-115112800D01*
X110943400Y-116535200D02*
X110943400Y-115116600D01*
%TO.N,GND*%
X122265400Y-103063000D02*
X123139200Y-103936800D01*
X120499200Y-103063000D02*
X122265400Y-103063000D01*
X122413000Y-104663000D02*
X123139200Y-103936800D01*
X120499200Y-104663000D02*
X122413000Y-104663000D01*
X138633200Y-111048800D02*
X138023600Y-110439200D01*
X138633200Y-112623600D02*
X138633200Y-111048800D01*
X138023600Y-110439200D02*
X136128800Y-110439200D01*
X138097800Y-115089400D02*
X136223900Y-115089400D01*
X138633200Y-114554000D02*
X138097800Y-115089400D01*
X138633200Y-112623600D02*
X138633200Y-114554000D01*
%TO.N,Net-(U4-AREF)*%
X134183729Y-110510929D02*
X134213600Y-110540800D01*
X134183729Y-109159600D02*
X134183729Y-110510929D01*
%TO.N,GND*%
X138633200Y-99872800D02*
X137007600Y-99872800D01*
X136166400Y-99031600D02*
X136166400Y-98274600D01*
X140106400Y-99872800D02*
X138633200Y-99872800D01*
X140612500Y-99366700D02*
X140106400Y-99872800D01*
X137007600Y-99872800D02*
X136166400Y-99031600D01*
X140612500Y-98247200D02*
X140612500Y-99366700D01*
X128267900Y-95451100D02*
X128270000Y-95453200D01*
X128267900Y-94273800D02*
X128267900Y-95451100D01*
X109677200Y-97180400D02*
X110693200Y-97180400D01*
X109677200Y-97180400D02*
X109677200Y-97688400D01*
X113360200Y-95885000D02*
X113334800Y-95910400D01*
X114788700Y-95885000D02*
X113360200Y-95885000D01*
X113603200Y-103138400D02*
X113588800Y-103124000D01*
X114839500Y-103138400D02*
X113603200Y-103138400D01*
X126418200Y-103863000D02*
X126390400Y-103835200D01*
X128839200Y-103863000D02*
X126418200Y-103863000D01*
X107010200Y-113411000D02*
X106984800Y-113436400D01*
X108980200Y-113411000D02*
X107010200Y-113411000D01*
X106034000Y-105678400D02*
X105968800Y-105613200D01*
X107664500Y-105678400D02*
X106034000Y-105678400D01*
%TO.N,/RESET*%
X125070460Y-97955197D02*
X125120400Y-97955197D01*
X124269200Y-98756457D02*
X125070460Y-97955197D01*
X124269200Y-100093000D02*
X124269200Y-98756457D01*
%TO.N,Net-(U4-PB6)*%
X130098800Y-114554000D02*
X126806000Y-114554000D01*
X130149600Y-114604800D02*
X130098800Y-114554000D01*
X130819600Y-114604800D02*
X130149600Y-114604800D01*
%TO.N,/SCK*%
X146773900Y-114854474D02*
X146773900Y-115523000D01*
X143572592Y-111653166D02*
X146773900Y-114854474D01*
X143572592Y-110994721D02*
X143572592Y-111653166D01*
X134341400Y-105976416D02*
X134341400Y-106301000D01*
X135072706Y-105245110D02*
X134341400Y-105976416D01*
X135072706Y-105127667D02*
X135072706Y-105245110D01*
%TO.N,/MISO*%
X128194200Y-108433000D02*
X129032000Y-109270800D01*
X127469200Y-108433000D02*
X128194200Y-108433000D01*
%TO.N,Net-(U2-SQW{slash}~INT)*%
X115366800Y-115671600D02*
X115366800Y-116125000D01*
X115366800Y-116125000D02*
X115058200Y-116433600D01*
X112644200Y-111079000D02*
X112644200Y-113789520D01*
X113459480Y-114604800D02*
X114300000Y-114604800D01*
X112852200Y-110871000D02*
X112644200Y-111079000D01*
X114300000Y-114604800D02*
X115366800Y-115671600D01*
X112644200Y-113789520D02*
X113459480Y-114604800D01*
X113930200Y-110871000D02*
X112852200Y-110871000D01*
%TO.N,/SCK*%
X121257200Y-97155000D02*
X114788700Y-97155000D01*
X121920000Y-97817800D02*
X121257200Y-97155000D01*
X125069200Y-98806400D02*
X125120400Y-98755200D01*
X125069200Y-100093000D02*
X125069200Y-98806400D01*
X128104200Y-107063000D02*
X128839200Y-107063000D01*
X125069200Y-104028000D02*
X128104200Y-107063000D01*
X125069200Y-100093000D02*
X125069200Y-104028000D01*
%TO.N,Net-(U4-PB6)*%
X132803600Y-115089400D02*
X134323900Y-115089400D01*
X132420600Y-114706400D02*
X132803600Y-115089400D01*
%TO.N,/SDA*%
X142646400Y-109220000D02*
X146409400Y-112983000D01*
X146409400Y-112983000D02*
X146773900Y-112983000D01*
X142646400Y-109159600D02*
X142646400Y-109220000D01*
X134341400Y-103404200D02*
X134341400Y-102287800D01*
X135229600Y-104292400D02*
X134341400Y-103404200D01*
X135229600Y-104343200D02*
X135229600Y-104292400D01*
%TO.N,Net-(U4-AREF)*%
X130079450Y-105168250D02*
X130079450Y-105969985D01*
X129574200Y-104663000D02*
X130079450Y-105168250D01*
X128839200Y-104663000D02*
X129574200Y-104663000D01*
%TO.N,Net-(U4-PB7)*%
X119764200Y-107063000D02*
X120499200Y-107063000D01*
X119686000Y-106984800D02*
X119764200Y-107063000D01*
X117998800Y-106984800D02*
X119686000Y-106984800D01*
X119613600Y-112623600D02*
X121544000Y-114554000D01*
X121544000Y-114554000D02*
X121606000Y-114554000D01*
%TO.N,Net-(U4-PB6)*%
X122275600Y-106375200D02*
X120611400Y-106375200D01*
X120611400Y-106375200D02*
X120499200Y-106263000D01*
X126806000Y-112258800D02*
X126847600Y-112217200D01*
X126806000Y-114554000D02*
X126806000Y-112258800D01*
%TO.N,Net-(U4-PB7)*%
X120681073Y-98417800D02*
X116779600Y-102319273D01*
X122503100Y-98417800D02*
X120681073Y-98417800D01*
X125799100Y-95121800D02*
X122503100Y-98417800D01*
X125799100Y-94273800D02*
X125799100Y-95121800D01*
%TO.N,Net-(D1-K)*%
X138787500Y-94412500D02*
X138750000Y-94375000D01*
X138787500Y-98247200D02*
X138787500Y-94412500D01*
%TO.N,Net-(D2-K)*%
X134341400Y-94378000D02*
X134356400Y-94363000D01*
X134341400Y-98274600D02*
X134341400Y-94378000D01*
%TO.N,/SDA*%
X132221600Y-101142800D02*
X132369800Y-101142800D01*
X132369800Y-101142800D02*
X132420600Y-101092000D01*
X133366600Y-102287800D02*
X132221600Y-101142800D01*
X134341400Y-102287800D02*
X133366600Y-102287800D01*
%TO.N,/MOSI*%
X126695200Y-108407000D02*
X126669200Y-108433000D01*
X126695200Y-106984800D02*
X126695200Y-108407000D01*
X143002000Y-108559600D02*
X142900400Y-108559600D01*
X143865600Y-107696000D02*
X143002000Y-108559600D01*
X142900400Y-108559600D02*
X133502400Y-108559600D01*
X143865600Y-106426000D02*
X143865600Y-107696000D01*
X144119600Y-106172000D02*
X143865600Y-106426000D01*
X145931000Y-101617400D02*
X145931000Y-104360600D01*
X145931000Y-104360600D02*
X144119600Y-106172000D01*
X147320000Y-100228400D02*
X145931000Y-101617400D01*
%TO.N,/RESET*%
X144209800Y-102198200D02*
X144780000Y-102768400D01*
X140498400Y-102198200D02*
X144209800Y-102198200D01*
%TO.N,/SCK*%
X143916400Y-99364800D02*
X144780000Y-100228400D01*
X142494000Y-99364800D02*
X143916400Y-99364800D01*
X141771400Y-94375000D02*
X142494000Y-95097600D01*
X142494000Y-95097600D02*
X142494000Y-99364800D01*
X140625000Y-94375000D02*
X141771400Y-94375000D01*
%TO.N,/Vcc*%
X131079700Y-93362000D02*
X135230400Y-93362000D01*
X130167900Y-94273800D02*
X131079700Y-93362000D01*
X135230400Y-93362000D02*
X136231400Y-94363000D01*
%TO.N,/SCK*%
X114118000Y-104408400D02*
X114839500Y-104408400D01*
X114013010Y-106324400D02*
X113726000Y-106037390D01*
X115468400Y-106324400D02*
X114013010Y-106324400D01*
X115789400Y-106645400D02*
X115468400Y-106324400D01*
X113726000Y-106037390D02*
X113726000Y-104800400D01*
X115789400Y-111540600D02*
X115789400Y-106645400D01*
X115250800Y-112079200D02*
X115789400Y-111540600D01*
X113726000Y-104800400D02*
X114118000Y-104408400D01*
X114319300Y-112079200D02*
X115250800Y-112079200D01*
%TO.N,/Vcc*%
X112166400Y-111810800D02*
X112166400Y-110794800D01*
X112166400Y-115366800D02*
X112166400Y-110794800D01*
X113233200Y-116433600D02*
X112166400Y-115366800D01*
X113422000Y-109539200D02*
X114319300Y-109539200D01*
X112166400Y-110794800D02*
X113422000Y-109539200D01*
%TO.N,Net-(U2-~{INTA})*%
X110354300Y-112079200D02*
X109369300Y-112079200D01*
X110655300Y-113880700D02*
X110655300Y-112380200D01*
X109118400Y-116535200D02*
X109118400Y-115417600D01*
X109118400Y-115417600D02*
X110655300Y-113880700D01*
X110655300Y-112380200D02*
X110354300Y-112079200D01*
%TO.N,/SCK*%
X112623600Y-103581200D02*
X113450800Y-104408400D01*
X113450800Y-104408400D02*
X114839500Y-104408400D01*
X112623600Y-98145600D02*
X112623600Y-103581200D01*
X113614200Y-97155000D02*
X112623600Y-98145600D01*
X114788700Y-97155000D02*
X113614200Y-97155000D01*
%TO.N,GND*%
X121125500Y-94273800D02*
X123899100Y-94273800D01*
X119514300Y-95885000D02*
X121125500Y-94273800D01*
X114788700Y-95885000D02*
X119514300Y-95885000D01*
%TO.N,/Vcc*%
X118884300Y-94615000D02*
X119225500Y-94273800D01*
X114788700Y-94615000D02*
X118884300Y-94615000D01*
%TO.N,GND*%
X109677200Y-97688400D02*
X108940600Y-98425000D01*
X108940600Y-98425000D02*
X107613700Y-98425000D01*
X109677200Y-96520000D02*
X109677200Y-97180400D01*
X109042200Y-95885000D02*
X109677200Y-96520000D01*
X107613700Y-95885000D02*
X109042200Y-95885000D01*
%TO.N,/Vcc*%
X105968800Y-95447401D02*
X106801201Y-94615000D01*
X105968800Y-96418400D02*
X105968800Y-95961200D01*
X106705400Y-97155000D02*
X105968800Y-96418400D01*
X107613700Y-97155000D02*
X106705400Y-97155000D01*
X106801201Y-94615000D02*
X107613700Y-94615000D01*
X107664500Y-101868400D02*
X107664500Y-104408400D01*
%TO.N,Net-(U2-X2)*%
X105935300Y-110809200D02*
X109674100Y-110809200D01*
X103716300Y-113028200D02*
X105935300Y-110809200D01*
%TO.N,Net-(U2-X1)*%
X105427300Y-109539200D02*
X109674100Y-109539200D01*
X103716300Y-107828200D02*
X105427300Y-109539200D01*
%TO.N,/Vcc*%
X113131600Y-116535200D02*
X113233200Y-116433600D01*
X110943400Y-116535200D02*
X113131600Y-116535200D01*
%TO.N,/TX*%
X122669200Y-98818800D02*
X122669200Y-100093000D01*
X124607000Y-96881000D02*
X122669200Y-98818800D01*
X130214100Y-96881000D02*
X124607000Y-96881000D01*
X131820600Y-98487500D02*
X130214100Y-96881000D01*
X131820600Y-115505500D02*
X131820600Y-98487500D01*
X134684500Y-118369400D02*
X131820600Y-115505500D01*
X139191100Y-118369400D02*
X134684500Y-118369400D01*
X141968700Y-121147000D02*
X139191100Y-118369400D01*
%TO.N,/RX*%
X123469200Y-98628400D02*
X123469200Y-100093000D01*
X130048000Y-97282000D02*
X124815600Y-97282000D01*
X131419600Y-98653600D02*
X130048000Y-97282000D01*
X131419600Y-115671600D02*
X131419600Y-98653600D01*
X124815600Y-97282000D02*
X123469200Y-98628400D01*
X134518400Y-118770400D02*
X131419600Y-115671600D01*
X139428700Y-121147000D02*
X137052100Y-118770400D01*
X137052100Y-118770400D02*
X134518400Y-118770400D01*
%TO.N,/D5*%
X117810600Y-118685900D02*
X115400300Y-121096200D01*
X117810600Y-110273100D02*
X117810600Y-118685900D01*
X121234200Y-109068000D02*
X119015700Y-109068000D01*
X121869200Y-108433000D02*
X121234200Y-109068000D01*
X119015700Y-109068000D02*
X117810600Y-110273100D01*
%TO.N,/D6*%
X118211600Y-120824900D02*
X117940300Y-121096200D01*
X118211600Y-110439200D02*
X118211600Y-120824900D01*
X122305212Y-109469000D02*
X119181800Y-109469000D01*
X122743900Y-109030312D02*
X122305212Y-109469000D01*
X119181800Y-109469000D02*
X118211600Y-110439200D01*
X122743900Y-108433000D02*
X122743900Y-109030312D01*
%TO.N,/D5*%
X121943900Y-108433000D02*
X121869200Y-108433000D01*
%TO.N,/D8*%
X124269200Y-109030312D02*
X124269200Y-108433000D01*
X123028512Y-110271000D02*
X124269200Y-109030312D01*
X119514000Y-110271000D02*
X123028512Y-110271000D01*
X123020300Y-121096200D02*
X119013600Y-117089500D01*
X119013600Y-117089500D02*
X119013600Y-110771400D01*
X119013600Y-110771400D02*
X119514000Y-110271000D01*
%TO.N,/D7*%
X118612600Y-119228500D02*
X120480300Y-121096200D01*
X122841900Y-109870000D02*
X119347900Y-109870000D01*
X123543900Y-109168000D02*
X122841900Y-109870000D01*
X119347900Y-109870000D02*
X118612600Y-110605300D01*
X123543900Y-108433000D02*
X123543900Y-109168000D01*
X118612600Y-110605300D02*
X118612600Y-119228500D01*
%TO.N,/D4*%
X120573900Y-102263000D02*
X118818600Y-102263000D01*
X118818600Y-102263000D02*
X117398800Y-103682800D01*
X117398800Y-103682800D02*
X117398800Y-117906800D01*
X117398800Y-117906800D02*
X116027200Y-119278400D01*
X116027200Y-119278400D02*
X114678100Y-119278400D01*
X114678100Y-119278400D02*
X112860300Y-121096200D01*
%TO.N,/D3*%
X120573900Y-101463000D02*
X119051500Y-101463000D01*
X119051500Y-101463000D02*
X116992400Y-103522100D01*
X116992400Y-103522100D02*
X116992400Y-117746100D01*
X116992400Y-117746100D02*
X115861100Y-118877400D01*
X112539100Y-118877400D02*
X110320300Y-121096200D01*
%TO.N,/D2*%
X116591400Y-103356000D02*
X119854400Y-100093000D01*
%TO.N,/D3*%
X115861100Y-118877400D02*
X112539100Y-118877400D01*
%TO.N,/D2*%
X116591400Y-117580000D02*
X116591400Y-103356000D01*
X110400100Y-118476400D02*
X115695000Y-118476400D01*
X115695000Y-118476400D02*
X116591400Y-117580000D01*
X119854400Y-100093000D02*
X121869200Y-100093000D01*
X107780300Y-121096200D02*
X110400100Y-118476400D01*
%TO.N,/SCK*%
X130819600Y-106273600D02*
X130030200Y-107063000D01*
X130030200Y-107063000D02*
X128839200Y-107063000D01*
X134341400Y-106301000D02*
X132448000Y-106301000D01*
X132420600Y-106273600D02*
X132448000Y-106301000D01*
%TO.N,/SDA*%
X116190400Y-106216801D02*
X115651999Y-105678400D01*
X116190400Y-112612800D02*
X116190400Y-106216801D01*
X113930200Y-113411000D02*
X115392200Y-113411000D01*
X115392200Y-113411000D02*
X116190400Y-112612800D01*
X116128800Y-99765100D02*
X114788700Y-98425000D01*
X116128800Y-105201599D02*
X116128800Y-99765100D01*
X115651999Y-105678400D02*
X116128800Y-105201599D01*
%TD*%
M02*
