%TF.GenerationSoftware,KiCad,Pcbnew,9.0.4*%
%TF.CreationDate,2025-12-07T20:09:45+03:30*%
%TF.ProjectId,MCU_Datalogger003_4Layer,4d43555f-4461-4746-916c-6f6767657230,2*%
%TF.SameCoordinates,Original*%
%TF.FileFunction,Copper,L4,Bot*%
%TF.FilePolarity,Positive*%
%FSLAX46Y46*%
G04 Gerber Fmt 4.6, Leading zero omitted, Abs format (unit mm)*
G04 Created by KiCad (PCBNEW 9.0.4) date 2025-12-07 20:09:45*
%MOMM*%
%LPD*%
G01*
G04 APERTURE LIST*
%TA.AperFunction,ComponentPad*%
%ADD10R,1.700000X1.700000*%
%TD*%
%TA.AperFunction,ComponentPad*%
%ADD11C,1.700000*%
%TD*%
%TA.AperFunction,ViaPad*%
%ADD12C,0.600000*%
%TD*%
G04 APERTURE END LIST*
D10*
%TO.P,J4,1,Pin_1*%
%TO.N,/MISO*%
X144780000Y-97688400D03*
D11*
%TO.P,J4,2,Pin_2*%
%TO.N,/Vcc*%
X147320000Y-97688400D03*
%TO.P,J4,3,Pin_3*%
%TO.N,/SCK*%
X144780000Y-100228400D03*
%TO.P,J4,4,Pin_4*%
%TO.N,/MOSI*%
X147320000Y-100228400D03*
%TO.P,J4,5,Pin_5*%
%TO.N,/RESET*%
X144780000Y-102768400D03*
%TO.P,J4,6,Pin_6*%
%TO.N,GND*%
X147320000Y-102768400D03*
%TD*%
D10*
%TO.P,BT1,1,+*%
%TO.N,/Vcc*%
X103360700Y-100827000D03*
D11*
%TO.P,BT1,2,-*%
%TO.N,GND*%
X103360700Y-98287000D03*
%TD*%
D10*
%TO.P,J3,1,Pin_1*%
%TO.N,/D2*%
X107780300Y-121096200D03*
D11*
%TO.P,J3,2,Pin_2*%
%TO.N,/D3*%
X110320300Y-121096200D03*
%TO.P,J3,3,Pin_3*%
%TO.N,/D4*%
X112860300Y-121096200D03*
%TO.P,J3,4,Pin_4*%
%TO.N,/D5*%
X115400300Y-121096200D03*
%TO.P,J3,5,Pin_5*%
%TO.N,/D6*%
X117940300Y-121096200D03*
%TO.P,J3,6,Pin_6*%
%TO.N,/D7*%
X120480300Y-121096200D03*
%TO.P,J3,7,Pin_7*%
%TO.N,/D8*%
X123020300Y-121096200D03*
%TO.P,J3,8,Pin_8*%
%TO.N,GND*%
X125560300Y-121096200D03*
%TO.P,J3,9,Pin_9*%
%TO.N,/Vcc*%
X128100300Y-121096200D03*
%TD*%
D10*
%TO.P,J2,1,Pin_1*%
%TO.N,GND*%
X134348700Y-121147000D03*
D11*
%TO.P,J2,2,Pin_2*%
%TO.N,/Vcc*%
X136888700Y-121147000D03*
%TO.P,J2,3,Pin_3*%
%TO.N,/RX*%
X139428700Y-121147000D03*
%TO.P,J2,4,Pin_4*%
%TO.N,/TX*%
X141968700Y-121147000D03*
%TD*%
D10*
%TO.P,J1,1,Pin_1*%
%TO.N,GND*%
X146773900Y-107903000D03*
D11*
%TO.P,J1,2,Pin_2*%
%TO.N,/Vcc*%
X146773900Y-110443000D03*
%TO.P,J1,3,Pin_3*%
%TO.N,/SDA*%
X146773900Y-112983000D03*
%TO.P,J1,4,Pin_4*%
%TO.N,/SCK*%
X146773900Y-115523000D03*
%TD*%
D12*
%TO.N,/SDA*%
X125831600Y-101854000D03*
X117094000Y-99771200D03*
%TO.N,/Vcc*%
X137414000Y-106273600D03*
X137363200Y-102260400D03*
X125669200Y-103479600D03*
X122021600Y-103886000D03*
X130200400Y-95453200D03*
X113385600Y-94589600D03*
X105206800Y-95961200D03*
X113639600Y-101803200D03*
X105968800Y-104394000D03*
X110947200Y-115112800D03*
%TO.N,GND*%
X123139200Y-103936800D03*
X138633200Y-99872800D03*
X128267900Y-95451100D03*
X110693200Y-97180400D03*
X113334800Y-95910400D03*
X113588800Y-103124000D03*
X126390400Y-103835200D03*
X138633200Y-112623600D03*
X106984800Y-113436400D03*
X105968800Y-105613200D03*
%TO.N,/RESET*%
X125120400Y-97955197D03*
%TO.N,/MISO*%
X129032000Y-109270800D03*
%TO.N,/SCK*%
X121920000Y-97817800D03*
X125120400Y-98755200D03*
%TO.N,Net-(U4-PB6)*%
X132420600Y-114706400D03*
X130819600Y-114604800D03*
%TO.N,/SCK*%
X135072706Y-105127667D03*
X143572592Y-110994721D03*
%TO.N,/SDA*%
X135229600Y-104343200D03*
X142646400Y-109159600D03*
%TO.N,Net-(U4-AREF)*%
X134183729Y-109159600D03*
X130079450Y-105969985D03*
%TO.N,Net-(U4-PB7)*%
X119613600Y-112623600D03*
%TO.N,Net-(U4-PB6)*%
X126847600Y-112217200D03*
X122275600Y-106375200D03*
%TO.N,Net-(U4-PB7)*%
X117998800Y-106984800D03*
X116779600Y-102319273D03*
%TO.N,/SCK*%
X132420600Y-106273600D03*
X130819600Y-106273600D03*
%TO.N,/SDA*%
X130819600Y-101092000D03*
X132420600Y-101092000D03*
%TO.N,/MOSI*%
X126695200Y-106984800D03*
X133502400Y-108559600D03*
%TD*%
%TA.AperFunction,Conductor*%
%TO.N,GND*%
G36*
X146121444Y-100882399D02*
G01*
X146160486Y-100927456D01*
X146164951Y-100936220D01*
X146289890Y-101108186D01*
X146440213Y-101258509D01*
X146612179Y-101383448D01*
X146612181Y-101383449D01*
X146612184Y-101383451D01*
X146621493Y-101388194D01*
X146672290Y-101436166D01*
X146689087Y-101503987D01*
X146666552Y-101570122D01*
X146621505Y-101609160D01*
X146612446Y-101613776D01*
X146612440Y-101613780D01*
X146558282Y-101653127D01*
X146558282Y-101653128D01*
X147190591Y-102285437D01*
X147127007Y-102302475D01*
X147012993Y-102368301D01*
X146919901Y-102461393D01*
X146854075Y-102575407D01*
X146837037Y-102638991D01*
X146204728Y-102006682D01*
X146204727Y-102006682D01*
X146165380Y-102060840D01*
X146165376Y-102060846D01*
X146160760Y-102069905D01*
X146112781Y-102120697D01*
X146044959Y-102137487D01*
X145978826Y-102114943D01*
X145939794Y-102069893D01*
X145935051Y-102060584D01*
X145935049Y-102060581D01*
X145935048Y-102060579D01*
X145810109Y-101888613D01*
X145659786Y-101738290D01*
X145487820Y-101613351D01*
X145487115Y-101612991D01*
X145479054Y-101608885D01*
X145428259Y-101560912D01*
X145411463Y-101493092D01*
X145433999Y-101426956D01*
X145479054Y-101387915D01*
X145487816Y-101383451D01*
X145519960Y-101360097D01*
X145659786Y-101258509D01*
X145659788Y-101258506D01*
X145659792Y-101258504D01*
X145810104Y-101108192D01*
X145810106Y-101108188D01*
X145810109Y-101108186D01*
X145935048Y-100936220D01*
X145935047Y-100936220D01*
X145935051Y-100936216D01*
X145939514Y-100927454D01*
X145987488Y-100876659D01*
X146055308Y-100859863D01*
X146121444Y-100882399D01*
G37*
%TD.AperFunction*%
%TA.AperFunction,Conductor*%
G36*
X146183529Y-92982056D02*
G01*
X146193977Y-92990380D01*
X148962070Y-95450907D01*
X149664060Y-96074898D01*
X149701088Y-96134149D01*
X149700205Y-96204013D01*
X149669361Y-96255257D01*
X149584238Y-96340381D01*
X149584235Y-96340385D01*
X149518343Y-96454511D01*
X149484234Y-96581811D01*
X149484235Y-96648405D01*
X149484235Y-119362370D01*
X149484234Y-119479251D01*
X149464549Y-119546290D01*
X149442987Y-119571597D01*
X145780438Y-122853622D01*
X145717374Y-122883702D01*
X145697882Y-122885275D01*
X112835586Y-122937500D01*
X105116591Y-122937500D01*
X105049552Y-122917815D01*
X105003797Y-122865011D01*
X104993853Y-122795853D01*
X104994049Y-122794542D01*
X105003600Y-122732800D01*
X102469135Y-120198335D01*
X106429800Y-120198335D01*
X106429800Y-121994070D01*
X106429801Y-121994076D01*
X106436208Y-122053683D01*
X106486502Y-122188528D01*
X106486506Y-122188535D01*
X106572752Y-122303744D01*
X106572755Y-122303747D01*
X106687964Y-122389993D01*
X106687971Y-122389997D01*
X106822817Y-122440291D01*
X106822816Y-122440291D01*
X106829744Y-122441035D01*
X106882427Y-122446700D01*
X108678172Y-122446699D01*
X108737783Y-122440291D01*
X108872631Y-122389996D01*
X108987846Y-122303746D01*
X109074096Y-122188531D01*
X109123110Y-122057116D01*
X109164981Y-122001184D01*
X109230445Y-121976766D01*
X109298718Y-121991617D01*
X109326973Y-122012769D01*
X109440513Y-122126309D01*
X109612479Y-122251248D01*
X109612481Y-122251249D01*
X109612484Y-122251251D01*
X109801888Y-122347757D01*
X110004057Y-122413446D01*
X110214013Y-122446700D01*
X110214014Y-122446700D01*
X110426586Y-122446700D01*
X110426587Y-122446700D01*
X110636543Y-122413446D01*
X110838712Y-122347757D01*
X111028116Y-122251251D01*
X111114438Y-122188535D01*
X111200086Y-122126309D01*
X111200088Y-122126306D01*
X111200092Y-122126304D01*
X111350404Y-121975992D01*
X111350406Y-121975988D01*
X111350409Y-121975986D01*
X111475348Y-121804020D01*
X111475347Y-121804020D01*
X111475351Y-121804016D01*
X111479814Y-121795254D01*
X111527788Y-121744459D01*
X111595608Y-121727663D01*
X111661744Y-121750199D01*
X111700784Y-121795254D01*
X111703712Y-121800999D01*
X111705251Y-121804020D01*
X111830190Y-121975986D01*
X111980513Y-122126309D01*
X112152479Y-122251248D01*
X112152481Y-122251249D01*
X112152484Y-122251251D01*
X112341888Y-122347757D01*
X112544057Y-122413446D01*
X112754013Y-122446700D01*
X112754014Y-122446700D01*
X112966586Y-122446700D01*
X112966587Y-122446700D01*
X113176543Y-122413446D01*
X113378712Y-122347757D01*
X113568116Y-122251251D01*
X113654438Y-122188535D01*
X113740086Y-122126309D01*
X113740088Y-122126306D01*
X113740092Y-122126304D01*
X113890404Y-121975992D01*
X113890406Y-121975988D01*
X113890409Y-121975986D01*
X114015348Y-121804020D01*
X114015347Y-121804020D01*
X114015351Y-121804016D01*
X114019814Y-121795254D01*
X114067788Y-121744459D01*
X114135608Y-121727663D01*
X114201744Y-121750199D01*
X114240784Y-121795254D01*
X114243712Y-121800999D01*
X114245251Y-121804020D01*
X114370190Y-121975986D01*
X114520513Y-122126309D01*
X114692479Y-122251248D01*
X114692481Y-122251249D01*
X114692484Y-122251251D01*
X114881888Y-122347757D01*
X115084057Y-122413446D01*
X115294013Y-122446700D01*
X115294014Y-122446700D01*
X115506586Y-122446700D01*
X115506587Y-122446700D01*
X115716543Y-122413446D01*
X115918712Y-122347757D01*
X116108116Y-122251251D01*
X116194438Y-122188535D01*
X116280086Y-122126309D01*
X116280088Y-122126306D01*
X116280092Y-122126304D01*
X116430404Y-121975992D01*
X116430406Y-121975988D01*
X116430409Y-121975986D01*
X116555348Y-121804020D01*
X116555347Y-121804020D01*
X116555351Y-121804016D01*
X116559814Y-121795254D01*
X116607788Y-121744459D01*
X116675608Y-121727663D01*
X116741744Y-121750199D01*
X116780784Y-121795254D01*
X116783712Y-121800999D01*
X116785251Y-121804020D01*
X116910190Y-121975986D01*
X117060513Y-122126309D01*
X117232479Y-122251248D01*
X117232481Y-122251249D01*
X117232484Y-122251251D01*
X117421888Y-122347757D01*
X117624057Y-122413446D01*
X117834013Y-122446700D01*
X117834014Y-122446700D01*
X118046586Y-122446700D01*
X118046587Y-122446700D01*
X118256543Y-122413446D01*
X118458712Y-122347757D01*
X118648116Y-122251251D01*
X118734438Y-122188535D01*
X118820086Y-122126309D01*
X118820088Y-122126306D01*
X118820092Y-122126304D01*
X118970404Y-121975992D01*
X118970406Y-121975988D01*
X118970409Y-121975986D01*
X119095348Y-121804020D01*
X119095347Y-121804020D01*
X119095351Y-121804016D01*
X119099814Y-121795254D01*
X119147788Y-121744459D01*
X119215608Y-121727663D01*
X119281744Y-121750199D01*
X119320784Y-121795254D01*
X119323712Y-121800999D01*
X119325251Y-121804020D01*
X119450190Y-121975986D01*
X119600513Y-122126309D01*
X119772479Y-122251248D01*
X119772481Y-122251249D01*
X119772484Y-122251251D01*
X119961888Y-122347757D01*
X120164057Y-122413446D01*
X120374013Y-122446700D01*
X120374014Y-122446700D01*
X120586586Y-122446700D01*
X120586587Y-122446700D01*
X120796543Y-122413446D01*
X120998712Y-122347757D01*
X121188116Y-122251251D01*
X121274438Y-122188535D01*
X121360086Y-122126309D01*
X121360088Y-122126306D01*
X121360092Y-122126304D01*
X121510404Y-121975992D01*
X121510406Y-121975988D01*
X121510409Y-121975986D01*
X121635348Y-121804020D01*
X121635347Y-121804020D01*
X121635351Y-121804016D01*
X121639814Y-121795254D01*
X121687788Y-121744459D01*
X121755608Y-121727663D01*
X121821744Y-121750199D01*
X121860784Y-121795254D01*
X121863712Y-121800999D01*
X121865251Y-121804020D01*
X121990190Y-121975986D01*
X122140513Y-122126309D01*
X122312479Y-122251248D01*
X122312481Y-122251249D01*
X122312484Y-122251251D01*
X122501888Y-122347757D01*
X122704057Y-122413446D01*
X122914013Y-122446700D01*
X122914014Y-122446700D01*
X123126586Y-122446700D01*
X123126587Y-122446700D01*
X123336543Y-122413446D01*
X123538712Y-122347757D01*
X123728116Y-122251251D01*
X123814438Y-122188535D01*
X123900086Y-122126309D01*
X123900088Y-122126306D01*
X123900092Y-122126304D01*
X124050404Y-121975992D01*
X124050406Y-121975988D01*
X124050409Y-121975986D01*
X124136190Y-121857917D01*
X124175351Y-121804016D01*
X124180093Y-121794708D01*
X124228063Y-121743911D01*
X124295883Y-121727111D01*
X124362019Y-121749645D01*
X124401063Y-121794700D01*
X124405673Y-121803747D01*
X124445028Y-121857916D01*
X125077337Y-121225608D01*
X125094375Y-121289193D01*
X125160201Y-121403207D01*
X125253293Y-121496299D01*
X125367307Y-121562125D01*
X125430890Y-121579162D01*
X124798582Y-122211469D01*
X124798582Y-122211470D01*
X124852749Y-122250824D01*
X125042082Y-122347295D01*
X125244170Y-122412957D01*
X125454054Y-122446200D01*
X125666546Y-122446200D01*
X125876427Y-122412957D01*
X125876430Y-122412957D01*
X126078517Y-122347295D01*
X126267854Y-122250822D01*
X126322016Y-122211470D01*
X126322017Y-122211470D01*
X125689708Y-121579162D01*
X125753293Y-121562125D01*
X125867307Y-121496299D01*
X125960399Y-121403207D01*
X126026225Y-121289193D01*
X126043262Y-121225608D01*
X126675570Y-121857917D01*
X126675570Y-121857916D01*
X126714922Y-121803755D01*
X126719532Y-121794707D01*
X126767505Y-121743909D01*
X126835325Y-121727112D01*
X126901461Y-121749647D01*
X126940504Y-121794704D01*
X126945249Y-121804017D01*
X127070190Y-121975986D01*
X127220513Y-122126309D01*
X127392479Y-122251248D01*
X127392481Y-122251249D01*
X127392484Y-122251251D01*
X127581888Y-122347757D01*
X127784057Y-122413446D01*
X127994013Y-122446700D01*
X127994014Y-122446700D01*
X128206586Y-122446700D01*
X128206587Y-122446700D01*
X128416543Y-122413446D01*
X128618712Y-122347757D01*
X128808116Y-122251251D01*
X128894438Y-122188535D01*
X128980086Y-122126309D01*
X128980088Y-122126306D01*
X128980092Y-122126304D01*
X129130404Y-121975992D01*
X129130406Y-121975988D01*
X129130409Y-121975986D01*
X129255348Y-121804020D01*
X129255347Y-121804020D01*
X129255351Y-121804016D01*
X129351857Y-121614612D01*
X129417546Y-121412443D01*
X129450800Y-121202487D01*
X129450800Y-120989913D01*
X129417546Y-120779957D01*
X129351857Y-120577788D01*
X129255351Y-120388384D01*
X129255349Y-120388381D01*
X129255348Y-120388379D01*
X129154197Y-120249155D01*
X132998700Y-120249155D01*
X132998700Y-120897000D01*
X133915688Y-120897000D01*
X133882775Y-120954007D01*
X133848700Y-121081174D01*
X133848700Y-121212826D01*
X133882775Y-121339993D01*
X133915688Y-121397000D01*
X132998700Y-121397000D01*
X132998700Y-122044844D01*
X133005101Y-122104372D01*
X133005103Y-122104379D01*
X133055345Y-122239086D01*
X133055349Y-122239093D01*
X133141509Y-122354187D01*
X133141512Y-122354190D01*
X133256606Y-122440350D01*
X133256613Y-122440354D01*
X133391320Y-122490596D01*
X133391327Y-122490598D01*
X133450855Y-122496999D01*
X133450872Y-122497000D01*
X134098700Y-122497000D01*
X134098700Y-121580012D01*
X134155707Y-121612925D01*
X134282874Y-121647000D01*
X134414526Y-121647000D01*
X134541693Y-121612925D01*
X134598700Y-121580012D01*
X134598700Y-122497000D01*
X135246528Y-122497000D01*
X135246544Y-122496999D01*
X135306072Y-122490598D01*
X135306079Y-122490596D01*
X135440786Y-122440354D01*
X135440793Y-122440350D01*
X135555887Y-122354190D01*
X135555890Y-122354187D01*
X135642050Y-122239093D01*
X135642054Y-122239086D01*
X135691122Y-122107529D01*
X135732993Y-122051595D01*
X135798457Y-122027178D01*
X135866730Y-122042030D01*
X135894985Y-122063181D01*
X136008913Y-122177109D01*
X136180879Y-122302048D01*
X136180881Y-122302049D01*
X136180884Y-122302051D01*
X136370288Y-122398557D01*
X136572457Y-122464246D01*
X136782413Y-122497500D01*
X136782414Y-122497500D01*
X136994986Y-122497500D01*
X136994987Y-122497500D01*
X137204943Y-122464246D01*
X137407112Y-122398557D01*
X137596516Y-122302051D01*
X137666441Y-122251248D01*
X137768486Y-122177109D01*
X137768488Y-122177106D01*
X137768492Y-122177104D01*
X137918804Y-122026792D01*
X137918806Y-122026788D01*
X137918809Y-122026786D01*
X138043748Y-121854820D01*
X138043747Y-121854820D01*
X138043751Y-121854816D01*
X138048214Y-121846054D01*
X138096188Y-121795259D01*
X138164008Y-121778463D01*
X138230144Y-121800999D01*
X138269186Y-121846056D01*
X138273651Y-121854820D01*
X138398590Y-122026786D01*
X138548913Y-122177109D01*
X138720879Y-122302048D01*
X138720881Y-122302049D01*
X138720884Y-122302051D01*
X138910288Y-122398557D01*
X139112457Y-122464246D01*
X139322413Y-122497500D01*
X139322414Y-122497500D01*
X139534986Y-122497500D01*
X139534987Y-122497500D01*
X139744943Y-122464246D01*
X139947112Y-122398557D01*
X140136516Y-122302051D01*
X140206441Y-122251248D01*
X140308486Y-122177109D01*
X140308488Y-122177106D01*
X140308492Y-122177104D01*
X140458804Y-122026792D01*
X140458806Y-122026788D01*
X140458809Y-122026786D01*
X140583748Y-121854820D01*
X140583747Y-121854820D01*
X140583751Y-121854816D01*
X140588214Y-121846054D01*
X140636188Y-121795259D01*
X140704008Y-121778463D01*
X140770144Y-121800999D01*
X140809186Y-121846056D01*
X140813651Y-121854820D01*
X140938590Y-122026786D01*
X141088913Y-122177109D01*
X141260879Y-122302048D01*
X141260881Y-122302049D01*
X141260884Y-122302051D01*
X141450288Y-122398557D01*
X141652457Y-122464246D01*
X141862413Y-122497500D01*
X141862414Y-122497500D01*
X142074986Y-122497500D01*
X142074987Y-122497500D01*
X142284943Y-122464246D01*
X142487112Y-122398557D01*
X142676516Y-122302051D01*
X142746441Y-122251248D01*
X142848486Y-122177109D01*
X142848488Y-122177106D01*
X142848492Y-122177104D01*
X142998804Y-122026792D01*
X142998806Y-122026788D01*
X142998809Y-122026786D01*
X143123748Y-121854820D01*
X143123747Y-121854820D01*
X143123751Y-121854816D01*
X143170321Y-121763417D01*
X144348203Y-121763417D01*
X145314508Y-121761882D01*
X145850203Y-121281843D01*
X145850203Y-120707069D01*
X144348203Y-120707069D01*
X144348203Y-121763417D01*
X143170321Y-121763417D01*
X143220257Y-121665412D01*
X143285946Y-121463243D01*
X143319200Y-121253287D01*
X143319200Y-121040713D01*
X143285946Y-120830757D01*
X143220257Y-120628588D01*
X143123751Y-120439184D01*
X143123749Y-120439181D01*
X143123748Y-120439179D01*
X142998809Y-120267213D01*
X142848486Y-120116890D01*
X142676520Y-119991951D01*
X142487114Y-119895444D01*
X142487113Y-119895443D01*
X142487112Y-119895443D01*
X142284943Y-119829754D01*
X142284941Y-119829753D01*
X142284940Y-119829753D01*
X142123657Y-119804208D01*
X142074987Y-119796500D01*
X141862413Y-119796500D01*
X141813742Y-119804208D01*
X141652460Y-119829753D01*
X141605215Y-119845104D01*
X141471189Y-119888652D01*
X141450285Y-119895444D01*
X141260879Y-119991951D01*
X141088913Y-120116890D01*
X140938590Y-120267213D01*
X140813649Y-120439182D01*
X140809184Y-120447946D01*
X140761209Y-120498742D01*
X140693388Y-120515536D01*
X140627253Y-120492998D01*
X140588216Y-120447946D01*
X140583750Y-120439182D01*
X140458809Y-120267213D01*
X140308486Y-120116890D01*
X140136520Y-119991951D01*
X139947114Y-119895444D01*
X139947113Y-119895443D01*
X139947112Y-119895443D01*
X139744943Y-119829754D01*
X139744941Y-119829753D01*
X139744940Y-119829753D01*
X139583657Y-119804208D01*
X139534987Y-119796500D01*
X139322413Y-119796500D01*
X139273742Y-119804208D01*
X139112460Y-119829753D01*
X139065215Y-119845104D01*
X138931189Y-119888652D01*
X138910285Y-119895444D01*
X138720879Y-119991951D01*
X138548913Y-120116890D01*
X138398590Y-120267213D01*
X138273649Y-120439182D01*
X138269184Y-120447946D01*
X138221209Y-120498742D01*
X138153388Y-120515536D01*
X138087253Y-120492998D01*
X138048216Y-120447946D01*
X138043750Y-120439182D01*
X137918809Y-120267213D01*
X137768486Y-120116890D01*
X137596520Y-119991951D01*
X137407114Y-119895444D01*
X137407113Y-119895443D01*
X137407112Y-119895443D01*
X137204943Y-119829754D01*
X137204941Y-119829753D01*
X137204940Y-119829753D01*
X137043657Y-119804208D01*
X136994987Y-119796500D01*
X136782413Y-119796500D01*
X136733742Y-119804208D01*
X136572460Y-119829753D01*
X136525215Y-119845104D01*
X136391189Y-119888652D01*
X136370285Y-119895444D01*
X136180879Y-119991951D01*
X136008915Y-120116889D01*
X135894985Y-120230819D01*
X135833662Y-120264303D01*
X135763970Y-120259319D01*
X135708037Y-120217447D01*
X135691122Y-120186470D01*
X135642054Y-120054913D01*
X135642050Y-120054906D01*
X135555890Y-119939812D01*
X135555887Y-119939809D01*
X135440793Y-119853649D01*
X135440786Y-119853645D01*
X135306079Y-119803403D01*
X135306072Y-119803401D01*
X135246544Y-119797000D01*
X134598700Y-119797000D01*
X134598700Y-120713988D01*
X134541693Y-120681075D01*
X134414526Y-120647000D01*
X134282874Y-120647000D01*
X134155707Y-120681075D01*
X134098700Y-120713988D01*
X134098700Y-119797000D01*
X133450855Y-119797000D01*
X133391327Y-119803401D01*
X133391320Y-119803403D01*
X133256613Y-119853645D01*
X133256606Y-119853649D01*
X133141512Y-119939809D01*
X133141509Y-119939812D01*
X133055349Y-120054906D01*
X133055345Y-120054913D01*
X133005103Y-120189620D01*
X133005101Y-120189627D01*
X132998700Y-120249155D01*
X129154197Y-120249155D01*
X129130409Y-120216413D01*
X128980086Y-120066090D01*
X128808120Y-119941151D01*
X128618714Y-119844644D01*
X128618713Y-119844643D01*
X128618712Y-119844643D01*
X128416543Y-119778954D01*
X128416541Y-119778953D01*
X128416540Y-119778953D01*
X128255257Y-119753408D01*
X128206587Y-119745700D01*
X127994013Y-119745700D01*
X127945342Y-119753408D01*
X127784060Y-119778953D01*
X127708817Y-119803401D01*
X127627715Y-119829753D01*
X127581885Y-119844644D01*
X127392479Y-119941151D01*
X127220513Y-120066090D01*
X127070190Y-120216413D01*
X126945249Y-120388382D01*
X126940502Y-120397699D01*
X126892527Y-120448493D01*
X126824705Y-120465287D01*
X126758571Y-120442748D01*
X126719534Y-120397695D01*
X126714926Y-120388652D01*
X126675570Y-120334482D01*
X126675569Y-120334482D01*
X126043262Y-120966790D01*
X126026225Y-120903207D01*
X125960399Y-120789193D01*
X125867307Y-120696101D01*
X125753293Y-120630275D01*
X125689709Y-120613237D01*
X126322016Y-119980928D01*
X126267850Y-119941575D01*
X126078517Y-119845104D01*
X125876429Y-119779442D01*
X125666546Y-119746200D01*
X125454054Y-119746200D01*
X125244172Y-119779442D01*
X125244169Y-119779442D01*
X125042082Y-119845104D01*
X124852739Y-119941580D01*
X124798582Y-119980927D01*
X124798582Y-119980928D01*
X125430891Y-120613237D01*
X125367307Y-120630275D01*
X125253293Y-120696101D01*
X125160201Y-120789193D01*
X125094375Y-120903207D01*
X125077337Y-120966791D01*
X124445028Y-120334482D01*
X124445027Y-120334482D01*
X124405680Y-120388640D01*
X124405676Y-120388646D01*
X124401060Y-120397705D01*
X124353081Y-120448497D01*
X124285259Y-120465287D01*
X124219126Y-120442743D01*
X124180094Y-120397693D01*
X124175351Y-120388384D01*
X124175349Y-120388381D01*
X124175348Y-120388379D01*
X124050409Y-120216413D01*
X123900086Y-120066090D01*
X123728120Y-119941151D01*
X123538714Y-119844644D01*
X123538713Y-119844643D01*
X123538712Y-119844643D01*
X123336543Y-119778954D01*
X123336541Y-119778953D01*
X123336540Y-119778953D01*
X123175257Y-119753408D01*
X123126587Y-119745700D01*
X122914013Y-119745700D01*
X122865342Y-119753408D01*
X122704060Y-119778953D01*
X122628817Y-119803401D01*
X122547715Y-119829753D01*
X122501885Y-119844644D01*
X122312479Y-119941151D01*
X122140513Y-120066090D01*
X121990190Y-120216413D01*
X121865249Y-120388382D01*
X121860784Y-120397146D01*
X121812809Y-120447942D01*
X121744988Y-120464736D01*
X121678853Y-120442198D01*
X121639816Y-120397146D01*
X121635350Y-120388382D01*
X121510409Y-120216413D01*
X121360086Y-120066090D01*
X121188120Y-119941151D01*
X120998714Y-119844644D01*
X120998713Y-119844643D01*
X120998712Y-119844643D01*
X120796543Y-119778954D01*
X120796541Y-119778953D01*
X120796540Y-119778953D01*
X120635257Y-119753408D01*
X120586587Y-119745700D01*
X120374013Y-119745700D01*
X120325342Y-119753408D01*
X120164060Y-119778953D01*
X120088817Y-119803401D01*
X120007715Y-119829753D01*
X119961885Y-119844644D01*
X119772479Y-119941151D01*
X119600513Y-120066090D01*
X119450190Y-120216413D01*
X119325249Y-120388382D01*
X119320784Y-120397146D01*
X119272809Y-120447942D01*
X119204988Y-120464736D01*
X119138853Y-120442198D01*
X119099816Y-120397146D01*
X119095350Y-120388382D01*
X118970409Y-120216413D01*
X118820086Y-120066090D01*
X118648120Y-119941151D01*
X118458714Y-119844644D01*
X118458713Y-119844643D01*
X118458712Y-119844643D01*
X118256543Y-119778954D01*
X118256541Y-119778953D01*
X118256540Y-119778953D01*
X118095257Y-119753408D01*
X118046587Y-119745700D01*
X117834013Y-119745700D01*
X117785342Y-119753408D01*
X117624060Y-119778953D01*
X117548817Y-119803401D01*
X117467715Y-119829753D01*
X117421885Y-119844644D01*
X117232479Y-119941151D01*
X117060513Y-120066090D01*
X116910190Y-120216413D01*
X116785249Y-120388382D01*
X116780784Y-120397146D01*
X116732809Y-120447942D01*
X116664988Y-120464736D01*
X116598853Y-120442198D01*
X116559816Y-120397146D01*
X116555350Y-120388382D01*
X116430409Y-120216413D01*
X116280086Y-120066090D01*
X116108120Y-119941151D01*
X115918714Y-119844644D01*
X115918713Y-119844643D01*
X115918712Y-119844643D01*
X115716543Y-119778954D01*
X115716541Y-119778953D01*
X115716540Y-119778953D01*
X115555257Y-119753408D01*
X115506587Y-119745700D01*
X115294013Y-119745700D01*
X115245342Y-119753408D01*
X115084060Y-119778953D01*
X115008817Y-119803401D01*
X114927715Y-119829753D01*
X114881885Y-119844644D01*
X114692479Y-119941151D01*
X114520513Y-120066090D01*
X114370190Y-120216413D01*
X114245249Y-120388382D01*
X114240784Y-120397146D01*
X114192809Y-120447942D01*
X114124988Y-120464736D01*
X114058853Y-120442198D01*
X114019816Y-120397146D01*
X114015350Y-120388382D01*
X113890409Y-120216413D01*
X113740086Y-120066090D01*
X113568120Y-119941151D01*
X113378714Y-119844644D01*
X113378713Y-119844643D01*
X113378712Y-119844643D01*
X113176543Y-119778954D01*
X113176541Y-119778953D01*
X113176540Y-119778953D01*
X113015257Y-119753408D01*
X112966587Y-119745700D01*
X112754013Y-119745700D01*
X112705342Y-119753408D01*
X112544060Y-119778953D01*
X112468817Y-119803401D01*
X112387715Y-119829753D01*
X112341885Y-119844644D01*
X112152479Y-119941151D01*
X111980513Y-120066090D01*
X111830190Y-120216413D01*
X111705249Y-120388382D01*
X111700784Y-120397146D01*
X111652809Y-120447942D01*
X111584988Y-120464736D01*
X111518853Y-120442198D01*
X111479816Y-120397146D01*
X111475350Y-120388382D01*
X111350409Y-120216413D01*
X111200086Y-120066090D01*
X111028120Y-119941151D01*
X110838714Y-119844644D01*
X110838713Y-119844643D01*
X110838712Y-119844643D01*
X110636543Y-119778954D01*
X110636541Y-119778953D01*
X110636540Y-119778953D01*
X110475257Y-119753408D01*
X110426587Y-119745700D01*
X110214013Y-119745700D01*
X110165342Y-119753408D01*
X110004060Y-119778953D01*
X109928817Y-119803401D01*
X109847715Y-119829753D01*
X109801885Y-119844644D01*
X109612479Y-119941151D01*
X109440515Y-120066089D01*
X109326973Y-120179631D01*
X109265650Y-120213115D01*
X109195958Y-120208131D01*
X109140025Y-120166259D01*
X109123110Y-120135282D01*
X109074097Y-120003871D01*
X109074093Y-120003864D01*
X108987847Y-119888655D01*
X108987844Y-119888652D01*
X108872635Y-119802406D01*
X108872628Y-119802402D01*
X108737782Y-119752108D01*
X108737783Y-119752108D01*
X108678183Y-119745701D01*
X108678181Y-119745700D01*
X108678173Y-119745700D01*
X108678164Y-119745700D01*
X106882429Y-119745700D01*
X106882423Y-119745701D01*
X106822816Y-119752108D01*
X106687971Y-119802402D01*
X106687964Y-119802406D01*
X106572755Y-119888652D01*
X106572752Y-119888655D01*
X106486506Y-120003864D01*
X106486502Y-120003871D01*
X106436208Y-120138717D01*
X106429801Y-120198316D01*
X106429800Y-120198335D01*
X102469135Y-120198335D01*
X101979869Y-119709069D01*
X104348203Y-119709069D01*
X105531301Y-119709069D01*
X105563887Y-119621699D01*
X105567275Y-119613518D01*
X105589533Y-119564781D01*
X105593495Y-119556867D01*
X105627672Y-119494277D01*
X105632190Y-119486663D01*
X105661154Y-119441596D01*
X105666202Y-119434326D01*
X105795186Y-119262027D01*
X105800739Y-119255136D01*
X105835819Y-119214651D01*
X105841851Y-119208172D01*
X105850203Y-119199820D01*
X105850203Y-119104426D01*
X126848203Y-119104426D01*
X126850227Y-119103074D01*
X126852397Y-119101685D01*
X129348203Y-119101685D01*
X129350373Y-119103074D01*
X129374868Y-119119440D01*
X129378865Y-119122226D01*
X129582569Y-119270225D01*
X129586457Y-119273168D01*
X129609616Y-119291427D01*
X129613381Y-119294517D01*
X129643188Y-119319978D01*
X129646827Y-119323212D01*
X129668432Y-119343186D01*
X129671936Y-119346556D01*
X129849944Y-119524564D01*
X129853314Y-119528068D01*
X129873288Y-119549673D01*
X129876522Y-119553312D01*
X129901983Y-119583119D01*
X129905073Y-119586884D01*
X129923332Y-119610043D01*
X129926275Y-119613931D01*
X129995397Y-119709069D01*
X130850203Y-119709069D01*
X131848203Y-119709069D01*
X132119180Y-119709069D01*
X144348203Y-119709069D01*
X145850203Y-119709069D01*
X146848203Y-119709069D01*
X147605329Y-119709069D01*
X148350203Y-119041583D01*
X148350203Y-118207069D01*
X146848203Y-118207069D01*
X146848203Y-119709069D01*
X145850203Y-119709069D01*
X145850203Y-118207069D01*
X144348203Y-118207069D01*
X144348203Y-119709069D01*
X132119180Y-119709069D01*
X132132730Y-119672739D01*
X132136119Y-119664559D01*
X132158377Y-119615823D01*
X132162338Y-119607909D01*
X132196515Y-119545319D01*
X132201033Y-119537705D01*
X132229997Y-119492638D01*
X132235045Y-119485368D01*
X132363943Y-119313184D01*
X132369496Y-119306293D01*
X132404576Y-119265808D01*
X132410608Y-119259329D01*
X132461029Y-119208908D01*
X132467508Y-119202876D01*
X132507993Y-119167796D01*
X132514884Y-119162243D01*
X132687068Y-119033345D01*
X132694338Y-119028297D01*
X132739405Y-118999333D01*
X132747019Y-118994815D01*
X132809609Y-118960638D01*
X132817523Y-118956677D01*
X132866259Y-118934419D01*
X132874439Y-118931030D01*
X133071796Y-118857421D01*
X133079136Y-118854942D01*
X133124005Y-118841332D01*
X133131488Y-118839315D01*
X133192199Y-118824972D01*
X133199784Y-118823428D01*
X133245962Y-118815522D01*
X133253631Y-118814455D01*
X133303786Y-118809062D01*
X134348203Y-118809062D01*
X134348700Y-118809268D01*
X134350702Y-118808439D01*
X134398154Y-118799000D01*
X135259877Y-118799000D01*
X135263191Y-118799044D01*
X135283239Y-118799580D01*
X135286555Y-118799713D01*
X135313242Y-118801142D01*
X135316556Y-118801364D01*
X135336605Y-118802977D01*
X135339917Y-118803289D01*
X135443769Y-118814455D01*
X135451438Y-118815522D01*
X135497616Y-118823428D01*
X135505201Y-118824972D01*
X135565912Y-118839315D01*
X135573395Y-118841332D01*
X135618264Y-118854942D01*
X135625604Y-118857421D01*
X135822961Y-118931030D01*
X135831141Y-118934419D01*
X135850203Y-118943124D01*
X135850203Y-118798500D01*
X136848203Y-118798500D01*
X137014597Y-118798500D01*
X137019469Y-118798596D01*
X137048921Y-118799754D01*
X137053786Y-118800041D01*
X137092865Y-118803119D01*
X137097703Y-118803596D01*
X137126936Y-118807056D01*
X137131759Y-118807723D01*
X137380428Y-118847108D01*
X137385223Y-118847964D01*
X137414123Y-118853713D01*
X137418883Y-118854758D01*
X137457000Y-118863911D01*
X137461705Y-118865138D01*
X137490047Y-118873131D01*
X137494707Y-118874545D01*
X137734140Y-118952342D01*
X137738737Y-118953936D01*
X137766347Y-118964121D01*
X137770875Y-118965893D01*
X137807092Y-118980891D01*
X137811561Y-118982846D01*
X137838336Y-118995189D01*
X137842719Y-118997314D01*
X138067061Y-119111622D01*
X138071354Y-119113917D01*
X138097050Y-119128307D01*
X138101250Y-119130769D01*
X138134673Y-119151250D01*
X138138773Y-119153874D01*
X138158700Y-119167187D01*
X138178627Y-119153874D01*
X138182727Y-119151250D01*
X138216150Y-119130769D01*
X138220350Y-119128307D01*
X138246046Y-119113917D01*
X138250339Y-119111622D01*
X138350203Y-119060738D01*
X138350203Y-118798500D01*
X139348203Y-118798500D01*
X139554597Y-118798500D01*
X139559469Y-118798596D01*
X139588921Y-118799754D01*
X139593786Y-118800041D01*
X139632865Y-118803119D01*
X139637703Y-118803596D01*
X139666936Y-118807056D01*
X139671759Y-118807723D01*
X139920428Y-118847108D01*
X139925223Y-118847964D01*
X139954123Y-118853713D01*
X139958883Y-118854758D01*
X139997000Y-118863911D01*
X140001705Y-118865138D01*
X140030047Y-118873131D01*
X140034707Y-118874545D01*
X140274140Y-118952342D01*
X140278737Y-118953936D01*
X140306347Y-118964121D01*
X140310875Y-118965893D01*
X140347092Y-118980891D01*
X140351561Y-118982846D01*
X140378336Y-118995189D01*
X140382719Y-118997314D01*
X140607061Y-119111622D01*
X140611354Y-119113917D01*
X140637050Y-119128307D01*
X140641250Y-119130769D01*
X140674673Y-119151250D01*
X140678773Y-119153874D01*
X140698700Y-119167187D01*
X140718627Y-119153874D01*
X140722727Y-119151250D01*
X140756150Y-119130769D01*
X140760350Y-119128307D01*
X140786046Y-119113917D01*
X140790339Y-119111622D01*
X140850203Y-119081119D01*
X140850203Y-118798500D01*
X141848203Y-118798500D01*
X142094597Y-118798500D01*
X142099469Y-118798596D01*
X142128921Y-118799754D01*
X142133786Y-118800041D01*
X142172865Y-118803119D01*
X142177703Y-118803596D01*
X142206936Y-118807056D01*
X142211759Y-118807723D01*
X142460428Y-118847108D01*
X142465223Y-118847964D01*
X142494123Y-118853713D01*
X142498883Y-118854758D01*
X142537000Y-118863911D01*
X142541705Y-118865138D01*
X142570047Y-118873131D01*
X142574707Y-118874545D01*
X142814140Y-118952342D01*
X142818737Y-118953936D01*
X142846347Y-118964121D01*
X142850875Y-118965893D01*
X142887092Y-118980891D01*
X142891561Y-118982846D01*
X142918336Y-118995189D01*
X142922719Y-118997314D01*
X143147061Y-119111622D01*
X143151354Y-119113917D01*
X143177050Y-119128307D01*
X143181250Y-119130769D01*
X143214673Y-119151250D01*
X143218773Y-119153874D01*
X143243268Y-119170240D01*
X143247265Y-119173026D01*
X143350203Y-119247814D01*
X143350203Y-118207069D01*
X141848203Y-118207069D01*
X141848203Y-118798500D01*
X140850203Y-118798500D01*
X140850203Y-118207069D01*
X139348203Y-118207069D01*
X139348203Y-118798500D01*
X138350203Y-118798500D01*
X138350203Y-118207069D01*
X136848203Y-118207069D01*
X136848203Y-118798500D01*
X135850203Y-118798500D01*
X135850203Y-118207069D01*
X134348203Y-118207069D01*
X134348203Y-118809062D01*
X133303786Y-118809062D01*
X133350203Y-118804071D01*
X133350203Y-118207069D01*
X131848203Y-118207069D01*
X131848203Y-119709069D01*
X130850203Y-119709069D01*
X130850203Y-118207069D01*
X129348203Y-118207069D01*
X129348203Y-119101685D01*
X126852397Y-119101685D01*
X126854327Y-119100450D01*
X126887750Y-119079969D01*
X126891950Y-119077507D01*
X126917646Y-119063117D01*
X126921939Y-119060822D01*
X127146281Y-118946514D01*
X127150664Y-118944389D01*
X127177439Y-118932046D01*
X127181908Y-118930091D01*
X127218125Y-118915093D01*
X127222653Y-118913321D01*
X127250263Y-118903136D01*
X127254860Y-118901542D01*
X127494293Y-118823745D01*
X127498953Y-118822331D01*
X127527295Y-118814338D01*
X127532000Y-118813111D01*
X127570117Y-118803958D01*
X127574877Y-118802913D01*
X127603777Y-118797164D01*
X127608572Y-118796308D01*
X127857241Y-118756923D01*
X127862064Y-118756256D01*
X127891297Y-118752796D01*
X127896135Y-118752319D01*
X127935214Y-118749241D01*
X127940079Y-118748954D01*
X127969531Y-118747796D01*
X127974403Y-118747700D01*
X128226197Y-118747700D01*
X128231069Y-118747796D01*
X128260521Y-118748954D01*
X128265386Y-118749241D01*
X128304465Y-118752319D01*
X128309303Y-118752796D01*
X128338536Y-118756256D01*
X128343358Y-118756923D01*
X128350203Y-118758007D01*
X128350203Y-118207069D01*
X126848203Y-118207069D01*
X126848203Y-119104426D01*
X105850203Y-119104426D01*
X105850203Y-119080286D01*
X124348203Y-119080286D01*
X124352256Y-119077910D01*
X124377922Y-119063537D01*
X124382214Y-119061243D01*
X124606454Y-118946986D01*
X124610832Y-118944863D01*
X124637576Y-118932533D01*
X124642039Y-118930580D01*
X124678256Y-118915578D01*
X124682791Y-118913804D01*
X124710436Y-118903605D01*
X124715037Y-118902009D01*
X124954430Y-118824226D01*
X124959094Y-118822811D01*
X124987471Y-118814809D01*
X124992187Y-118813579D01*
X125030304Y-118804431D01*
X125035056Y-118803389D01*
X125063919Y-118797649D01*
X125068707Y-118796794D01*
X125317280Y-118757423D01*
X125322104Y-118756755D01*
X125351338Y-118753295D01*
X125356175Y-118752819D01*
X125395254Y-118749741D01*
X125400119Y-118749454D01*
X125429571Y-118748296D01*
X125434443Y-118748200D01*
X125686157Y-118748200D01*
X125691029Y-118748296D01*
X125720481Y-118749454D01*
X125725346Y-118749741D01*
X125764425Y-118752819D01*
X125769262Y-118753295D01*
X125798496Y-118756755D01*
X125803320Y-118757423D01*
X125850203Y-118764848D01*
X125850203Y-118207069D01*
X124348203Y-118207069D01*
X124348203Y-119080286D01*
X105850203Y-119080286D01*
X105850203Y-119057630D01*
X121848203Y-119057630D01*
X122066281Y-118946514D01*
X122070664Y-118944389D01*
X122097439Y-118932046D01*
X122101908Y-118930091D01*
X122138125Y-118915093D01*
X122142653Y-118913321D01*
X122170263Y-118903136D01*
X122174860Y-118901542D01*
X122414293Y-118823745D01*
X122418953Y-118822331D01*
X122447295Y-118814338D01*
X122452000Y-118813111D01*
X122490117Y-118803958D01*
X122494877Y-118802913D01*
X122523777Y-118797164D01*
X122528572Y-118796308D01*
X122777241Y-118756923D01*
X122782064Y-118756256D01*
X122811297Y-118752796D01*
X122816135Y-118752319D01*
X122855214Y-118749241D01*
X122860079Y-118748954D01*
X122889531Y-118747796D01*
X122894403Y-118747700D01*
X123146197Y-118747700D01*
X123151069Y-118747796D01*
X123180521Y-118748954D01*
X123185386Y-118749241D01*
X123224465Y-118752319D01*
X123229303Y-118752796D01*
X123258536Y-118756256D01*
X123263358Y-118756923D01*
X123350203Y-118770677D01*
X123350203Y-118207069D01*
X121848203Y-118207069D01*
X121848203Y-119057630D01*
X105850203Y-119057630D01*
X105850203Y-119037249D01*
X119348203Y-119037249D01*
X119526281Y-118946514D01*
X119530664Y-118944389D01*
X119557439Y-118932046D01*
X119561908Y-118930091D01*
X119598125Y-118915093D01*
X119602653Y-118913321D01*
X119630263Y-118903136D01*
X119634860Y-118901542D01*
X119874293Y-118823745D01*
X119878953Y-118822331D01*
X119907295Y-118814338D01*
X119912000Y-118813111D01*
X119950117Y-118803958D01*
X119954877Y-118802913D01*
X119983777Y-118797164D01*
X119988572Y-118796308D01*
X120237241Y-118756923D01*
X120242064Y-118756256D01*
X120271297Y-118752796D01*
X120276135Y-118752319D01*
X120315214Y-118749241D01*
X120320079Y-118748954D01*
X120349531Y-118747796D01*
X120354403Y-118747700D01*
X120606197Y-118747700D01*
X120611069Y-118747796D01*
X120640521Y-118748954D01*
X120645386Y-118749241D01*
X120684465Y-118752319D01*
X120689303Y-118752796D01*
X120718536Y-118756256D01*
X120723359Y-118756923D01*
X120850203Y-118777012D01*
X120850203Y-118207069D01*
X119348203Y-118207069D01*
X119348203Y-119037249D01*
X105850203Y-119037249D01*
X105850203Y-119016868D01*
X116848203Y-119016868D01*
X116986281Y-118946514D01*
X116990664Y-118944389D01*
X117017439Y-118932046D01*
X117021908Y-118930091D01*
X117058125Y-118915093D01*
X117062653Y-118913321D01*
X117090263Y-118903136D01*
X117094860Y-118901542D01*
X117334293Y-118823745D01*
X117338953Y-118822331D01*
X117367295Y-118814338D01*
X117372000Y-118813111D01*
X117410117Y-118803958D01*
X117414877Y-118802913D01*
X117443777Y-118797164D01*
X117448572Y-118796308D01*
X117697241Y-118756923D01*
X117702064Y-118756256D01*
X117731297Y-118752796D01*
X117736135Y-118752319D01*
X117775214Y-118749241D01*
X117780079Y-118748954D01*
X117809531Y-118747796D01*
X117814403Y-118747700D01*
X118066197Y-118747700D01*
X118071069Y-118747796D01*
X118100521Y-118748954D01*
X118105386Y-118749241D01*
X118144465Y-118752319D01*
X118149303Y-118752796D01*
X118178536Y-118756256D01*
X118183359Y-118756923D01*
X118350203Y-118783348D01*
X118350203Y-118207069D01*
X116848203Y-118207069D01*
X116848203Y-119016868D01*
X105850203Y-119016868D01*
X105850203Y-118996487D01*
X114348203Y-118996487D01*
X114446281Y-118946514D01*
X114450664Y-118944389D01*
X114477439Y-118932046D01*
X114481908Y-118930091D01*
X114518125Y-118915093D01*
X114522653Y-118913321D01*
X114550263Y-118903136D01*
X114554860Y-118901542D01*
X114794293Y-118823745D01*
X114798953Y-118822331D01*
X114827295Y-118814338D01*
X114832000Y-118813111D01*
X114870117Y-118803958D01*
X114874877Y-118802913D01*
X114903777Y-118797164D01*
X114908572Y-118796308D01*
X115157241Y-118756923D01*
X115162064Y-118756256D01*
X115191297Y-118752796D01*
X115196135Y-118752319D01*
X115235214Y-118749241D01*
X115240079Y-118748954D01*
X115269531Y-118747796D01*
X115274403Y-118747700D01*
X115526197Y-118747700D01*
X115531069Y-118747796D01*
X115560521Y-118748954D01*
X115565386Y-118749241D01*
X115604465Y-118752319D01*
X115609303Y-118752796D01*
X115638536Y-118756256D01*
X115643359Y-118756923D01*
X115850203Y-118789683D01*
X115850203Y-118207069D01*
X114348203Y-118207069D01*
X114348203Y-118996487D01*
X105850203Y-118996487D01*
X105850203Y-118976106D01*
X111848203Y-118976106D01*
X111906281Y-118946514D01*
X111910664Y-118944389D01*
X111937439Y-118932046D01*
X111941908Y-118930091D01*
X111978125Y-118915093D01*
X111982653Y-118913321D01*
X112010263Y-118903136D01*
X112014860Y-118901542D01*
X112254293Y-118823745D01*
X112258953Y-118822331D01*
X112287295Y-118814338D01*
X112292000Y-118813111D01*
X112330117Y-118803958D01*
X112334877Y-118802913D01*
X112363777Y-118797164D01*
X112368572Y-118796308D01*
X112617241Y-118756923D01*
X112622064Y-118756256D01*
X112651297Y-118752796D01*
X112656135Y-118752319D01*
X112695214Y-118749241D01*
X112700079Y-118748954D01*
X112729531Y-118747796D01*
X112734403Y-118747700D01*
X112986197Y-118747700D01*
X112991069Y-118747796D01*
X113020521Y-118748954D01*
X113025386Y-118749241D01*
X113064465Y-118752319D01*
X113069303Y-118752796D01*
X113098536Y-118756256D01*
X113103359Y-118756923D01*
X113350203Y-118796018D01*
X113350203Y-118207069D01*
X111848203Y-118207069D01*
X111848203Y-118976106D01*
X105850203Y-118976106D01*
X105850203Y-118924995D01*
X109348203Y-118924995D01*
X109377742Y-118941125D01*
X109397439Y-118932046D01*
X109401908Y-118930091D01*
X109438125Y-118915093D01*
X109442653Y-118913321D01*
X109470263Y-118903136D01*
X109474860Y-118901542D01*
X109714293Y-118823745D01*
X109718953Y-118822331D01*
X109747295Y-118814338D01*
X109752000Y-118813111D01*
X109790117Y-118803958D01*
X109794877Y-118802913D01*
X109823777Y-118797164D01*
X109828572Y-118796308D01*
X110077241Y-118756923D01*
X110082064Y-118756256D01*
X110111297Y-118752796D01*
X110116135Y-118752319D01*
X110155214Y-118749241D01*
X110160079Y-118748954D01*
X110189531Y-118747796D01*
X110194403Y-118747700D01*
X110446197Y-118747700D01*
X110451069Y-118747796D01*
X110480521Y-118748954D01*
X110485386Y-118749241D01*
X110524465Y-118752319D01*
X110529303Y-118752796D01*
X110558536Y-118756256D01*
X110563359Y-118756923D01*
X110812028Y-118796308D01*
X110816823Y-118797164D01*
X110845723Y-118802913D01*
X110850203Y-118803896D01*
X110850203Y-118207069D01*
X109348203Y-118207069D01*
X109348203Y-118924995D01*
X105850203Y-118924995D01*
X105850203Y-118748214D01*
X106848203Y-118748214D01*
X106865764Y-118747745D01*
X106869078Y-118747701D01*
X108350203Y-118747700D01*
X108350203Y-118207069D01*
X106848203Y-118207069D01*
X106848203Y-118748214D01*
X105850203Y-118748214D01*
X105850203Y-118207069D01*
X104348203Y-118207069D01*
X104348203Y-119709069D01*
X101979869Y-119709069D01*
X101724423Y-119453623D01*
X101690938Y-119392300D01*
X101688105Y-119366424D01*
X101687937Y-119323212D01*
X101683594Y-118207069D01*
X102807602Y-118207069D01*
X102810493Y-118950117D01*
X103350203Y-119489827D01*
X103350203Y-118207069D01*
X102807602Y-118207069D01*
X101683594Y-118207069D01*
X101673867Y-115707069D01*
X102797874Y-115707069D01*
X102803718Y-117209069D01*
X103350203Y-117209069D01*
X104348203Y-117209069D01*
X105850203Y-117209069D01*
X106848203Y-117209069D01*
X108350203Y-117209069D01*
X109348203Y-117209069D01*
X110850203Y-117209069D01*
X110850203Y-116911300D01*
X110843858Y-116911300D01*
X110837775Y-116911151D01*
X110801003Y-116909345D01*
X110794933Y-116908897D01*
X110746161Y-116904094D01*
X110740120Y-116903349D01*
X110703689Y-116897945D01*
X110697692Y-116896904D01*
X110494965Y-116856579D01*
X110489023Y-116855245D01*
X110453297Y-116846295D01*
X110447433Y-116844672D01*
X110400538Y-116830446D01*
X110394760Y-116828537D01*
X110360099Y-116816135D01*
X110354422Y-116813945D01*
X110163472Y-116734852D01*
X110157908Y-116732386D01*
X110124626Y-116716645D01*
X110119191Y-116713909D01*
X110075970Y-116690808D01*
X110070675Y-116687809D01*
X110046196Y-116673138D01*
X111848203Y-116673138D01*
X111848203Y-117209069D01*
X113350203Y-117209069D01*
X114348203Y-117209069D01*
X115850203Y-117209069D01*
X116848203Y-117209069D01*
X118350203Y-117209069D01*
X119348203Y-117209069D01*
X120850203Y-117209069D01*
X121848203Y-117209069D01*
X123350203Y-117209069D01*
X124348203Y-117209069D01*
X125850203Y-117209069D01*
X126848203Y-117209069D01*
X128350203Y-117209069D01*
X129348203Y-117209069D01*
X130850203Y-117209069D01*
X130850203Y-116414996D01*
X131848203Y-116414996D01*
X131848203Y-117209069D01*
X133350203Y-117209069D01*
X134348203Y-117209069D01*
X135850203Y-117209069D01*
X136848203Y-117209069D01*
X138350203Y-117209069D01*
X139348203Y-117209069D01*
X140850203Y-117209069D01*
X141848203Y-117209069D01*
X143350203Y-117209069D01*
X144348203Y-117209069D01*
X145138689Y-117209069D01*
X145024256Y-117094636D01*
X145020886Y-117091132D01*
X145000912Y-117069527D01*
X144997678Y-117065888D01*
X144972217Y-117036081D01*
X144969127Y-117032316D01*
X144950868Y-117009157D01*
X144947925Y-117005269D01*
X144799926Y-116801565D01*
X144797140Y-116797568D01*
X144780774Y-116773073D01*
X144778150Y-116768973D01*
X144757669Y-116735550D01*
X144755207Y-116731350D01*
X144740817Y-116705654D01*
X144738522Y-116701361D01*
X144624214Y-116477019D01*
X144622089Y-116472636D01*
X144609746Y-116445861D01*
X144607791Y-116441392D01*
X144592793Y-116405175D01*
X144591021Y-116400647D01*
X144580836Y-116373037D01*
X144579242Y-116368440D01*
X144501445Y-116129007D01*
X144500031Y-116124347D01*
X144492038Y-116096005D01*
X144490811Y-116091300D01*
X144481658Y-116053183D01*
X144480613Y-116048423D01*
X144474864Y-116019523D01*
X144474008Y-116014728D01*
X144434623Y-115766059D01*
X144433956Y-115761236D01*
X144430496Y-115732003D01*
X144430019Y-115727165D01*
X144428436Y-115707069D01*
X144348203Y-115707069D01*
X144348203Y-117209069D01*
X143350203Y-117209069D01*
X143350203Y-115707069D01*
X141848203Y-115707069D01*
X141848203Y-117209069D01*
X140850203Y-117209069D01*
X140850203Y-115707069D01*
X139348203Y-115707069D01*
X139348203Y-117209069D01*
X138350203Y-117209069D01*
X138350203Y-115707069D01*
X136848203Y-115707069D01*
X136848203Y-117209069D01*
X135850203Y-117209069D01*
X135850203Y-115707069D01*
X134348203Y-115707069D01*
X134348203Y-117209069D01*
X133350203Y-117209069D01*
X133350203Y-116248297D01*
X133333863Y-116259216D01*
X133328718Y-116262474D01*
X133297125Y-116281409D01*
X133291830Y-116284408D01*
X133248609Y-116307509D01*
X133243174Y-116310245D01*
X133209892Y-116325986D01*
X133204328Y-116328452D01*
X133013378Y-116407545D01*
X133007701Y-116409735D01*
X132973040Y-116422137D01*
X132967262Y-116424046D01*
X132920367Y-116438272D01*
X132914503Y-116439895D01*
X132878777Y-116448845D01*
X132872835Y-116450179D01*
X132670108Y-116490504D01*
X132664111Y-116491545D01*
X132627680Y-116496949D01*
X132621639Y-116497694D01*
X132572867Y-116502497D01*
X132566797Y-116502945D01*
X132530025Y-116504751D01*
X132523942Y-116504900D01*
X132317258Y-116504900D01*
X132311175Y-116504751D01*
X132274403Y-116502945D01*
X132268333Y-116502497D01*
X132219561Y-116497694D01*
X132213520Y-116496949D01*
X132177089Y-116491545D01*
X132171092Y-116490504D01*
X131968365Y-116450179D01*
X131962423Y-116448845D01*
X131926697Y-116439895D01*
X131920833Y-116438272D01*
X131873938Y-116424046D01*
X131868160Y-116422137D01*
X131848203Y-116414996D01*
X130850203Y-116414996D01*
X130850203Y-116403300D01*
X130716258Y-116403300D01*
X130710175Y-116403151D01*
X130673403Y-116401345D01*
X130667333Y-116400897D01*
X130618561Y-116396094D01*
X130612520Y-116395349D01*
X130576089Y-116389945D01*
X130570092Y-116388904D01*
X130367365Y-116348579D01*
X130361423Y-116347245D01*
X130325697Y-116338295D01*
X130319833Y-116336672D01*
X130272938Y-116322446D01*
X130267160Y-116320537D01*
X130232499Y-116308135D01*
X130226822Y-116305945D01*
X130035872Y-116226852D01*
X130030308Y-116224386D01*
X129997026Y-116208645D01*
X129991591Y-116205909D01*
X129948370Y-116182808D01*
X129943075Y-116179809D01*
X129911482Y-116160874D01*
X129906337Y-116157616D01*
X129734478Y-116042783D01*
X129729502Y-116039278D01*
X129699929Y-116017345D01*
X129695131Y-116013601D01*
X129657249Y-115982512D01*
X129652642Y-115978538D01*
X129625355Y-115953807D01*
X129620946Y-115949609D01*
X129474791Y-115803454D01*
X129470593Y-115799045D01*
X129445862Y-115771758D01*
X129441888Y-115767151D01*
X129410799Y-115729269D01*
X129407055Y-115724471D01*
X129394149Y-115707069D01*
X129348203Y-115707069D01*
X129348203Y-117209069D01*
X128350203Y-117209069D01*
X128350203Y-115707069D01*
X126848203Y-115707069D01*
X126848203Y-117209069D01*
X125850203Y-117209069D01*
X125850203Y-115707069D01*
X124348203Y-115707069D01*
X124348203Y-117209069D01*
X123350203Y-117209069D01*
X123350203Y-115707069D01*
X121848203Y-115707069D01*
X121848203Y-117209069D01*
X120850203Y-117209069D01*
X120850203Y-115707069D01*
X119348203Y-115707069D01*
X119348203Y-117209069D01*
X118350203Y-117209069D01*
X118350203Y-115707069D01*
X116848203Y-115707069D01*
X116848203Y-117209069D01*
X115850203Y-117209069D01*
X115850203Y-115707069D01*
X114348203Y-115707069D01*
X114348203Y-117209069D01*
X113350203Y-117209069D01*
X113350203Y-115707069D01*
X112647727Y-115707069D01*
X112569252Y-115896528D01*
X112566786Y-115902092D01*
X112551045Y-115935374D01*
X112548309Y-115940809D01*
X112525208Y-115984030D01*
X112522209Y-115989325D01*
X112503274Y-116020918D01*
X112500016Y-116026063D01*
X112385183Y-116197922D01*
X112381678Y-116202898D01*
X112359745Y-116232471D01*
X112356001Y-116237269D01*
X112324912Y-116275151D01*
X112320938Y-116279758D01*
X112296207Y-116307045D01*
X112292009Y-116311454D01*
X112145854Y-116457609D01*
X112141445Y-116461807D01*
X112114158Y-116486538D01*
X112109551Y-116490512D01*
X112071669Y-116521601D01*
X112066871Y-116525345D01*
X112037298Y-116547278D01*
X112032322Y-116550783D01*
X111860463Y-116665616D01*
X111855318Y-116668874D01*
X111848203Y-116673138D01*
X110046196Y-116673138D01*
X110039082Y-116668874D01*
X110033937Y-116665616D01*
X109862078Y-116550783D01*
X109857102Y-116547278D01*
X109827529Y-116525345D01*
X109822731Y-116521601D01*
X109784849Y-116490512D01*
X109780242Y-116486538D01*
X109752955Y-116461807D01*
X109748546Y-116457609D01*
X109602391Y-116311454D01*
X109598193Y-116307045D01*
X109573462Y-116279758D01*
X109569488Y-116275151D01*
X109538399Y-116237269D01*
X109534655Y-116232471D01*
X109512722Y-116202898D01*
X109509217Y-116197922D01*
X109394384Y-116026063D01*
X109391126Y-116020918D01*
X109372191Y-115989325D01*
X109369192Y-115984030D01*
X109348203Y-115944760D01*
X109348203Y-117209069D01*
X108350203Y-117209069D01*
X108350203Y-115707069D01*
X106848203Y-115707069D01*
X106848203Y-117209069D01*
X105850203Y-117209069D01*
X105850203Y-115707069D01*
X104348203Y-115707069D01*
X104348203Y-117209069D01*
X103350203Y-117209069D01*
X103350203Y-115707069D01*
X102797874Y-115707069D01*
X101673867Y-115707069D01*
X101671248Y-115033953D01*
X110146700Y-115033953D01*
X110146700Y-115191646D01*
X110177461Y-115346289D01*
X110177464Y-115346301D01*
X110237802Y-115491972D01*
X110237809Y-115491985D01*
X110325410Y-115623088D01*
X110325413Y-115623092D01*
X110436907Y-115734586D01*
X110436911Y-115734589D01*
X110568014Y-115822190D01*
X110568027Y-115822197D01*
X110713698Y-115882535D01*
X110713703Y-115882537D01*
X110868353Y-115913299D01*
X110868356Y-115913300D01*
X110868358Y-115913300D01*
X111026044Y-115913300D01*
X111026045Y-115913299D01*
X111180697Y-115882537D01*
X111326379Y-115822194D01*
X111457489Y-115734589D01*
X111568989Y-115623089D01*
X111656594Y-115491979D01*
X111716937Y-115346297D01*
X111747700Y-115191642D01*
X111747700Y-115033958D01*
X111747700Y-115033955D01*
X111747699Y-115033953D01*
X111716938Y-114879310D01*
X111716937Y-114879303D01*
X111699949Y-114838289D01*
X111656597Y-114733627D01*
X111656590Y-114733614D01*
X111568989Y-114602511D01*
X111568986Y-114602507D01*
X111457492Y-114491013D01*
X111457488Y-114491010D01*
X111326385Y-114403409D01*
X111326372Y-114403402D01*
X111180701Y-114343064D01*
X111180689Y-114343061D01*
X111026045Y-114312300D01*
X111026042Y-114312300D01*
X110868358Y-114312300D01*
X110868355Y-114312300D01*
X110713710Y-114343061D01*
X110713698Y-114343064D01*
X110568027Y-114403402D01*
X110568014Y-114403409D01*
X110436911Y-114491010D01*
X110436907Y-114491013D01*
X110325413Y-114602507D01*
X110325410Y-114602511D01*
X110237809Y-114733614D01*
X110237802Y-114733627D01*
X110177464Y-114879298D01*
X110177461Y-114879310D01*
X110146700Y-115033953D01*
X101671248Y-115033953D01*
X101664139Y-113207069D01*
X102788147Y-113207069D01*
X102793991Y-114709069D01*
X103350203Y-114709069D01*
X104348203Y-114709069D01*
X105850203Y-114709069D01*
X106848203Y-114709069D01*
X106877385Y-114709069D01*
X107092215Y-114709069D01*
X108350203Y-114709069D01*
X108350203Y-114280839D01*
X109348203Y-114280839D01*
X109369192Y-114241570D01*
X109372191Y-114236275D01*
X109391126Y-114204682D01*
X109394384Y-114199537D01*
X109509217Y-114027678D01*
X109512722Y-114022702D01*
X109534655Y-113993129D01*
X109538399Y-113988331D01*
X109569488Y-113950449D01*
X109573462Y-113945842D01*
X109598193Y-113918555D01*
X109602391Y-113914146D01*
X109748546Y-113767991D01*
X109752955Y-113763793D01*
X109780242Y-113739062D01*
X109784849Y-113735088D01*
X109822731Y-113703999D01*
X109827529Y-113700255D01*
X109857102Y-113678322D01*
X109862078Y-113674817D01*
X110033937Y-113559984D01*
X110039082Y-113556726D01*
X110046198Y-113552461D01*
X111848203Y-113552461D01*
X111855318Y-113556726D01*
X111860463Y-113559984D01*
X112032322Y-113674817D01*
X112037298Y-113678322D01*
X112066871Y-113700255D01*
X112071669Y-113703999D01*
X112109551Y-113735088D01*
X112114158Y-113739062D01*
X112141445Y-113763793D01*
X112145854Y-113767991D01*
X112292009Y-113914146D01*
X112296207Y-113918555D01*
X112320938Y-113945842D01*
X112324912Y-113950449D01*
X112356001Y-113988331D01*
X112359745Y-113993129D01*
X112381678Y-114022702D01*
X112385183Y-114027678D01*
X112500016Y-114199537D01*
X112503274Y-114204682D01*
X112522209Y-114236275D01*
X112525208Y-114241570D01*
X112548309Y-114284791D01*
X112551045Y-114290226D01*
X112566786Y-114323508D01*
X112569252Y-114329072D01*
X112648345Y-114520022D01*
X112650535Y-114525699D01*
X112662937Y-114560360D01*
X112664846Y-114566138D01*
X112679072Y-114613033D01*
X112680695Y-114618897D01*
X112689645Y-114654623D01*
X112690979Y-114660565D01*
X112700627Y-114709069D01*
X113350203Y-114709069D01*
X114348203Y-114709069D01*
X115850203Y-114709069D01*
X116848203Y-114709069D01*
X118350203Y-114709069D01*
X118350203Y-114404543D01*
X119348203Y-114404543D01*
X119348203Y-114709069D01*
X120850203Y-114709069D01*
X121848203Y-114709069D01*
X123350203Y-114709069D01*
X124348203Y-114709069D01*
X125850203Y-114709069D01*
X125850203Y-114015700D01*
X126848203Y-114015700D01*
X126848203Y-114709069D01*
X128350203Y-114709069D01*
X128350203Y-114525953D01*
X130019100Y-114525953D01*
X130019100Y-114683646D01*
X130049861Y-114838289D01*
X130049864Y-114838301D01*
X130110202Y-114983972D01*
X130110209Y-114983985D01*
X130197810Y-115115088D01*
X130197813Y-115115092D01*
X130309307Y-115226586D01*
X130309311Y-115226589D01*
X130440414Y-115314190D01*
X130440427Y-115314197D01*
X130586098Y-115374535D01*
X130586103Y-115374537D01*
X130740753Y-115405299D01*
X130740756Y-115405300D01*
X130740758Y-115405300D01*
X130898444Y-115405300D01*
X130898445Y-115405299D01*
X131053097Y-115374537D01*
X131198779Y-115314194D01*
X131329889Y-115226589D01*
X131441389Y-115115089D01*
X131472287Y-115068847D01*
X131486612Y-115047409D01*
X131540224Y-115002603D01*
X131609549Y-114993896D01*
X131672576Y-115024050D01*
X131704275Y-115068847D01*
X131711202Y-115085573D01*
X131711209Y-115085585D01*
X131798810Y-115216688D01*
X131798813Y-115216692D01*
X131910307Y-115328186D01*
X131910311Y-115328189D01*
X132041414Y-115415790D01*
X132041427Y-115415797D01*
X132187098Y-115476135D01*
X132187103Y-115476137D01*
X132341753Y-115506899D01*
X132341756Y-115506900D01*
X132341758Y-115506900D01*
X132499444Y-115506900D01*
X132499445Y-115506899D01*
X132654097Y-115476137D01*
X132766766Y-115429467D01*
X132799772Y-115415797D01*
X132799772Y-115415796D01*
X132799779Y-115415794D01*
X132930889Y-115328189D01*
X133042389Y-115216689D01*
X133129994Y-115085579D01*
X133190337Y-114939897D01*
X133221100Y-114785242D01*
X133221100Y-114709069D01*
X134348203Y-114709069D01*
X135850203Y-114709069D01*
X136848203Y-114709069D01*
X138350203Y-114709069D01*
X138350203Y-113868657D01*
X138344510Y-113867756D01*
X138325590Y-113863214D01*
X138153435Y-113807278D01*
X138135458Y-113799832D01*
X137974174Y-113717653D01*
X137957584Y-113707486D01*
X137918196Y-113678869D01*
X139348203Y-113678869D01*
X139348203Y-114709069D01*
X140850203Y-114709069D01*
X141848203Y-114709069D01*
X143350203Y-114709069D01*
X143350203Y-113207069D01*
X141848203Y-113207069D01*
X141848203Y-114709069D01*
X140850203Y-114709069D01*
X140850203Y-113207069D01*
X139765751Y-113207069D01*
X139727253Y-113282626D01*
X139717086Y-113299216D01*
X139610689Y-113445660D01*
X139598052Y-113460456D01*
X139470056Y-113588452D01*
X139455260Y-113601089D01*
X139348203Y-113678869D01*
X137918196Y-113678869D01*
X137811140Y-113601089D01*
X137796344Y-113588452D01*
X137668348Y-113460456D01*
X137655711Y-113445660D01*
X137549314Y-113299216D01*
X137539147Y-113282626D01*
X137500649Y-113207069D01*
X136848203Y-113207069D01*
X136848203Y-114709069D01*
X135850203Y-114709069D01*
X135850203Y-113207069D01*
X134348203Y-113207069D01*
X134348203Y-114709069D01*
X133221100Y-114709069D01*
X133221100Y-114627558D01*
X133221100Y-114627555D01*
X133221099Y-114627553D01*
X133199762Y-114520286D01*
X133190337Y-114472903D01*
X133166309Y-114414894D01*
X133129997Y-114327227D01*
X133129990Y-114327214D01*
X133042389Y-114196111D01*
X133042386Y-114196107D01*
X132930892Y-114084613D01*
X132930888Y-114084610D01*
X132799785Y-113997009D01*
X132799772Y-113997002D01*
X132654101Y-113936664D01*
X132654089Y-113936661D01*
X132499445Y-113905900D01*
X132499442Y-113905900D01*
X132341758Y-113905900D01*
X132341755Y-113905900D01*
X132187110Y-113936661D01*
X132187098Y-113936664D01*
X132041427Y-113997002D01*
X132041414Y-113997009D01*
X131910311Y-114084610D01*
X131910307Y-114084613D01*
X131798813Y-114196107D01*
X131798808Y-114196113D01*
X131753586Y-114263792D01*
X131699974Y-114308596D01*
X131630648Y-114317303D01*
X131567621Y-114287148D01*
X131535924Y-114242352D01*
X131528994Y-114225621D01*
X131528991Y-114225616D01*
X131528990Y-114225614D01*
X131441389Y-114094511D01*
X131441386Y-114094507D01*
X131329892Y-113983013D01*
X131329888Y-113983010D01*
X131198785Y-113895409D01*
X131198772Y-113895402D01*
X131053101Y-113835064D01*
X131053089Y-113835061D01*
X130898445Y-113804300D01*
X130898442Y-113804300D01*
X130740758Y-113804300D01*
X130740755Y-113804300D01*
X130586110Y-113835061D01*
X130586098Y-113835064D01*
X130440427Y-113895402D01*
X130440414Y-113895409D01*
X130309311Y-113983010D01*
X130309307Y-113983013D01*
X130197813Y-114094507D01*
X130197810Y-114094511D01*
X130110209Y-114225614D01*
X130110202Y-114225627D01*
X130049864Y-114371298D01*
X130049861Y-114371310D01*
X130019100Y-114525953D01*
X128350203Y-114525953D01*
X128350203Y-113207069D01*
X128349229Y-113207069D01*
X128285583Y-113302322D01*
X128282078Y-113307298D01*
X128260145Y-113336871D01*
X128256401Y-113341669D01*
X128225312Y-113379551D01*
X128221338Y-113384158D01*
X128196607Y-113411445D01*
X128192409Y-113415854D01*
X128046254Y-113562009D01*
X128041845Y-113566207D01*
X128014558Y-113590938D01*
X128009951Y-113594912D01*
X127972069Y-113626001D01*
X127967271Y-113629745D01*
X127937698Y-113651678D01*
X127932722Y-113655183D01*
X127760863Y-113770016D01*
X127755718Y-113773274D01*
X127724125Y-113792209D01*
X127718830Y-113795208D01*
X127675609Y-113818309D01*
X127670174Y-113821045D01*
X127636892Y-113836786D01*
X127631328Y-113839252D01*
X127440378Y-113918345D01*
X127434701Y-113920535D01*
X127400040Y-113932937D01*
X127394262Y-113934846D01*
X127347367Y-113949072D01*
X127341503Y-113950695D01*
X127305777Y-113959645D01*
X127299835Y-113960979D01*
X127097108Y-114001304D01*
X127091111Y-114002345D01*
X127054680Y-114007749D01*
X127048639Y-114008494D01*
X126999867Y-114013297D01*
X126993797Y-114013745D01*
X126957025Y-114015551D01*
X126950942Y-114015700D01*
X126848203Y-114015700D01*
X125850203Y-114015700D01*
X125850203Y-113713799D01*
X125762478Y-113655183D01*
X125757502Y-113651678D01*
X125727929Y-113629745D01*
X125723131Y-113626001D01*
X125685249Y-113594912D01*
X125680642Y-113590938D01*
X125653355Y-113566207D01*
X125648946Y-113562009D01*
X125502791Y-113415854D01*
X125498593Y-113411445D01*
X125473862Y-113384158D01*
X125469888Y-113379551D01*
X125438799Y-113341669D01*
X125435055Y-113336871D01*
X125413122Y-113307298D01*
X125409617Y-113302322D01*
X125345971Y-113207069D01*
X124348203Y-113207069D01*
X124348203Y-114709069D01*
X123350203Y-114709069D01*
X123350203Y-113207069D01*
X121848203Y-113207069D01*
X121848203Y-114709069D01*
X120850203Y-114709069D01*
X120850203Y-113930460D01*
X120812254Y-113968409D01*
X120807845Y-113972607D01*
X120780558Y-113997338D01*
X120775951Y-114001312D01*
X120738069Y-114032401D01*
X120733271Y-114036145D01*
X120703698Y-114058078D01*
X120698722Y-114061583D01*
X120526863Y-114176416D01*
X120521718Y-114179674D01*
X120490125Y-114198609D01*
X120484830Y-114201608D01*
X120441609Y-114224709D01*
X120436174Y-114227445D01*
X120402892Y-114243186D01*
X120397328Y-114245652D01*
X120206378Y-114324745D01*
X120200701Y-114326935D01*
X120166040Y-114339337D01*
X120160262Y-114341246D01*
X120113367Y-114355472D01*
X120107503Y-114357095D01*
X120071777Y-114366045D01*
X120065835Y-114367379D01*
X119863108Y-114407704D01*
X119857111Y-114408745D01*
X119820680Y-114414149D01*
X119814639Y-114414894D01*
X119765867Y-114419697D01*
X119759797Y-114420145D01*
X119723025Y-114421951D01*
X119716942Y-114422100D01*
X119510258Y-114422100D01*
X119504175Y-114421951D01*
X119467403Y-114420145D01*
X119461333Y-114419697D01*
X119412561Y-114414894D01*
X119406520Y-114414149D01*
X119370089Y-114408745D01*
X119364091Y-114407704D01*
X119348203Y-114404543D01*
X118350203Y-114404543D01*
X118350203Y-113903666D01*
X118268791Y-113822254D01*
X118264593Y-113817845D01*
X118239862Y-113790558D01*
X118235888Y-113785951D01*
X118204799Y-113748069D01*
X118201055Y-113743271D01*
X118179122Y-113713698D01*
X118175617Y-113708722D01*
X118060784Y-113536863D01*
X118057526Y-113531718D01*
X118038591Y-113500125D01*
X118035592Y-113494830D01*
X118012491Y-113451609D01*
X118009755Y-113446174D01*
X117994014Y-113412892D01*
X117991548Y-113407328D01*
X117912455Y-113216378D01*
X117910265Y-113210701D01*
X117908965Y-113207069D01*
X116848203Y-113207069D01*
X116848203Y-114709069D01*
X115850203Y-114709069D01*
X115850203Y-113207069D01*
X114348203Y-113207069D01*
X114348203Y-114709069D01*
X113350203Y-114709069D01*
X113350203Y-113207069D01*
X111848203Y-113207069D01*
X111848203Y-113552461D01*
X110046198Y-113552461D01*
X110070675Y-113537791D01*
X110075970Y-113534792D01*
X110119191Y-113511691D01*
X110124626Y-113508955D01*
X110157908Y-113493214D01*
X110163472Y-113490748D01*
X110354422Y-113411655D01*
X110360099Y-113409465D01*
X110394760Y-113397063D01*
X110400538Y-113395154D01*
X110447433Y-113380928D01*
X110453297Y-113379305D01*
X110489023Y-113370355D01*
X110494965Y-113369021D01*
X110697692Y-113328696D01*
X110703689Y-113327655D01*
X110740120Y-113322251D01*
X110746161Y-113321506D01*
X110794933Y-113316703D01*
X110801003Y-113316255D01*
X110837775Y-113314449D01*
X110843858Y-113314300D01*
X110850203Y-113314300D01*
X110850203Y-113207069D01*
X109348203Y-113207069D01*
X109348203Y-114280839D01*
X108350203Y-114280839D01*
X108350203Y-113207069D01*
X108238358Y-113207069D01*
X108257273Y-113326495D01*
X108258800Y-113345893D01*
X108258800Y-113526907D01*
X108257273Y-113546305D01*
X108228956Y-113725090D01*
X108224414Y-113744010D01*
X108168478Y-113916165D01*
X108161032Y-113934142D01*
X108078853Y-114095426D01*
X108068686Y-114112016D01*
X107962289Y-114258460D01*
X107949652Y-114273256D01*
X107821656Y-114401252D01*
X107806860Y-114413889D01*
X107660416Y-114520286D01*
X107643826Y-114530453D01*
X107482542Y-114612632D01*
X107464565Y-114620078D01*
X107292410Y-114676014D01*
X107273490Y-114680556D01*
X107094705Y-114708873D01*
X107092215Y-114709069D01*
X106877385Y-114709069D01*
X106874895Y-114708873D01*
X106848203Y-114704645D01*
X106848203Y-114709069D01*
X105850203Y-114709069D01*
X105850203Y-114015854D01*
X105808568Y-113934142D01*
X105801122Y-113916165D01*
X105745186Y-113744010D01*
X105740644Y-113725090D01*
X105712327Y-113546305D01*
X105710800Y-113526907D01*
X105710800Y-113345893D01*
X105712327Y-113326495D01*
X105731242Y-113207069D01*
X104348203Y-113207069D01*
X104348203Y-114709069D01*
X103350203Y-114709069D01*
X103350203Y-113207069D01*
X102788147Y-113207069D01*
X101664139Y-113207069D01*
X101661562Y-112544753D01*
X118813100Y-112544753D01*
X118813100Y-112702446D01*
X118843861Y-112857089D01*
X118843864Y-112857101D01*
X118904202Y-113002772D01*
X118904209Y-113002785D01*
X118991810Y-113133888D01*
X118991813Y-113133892D01*
X119103307Y-113245386D01*
X119103311Y-113245389D01*
X119234414Y-113332990D01*
X119234427Y-113332997D01*
X119380098Y-113393335D01*
X119380103Y-113393337D01*
X119493303Y-113415854D01*
X119534753Y-113424099D01*
X119534756Y-113424100D01*
X119534758Y-113424100D01*
X119692444Y-113424100D01*
X119692445Y-113424099D01*
X119847097Y-113393337D01*
X119992779Y-113332994D01*
X120123889Y-113245389D01*
X120235389Y-113133889D01*
X120322994Y-113002779D01*
X120383337Y-112857097D01*
X120414100Y-112702442D01*
X120414100Y-112544758D01*
X120414100Y-112544755D01*
X120414099Y-112544753D01*
X120383338Y-112390110D01*
X120383337Y-112390103D01*
X120344376Y-112296042D01*
X120322997Y-112244427D01*
X120322990Y-112244414D01*
X120299373Y-112209069D01*
X121848203Y-112209069D01*
X123350203Y-112209069D01*
X124348203Y-112209069D01*
X125049100Y-112209069D01*
X125049100Y-112138353D01*
X126047100Y-112138353D01*
X126047100Y-112296046D01*
X126077861Y-112450689D01*
X126077864Y-112450701D01*
X126138202Y-112596372D01*
X126138209Y-112596385D01*
X126225810Y-112727488D01*
X126225813Y-112727492D01*
X126337307Y-112838986D01*
X126337311Y-112838989D01*
X126468414Y-112926590D01*
X126468427Y-112926597D01*
X126614098Y-112986935D01*
X126614103Y-112986937D01*
X126768753Y-113017699D01*
X126768756Y-113017700D01*
X126768758Y-113017700D01*
X126926444Y-113017700D01*
X126926445Y-113017699D01*
X127081097Y-112986937D01*
X127226779Y-112926594D01*
X127357889Y-112838989D01*
X127469389Y-112727489D01*
X127556994Y-112596379D01*
X127617337Y-112450697D01*
X127648100Y-112296042D01*
X127648100Y-112138358D01*
X127648100Y-112138355D01*
X127648099Y-112138353D01*
X127627839Y-112036499D01*
X127617337Y-111983703D01*
X127609414Y-111964574D01*
X127556997Y-111838027D01*
X127556990Y-111838014D01*
X127469389Y-111706911D01*
X127469386Y-111706907D01*
X127357892Y-111595413D01*
X127357888Y-111595410D01*
X127226785Y-111507809D01*
X127226772Y-111507802D01*
X127081101Y-111447464D01*
X127081089Y-111447461D01*
X126926445Y-111416700D01*
X126926442Y-111416700D01*
X126768758Y-111416700D01*
X126768755Y-111416700D01*
X126614110Y-111447461D01*
X126614098Y-111447464D01*
X126468427Y-111507802D01*
X126468414Y-111507809D01*
X126337311Y-111595410D01*
X126337307Y-111595413D01*
X126225813Y-111706907D01*
X126225810Y-111706911D01*
X126138209Y-111838014D01*
X126138202Y-111838027D01*
X126077864Y-111983698D01*
X126077861Y-111983710D01*
X126047100Y-112138353D01*
X125049100Y-112138353D01*
X125049100Y-112113858D01*
X125049249Y-112107775D01*
X125051055Y-112071003D01*
X125051503Y-112064933D01*
X125056306Y-112016161D01*
X125057051Y-112010120D01*
X125062455Y-111973689D01*
X125063496Y-111967692D01*
X125103821Y-111764965D01*
X125105155Y-111759023D01*
X125114105Y-111723297D01*
X125115728Y-111717433D01*
X125129954Y-111670538D01*
X125131863Y-111664760D01*
X125144265Y-111630099D01*
X125146455Y-111624422D01*
X125225548Y-111433472D01*
X125228014Y-111427908D01*
X125243755Y-111394626D01*
X125246491Y-111389191D01*
X125269592Y-111345970D01*
X125272591Y-111340675D01*
X125291526Y-111309082D01*
X125294784Y-111303937D01*
X125409617Y-111132078D01*
X125413122Y-111127102D01*
X125435055Y-111097529D01*
X125438799Y-111092731D01*
X125469888Y-111054849D01*
X125473862Y-111050242D01*
X125481661Y-111041637D01*
X129348203Y-111041637D01*
X129348203Y-112209069D01*
X130850203Y-112209069D01*
X131848203Y-112209069D01*
X133350203Y-112209069D01*
X133350203Y-110954494D01*
X134348203Y-110954494D01*
X134348203Y-112209069D01*
X135850203Y-112209069D01*
X136848203Y-112209069D01*
X137428326Y-112209069D01*
X137449522Y-112143835D01*
X137456968Y-112125858D01*
X137539147Y-111964574D01*
X137549314Y-111947984D01*
X137655711Y-111801540D01*
X137668348Y-111786744D01*
X137796344Y-111658748D01*
X137811140Y-111646111D01*
X137918197Y-111568330D01*
X139348203Y-111568330D01*
X139455260Y-111646111D01*
X139470056Y-111658748D01*
X139598052Y-111786744D01*
X139610689Y-111801540D01*
X139717086Y-111947984D01*
X139727253Y-111964574D01*
X139809432Y-112125858D01*
X139816878Y-112143835D01*
X139838074Y-112209069D01*
X140850203Y-112209069D01*
X140850203Y-110915874D01*
X142772092Y-110915874D01*
X142772092Y-111073567D01*
X142802853Y-111228210D01*
X142802856Y-111228222D01*
X142863194Y-111373893D01*
X142863201Y-111373906D01*
X142950802Y-111505009D01*
X142950805Y-111505013D01*
X143062299Y-111616507D01*
X143062303Y-111616510D01*
X143193406Y-111704111D01*
X143193419Y-111704118D01*
X143339090Y-111764456D01*
X143339095Y-111764458D01*
X143451134Y-111786744D01*
X143493745Y-111795220D01*
X143493748Y-111795221D01*
X143493750Y-111795221D01*
X143651436Y-111795221D01*
X143651437Y-111795220D01*
X143806089Y-111764458D01*
X143945021Y-111706911D01*
X143951764Y-111704118D01*
X143951764Y-111704117D01*
X143951771Y-111704115D01*
X144082881Y-111616510D01*
X144194381Y-111505010D01*
X144281986Y-111373900D01*
X144342329Y-111228218D01*
X144373092Y-111073563D01*
X144373092Y-110915879D01*
X144373092Y-110915876D01*
X144373091Y-110915874D01*
X144342329Y-110761224D01*
X144342116Y-110760709D01*
X144281989Y-110615548D01*
X144281982Y-110615535D01*
X144194381Y-110484432D01*
X144194378Y-110484428D01*
X144082884Y-110372934D01*
X144082880Y-110372931D01*
X144028676Y-110336713D01*
X145423400Y-110336713D01*
X145423400Y-110549286D01*
X145450533Y-110720600D01*
X145456654Y-110759243D01*
X145520095Y-110954494D01*
X145522344Y-110961414D01*
X145618851Y-111150820D01*
X145743790Y-111322786D01*
X145894113Y-111473109D01*
X146066082Y-111598050D01*
X146074846Y-111602516D01*
X146125642Y-111650491D01*
X146142436Y-111718312D01*
X146119898Y-111784447D01*
X146074846Y-111823484D01*
X146066082Y-111827949D01*
X145894113Y-111952890D01*
X145743790Y-112103213D01*
X145618851Y-112275179D01*
X145522344Y-112464585D01*
X145456653Y-112666760D01*
X145423400Y-112876713D01*
X145423400Y-113089286D01*
X145456649Y-113299216D01*
X145456654Y-113299243D01*
X145520204Y-113494830D01*
X145522344Y-113501414D01*
X145618851Y-113690820D01*
X145743790Y-113862786D01*
X145894113Y-114013109D01*
X146066082Y-114138050D01*
X146074846Y-114142516D01*
X146125642Y-114190491D01*
X146142436Y-114258312D01*
X146119898Y-114324447D01*
X146074846Y-114363484D01*
X146066082Y-114367949D01*
X145894113Y-114492890D01*
X145743790Y-114643213D01*
X145618851Y-114815179D01*
X145522344Y-115004585D01*
X145456653Y-115206760D01*
X145423400Y-115416713D01*
X145423400Y-115629286D01*
X145453953Y-115822194D01*
X145456654Y-115839243D01*
X145503698Y-115984030D01*
X145522344Y-116041414D01*
X145618851Y-116230820D01*
X145743790Y-116402786D01*
X145894113Y-116553109D01*
X146066079Y-116678048D01*
X146066081Y-116678049D01*
X146066084Y-116678051D01*
X146255488Y-116774557D01*
X146457657Y-116840246D01*
X146667613Y-116873500D01*
X146667614Y-116873500D01*
X146880186Y-116873500D01*
X146880187Y-116873500D01*
X147090143Y-116840246D01*
X147292312Y-116774557D01*
X147481716Y-116678051D01*
X147503689Y-116662086D01*
X147653686Y-116553109D01*
X147653688Y-116553106D01*
X147653692Y-116553104D01*
X147804004Y-116402792D01*
X147804006Y-116402788D01*
X147804009Y-116402786D01*
X147924263Y-116237269D01*
X147928951Y-116230816D01*
X148025457Y-116041412D01*
X148091146Y-115839243D01*
X148124400Y-115629287D01*
X148124400Y-115416713D01*
X148091146Y-115206757D01*
X148025457Y-115004588D01*
X147928951Y-114815184D01*
X147928949Y-114815181D01*
X147928948Y-114815179D01*
X147804009Y-114643213D01*
X147653686Y-114492890D01*
X147481720Y-114367951D01*
X147477979Y-114366045D01*
X147472954Y-114363485D01*
X147422159Y-114315512D01*
X147405363Y-114247692D01*
X147427899Y-114181556D01*
X147472954Y-114142515D01*
X147481716Y-114138051D01*
X147555268Y-114084613D01*
X147653686Y-114013109D01*
X147653688Y-114013106D01*
X147653692Y-114013104D01*
X147804004Y-113862792D01*
X147804006Y-113862788D01*
X147804009Y-113862786D01*
X147928948Y-113690820D01*
X147928947Y-113690820D01*
X147928951Y-113690816D01*
X148025457Y-113501412D01*
X148091146Y-113299243D01*
X148124400Y-113089287D01*
X148124400Y-112876713D01*
X148091146Y-112666757D01*
X148025457Y-112464588D01*
X147928951Y-112275184D01*
X147928949Y-112275181D01*
X147928948Y-112275179D01*
X147804009Y-112103213D01*
X147653686Y-111952890D01*
X147481720Y-111827951D01*
X147481015Y-111827591D01*
X147472954Y-111823485D01*
X147422159Y-111775512D01*
X147405363Y-111707692D01*
X147427899Y-111641556D01*
X147472954Y-111602515D01*
X147481716Y-111598051D01*
X147570561Y-111533502D01*
X147653686Y-111473109D01*
X147653688Y-111473106D01*
X147653692Y-111473104D01*
X147804004Y-111322792D01*
X147804006Y-111322788D01*
X147804009Y-111322786D01*
X147928948Y-111150820D01*
X147928947Y-111150820D01*
X147928951Y-111150816D01*
X148025457Y-110961412D01*
X148091146Y-110759243D01*
X148124400Y-110549287D01*
X148124400Y-110336713D01*
X148091146Y-110126757D01*
X148025457Y-109924588D01*
X147928951Y-109735184D01*
X147928949Y-109735181D01*
X147928948Y-109735179D01*
X147804009Y-109563213D01*
X147690081Y-109449285D01*
X147656596Y-109387962D01*
X147661580Y-109318270D01*
X147703452Y-109262337D01*
X147734429Y-109245422D01*
X147865986Y-109196354D01*
X147865993Y-109196350D01*
X147981087Y-109110190D01*
X147981090Y-109110187D01*
X148067250Y-108995093D01*
X148067254Y-108995086D01*
X148117496Y-108860379D01*
X148117498Y-108860372D01*
X148123899Y-108800844D01*
X148123900Y-108800827D01*
X148123900Y-108153000D01*
X147206912Y-108153000D01*
X147239825Y-108095993D01*
X147273900Y-107968826D01*
X147273900Y-107837174D01*
X147239825Y-107710007D01*
X147206912Y-107653000D01*
X148123900Y-107653000D01*
X148123900Y-107005172D01*
X148123899Y-107005155D01*
X148117498Y-106945627D01*
X148117496Y-106945620D01*
X148067254Y-106810913D01*
X148067250Y-106810906D01*
X147981090Y-106695812D01*
X147981087Y-106695809D01*
X147865993Y-106609649D01*
X147865986Y-106609645D01*
X147731279Y-106559403D01*
X147731272Y-106559401D01*
X147671744Y-106553000D01*
X147023900Y-106553000D01*
X147023900Y-107469988D01*
X146966893Y-107437075D01*
X146839726Y-107403000D01*
X146708074Y-107403000D01*
X146580907Y-107437075D01*
X146523900Y-107469988D01*
X146523900Y-106553000D01*
X145876055Y-106553000D01*
X145816527Y-106559401D01*
X145816520Y-106559403D01*
X145681813Y-106609645D01*
X145681806Y-106609649D01*
X145566712Y-106695809D01*
X145566709Y-106695812D01*
X145480549Y-106810906D01*
X145480545Y-106810913D01*
X145430303Y-106945620D01*
X145430301Y-106945627D01*
X145423900Y-107005155D01*
X145423900Y-107653000D01*
X146340888Y-107653000D01*
X146307975Y-107710007D01*
X146273900Y-107837174D01*
X146273900Y-107968826D01*
X146307975Y-108095993D01*
X146340888Y-108153000D01*
X145423900Y-108153000D01*
X145423900Y-108800844D01*
X145430301Y-108860372D01*
X145430303Y-108860379D01*
X145480545Y-108995086D01*
X145480549Y-108995093D01*
X145566709Y-109110187D01*
X145566712Y-109110190D01*
X145681806Y-109196350D01*
X145681813Y-109196354D01*
X145813370Y-109245422D01*
X145869304Y-109287293D01*
X145893721Y-109352758D01*
X145878869Y-109421031D01*
X145857719Y-109449285D01*
X145743789Y-109563215D01*
X145618851Y-109735179D01*
X145522344Y-109924585D01*
X145456653Y-110126760D01*
X145423400Y-110336713D01*
X144028676Y-110336713D01*
X143951777Y-110285330D01*
X143951764Y-110285323D01*
X143806093Y-110224985D01*
X143806081Y-110224982D01*
X143651437Y-110194221D01*
X143651434Y-110194221D01*
X143493750Y-110194221D01*
X143493747Y-110194221D01*
X143339102Y-110224982D01*
X143339090Y-110224985D01*
X143193419Y-110285323D01*
X143193406Y-110285330D01*
X143062303Y-110372931D01*
X143062299Y-110372934D01*
X142950805Y-110484428D01*
X142950802Y-110484432D01*
X142863201Y-110615535D01*
X142863194Y-110615548D01*
X142802856Y-110761219D01*
X142802853Y-110761231D01*
X142772092Y-110915874D01*
X140850203Y-110915874D01*
X140850203Y-110707069D01*
X139348203Y-110707069D01*
X139348203Y-111568330D01*
X137918197Y-111568330D01*
X137957584Y-111539714D01*
X137974174Y-111529547D01*
X138135458Y-111447368D01*
X138153435Y-111439922D01*
X138325590Y-111383986D01*
X138344509Y-111379444D01*
X138350203Y-111378542D01*
X138350203Y-110707069D01*
X136848203Y-110707069D01*
X136848203Y-112209069D01*
X135850203Y-112209069D01*
X135850203Y-110707069D01*
X135104994Y-110707069D01*
X135096992Y-110712416D01*
X135091847Y-110715674D01*
X135060254Y-110734609D01*
X135054959Y-110737608D01*
X135011738Y-110760709D01*
X135006303Y-110763445D01*
X134973021Y-110779186D01*
X134967457Y-110781652D01*
X134776507Y-110860745D01*
X134770830Y-110862935D01*
X134736169Y-110875337D01*
X134730391Y-110877246D01*
X134683496Y-110891472D01*
X134677632Y-110893095D01*
X134641906Y-110902045D01*
X134635964Y-110903379D01*
X134433237Y-110943704D01*
X134427240Y-110944745D01*
X134390809Y-110950149D01*
X134384768Y-110950894D01*
X134348203Y-110954494D01*
X133350203Y-110954494D01*
X133350203Y-110757760D01*
X133312499Y-110737608D01*
X133307204Y-110734609D01*
X133275611Y-110715674D01*
X133270466Y-110712416D01*
X133262464Y-110707069D01*
X131848203Y-110707069D01*
X131848203Y-112209069D01*
X130850203Y-112209069D01*
X130850203Y-110707069D01*
X130119555Y-110707069D01*
X130117122Y-110708783D01*
X129945263Y-110823616D01*
X129940118Y-110826874D01*
X129908525Y-110845809D01*
X129903230Y-110848808D01*
X129860009Y-110871909D01*
X129854574Y-110874645D01*
X129821292Y-110890386D01*
X129815728Y-110892852D01*
X129624778Y-110971945D01*
X129619101Y-110974135D01*
X129584440Y-110986537D01*
X129578662Y-110988446D01*
X129531767Y-111002672D01*
X129525903Y-111004295D01*
X129490177Y-111013245D01*
X129484235Y-111014579D01*
X129348203Y-111041637D01*
X125481661Y-111041637D01*
X125498593Y-111022955D01*
X125502791Y-111018546D01*
X125648946Y-110872391D01*
X125653355Y-110868193D01*
X125680642Y-110843462D01*
X125685249Y-110839488D01*
X125723131Y-110808399D01*
X125727929Y-110804655D01*
X125757502Y-110782722D01*
X125762478Y-110779217D01*
X125850203Y-110720600D01*
X125850203Y-110707069D01*
X124348203Y-110707069D01*
X124348203Y-112209069D01*
X123350203Y-112209069D01*
X123350203Y-110707069D01*
X121848203Y-110707069D01*
X121848203Y-112209069D01*
X120299373Y-112209069D01*
X120235389Y-112113311D01*
X120235386Y-112113307D01*
X120123892Y-112001813D01*
X120123888Y-112001810D01*
X119992785Y-111914209D01*
X119992772Y-111914202D01*
X119847101Y-111853864D01*
X119847089Y-111853861D01*
X119692445Y-111823100D01*
X119692442Y-111823100D01*
X119534758Y-111823100D01*
X119534755Y-111823100D01*
X119380110Y-111853861D01*
X119380098Y-111853864D01*
X119234427Y-111914202D01*
X119234414Y-111914209D01*
X119103311Y-112001810D01*
X119103307Y-112001813D01*
X118991813Y-112113307D01*
X118991810Y-112113311D01*
X118904209Y-112244414D01*
X118904202Y-112244427D01*
X118843864Y-112390098D01*
X118843861Y-112390110D01*
X118813100Y-112544753D01*
X101661562Y-112544753D01*
X101654412Y-110707069D01*
X102778419Y-110707069D01*
X102784263Y-112209069D01*
X103350203Y-112209069D01*
X104348203Y-112209069D01*
X105850203Y-112209069D01*
X105850203Y-112168154D01*
X106848203Y-112168154D01*
X106874896Y-112163927D01*
X106894293Y-112162400D01*
X107075307Y-112162400D01*
X107094705Y-112163927D01*
X107273490Y-112192244D01*
X107292410Y-112196786D01*
X107330213Y-112209069D01*
X108350203Y-112209069D01*
X109348203Y-112209069D01*
X110850203Y-112209069D01*
X111848203Y-112209069D01*
X113350203Y-112209069D01*
X114348203Y-112209069D01*
X115850203Y-112209069D01*
X116848203Y-112209069D01*
X117862321Y-112209069D01*
X117869821Y-112171365D01*
X117871155Y-112165423D01*
X117880105Y-112129697D01*
X117881728Y-112123833D01*
X117895954Y-112076938D01*
X117897863Y-112071160D01*
X117910265Y-112036499D01*
X117912455Y-112030822D01*
X117991548Y-111839872D01*
X117994014Y-111834308D01*
X118009755Y-111801026D01*
X118012491Y-111795591D01*
X118035592Y-111752370D01*
X118038591Y-111747075D01*
X118057526Y-111715482D01*
X118060784Y-111710337D01*
X118175617Y-111538478D01*
X118179122Y-111533502D01*
X118201055Y-111503929D01*
X118204799Y-111499131D01*
X118235888Y-111461249D01*
X118239862Y-111456642D01*
X118264593Y-111429355D01*
X118268791Y-111424946D01*
X118350203Y-111343534D01*
X118350203Y-110842656D01*
X119348203Y-110842656D01*
X119364092Y-110839496D01*
X119370089Y-110838455D01*
X119406520Y-110833051D01*
X119412561Y-110832306D01*
X119461333Y-110827503D01*
X119467403Y-110827055D01*
X119504175Y-110825249D01*
X119510258Y-110825100D01*
X119716942Y-110825100D01*
X119723025Y-110825249D01*
X119759797Y-110827055D01*
X119765867Y-110827503D01*
X119814639Y-110832306D01*
X119820680Y-110833051D01*
X119857111Y-110838455D01*
X119863108Y-110839496D01*
X120065835Y-110879821D01*
X120071777Y-110881155D01*
X120107503Y-110890105D01*
X120113367Y-110891728D01*
X120160262Y-110905954D01*
X120166040Y-110907863D01*
X120200701Y-110920265D01*
X120206378Y-110922455D01*
X120397328Y-111001548D01*
X120402892Y-111004014D01*
X120436174Y-111019755D01*
X120441609Y-111022491D01*
X120484830Y-111045592D01*
X120490125Y-111048591D01*
X120521718Y-111067526D01*
X120526863Y-111070784D01*
X120698722Y-111185617D01*
X120703698Y-111189122D01*
X120733271Y-111211055D01*
X120738069Y-111214799D01*
X120775951Y-111245888D01*
X120780558Y-111249862D01*
X120807845Y-111274593D01*
X120812254Y-111278791D01*
X120850203Y-111316740D01*
X120850203Y-110707069D01*
X119348203Y-110707069D01*
X119348203Y-110842656D01*
X118350203Y-110842656D01*
X118350203Y-110707069D01*
X116848203Y-110707069D01*
X116848203Y-112209069D01*
X115850203Y-112209069D01*
X115850203Y-110707069D01*
X114348203Y-110707069D01*
X114348203Y-112209069D01*
X113350203Y-112209069D01*
X113350203Y-110707069D01*
X111848203Y-110707069D01*
X111848203Y-112209069D01*
X110850203Y-112209069D01*
X110850203Y-110707069D01*
X109348203Y-110707069D01*
X109348203Y-112209069D01*
X108350203Y-112209069D01*
X108350203Y-110707069D01*
X106848203Y-110707069D01*
X106848203Y-112168154D01*
X105850203Y-112168154D01*
X105850203Y-110707069D01*
X104348203Y-110707069D01*
X104348203Y-112209069D01*
X103350203Y-112209069D01*
X103350203Y-110707069D01*
X102778419Y-110707069D01*
X101654412Y-110707069D01*
X101644684Y-108207069D01*
X102768691Y-108207069D01*
X102774536Y-109709069D01*
X103350203Y-109709069D01*
X104348203Y-109709069D01*
X105850203Y-109709069D01*
X106848203Y-109709069D01*
X108350203Y-109709069D01*
X109348203Y-109709069D01*
X110850203Y-109709069D01*
X111848203Y-109709069D01*
X113350203Y-109709069D01*
X114348203Y-109709069D01*
X115850203Y-109709069D01*
X116848203Y-109709069D01*
X118350203Y-109709069D01*
X119348203Y-109709069D01*
X120850203Y-109709069D01*
X121848203Y-109709069D01*
X123350203Y-109709069D01*
X124348203Y-109709069D01*
X125850203Y-109709069D01*
X125850203Y-109191953D01*
X128231500Y-109191953D01*
X128231500Y-109349646D01*
X128262261Y-109504289D01*
X128262264Y-109504301D01*
X128322602Y-109649972D01*
X128322609Y-109649985D01*
X128410210Y-109781088D01*
X128410213Y-109781092D01*
X128521707Y-109892586D01*
X128521711Y-109892589D01*
X128652814Y-109980190D01*
X128652827Y-109980197D01*
X128798498Y-110040535D01*
X128798503Y-110040537D01*
X128953153Y-110071299D01*
X128953156Y-110071300D01*
X128953158Y-110071300D01*
X129110844Y-110071300D01*
X129110845Y-110071299D01*
X129265497Y-110040537D01*
X129411179Y-109980194D01*
X129542289Y-109892589D01*
X129653789Y-109781089D01*
X129741394Y-109649979D01*
X129801737Y-109504297D01*
X129832500Y-109349642D01*
X129832500Y-109191958D01*
X129832500Y-109191955D01*
X129832499Y-109191953D01*
X129816235Y-109110190D01*
X129801737Y-109037303D01*
X129801735Y-109037298D01*
X129741397Y-108891627D01*
X129741390Y-108891614D01*
X129653789Y-108760511D01*
X129653786Y-108760507D01*
X129542292Y-108649013D01*
X129542288Y-108649010D01*
X129411185Y-108561409D01*
X129411172Y-108561402D01*
X129265501Y-108501064D01*
X129265489Y-108501061D01*
X129163395Y-108480753D01*
X132701900Y-108480753D01*
X132701900Y-108638446D01*
X132732661Y-108793089D01*
X132732664Y-108793101D01*
X132793002Y-108938772D01*
X132793009Y-108938785D01*
X132880610Y-109069888D01*
X132880613Y-109069892D01*
X132992107Y-109181386D01*
X132992111Y-109181389D01*
X133123214Y-109268990D01*
X133123227Y-109268997D01*
X133212072Y-109305797D01*
X133268903Y-109329337D01*
X133268905Y-109329337D01*
X133268910Y-109329339D01*
X133333231Y-109342133D01*
X133395142Y-109374518D01*
X133423601Y-109416297D01*
X133474333Y-109538775D01*
X133474338Y-109538785D01*
X133561939Y-109669888D01*
X133561942Y-109669892D01*
X133673436Y-109781386D01*
X133673440Y-109781389D01*
X133804543Y-109868990D01*
X133804556Y-109868997D01*
X133938767Y-109924588D01*
X133950232Y-109929337D01*
X134104882Y-109960099D01*
X134104885Y-109960100D01*
X134104887Y-109960100D01*
X134262573Y-109960100D01*
X134262574Y-109960099D01*
X134417226Y-109929337D01*
X134562908Y-109868994D01*
X134694018Y-109781389D01*
X134766338Y-109709069D01*
X136848203Y-109709069D01*
X138350203Y-109709069D01*
X139348203Y-109709069D01*
X140850203Y-109709069D01*
X140850203Y-109310512D01*
X140849855Y-109305797D01*
X140848049Y-109269025D01*
X140847900Y-109262942D01*
X140847900Y-109080753D01*
X141845900Y-109080753D01*
X141845900Y-109238446D01*
X141876661Y-109393089D01*
X141876664Y-109393101D01*
X141937002Y-109538772D01*
X141937009Y-109538785D01*
X142024610Y-109669888D01*
X142024613Y-109669892D01*
X142136107Y-109781386D01*
X142136111Y-109781389D01*
X142267214Y-109868990D01*
X142267227Y-109868997D01*
X142401438Y-109924588D01*
X142412903Y-109929337D01*
X142567553Y-109960099D01*
X142567556Y-109960100D01*
X142567558Y-109960100D01*
X142725244Y-109960100D01*
X142725245Y-109960099D01*
X142879897Y-109929337D01*
X143025579Y-109868994D01*
X143156689Y-109781389D01*
X143268189Y-109669889D01*
X143355794Y-109538779D01*
X143416137Y-109393097D01*
X143446900Y-109238442D01*
X143446900Y-109080758D01*
X143446900Y-109080755D01*
X143446899Y-109080753D01*
X143440817Y-109050175D01*
X143416137Y-108926103D01*
X143401851Y-108891614D01*
X143355797Y-108780427D01*
X143355790Y-108780414D01*
X143268189Y-108649311D01*
X143268186Y-108649307D01*
X143156692Y-108537813D01*
X143156688Y-108537810D01*
X143025585Y-108450209D01*
X143025572Y-108450202D01*
X142879901Y-108389864D01*
X142879889Y-108389861D01*
X142725245Y-108359100D01*
X142725242Y-108359100D01*
X142567558Y-108359100D01*
X142567555Y-108359100D01*
X142412910Y-108389861D01*
X142412898Y-108389864D01*
X142267227Y-108450202D01*
X142267214Y-108450209D01*
X142136111Y-108537810D01*
X142136107Y-108537813D01*
X142024613Y-108649307D01*
X142024610Y-108649311D01*
X141937009Y-108780414D01*
X141937002Y-108780427D01*
X141876664Y-108926098D01*
X141876661Y-108926110D01*
X141845900Y-109080753D01*
X140847900Y-109080753D01*
X140847900Y-109056258D01*
X140848049Y-109050175D01*
X140849855Y-109013403D01*
X140850203Y-109008688D01*
X140850203Y-108207069D01*
X139348203Y-108207069D01*
X139348203Y-109709069D01*
X138350203Y-109709069D01*
X138350203Y-108207069D01*
X136848203Y-108207069D01*
X136848203Y-109709069D01*
X134766338Y-109709069D01*
X134805518Y-109669889D01*
X134893123Y-109538779D01*
X134953466Y-109393097D01*
X134984229Y-109238442D01*
X134984229Y-109080758D01*
X134984229Y-109080755D01*
X134984228Y-109080753D01*
X134978146Y-109050175D01*
X134953466Y-108926103D01*
X134939180Y-108891614D01*
X134893126Y-108780427D01*
X134893119Y-108780414D01*
X134805518Y-108649311D01*
X134805515Y-108649307D01*
X134694021Y-108537813D01*
X134694017Y-108537810D01*
X134562914Y-108450209D01*
X134562901Y-108450202D01*
X134417230Y-108389864D01*
X134417220Y-108389861D01*
X134352895Y-108377066D01*
X134290984Y-108344681D01*
X134262528Y-108302906D01*
X134211794Y-108180421D01*
X134211792Y-108180418D01*
X134211790Y-108180414D01*
X134124189Y-108049311D01*
X134124186Y-108049307D01*
X134012692Y-107937813D01*
X134012688Y-107937810D01*
X133881585Y-107850209D01*
X133881572Y-107850202D01*
X133735901Y-107789864D01*
X133735889Y-107789861D01*
X133581245Y-107759100D01*
X133581242Y-107759100D01*
X133423558Y-107759100D01*
X133423555Y-107759100D01*
X133268910Y-107789861D01*
X133268898Y-107789864D01*
X133123227Y-107850202D01*
X133123214Y-107850209D01*
X132992111Y-107937810D01*
X132992107Y-107937813D01*
X132880613Y-108049307D01*
X132880610Y-108049311D01*
X132793009Y-108180414D01*
X132793002Y-108180427D01*
X132732664Y-108326098D01*
X132732661Y-108326110D01*
X132701900Y-108480753D01*
X129163395Y-108480753D01*
X129110845Y-108470300D01*
X129110842Y-108470300D01*
X128953158Y-108470300D01*
X128953155Y-108470300D01*
X128798510Y-108501061D01*
X128798498Y-108501064D01*
X128652827Y-108561402D01*
X128652814Y-108561409D01*
X128521711Y-108649010D01*
X128521707Y-108649013D01*
X128410213Y-108760507D01*
X128410210Y-108760511D01*
X128322609Y-108891614D01*
X128322602Y-108891627D01*
X128262264Y-109037298D01*
X128262261Y-109037310D01*
X128231500Y-109191953D01*
X125850203Y-109191953D01*
X125850203Y-108576829D01*
X125823970Y-108562808D01*
X125818675Y-108559809D01*
X125787082Y-108540874D01*
X125781937Y-108537616D01*
X125610078Y-108422783D01*
X125605102Y-108419278D01*
X125575529Y-108397345D01*
X125570731Y-108393601D01*
X125532849Y-108362512D01*
X125528242Y-108358538D01*
X125500955Y-108333807D01*
X125496546Y-108329609D01*
X125374006Y-108207069D01*
X124348203Y-108207069D01*
X124348203Y-109709069D01*
X123350203Y-109709069D01*
X123350203Y-108207069D01*
X121848203Y-108207069D01*
X121848203Y-109709069D01*
X120850203Y-109709069D01*
X120850203Y-108207069D01*
X119348203Y-108207069D01*
X119348203Y-109709069D01*
X118350203Y-109709069D01*
X118350203Y-108748635D01*
X118248308Y-108768904D01*
X118242311Y-108769945D01*
X118205880Y-108775349D01*
X118199839Y-108776094D01*
X118151067Y-108780897D01*
X118144997Y-108781345D01*
X118108225Y-108783151D01*
X118102142Y-108783300D01*
X117895458Y-108783300D01*
X117889375Y-108783151D01*
X117852603Y-108781345D01*
X117846533Y-108780897D01*
X117797761Y-108776094D01*
X117791720Y-108775349D01*
X117755289Y-108769945D01*
X117749292Y-108768904D01*
X117546565Y-108728579D01*
X117540623Y-108727245D01*
X117504897Y-108718295D01*
X117499033Y-108716672D01*
X117452138Y-108702446D01*
X117446360Y-108700537D01*
X117411699Y-108688135D01*
X117406022Y-108685945D01*
X117215072Y-108606852D01*
X117209508Y-108604386D01*
X117176226Y-108588645D01*
X117170791Y-108585909D01*
X117127570Y-108562808D01*
X117122275Y-108559809D01*
X117090682Y-108540874D01*
X117085537Y-108537616D01*
X116913678Y-108422783D01*
X116908702Y-108419278D01*
X116879129Y-108397345D01*
X116874331Y-108393601D01*
X116848203Y-108372158D01*
X116848203Y-109709069D01*
X115850203Y-109709069D01*
X115850203Y-108207069D01*
X114348203Y-108207069D01*
X114348203Y-109709069D01*
X113350203Y-109709069D01*
X113350203Y-108207069D01*
X111848203Y-108207069D01*
X111848203Y-109709069D01*
X110850203Y-109709069D01*
X110850203Y-108207069D01*
X109348203Y-108207069D01*
X109348203Y-109709069D01*
X108350203Y-109709069D01*
X108350203Y-108207069D01*
X106848203Y-108207069D01*
X106848203Y-109709069D01*
X105850203Y-109709069D01*
X105850203Y-108207069D01*
X104348203Y-108207069D01*
X104348203Y-109709069D01*
X103350203Y-109709069D01*
X103350203Y-108207069D01*
X102768691Y-108207069D01*
X101644684Y-108207069D01*
X101634957Y-105707069D01*
X102758964Y-105707069D01*
X102764808Y-107209069D01*
X103350203Y-107209069D01*
X104348203Y-107209069D01*
X105850203Y-107209069D01*
X105850203Y-106884296D01*
X105680110Y-106857356D01*
X105661190Y-106852814D01*
X105489035Y-106796878D01*
X105471058Y-106789432D01*
X105309774Y-106707253D01*
X105293184Y-106697086D01*
X105146740Y-106590689D01*
X105131944Y-106578052D01*
X105089397Y-106535505D01*
X106848203Y-106535505D01*
X106848203Y-107209069D01*
X108350203Y-107209069D01*
X109348203Y-107209069D01*
X110850203Y-107209069D01*
X111848203Y-107209069D01*
X113350203Y-107209069D01*
X114348203Y-107209069D01*
X115850203Y-107209069D01*
X115850203Y-106905953D01*
X117198300Y-106905953D01*
X117198300Y-107063646D01*
X117229061Y-107218289D01*
X117229064Y-107218301D01*
X117289402Y-107363972D01*
X117289409Y-107363985D01*
X117377010Y-107495088D01*
X117377013Y-107495092D01*
X117488507Y-107606586D01*
X117488511Y-107606589D01*
X117619614Y-107694190D01*
X117619627Y-107694197D01*
X117765298Y-107754535D01*
X117765303Y-107754537D01*
X117919953Y-107785299D01*
X117919956Y-107785300D01*
X117919958Y-107785300D01*
X118077644Y-107785300D01*
X118077645Y-107785299D01*
X118232297Y-107754537D01*
X118377979Y-107694194D01*
X118509089Y-107606589D01*
X118620589Y-107495089D01*
X118708194Y-107363979D01*
X118768537Y-107218297D01*
X118799300Y-107063642D01*
X118799300Y-106905958D01*
X118799300Y-106905955D01*
X118799299Y-106905953D01*
X118785902Y-106838603D01*
X118768537Y-106751303D01*
X118764389Y-106741289D01*
X118708197Y-106605627D01*
X118708190Y-106605614D01*
X118620589Y-106474511D01*
X118620586Y-106474507D01*
X118509092Y-106363013D01*
X118509088Y-106363010D01*
X118377985Y-106275409D01*
X118377972Y-106275402D01*
X118232301Y-106215064D01*
X118232289Y-106215061D01*
X118077645Y-106184300D01*
X118077642Y-106184300D01*
X117919958Y-106184300D01*
X117919955Y-106184300D01*
X117765310Y-106215061D01*
X117765298Y-106215064D01*
X117619627Y-106275402D01*
X117619614Y-106275409D01*
X117488511Y-106363010D01*
X117488507Y-106363013D01*
X117377013Y-106474507D01*
X117377010Y-106474511D01*
X117289409Y-106605614D01*
X117289402Y-106605627D01*
X117229064Y-106751298D01*
X117229061Y-106751310D01*
X117198300Y-106905953D01*
X115850203Y-106905953D01*
X115850203Y-105790991D01*
X119348203Y-105790991D01*
X119372538Y-105817842D01*
X119376512Y-105822449D01*
X119407601Y-105860331D01*
X119411345Y-105865129D01*
X119433278Y-105894702D01*
X119436783Y-105899678D01*
X119551616Y-106071537D01*
X119554874Y-106076682D01*
X119573809Y-106108275D01*
X119576808Y-106113570D01*
X119599909Y-106156791D01*
X119602645Y-106162226D01*
X119618386Y-106195508D01*
X119620852Y-106201072D01*
X119699945Y-106392022D01*
X119702135Y-106397699D01*
X119714537Y-106432360D01*
X119716446Y-106438138D01*
X119730672Y-106485033D01*
X119732295Y-106490897D01*
X119741245Y-106526623D01*
X119742579Y-106532565D01*
X119782904Y-106735292D01*
X119783945Y-106741289D01*
X119789349Y-106777720D01*
X119790094Y-106783761D01*
X119794897Y-106832533D01*
X119795345Y-106838603D01*
X119797151Y-106875375D01*
X119797300Y-106881458D01*
X119797300Y-107088142D01*
X119797151Y-107094225D01*
X119795345Y-107130997D01*
X119794897Y-107137067D01*
X119790094Y-107185839D01*
X119789349Y-107191880D01*
X119786799Y-107209069D01*
X120677623Y-107209069D01*
X124348203Y-107209069D01*
X124907201Y-107209069D01*
X124904651Y-107191880D01*
X124903906Y-107185839D01*
X124899103Y-107137067D01*
X124898655Y-107130997D01*
X124896849Y-107094225D01*
X124896700Y-107088142D01*
X124896700Y-106905953D01*
X125894700Y-106905953D01*
X125894700Y-107063646D01*
X125925461Y-107218289D01*
X125925464Y-107218301D01*
X125985802Y-107363972D01*
X125985809Y-107363985D01*
X126073410Y-107495088D01*
X126073413Y-107495092D01*
X126184907Y-107606586D01*
X126184911Y-107606589D01*
X126316014Y-107694190D01*
X126316027Y-107694197D01*
X126461698Y-107754535D01*
X126461703Y-107754537D01*
X126616353Y-107785299D01*
X126616356Y-107785300D01*
X126616358Y-107785300D01*
X126774044Y-107785300D01*
X126774045Y-107785299D01*
X126928697Y-107754537D01*
X127074379Y-107694194D01*
X127205489Y-107606589D01*
X127316989Y-107495089D01*
X127404594Y-107363979D01*
X127464937Y-107218297D01*
X127495700Y-107063642D01*
X127495700Y-106905958D01*
X127495700Y-106905955D01*
X127495699Y-106905953D01*
X127482302Y-106838603D01*
X127464937Y-106751303D01*
X127460789Y-106741289D01*
X127404597Y-106605627D01*
X127404590Y-106605614D01*
X127316989Y-106474511D01*
X127316986Y-106474507D01*
X127205492Y-106363013D01*
X127205488Y-106363010D01*
X127074385Y-106275409D01*
X127074372Y-106275402D01*
X126928701Y-106215064D01*
X126928689Y-106215061D01*
X126774045Y-106184300D01*
X126774042Y-106184300D01*
X126616358Y-106184300D01*
X126616355Y-106184300D01*
X126461710Y-106215061D01*
X126461698Y-106215064D01*
X126316027Y-106275402D01*
X126316014Y-106275409D01*
X126184911Y-106363010D01*
X126184907Y-106363013D01*
X126073413Y-106474507D01*
X126073410Y-106474511D01*
X125985809Y-106605614D01*
X125985802Y-106605627D01*
X125925464Y-106751298D01*
X125925461Y-106751310D01*
X125894700Y-106905953D01*
X124896700Y-106905953D01*
X124896700Y-106881458D01*
X124896849Y-106875375D01*
X124898655Y-106838603D01*
X124899103Y-106832533D01*
X124903906Y-106783761D01*
X124904651Y-106777720D01*
X124910055Y-106741289D01*
X124911096Y-106735292D01*
X124951421Y-106532565D01*
X124952755Y-106526623D01*
X124961705Y-106490897D01*
X124963328Y-106485033D01*
X124977554Y-106438138D01*
X124979463Y-106432360D01*
X124991865Y-106397699D01*
X124994055Y-106392022D01*
X125073148Y-106201072D01*
X125075614Y-106195508D01*
X125091355Y-106162226D01*
X125094091Y-106156791D01*
X125117192Y-106113570D01*
X125120191Y-106108275D01*
X125139126Y-106076682D01*
X125142384Y-106071537D01*
X125257217Y-105899678D01*
X125260722Y-105894702D01*
X125263365Y-105891138D01*
X129278950Y-105891138D01*
X129278950Y-106048831D01*
X129309711Y-106203474D01*
X129309714Y-106203486D01*
X129370052Y-106349157D01*
X129370059Y-106349170D01*
X129457660Y-106480273D01*
X129457663Y-106480277D01*
X129569157Y-106591771D01*
X129569161Y-106591774D01*
X129700264Y-106679375D01*
X129700277Y-106679382D01*
X129767565Y-106707253D01*
X129845953Y-106739722D01*
X130000603Y-106770484D01*
X130000606Y-106770485D01*
X130133045Y-106770485D01*
X130200084Y-106790170D01*
X130220721Y-106806799D01*
X130266736Y-106852814D01*
X130309312Y-106895390D01*
X130440414Y-106982990D01*
X130440427Y-106982997D01*
X130586098Y-107043335D01*
X130586103Y-107043337D01*
X130688203Y-107063646D01*
X130740753Y-107074099D01*
X130740756Y-107074100D01*
X130740758Y-107074100D01*
X130898444Y-107074100D01*
X130898445Y-107074099D01*
X131053097Y-107043337D01*
X131185465Y-106988509D01*
X131198772Y-106982997D01*
X131198772Y-106982996D01*
X131198779Y-106982994D01*
X131329889Y-106895389D01*
X131441389Y-106783889D01*
X131506938Y-106685788D01*
X131516998Y-106670733D01*
X131570610Y-106625928D01*
X131639935Y-106617221D01*
X131702963Y-106647375D01*
X131723202Y-106670733D01*
X131798810Y-106783888D01*
X131798813Y-106783892D01*
X131910307Y-106895386D01*
X131910311Y-106895389D01*
X132041414Y-106982990D01*
X132041427Y-106982997D01*
X132187098Y-107043335D01*
X132187103Y-107043337D01*
X132289203Y-107063646D01*
X132341753Y-107074099D01*
X132341756Y-107074100D01*
X132341758Y-107074100D01*
X132499444Y-107074100D01*
X132499445Y-107074099D01*
X132654097Y-107043337D01*
X132786465Y-106988509D01*
X132799772Y-106982997D01*
X132799772Y-106982996D01*
X132799779Y-106982994D01*
X132822218Y-106968001D01*
X134348203Y-106968001D01*
X134373630Y-106981592D01*
X134378925Y-106984591D01*
X134410518Y-107003526D01*
X134415663Y-107006784D01*
X134587522Y-107121617D01*
X134592498Y-107125122D01*
X134622071Y-107147055D01*
X134626869Y-107150799D01*
X134664751Y-107181888D01*
X134669358Y-107185862D01*
X134694963Y-107209069D01*
X135850203Y-107209069D01*
X139348203Y-107209069D01*
X140850203Y-107209069D01*
X141848203Y-107209069D01*
X143350203Y-107209069D01*
X144348203Y-107209069D01*
X144425900Y-107209069D01*
X144425900Y-106991823D01*
X144425944Y-106988509D01*
X144426480Y-106968461D01*
X144426613Y-106965145D01*
X144428042Y-106938458D01*
X144428264Y-106935144D01*
X144429877Y-106915095D01*
X144430189Y-106911783D01*
X144441355Y-106807931D01*
X144442422Y-106800262D01*
X144450328Y-106754084D01*
X144451872Y-106746499D01*
X144466215Y-106685788D01*
X144468232Y-106678305D01*
X144481842Y-106633436D01*
X144484321Y-106626096D01*
X144557930Y-106428739D01*
X144561319Y-106420559D01*
X144583577Y-106371823D01*
X144587538Y-106363909D01*
X144621715Y-106301319D01*
X144626233Y-106293705D01*
X144655197Y-106248638D01*
X144660245Y-106241368D01*
X144789143Y-106069184D01*
X144794696Y-106062293D01*
X144829776Y-106021808D01*
X144835808Y-106015329D01*
X144886229Y-105964908D01*
X144892708Y-105958876D01*
X144933193Y-105923796D01*
X144940084Y-105918243D01*
X145112268Y-105789345D01*
X145119538Y-105784297D01*
X145164605Y-105755333D01*
X145172219Y-105750815D01*
X145234809Y-105716638D01*
X145242723Y-105712677D01*
X145255002Y-105707069D01*
X144348203Y-105707069D01*
X144348203Y-107209069D01*
X143350203Y-107209069D01*
X143350203Y-105707069D01*
X141848203Y-105707069D01*
X141848203Y-107209069D01*
X140850203Y-107209069D01*
X140850203Y-105707069D01*
X139348203Y-105707069D01*
X139348203Y-107209069D01*
X135850203Y-107209069D01*
X135850203Y-107168832D01*
X135838991Y-107150125D01*
X135835992Y-107144830D01*
X135812891Y-107101609D01*
X135810155Y-107096174D01*
X135794414Y-107062892D01*
X135791948Y-107057328D01*
X135712855Y-106866378D01*
X135710665Y-106860701D01*
X135698263Y-106826040D01*
X135696354Y-106820262D01*
X135695212Y-106816498D01*
X135665485Y-106828812D01*
X135659807Y-106831002D01*
X135625146Y-106843404D01*
X135619368Y-106845313D01*
X135572473Y-106859539D01*
X135566609Y-106861162D01*
X135530883Y-106870112D01*
X135524941Y-106871446D01*
X135322214Y-106911771D01*
X135316217Y-106912812D01*
X135279786Y-106918216D01*
X135273745Y-106918961D01*
X135224973Y-106923764D01*
X135218903Y-106924212D01*
X135182131Y-106926018D01*
X135176048Y-106926167D01*
X134969364Y-106926167D01*
X134963281Y-106926018D01*
X134926509Y-106924212D01*
X134920439Y-106923764D01*
X134871667Y-106918961D01*
X134865626Y-106918216D01*
X134829195Y-106912812D01*
X134823198Y-106911771D01*
X134620471Y-106871446D01*
X134614529Y-106870112D01*
X134578803Y-106861162D01*
X134572939Y-106859539D01*
X134526044Y-106845313D01*
X134520266Y-106843404D01*
X134485605Y-106831002D01*
X134479928Y-106828812D01*
X134348203Y-106774250D01*
X134348203Y-106968001D01*
X132822218Y-106968001D01*
X132930889Y-106895389D01*
X133042389Y-106783889D01*
X133129994Y-106652779D01*
X133190337Y-106507097D01*
X133221100Y-106352442D01*
X133221100Y-106194758D01*
X133221100Y-106194755D01*
X133221099Y-106194753D01*
X136613500Y-106194753D01*
X136613500Y-106352446D01*
X136644261Y-106507089D01*
X136644264Y-106507101D01*
X136704602Y-106652772D01*
X136704609Y-106652785D01*
X136792210Y-106783888D01*
X136792213Y-106783892D01*
X136903707Y-106895386D01*
X136903711Y-106895389D01*
X137034814Y-106982990D01*
X137034827Y-106982997D01*
X137180498Y-107043335D01*
X137180503Y-107043337D01*
X137282603Y-107063646D01*
X137335153Y-107074099D01*
X137335156Y-107074100D01*
X137335158Y-107074100D01*
X137492844Y-107074100D01*
X137492845Y-107074099D01*
X137647497Y-107043337D01*
X137779865Y-106988509D01*
X137793172Y-106982997D01*
X137793172Y-106982996D01*
X137793179Y-106982994D01*
X137924289Y-106895389D01*
X138035789Y-106783889D01*
X138123394Y-106652779D01*
X138183737Y-106507097D01*
X138214500Y-106352442D01*
X138214500Y-106194758D01*
X138214500Y-106194755D01*
X138214499Y-106194753D01*
X138203948Y-106141710D01*
X138183737Y-106040103D01*
X138165475Y-105996014D01*
X138123397Y-105894427D01*
X138123390Y-105894414D01*
X138035789Y-105763311D01*
X138035786Y-105763307D01*
X137924292Y-105651813D01*
X137924288Y-105651810D01*
X137793185Y-105564209D01*
X137793172Y-105564202D01*
X137647501Y-105503864D01*
X137647489Y-105503861D01*
X137492845Y-105473100D01*
X137492842Y-105473100D01*
X137335158Y-105473100D01*
X137335155Y-105473100D01*
X137180510Y-105503861D01*
X137180498Y-105503864D01*
X137034827Y-105564202D01*
X137034814Y-105564209D01*
X136903711Y-105651810D01*
X136903707Y-105651813D01*
X136792213Y-105763307D01*
X136792210Y-105763311D01*
X136704609Y-105894414D01*
X136704602Y-105894427D01*
X136644264Y-106040098D01*
X136644261Y-106040110D01*
X136613500Y-106194753D01*
X133221099Y-106194753D01*
X133210548Y-106141710D01*
X133190337Y-106040103D01*
X133172075Y-105996014D01*
X133129997Y-105894427D01*
X133129990Y-105894414D01*
X133042389Y-105763311D01*
X133042386Y-105763307D01*
X132930892Y-105651813D01*
X132930888Y-105651810D01*
X132799785Y-105564209D01*
X132799772Y-105564202D01*
X132654101Y-105503864D01*
X132654089Y-105503861D01*
X132499445Y-105473100D01*
X132499442Y-105473100D01*
X132341758Y-105473100D01*
X132341755Y-105473100D01*
X132187110Y-105503861D01*
X132187098Y-105503864D01*
X132041427Y-105564202D01*
X132041414Y-105564209D01*
X131910311Y-105651810D01*
X131910307Y-105651813D01*
X131798813Y-105763307D01*
X131798810Y-105763311D01*
X131723202Y-105876466D01*
X131669589Y-105921271D01*
X131600264Y-105929978D01*
X131537237Y-105899823D01*
X131516998Y-105876466D01*
X131441389Y-105763311D01*
X131441386Y-105763307D01*
X131329892Y-105651813D01*
X131329888Y-105651810D01*
X131198785Y-105564209D01*
X131198772Y-105564202D01*
X131053101Y-105503864D01*
X131053089Y-105503861D01*
X130898445Y-105473100D01*
X130898442Y-105473100D01*
X130766005Y-105473100D01*
X130698966Y-105453415D01*
X130678328Y-105436785D01*
X130589739Y-105348196D01*
X130589738Y-105348195D01*
X130589737Y-105348194D01*
X130458635Y-105260594D01*
X130458622Y-105260587D01*
X130312951Y-105200249D01*
X130312939Y-105200246D01*
X130158295Y-105169485D01*
X130158292Y-105169485D01*
X130000608Y-105169485D01*
X130000605Y-105169485D01*
X129845960Y-105200246D01*
X129845948Y-105200249D01*
X129700277Y-105260587D01*
X129700264Y-105260594D01*
X129569161Y-105348195D01*
X129569157Y-105348198D01*
X129457663Y-105459692D01*
X129457660Y-105459696D01*
X129370059Y-105590799D01*
X129370052Y-105590812D01*
X129309714Y-105736483D01*
X129309711Y-105736495D01*
X129278950Y-105891138D01*
X125263365Y-105891138D01*
X125282655Y-105865129D01*
X125286399Y-105860331D01*
X125317488Y-105822449D01*
X125321462Y-105817842D01*
X125346193Y-105790555D01*
X125350391Y-105786146D01*
X125429468Y-105707069D01*
X124348203Y-105707069D01*
X124348203Y-107209069D01*
X120677623Y-107209069D01*
X120674491Y-107203209D01*
X120671755Y-107197774D01*
X120656014Y-107164492D01*
X120653548Y-107158928D01*
X120574455Y-106967978D01*
X120572265Y-106962301D01*
X120559863Y-106927640D01*
X120557954Y-106921862D01*
X120543728Y-106874967D01*
X120542105Y-106869103D01*
X120533155Y-106833377D01*
X120531821Y-106827435D01*
X120491496Y-106624708D01*
X120490455Y-106618711D01*
X120485051Y-106582280D01*
X120484306Y-106576239D01*
X120479503Y-106527467D01*
X120479055Y-106521397D01*
X120477249Y-106484625D01*
X120477100Y-106478542D01*
X120477100Y-106296353D01*
X121475100Y-106296353D01*
X121475100Y-106454046D01*
X121505861Y-106608689D01*
X121505864Y-106608701D01*
X121566202Y-106754372D01*
X121566209Y-106754385D01*
X121653810Y-106885488D01*
X121653813Y-106885492D01*
X121765307Y-106996986D01*
X121765311Y-106996989D01*
X121896414Y-107084590D01*
X121896427Y-107084597D01*
X122023103Y-107137067D01*
X122042103Y-107144937D01*
X122196753Y-107175699D01*
X122196756Y-107175700D01*
X122196758Y-107175700D01*
X122354444Y-107175700D01*
X122354445Y-107175699D01*
X122509097Y-107144937D01*
X122654779Y-107084594D01*
X122785889Y-106996989D01*
X122897389Y-106885489D01*
X122984994Y-106754379D01*
X123045337Y-106608697D01*
X123076100Y-106454042D01*
X123076100Y-106296358D01*
X123076100Y-106296355D01*
X123076099Y-106296353D01*
X123061495Y-106222933D01*
X123045337Y-106141703D01*
X123033684Y-106113570D01*
X122984997Y-105996027D01*
X122984990Y-105996014D01*
X122897389Y-105864911D01*
X122897386Y-105864907D01*
X122785892Y-105753413D01*
X122785888Y-105753410D01*
X122654785Y-105665809D01*
X122654772Y-105665802D01*
X122509101Y-105605464D01*
X122509089Y-105605461D01*
X122354445Y-105574700D01*
X122354442Y-105574700D01*
X122196758Y-105574700D01*
X122196755Y-105574700D01*
X122042110Y-105605461D01*
X122042098Y-105605464D01*
X121896427Y-105665802D01*
X121896414Y-105665809D01*
X121765311Y-105753410D01*
X121765307Y-105753413D01*
X121653813Y-105864907D01*
X121653810Y-105864911D01*
X121566209Y-105996014D01*
X121566202Y-105996027D01*
X121505864Y-106141698D01*
X121505861Y-106141710D01*
X121475100Y-106296353D01*
X120477100Y-106296353D01*
X120477100Y-106271858D01*
X120477249Y-106265775D01*
X120479055Y-106229003D01*
X120479503Y-106222933D01*
X120484306Y-106174161D01*
X120485051Y-106168120D01*
X120490455Y-106131689D01*
X120491496Y-106125692D01*
X120531821Y-105922965D01*
X120533155Y-105917023D01*
X120542105Y-105881297D01*
X120543728Y-105875433D01*
X120557954Y-105828538D01*
X120559863Y-105822760D01*
X120572265Y-105788099D01*
X120574455Y-105782422D01*
X120605667Y-105707069D01*
X119348203Y-105707069D01*
X119348203Y-105790991D01*
X115850203Y-105790991D01*
X115850203Y-105707069D01*
X114348203Y-105707069D01*
X114348203Y-107209069D01*
X113350203Y-107209069D01*
X113350203Y-105707069D01*
X111848203Y-105707069D01*
X111848203Y-107209069D01*
X110850203Y-107209069D01*
X110850203Y-105707069D01*
X109348203Y-105707069D01*
X109348203Y-107209069D01*
X108350203Y-107209069D01*
X108350203Y-105707069D01*
X107242535Y-105707069D01*
X107241273Y-105723105D01*
X107212956Y-105901890D01*
X107208414Y-105920810D01*
X107152478Y-106092965D01*
X107145032Y-106110942D01*
X107062853Y-106272226D01*
X107052686Y-106288816D01*
X106946289Y-106435260D01*
X106933652Y-106450056D01*
X106848203Y-106535505D01*
X105089397Y-106535505D01*
X105003948Y-106450056D01*
X104991311Y-106435260D01*
X104884914Y-106288816D01*
X104874747Y-106272226D01*
X104792568Y-106110942D01*
X104785122Y-106092965D01*
X104729186Y-105920810D01*
X104724644Y-105901890D01*
X104696327Y-105723105D01*
X104695065Y-105707069D01*
X104348203Y-105707069D01*
X104348203Y-107209069D01*
X103350203Y-107209069D01*
X103350203Y-105707069D01*
X102758964Y-105707069D01*
X101634957Y-105707069D01*
X101625229Y-103207069D01*
X102749236Y-103207069D01*
X102755081Y-104709069D01*
X103350203Y-104709069D01*
X103350203Y-104315153D01*
X105168300Y-104315153D01*
X105168300Y-104472846D01*
X105199061Y-104627489D01*
X105199064Y-104627501D01*
X105259402Y-104773172D01*
X105259409Y-104773185D01*
X105347010Y-104904288D01*
X105347013Y-104904292D01*
X105458507Y-105015786D01*
X105458511Y-105015789D01*
X105589614Y-105103390D01*
X105589627Y-105103397D01*
X105735298Y-105163735D01*
X105735303Y-105163737D01*
X105889953Y-105194499D01*
X105889956Y-105194500D01*
X105889958Y-105194500D01*
X106047644Y-105194500D01*
X106047645Y-105194499D01*
X106202297Y-105163737D01*
X106347979Y-105103394D01*
X106429655Y-105048820D01*
X134272206Y-105048820D01*
X134272206Y-105206513D01*
X134302967Y-105361156D01*
X134302970Y-105361168D01*
X134363308Y-105506839D01*
X134363315Y-105506852D01*
X134450916Y-105637955D01*
X134450919Y-105637959D01*
X134562413Y-105749453D01*
X134562417Y-105749456D01*
X134693520Y-105837057D01*
X134693533Y-105837064D01*
X134800323Y-105881297D01*
X134839209Y-105897404D01*
X134959196Y-105921271D01*
X134993859Y-105928166D01*
X134993862Y-105928167D01*
X134993864Y-105928167D01*
X135151550Y-105928167D01*
X135151551Y-105928166D01*
X135306203Y-105897404D01*
X135451885Y-105837061D01*
X135582995Y-105749456D01*
X135694495Y-105637956D01*
X135782100Y-105506846D01*
X135783337Y-105503861D01*
X135842441Y-105361168D01*
X135842443Y-105361164D01*
X135873206Y-105206509D01*
X135873206Y-105048825D01*
X135873206Y-105048822D01*
X135848280Y-104923514D01*
X135854507Y-104853922D01*
X135866789Y-104830440D01*
X135938994Y-104722379D01*
X135999337Y-104576697D01*
X136030100Y-104422042D01*
X136030100Y-104264358D01*
X136030100Y-104264355D01*
X136030099Y-104264353D01*
X136025227Y-104239858D01*
X135999337Y-104109703D01*
X135975082Y-104051145D01*
X135962914Y-104021769D01*
X136999397Y-104021769D01*
X137013704Y-104093692D01*
X137014745Y-104099689D01*
X137020149Y-104136120D01*
X137020894Y-104142161D01*
X137025697Y-104190933D01*
X137026145Y-104197003D01*
X137027951Y-104233775D01*
X137028100Y-104239858D01*
X137028100Y-104446542D01*
X137027951Y-104452625D01*
X137026145Y-104489397D01*
X137025697Y-104495467D01*
X137023523Y-104517536D01*
X137164492Y-104489496D01*
X137170489Y-104488455D01*
X137206920Y-104483051D01*
X137212961Y-104482306D01*
X137261733Y-104477503D01*
X137267803Y-104477055D01*
X137304575Y-104475249D01*
X137310658Y-104475100D01*
X137517342Y-104475100D01*
X137523425Y-104475249D01*
X137560197Y-104477055D01*
X137566267Y-104477503D01*
X137615039Y-104482306D01*
X137621080Y-104483051D01*
X137657511Y-104488455D01*
X137663508Y-104489496D01*
X137866235Y-104529821D01*
X137872177Y-104531155D01*
X137907903Y-104540105D01*
X137913767Y-104541728D01*
X137960662Y-104555954D01*
X137966440Y-104557863D01*
X138001101Y-104570265D01*
X138006778Y-104572455D01*
X138197728Y-104651548D01*
X138203292Y-104654014D01*
X138236574Y-104669755D01*
X138242009Y-104672491D01*
X138285230Y-104695592D01*
X138290525Y-104698591D01*
X138308008Y-104709069D01*
X138350203Y-104709069D01*
X139348203Y-104709069D01*
X140850203Y-104709069D01*
X141848203Y-104709069D01*
X143350203Y-104709069D01*
X143350203Y-104632497D01*
X143297731Y-104594375D01*
X143293843Y-104591432D01*
X143270684Y-104573173D01*
X143266919Y-104570083D01*
X143237112Y-104544622D01*
X143233473Y-104541388D01*
X143211868Y-104521414D01*
X143208364Y-104518044D01*
X143030356Y-104340036D01*
X143026986Y-104336532D01*
X143007012Y-104314927D01*
X143003778Y-104311288D01*
X142978317Y-104281481D01*
X142975227Y-104277716D01*
X142956968Y-104254557D01*
X142954025Y-104250669D01*
X142806026Y-104046965D01*
X142803240Y-104042968D01*
X142786874Y-104018473D01*
X142784250Y-104014373D01*
X142763769Y-103980950D01*
X142761307Y-103976750D01*
X142746917Y-103951054D01*
X142744622Y-103946761D01*
X142630314Y-103722419D01*
X142628189Y-103718036D01*
X142615846Y-103691261D01*
X142613891Y-103686792D01*
X142598893Y-103650575D01*
X142597121Y-103646047D01*
X142586936Y-103618437D01*
X142585342Y-103613840D01*
X142507545Y-103374407D01*
X142506131Y-103369747D01*
X142498138Y-103341405D01*
X142496911Y-103336700D01*
X142487758Y-103298583D01*
X142486713Y-103293823D01*
X142480964Y-103264923D01*
X142480108Y-103260128D01*
X142471704Y-103207069D01*
X141848203Y-103207069D01*
X141848203Y-104709069D01*
X140850203Y-104709069D01*
X140850203Y-103207069D01*
X139348203Y-103207069D01*
X139348203Y-104709069D01*
X138350203Y-104709069D01*
X138350203Y-103763944D01*
X138276463Y-103813216D01*
X138271318Y-103816474D01*
X138239725Y-103835409D01*
X138234430Y-103838408D01*
X138191209Y-103861509D01*
X138185774Y-103864245D01*
X138152492Y-103879986D01*
X138146928Y-103882452D01*
X137955978Y-103961545D01*
X137950301Y-103963735D01*
X137915640Y-103976137D01*
X137909862Y-103978046D01*
X137862967Y-103992272D01*
X137857103Y-103993895D01*
X137821377Y-104002845D01*
X137815435Y-104004179D01*
X137612708Y-104044504D01*
X137606711Y-104045545D01*
X137570280Y-104050949D01*
X137564239Y-104051694D01*
X137515467Y-104056497D01*
X137509397Y-104056945D01*
X137472625Y-104058751D01*
X137466542Y-104058900D01*
X137259858Y-104058900D01*
X137253775Y-104058751D01*
X137217003Y-104056945D01*
X137210933Y-104056497D01*
X137162161Y-104051694D01*
X137156120Y-104050949D01*
X137119689Y-104045545D01*
X137113692Y-104044504D01*
X136999397Y-104021769D01*
X135962914Y-104021769D01*
X135938997Y-103964027D01*
X135938990Y-103964014D01*
X135851389Y-103832911D01*
X135851386Y-103832907D01*
X135739892Y-103721413D01*
X135739888Y-103721410D01*
X135608785Y-103633809D01*
X135608772Y-103633802D01*
X135463101Y-103573464D01*
X135463089Y-103573461D01*
X135308445Y-103542700D01*
X135308442Y-103542700D01*
X135150758Y-103542700D01*
X135150755Y-103542700D01*
X134996110Y-103573461D01*
X134996098Y-103573464D01*
X134850427Y-103633802D01*
X134850414Y-103633809D01*
X134719311Y-103721410D01*
X134719307Y-103721413D01*
X134607813Y-103832907D01*
X134607810Y-103832911D01*
X134520209Y-103964014D01*
X134520202Y-103964027D01*
X134459864Y-104109698D01*
X134459861Y-104109710D01*
X134429100Y-104264353D01*
X134429100Y-104422046D01*
X134454025Y-104547353D01*
X134447798Y-104616945D01*
X134435510Y-104640435D01*
X134363315Y-104748481D01*
X134363308Y-104748494D01*
X134302970Y-104894165D01*
X134302967Y-104894177D01*
X134272206Y-105048820D01*
X106429655Y-105048820D01*
X106479089Y-105015789D01*
X106590589Y-104904289D01*
X106678194Y-104773179D01*
X106738537Y-104627497D01*
X106769300Y-104472842D01*
X106769300Y-104315158D01*
X106769300Y-104315155D01*
X106769299Y-104315153D01*
X106759195Y-104264358D01*
X106738537Y-104160503D01*
X106731905Y-104144492D01*
X106678197Y-104014827D01*
X106678190Y-104014814D01*
X106590589Y-103883711D01*
X106590586Y-103883707D01*
X106479092Y-103772213D01*
X106479088Y-103772210D01*
X106347985Y-103684609D01*
X106347972Y-103684602D01*
X106202301Y-103624264D01*
X106202289Y-103624261D01*
X106047645Y-103593500D01*
X106047642Y-103593500D01*
X105889958Y-103593500D01*
X105889955Y-103593500D01*
X105735310Y-103624261D01*
X105735298Y-103624264D01*
X105589627Y-103684602D01*
X105589614Y-103684609D01*
X105458511Y-103772210D01*
X105458507Y-103772213D01*
X105347013Y-103883707D01*
X105347010Y-103883711D01*
X105259409Y-104014814D01*
X105259402Y-104014827D01*
X105199064Y-104160498D01*
X105199061Y-104160510D01*
X105168300Y-104315153D01*
X103350203Y-104315153D01*
X103350203Y-103207069D01*
X107324436Y-103207069D01*
X107342538Y-103227042D01*
X107346512Y-103231649D01*
X107377601Y-103269531D01*
X107381345Y-103274329D01*
X107403278Y-103303902D01*
X107406783Y-103308878D01*
X107521616Y-103480737D01*
X107524874Y-103485882D01*
X107543809Y-103517475D01*
X107546808Y-103522770D01*
X107569909Y-103565991D01*
X107572645Y-103571426D01*
X107588386Y-103604708D01*
X107590852Y-103610272D01*
X107669945Y-103801222D01*
X107672135Y-103806899D01*
X107684537Y-103841560D01*
X107686446Y-103847338D01*
X107700672Y-103894233D01*
X107702295Y-103900097D01*
X107711245Y-103935823D01*
X107712579Y-103941765D01*
X107752904Y-104144492D01*
X107753945Y-104150489D01*
X107759349Y-104186920D01*
X107760094Y-104192961D01*
X107764897Y-104241733D01*
X107765345Y-104247803D01*
X107767151Y-104284575D01*
X107767300Y-104290658D01*
X107767300Y-104497342D01*
X107767151Y-104503425D01*
X107765345Y-104540197D01*
X107764897Y-104546267D01*
X107760094Y-104595039D01*
X107759349Y-104601080D01*
X107753945Y-104637511D01*
X107752904Y-104643508D01*
X107739863Y-104709069D01*
X108350203Y-104709069D01*
X109348203Y-104709069D01*
X110850203Y-104709069D01*
X111848203Y-104709069D01*
X113350203Y-104709069D01*
X113350203Y-104376089D01*
X113300110Y-104368156D01*
X113281190Y-104363614D01*
X113109035Y-104307678D01*
X113091058Y-104300232D01*
X112929774Y-104218053D01*
X112913184Y-104207886D01*
X112829398Y-104147012D01*
X114348203Y-104147012D01*
X114348203Y-104709069D01*
X115850203Y-104709069D01*
X115850203Y-104117773D01*
X116848203Y-104117773D01*
X116848203Y-104709069D01*
X118350203Y-104709069D01*
X119348203Y-104709069D01*
X120418004Y-104709069D01*
X127318239Y-104709069D01*
X128350203Y-104709069D01*
X128350203Y-104565003D01*
X131848203Y-104565003D01*
X131868160Y-104557863D01*
X131873938Y-104555954D01*
X131920833Y-104541728D01*
X131926697Y-104540105D01*
X131962423Y-104531155D01*
X131968365Y-104529821D01*
X132171092Y-104489496D01*
X132177089Y-104488455D01*
X132213520Y-104483051D01*
X132219561Y-104482306D01*
X132268333Y-104477503D01*
X132274403Y-104477055D01*
X132311175Y-104475249D01*
X132317258Y-104475100D01*
X132523942Y-104475100D01*
X132530025Y-104475249D01*
X132566797Y-104477055D01*
X132572867Y-104477503D01*
X132621639Y-104482306D01*
X132627680Y-104483051D01*
X132664111Y-104488455D01*
X132670108Y-104489496D01*
X132872835Y-104529821D01*
X132878777Y-104531155D01*
X132914503Y-104540105D01*
X132920367Y-104541728D01*
X132967262Y-104555954D01*
X132973040Y-104557863D01*
X133007701Y-104570265D01*
X133013378Y-104572455D01*
X133204328Y-104651548D01*
X133209892Y-104654014D01*
X133243174Y-104669755D01*
X133248609Y-104672491D01*
X133291830Y-104695592D01*
X133297125Y-104698591D01*
X133314608Y-104709069D01*
X133322236Y-104709069D01*
X133328927Y-104675432D01*
X133330261Y-104669490D01*
X133339211Y-104633764D01*
X133340834Y-104627900D01*
X133350203Y-104597015D01*
X133350203Y-103207069D01*
X131848203Y-103207069D01*
X131848203Y-104565003D01*
X128350203Y-104565003D01*
X128350203Y-104326194D01*
X129348203Y-104326194D01*
X129486672Y-104268840D01*
X129492349Y-104266650D01*
X129527010Y-104254248D01*
X129532788Y-104252339D01*
X129579683Y-104238113D01*
X129585547Y-104236490D01*
X129621273Y-104227540D01*
X129627215Y-104226206D01*
X129829942Y-104185881D01*
X129835939Y-104184840D01*
X129872370Y-104179436D01*
X129878411Y-104178691D01*
X129927183Y-104173888D01*
X129933253Y-104173440D01*
X129970025Y-104171634D01*
X129976108Y-104171485D01*
X130182792Y-104171485D01*
X130188875Y-104171634D01*
X130225647Y-104173440D01*
X130231717Y-104173888D01*
X130280489Y-104178691D01*
X130286530Y-104179436D01*
X130322961Y-104184840D01*
X130328958Y-104185881D01*
X130531685Y-104226206D01*
X130537627Y-104227540D01*
X130573353Y-104236490D01*
X130579217Y-104238113D01*
X130626112Y-104252339D01*
X130631890Y-104254248D01*
X130666551Y-104266650D01*
X130672228Y-104268840D01*
X130850203Y-104342558D01*
X130850203Y-103207069D01*
X129348203Y-103207069D01*
X129348203Y-104326194D01*
X128350203Y-104326194D01*
X128350203Y-103207069D01*
X127500195Y-103207069D01*
X127566632Y-103337458D01*
X127574078Y-103355435D01*
X127630014Y-103527590D01*
X127634556Y-103546510D01*
X127662873Y-103725295D01*
X127664400Y-103744693D01*
X127664400Y-103925707D01*
X127662873Y-103945105D01*
X127634556Y-104123890D01*
X127630014Y-104142810D01*
X127574078Y-104314965D01*
X127566632Y-104332942D01*
X127484453Y-104494226D01*
X127474286Y-104510816D01*
X127367889Y-104657260D01*
X127355252Y-104672056D01*
X127318239Y-104709069D01*
X120418004Y-104709069D01*
X120417755Y-104708574D01*
X120402014Y-104675292D01*
X120399548Y-104669728D01*
X120320455Y-104478778D01*
X120318265Y-104473101D01*
X120305863Y-104438440D01*
X120303954Y-104432662D01*
X120289728Y-104385767D01*
X120288105Y-104379903D01*
X120279155Y-104344177D01*
X120277821Y-104338235D01*
X120237496Y-104135508D01*
X120236455Y-104129511D01*
X120231051Y-104093080D01*
X120230306Y-104087039D01*
X120225503Y-104038267D01*
X120225055Y-104032197D01*
X120223249Y-103995425D01*
X120223100Y-103989342D01*
X120223100Y-103807153D01*
X121221100Y-103807153D01*
X121221100Y-103964846D01*
X121251861Y-104119489D01*
X121251864Y-104119501D01*
X121312202Y-104265172D01*
X121312209Y-104265185D01*
X121399810Y-104396288D01*
X121399813Y-104396292D01*
X121511307Y-104507786D01*
X121511311Y-104507789D01*
X121642414Y-104595390D01*
X121642427Y-104595397D01*
X121731996Y-104632497D01*
X121788103Y-104655737D01*
X121942753Y-104686499D01*
X121942756Y-104686500D01*
X121942758Y-104686500D01*
X122100444Y-104686500D01*
X122100445Y-104686499D01*
X122255097Y-104655737D01*
X122400779Y-104595394D01*
X122531889Y-104507789D01*
X122643389Y-104396289D01*
X122730994Y-104265179D01*
X122736313Y-104252339D01*
X122762549Y-104188997D01*
X122791337Y-104119497D01*
X122822100Y-103964842D01*
X122822100Y-103807158D01*
X122822100Y-103807155D01*
X122822099Y-103807153D01*
X122815149Y-103772213D01*
X122791337Y-103652503D01*
X122779639Y-103624261D01*
X122730997Y-103506827D01*
X122730990Y-103506814D01*
X122660122Y-103400753D01*
X124868700Y-103400753D01*
X124868700Y-103558446D01*
X124899461Y-103713089D01*
X124899464Y-103713101D01*
X124959802Y-103858772D01*
X124959809Y-103858785D01*
X125047410Y-103989888D01*
X125047413Y-103989892D01*
X125158907Y-104101386D01*
X125158911Y-104101389D01*
X125290014Y-104188990D01*
X125290027Y-104188997D01*
X125435698Y-104249335D01*
X125435703Y-104249337D01*
X125533751Y-104268840D01*
X125590353Y-104280099D01*
X125590356Y-104280100D01*
X125590358Y-104280100D01*
X125748044Y-104280100D01*
X125748045Y-104280099D01*
X125902697Y-104249337D01*
X126015366Y-104202667D01*
X126048372Y-104188997D01*
X126048372Y-104188996D01*
X126048379Y-104188994D01*
X126179489Y-104101389D01*
X126290989Y-103989889D01*
X126378594Y-103858779D01*
X126438937Y-103713097D01*
X126469700Y-103558442D01*
X126469700Y-103400758D01*
X126469700Y-103400755D01*
X126469699Y-103400753D01*
X126448429Y-103293823D01*
X126438937Y-103246103D01*
X126438935Y-103246098D01*
X126378597Y-103100427D01*
X126378590Y-103100414D01*
X126290989Y-102969311D01*
X126290986Y-102969307D01*
X126179492Y-102857813D01*
X126179488Y-102857810D01*
X126112348Y-102812948D01*
X126067543Y-102759335D01*
X126058836Y-102690010D01*
X126088991Y-102626983D01*
X126133787Y-102595285D01*
X126210773Y-102563397D01*
X126210776Y-102563395D01*
X126210779Y-102563394D01*
X126341889Y-102475789D01*
X126453389Y-102364289D01*
X126540994Y-102233179D01*
X126561010Y-102184855D01*
X126601336Y-102087500D01*
X126601337Y-102087497D01*
X126632100Y-101932842D01*
X126632100Y-101775158D01*
X126632100Y-101775155D01*
X126632099Y-101775153D01*
X126624766Y-101738290D01*
X126601337Y-101620503D01*
X126596938Y-101609882D01*
X126540997Y-101474827D01*
X126540990Y-101474814D01*
X126453389Y-101343711D01*
X126453386Y-101343707D01*
X126341892Y-101232213D01*
X126341888Y-101232210D01*
X126210785Y-101144609D01*
X126210772Y-101144602D01*
X126065101Y-101084264D01*
X126065089Y-101084261D01*
X125910445Y-101053500D01*
X125910442Y-101053500D01*
X125752758Y-101053500D01*
X125752755Y-101053500D01*
X125598110Y-101084261D01*
X125598098Y-101084264D01*
X125452427Y-101144602D01*
X125452414Y-101144609D01*
X125321311Y-101232210D01*
X125321307Y-101232213D01*
X125209813Y-101343707D01*
X125209810Y-101343711D01*
X125122209Y-101474814D01*
X125122202Y-101474827D01*
X125061864Y-101620498D01*
X125061861Y-101620510D01*
X125031100Y-101775153D01*
X125031100Y-101932846D01*
X125061861Y-102087489D01*
X125061864Y-102087500D01*
X125122202Y-102233172D01*
X125122209Y-102233185D01*
X125209810Y-102364288D01*
X125209813Y-102364292D01*
X125321307Y-102475786D01*
X125321311Y-102475789D01*
X125388451Y-102520651D01*
X125433256Y-102574263D01*
X125441963Y-102643588D01*
X125411809Y-102706616D01*
X125367014Y-102738314D01*
X125290020Y-102770206D01*
X125290014Y-102770209D01*
X125158911Y-102857810D01*
X125158907Y-102857813D01*
X125047413Y-102969307D01*
X125047410Y-102969311D01*
X124959809Y-103100414D01*
X124959802Y-103100427D01*
X124899464Y-103246098D01*
X124899461Y-103246110D01*
X124868700Y-103400753D01*
X122660122Y-103400753D01*
X122643389Y-103375711D01*
X122643386Y-103375707D01*
X122531892Y-103264213D01*
X122531888Y-103264210D01*
X122400785Y-103176609D01*
X122400772Y-103176602D01*
X122255101Y-103116264D01*
X122255089Y-103116261D01*
X122100445Y-103085500D01*
X122100442Y-103085500D01*
X121942758Y-103085500D01*
X121942755Y-103085500D01*
X121788110Y-103116261D01*
X121788098Y-103116264D01*
X121642427Y-103176602D01*
X121642414Y-103176609D01*
X121511311Y-103264210D01*
X121511307Y-103264213D01*
X121399813Y-103375707D01*
X121399810Y-103375711D01*
X121312209Y-103506814D01*
X121312202Y-103506827D01*
X121251864Y-103652498D01*
X121251861Y-103652510D01*
X121221100Y-103807153D01*
X120223100Y-103807153D01*
X120223100Y-103782658D01*
X120223249Y-103776575D01*
X120225055Y-103739803D01*
X120225503Y-103733733D01*
X120230306Y-103684961D01*
X120231051Y-103678920D01*
X120236455Y-103642489D01*
X120237496Y-103636492D01*
X120277821Y-103433765D01*
X120279155Y-103427823D01*
X120288105Y-103392097D01*
X120289728Y-103386233D01*
X120303954Y-103339338D01*
X120305863Y-103333560D01*
X120318265Y-103298899D01*
X120320455Y-103293222D01*
X120356140Y-103207069D01*
X119348203Y-103207069D01*
X119348203Y-104709069D01*
X118350203Y-104709069D01*
X118350203Y-103207069D01*
X118347854Y-103207069D01*
X118335674Y-103227391D01*
X118332416Y-103232536D01*
X118217583Y-103404395D01*
X118214078Y-103409371D01*
X118192145Y-103438944D01*
X118188401Y-103443742D01*
X118157312Y-103481624D01*
X118153338Y-103486231D01*
X118128607Y-103513518D01*
X118124409Y-103517927D01*
X117978254Y-103664082D01*
X117973845Y-103668280D01*
X117946558Y-103693011D01*
X117941951Y-103696985D01*
X117904069Y-103728074D01*
X117899271Y-103731818D01*
X117869698Y-103753751D01*
X117864722Y-103757256D01*
X117692863Y-103872089D01*
X117687718Y-103875347D01*
X117656125Y-103894282D01*
X117650830Y-103897281D01*
X117607609Y-103920382D01*
X117602174Y-103923118D01*
X117568892Y-103938859D01*
X117563328Y-103941325D01*
X117372378Y-104020418D01*
X117366701Y-104022608D01*
X117332040Y-104035010D01*
X117326262Y-104036919D01*
X117279367Y-104051145D01*
X117273503Y-104052768D01*
X117237777Y-104061718D01*
X117231835Y-104063052D01*
X117029108Y-104103377D01*
X117023111Y-104104418D01*
X116986680Y-104109822D01*
X116980639Y-104110567D01*
X116931867Y-104115370D01*
X116925797Y-104115818D01*
X116889025Y-104117624D01*
X116882942Y-104117773D01*
X116848203Y-104117773D01*
X115850203Y-104117773D01*
X115850203Y-103861308D01*
X115694478Y-103757256D01*
X115689502Y-103753751D01*
X115659929Y-103731818D01*
X115655131Y-103728074D01*
X115617249Y-103696985D01*
X115612642Y-103693011D01*
X115585355Y-103668280D01*
X115580946Y-103664082D01*
X115434791Y-103517927D01*
X115430593Y-103513518D01*
X115405862Y-103486231D01*
X115401888Y-103481624D01*
X115370799Y-103443742D01*
X115367055Y-103438944D01*
X115345122Y-103409371D01*
X115341617Y-103404395D01*
X115226784Y-103232536D01*
X115223526Y-103227391D01*
X115211346Y-103207069D01*
X114862800Y-103207069D01*
X114862800Y-103214507D01*
X114861273Y-103233905D01*
X114832956Y-103412690D01*
X114828414Y-103431610D01*
X114772478Y-103603765D01*
X114765032Y-103621742D01*
X114682853Y-103783026D01*
X114672686Y-103799616D01*
X114566289Y-103946060D01*
X114553652Y-103960856D01*
X114425656Y-104088852D01*
X114410860Y-104101490D01*
X114348203Y-104147012D01*
X112829398Y-104147012D01*
X112766740Y-104101489D01*
X112751944Y-104088852D01*
X112623948Y-103960856D01*
X112611311Y-103946060D01*
X112504914Y-103799616D01*
X112494747Y-103783026D01*
X112412568Y-103621742D01*
X112405122Y-103603765D01*
X112349186Y-103431610D01*
X112344644Y-103412690D01*
X112316327Y-103233905D01*
X112314800Y-103214507D01*
X112314800Y-103207069D01*
X111848203Y-103207069D01*
X111848203Y-104709069D01*
X110850203Y-104709069D01*
X110850203Y-103207069D01*
X109348203Y-103207069D01*
X109348203Y-104709069D01*
X108350203Y-104709069D01*
X108350203Y-103207069D01*
X107324436Y-103207069D01*
X103350203Y-103207069D01*
X102749236Y-103207069D01*
X101625229Y-103207069D01*
X101621346Y-102209069D01*
X106848203Y-102209069D01*
X108350203Y-102209069D01*
X109348203Y-102209069D01*
X110850203Y-102209069D01*
X110850203Y-101724353D01*
X112839100Y-101724353D01*
X112839100Y-101882046D01*
X112869861Y-102036689D01*
X112869864Y-102036701D01*
X112930202Y-102182372D01*
X112930209Y-102182385D01*
X113017810Y-102313488D01*
X113017813Y-102313492D01*
X113129307Y-102424986D01*
X113129311Y-102424989D01*
X113260414Y-102512590D01*
X113260427Y-102512597D01*
X113383054Y-102563390D01*
X113406103Y-102572937D01*
X113560753Y-102603699D01*
X113560756Y-102603700D01*
X113560758Y-102603700D01*
X113718444Y-102603700D01*
X113718445Y-102603699D01*
X113873097Y-102572937D01*
X114018779Y-102512594D01*
X114149889Y-102424989D01*
X114261389Y-102313489D01*
X114310208Y-102240426D01*
X115979100Y-102240426D01*
X115979100Y-102398119D01*
X116009861Y-102552762D01*
X116009864Y-102552774D01*
X116070202Y-102698445D01*
X116070209Y-102698458D01*
X116157810Y-102829561D01*
X116157813Y-102829565D01*
X116269307Y-102941059D01*
X116269311Y-102941062D01*
X116400414Y-103028663D01*
X116400427Y-103028670D01*
X116513262Y-103075407D01*
X116546103Y-103089010D01*
X116683102Y-103116261D01*
X116700753Y-103119772D01*
X116700756Y-103119773D01*
X116700758Y-103119773D01*
X116858444Y-103119773D01*
X116858445Y-103119772D01*
X117013097Y-103089010D01*
X117158779Y-103028667D01*
X117289889Y-102941062D01*
X117401389Y-102829562D01*
X117488994Y-102698452D01*
X117549337Y-102552770D01*
X117580100Y-102398115D01*
X117580100Y-102240431D01*
X117580100Y-102240428D01*
X117580099Y-102240426D01*
X117573862Y-102209069D01*
X119348203Y-102209069D01*
X120850203Y-102209069D01*
X120850203Y-102091983D01*
X121848203Y-102091983D01*
X121869333Y-102089903D01*
X121875403Y-102089455D01*
X121912175Y-102087649D01*
X121918258Y-102087500D01*
X122124942Y-102087500D01*
X122131025Y-102087649D01*
X122167797Y-102089455D01*
X122173867Y-102089903D01*
X122222639Y-102094706D01*
X122228680Y-102095451D01*
X122265111Y-102100855D01*
X122271108Y-102101896D01*
X122473835Y-102142221D01*
X122479777Y-102143555D01*
X122515503Y-102152505D01*
X122521367Y-102154128D01*
X122568262Y-102168354D01*
X122574040Y-102170263D01*
X122608701Y-102182665D01*
X122614378Y-102184855D01*
X122672837Y-102209069D01*
X123350203Y-102209069D01*
X123350203Y-100707069D01*
X127221967Y-100707069D01*
X127240401Y-100729531D01*
X127244145Y-100734329D01*
X127266078Y-100763902D01*
X127269583Y-100768878D01*
X127384416Y-100940737D01*
X127387674Y-100945882D01*
X127406609Y-100977475D01*
X127409608Y-100982770D01*
X127432709Y-101025991D01*
X127435445Y-101031426D01*
X127451186Y-101064708D01*
X127453652Y-101070272D01*
X127532745Y-101261222D01*
X127534935Y-101266899D01*
X127547337Y-101301560D01*
X127549246Y-101307338D01*
X127563472Y-101354233D01*
X127565095Y-101360097D01*
X127574045Y-101395823D01*
X127575379Y-101401765D01*
X127615704Y-101604492D01*
X127616745Y-101610489D01*
X127622149Y-101646920D01*
X127622894Y-101652961D01*
X127627697Y-101701733D01*
X127628145Y-101707803D01*
X127629951Y-101744575D01*
X127630100Y-101750658D01*
X127630100Y-101957342D01*
X127629951Y-101963425D01*
X127628145Y-102000197D01*
X127627697Y-102006267D01*
X127622894Y-102055039D01*
X127622149Y-102061080D01*
X127616745Y-102097511D01*
X127615704Y-102103508D01*
X127594707Y-102209069D01*
X128350203Y-102209069D01*
X134348203Y-102209069D01*
X135564700Y-102209069D01*
X135564700Y-102181553D01*
X136562700Y-102181553D01*
X136562700Y-102339246D01*
X136593461Y-102493889D01*
X136593464Y-102493901D01*
X136653802Y-102639572D01*
X136653809Y-102639585D01*
X136741410Y-102770688D01*
X136741413Y-102770692D01*
X136852907Y-102882186D01*
X136852911Y-102882189D01*
X136984014Y-102969790D01*
X136984027Y-102969797D01*
X137126144Y-103028663D01*
X137129703Y-103030137D01*
X137284353Y-103060899D01*
X137284356Y-103060900D01*
X137284358Y-103060900D01*
X137442044Y-103060900D01*
X137442045Y-103060899D01*
X137596697Y-103030137D01*
X137742379Y-102969794D01*
X137873489Y-102882189D01*
X137984989Y-102770689D01*
X138072594Y-102639579D01*
X138132937Y-102493897D01*
X138163700Y-102339242D01*
X138163700Y-102181558D01*
X138163700Y-102181555D01*
X138163699Y-102181553D01*
X138151614Y-102120797D01*
X138132937Y-102026903D01*
X138104124Y-101957342D01*
X138072597Y-101881227D01*
X138072590Y-101881214D01*
X137984989Y-101750111D01*
X137984986Y-101750107D01*
X137873492Y-101638613D01*
X137873488Y-101638610D01*
X137742385Y-101551009D01*
X137742372Y-101551002D01*
X137596701Y-101490664D01*
X137596689Y-101490661D01*
X137442045Y-101459900D01*
X137442042Y-101459900D01*
X137284358Y-101459900D01*
X137284355Y-101459900D01*
X137129710Y-101490661D01*
X137129698Y-101490664D01*
X136984027Y-101551002D01*
X136984014Y-101551009D01*
X136852911Y-101638610D01*
X136852907Y-101638613D01*
X136741413Y-101750107D01*
X136741410Y-101750111D01*
X136653809Y-101881214D01*
X136653802Y-101881227D01*
X136593464Y-102026898D01*
X136593461Y-102026910D01*
X136562700Y-102181553D01*
X135564700Y-102181553D01*
X135564700Y-102157058D01*
X135564849Y-102150975D01*
X135566655Y-102114203D01*
X135567103Y-102108133D01*
X135571906Y-102059361D01*
X135572651Y-102053320D01*
X135578055Y-102016889D01*
X135579096Y-102010892D01*
X135619421Y-101808165D01*
X135620755Y-101802223D01*
X135629705Y-101766497D01*
X135631328Y-101760633D01*
X135645554Y-101713738D01*
X135647463Y-101707960D01*
X135659865Y-101673299D01*
X135662055Y-101667622D01*
X135741148Y-101476672D01*
X135743614Y-101471108D01*
X135759355Y-101437826D01*
X135762091Y-101432391D01*
X135785192Y-101389170D01*
X135788191Y-101383875D01*
X135807126Y-101352282D01*
X135810384Y-101347138D01*
X135850203Y-101287544D01*
X135850203Y-100928069D01*
X139348203Y-100928069D01*
X139348203Y-102209069D01*
X140850203Y-102209069D01*
X141848203Y-102209069D01*
X142494757Y-102209069D01*
X142496911Y-102200100D01*
X142498138Y-102195395D01*
X142506131Y-102167053D01*
X142507545Y-102162393D01*
X142585342Y-101922960D01*
X142586936Y-101918363D01*
X142597121Y-101890753D01*
X142598893Y-101886225D01*
X142613891Y-101850008D01*
X142615846Y-101845539D01*
X142628189Y-101818764D01*
X142630314Y-101814381D01*
X142744622Y-101590039D01*
X142746917Y-101585746D01*
X142761307Y-101560050D01*
X142763769Y-101555850D01*
X142784250Y-101522427D01*
X142786874Y-101518327D01*
X142800187Y-101498400D01*
X142786874Y-101478473D01*
X142784250Y-101474373D01*
X142763769Y-101440950D01*
X142761307Y-101436750D01*
X142746917Y-101411054D01*
X142744622Y-101406761D01*
X142630314Y-101182419D01*
X142628189Y-101178036D01*
X142615846Y-101151261D01*
X142613891Y-101146792D01*
X142598893Y-101110575D01*
X142597121Y-101106047D01*
X142586936Y-101078437D01*
X142585342Y-101073840D01*
X142507545Y-100834407D01*
X142506131Y-100829747D01*
X142498138Y-100801405D01*
X142496911Y-100796700D01*
X142487758Y-100758583D01*
X142486713Y-100753823D01*
X142480964Y-100724923D01*
X142480108Y-100720128D01*
X142478040Y-100707069D01*
X141848203Y-100707069D01*
X141848203Y-102209069D01*
X140850203Y-102209069D01*
X140850203Y-100707069D01*
X139600262Y-100707069D01*
X139598052Y-100709656D01*
X139470056Y-100837652D01*
X139455260Y-100850289D01*
X139348203Y-100928069D01*
X135850203Y-100928069D01*
X135850203Y-100707069D01*
X134348203Y-100707069D01*
X134348203Y-102209069D01*
X128350203Y-102209069D01*
X128350203Y-101013153D01*
X130019100Y-101013153D01*
X130019100Y-101170846D01*
X130049861Y-101325489D01*
X130049864Y-101325501D01*
X130110202Y-101471172D01*
X130110209Y-101471185D01*
X130197810Y-101602288D01*
X130197813Y-101602292D01*
X130309307Y-101713786D01*
X130309311Y-101713789D01*
X130440414Y-101801390D01*
X130440427Y-101801397D01*
X130546997Y-101845539D01*
X130586103Y-101861737D01*
X130688203Y-101882046D01*
X130740753Y-101892499D01*
X130740756Y-101892500D01*
X130740758Y-101892500D01*
X130898444Y-101892500D01*
X130898445Y-101892499D01*
X131053097Y-101861737D01*
X131198779Y-101801394D01*
X131329889Y-101713789D01*
X131441389Y-101602289D01*
X131498482Y-101516843D01*
X131516998Y-101489133D01*
X131570610Y-101444328D01*
X131639935Y-101435621D01*
X131702963Y-101465775D01*
X131723202Y-101489133D01*
X131798810Y-101602288D01*
X131798813Y-101602292D01*
X131910307Y-101713786D01*
X131910311Y-101713789D01*
X132041414Y-101801390D01*
X132041427Y-101801397D01*
X132147997Y-101845539D01*
X132187103Y-101861737D01*
X132289203Y-101882046D01*
X132341753Y-101892499D01*
X132341756Y-101892500D01*
X132341758Y-101892500D01*
X132499444Y-101892500D01*
X132499445Y-101892499D01*
X132654097Y-101861737D01*
X132799779Y-101801394D01*
X132930889Y-101713789D01*
X133042389Y-101602289D01*
X133129994Y-101471179D01*
X133130024Y-101471108D01*
X133181373Y-101347138D01*
X133190337Y-101325497D01*
X133221100Y-101170842D01*
X133221100Y-101013158D01*
X133221100Y-101013155D01*
X133221099Y-101013153D01*
X133205795Y-100936216D01*
X133190337Y-100858503D01*
X133178426Y-100829747D01*
X133129997Y-100712827D01*
X133129990Y-100712814D01*
X133042389Y-100581711D01*
X133042386Y-100581707D01*
X132930892Y-100470213D01*
X132930888Y-100470210D01*
X132799785Y-100382609D01*
X132799772Y-100382602D01*
X132654101Y-100322264D01*
X132654089Y-100322261D01*
X132499445Y-100291500D01*
X132499442Y-100291500D01*
X132341758Y-100291500D01*
X132341755Y-100291500D01*
X132187110Y-100322261D01*
X132187098Y-100322264D01*
X132041427Y-100382602D01*
X132041414Y-100382609D01*
X131910311Y-100470210D01*
X131910307Y-100470213D01*
X131798813Y-100581707D01*
X131798810Y-100581711D01*
X131723202Y-100694866D01*
X131669589Y-100739671D01*
X131600264Y-100748378D01*
X131537237Y-100718223D01*
X131516998Y-100694866D01*
X131441389Y-100581711D01*
X131441386Y-100581707D01*
X131329892Y-100470213D01*
X131329888Y-100470210D01*
X131198785Y-100382609D01*
X131198772Y-100382602D01*
X131053101Y-100322264D01*
X131053089Y-100322261D01*
X130898445Y-100291500D01*
X130898442Y-100291500D01*
X130740758Y-100291500D01*
X130740755Y-100291500D01*
X130586110Y-100322261D01*
X130586098Y-100322264D01*
X130440427Y-100382602D01*
X130440414Y-100382609D01*
X130309311Y-100470210D01*
X130309307Y-100470213D01*
X130197813Y-100581707D01*
X130197810Y-100581711D01*
X130110209Y-100712814D01*
X130110202Y-100712827D01*
X130049864Y-100858498D01*
X130049861Y-100858510D01*
X130019100Y-101013153D01*
X128350203Y-101013153D01*
X128350203Y-100707069D01*
X127221967Y-100707069D01*
X123350203Y-100707069D01*
X121848203Y-100707069D01*
X121848203Y-102091983D01*
X120850203Y-102091983D01*
X120850203Y-100707069D01*
X119348203Y-100707069D01*
X119348203Y-102209069D01*
X117573862Y-102209069D01*
X117569045Y-102184855D01*
X117549337Y-102085776D01*
X117538396Y-102059361D01*
X117488997Y-101940100D01*
X117488990Y-101940087D01*
X117401389Y-101808984D01*
X117401386Y-101808980D01*
X117289892Y-101697486D01*
X117289888Y-101697483D01*
X117158785Y-101609882D01*
X117158772Y-101609875D01*
X117013101Y-101549537D01*
X117013089Y-101549534D01*
X116858445Y-101518773D01*
X116858442Y-101518773D01*
X116700758Y-101518773D01*
X116700755Y-101518773D01*
X116546110Y-101549534D01*
X116546098Y-101549537D01*
X116400427Y-101609875D01*
X116400414Y-101609882D01*
X116269311Y-101697483D01*
X116269307Y-101697486D01*
X116157813Y-101808980D01*
X116157810Y-101808984D01*
X116070209Y-101940087D01*
X116070202Y-101940100D01*
X116009864Y-102085771D01*
X116009861Y-102085783D01*
X115979100Y-102240426D01*
X114310208Y-102240426D01*
X114348994Y-102182379D01*
X114409337Y-102036697D01*
X114440100Y-101882042D01*
X114440100Y-101724358D01*
X114440100Y-101724355D01*
X114440099Y-101724353D01*
X114425898Y-101652961D01*
X114409337Y-101569703D01*
X114379803Y-101498400D01*
X114348997Y-101424027D01*
X114348990Y-101424014D01*
X114261389Y-101292911D01*
X114261386Y-101292907D01*
X114149892Y-101181413D01*
X114149888Y-101181410D01*
X114018785Y-101093809D01*
X114018772Y-101093802D01*
X113873101Y-101033464D01*
X113873089Y-101033461D01*
X113718445Y-101002700D01*
X113718442Y-101002700D01*
X113560758Y-101002700D01*
X113560755Y-101002700D01*
X113406110Y-101033461D01*
X113406098Y-101033464D01*
X113260427Y-101093802D01*
X113260414Y-101093809D01*
X113129311Y-101181410D01*
X113129307Y-101181413D01*
X113017813Y-101292907D01*
X113017810Y-101292911D01*
X112930209Y-101424014D01*
X112930202Y-101424027D01*
X112869864Y-101569698D01*
X112869861Y-101569710D01*
X112839100Y-101724353D01*
X110850203Y-101724353D01*
X110850203Y-100707069D01*
X109348203Y-100707069D01*
X109348203Y-102209069D01*
X108350203Y-102209069D01*
X108350203Y-100707069D01*
X106848203Y-100707069D01*
X106848203Y-102209069D01*
X101621346Y-102209069D01*
X101612474Y-99929135D01*
X102010200Y-99929135D01*
X102010200Y-101724870D01*
X102010201Y-101724876D01*
X102016608Y-101784483D01*
X102066902Y-101919328D01*
X102066906Y-101919335D01*
X102153152Y-102034544D01*
X102153155Y-102034547D01*
X102268364Y-102120793D01*
X102268371Y-102120797D01*
X102403217Y-102171091D01*
X102403216Y-102171091D01*
X102410144Y-102171835D01*
X102462827Y-102177500D01*
X104258572Y-102177499D01*
X104318183Y-102171091D01*
X104453031Y-102120796D01*
X104568246Y-102034546D01*
X104654496Y-101919331D01*
X104704791Y-101784483D01*
X104711200Y-101724873D01*
X104711199Y-99929128D01*
X104704791Y-99869517D01*
X104697527Y-99850042D01*
X104654497Y-99734671D01*
X104654493Y-99734664D01*
X104635332Y-99709069D01*
X106848203Y-99709069D01*
X108350203Y-99709069D01*
X109348203Y-99709069D01*
X110850203Y-99709069D01*
X111848203Y-99709069D01*
X113350203Y-99709069D01*
X114348203Y-99709069D01*
X115295500Y-99709069D01*
X115295500Y-99692353D01*
X116293500Y-99692353D01*
X116293500Y-99850046D01*
X116324261Y-100004689D01*
X116324264Y-100004701D01*
X116384602Y-100150372D01*
X116384609Y-100150385D01*
X116472210Y-100281488D01*
X116472213Y-100281492D01*
X116583707Y-100392986D01*
X116583711Y-100392989D01*
X116714814Y-100480590D01*
X116714827Y-100480597D01*
X116860498Y-100540935D01*
X116860503Y-100540937D01*
X117015153Y-100571699D01*
X117015156Y-100571700D01*
X117015158Y-100571700D01*
X117172844Y-100571700D01*
X117172845Y-100571699D01*
X117327497Y-100540937D01*
X117473179Y-100480594D01*
X117604289Y-100392989D01*
X117715789Y-100281489D01*
X117803394Y-100150379D01*
X117863737Y-100004697D01*
X117894500Y-99850042D01*
X117894500Y-99709069D01*
X119348203Y-99709069D01*
X120850203Y-99709069D01*
X120850203Y-99616300D01*
X121848203Y-99616300D01*
X121848203Y-99709069D01*
X123350203Y-99709069D01*
X123350203Y-99074622D01*
X123336296Y-99004708D01*
X123335255Y-98998711D01*
X123329851Y-98962280D01*
X123329106Y-98956239D01*
X123327844Y-98943433D01*
X123297712Y-98980151D01*
X123293738Y-98984758D01*
X123269007Y-99012045D01*
X123264809Y-99016454D01*
X123118654Y-99162609D01*
X123114245Y-99166807D01*
X123086958Y-99191538D01*
X123082351Y-99195512D01*
X123044469Y-99226601D01*
X123039671Y-99230345D01*
X123010098Y-99252278D01*
X123005122Y-99255783D01*
X122833263Y-99370616D01*
X122828118Y-99373874D01*
X122796525Y-99392809D01*
X122791230Y-99395808D01*
X122748009Y-99418909D01*
X122742574Y-99421645D01*
X122709292Y-99437386D01*
X122703728Y-99439852D01*
X122512778Y-99518945D01*
X122507101Y-99521135D01*
X122472440Y-99533537D01*
X122466662Y-99535446D01*
X122419767Y-99549672D01*
X122413903Y-99551295D01*
X122378177Y-99560245D01*
X122372235Y-99561579D01*
X122169508Y-99601904D01*
X122163511Y-99602945D01*
X122127080Y-99608349D01*
X122121039Y-99609094D01*
X122072267Y-99613897D01*
X122066197Y-99614345D01*
X122029425Y-99616151D01*
X122023342Y-99616300D01*
X121848203Y-99616300D01*
X120850203Y-99616300D01*
X120850203Y-99266023D01*
X120834879Y-99255784D01*
X120829902Y-99252278D01*
X120800329Y-99230345D01*
X120795531Y-99226601D01*
X120757649Y-99195512D01*
X120753042Y-99191538D01*
X120725755Y-99166807D01*
X120721346Y-99162609D01*
X120575191Y-99016454D01*
X120570993Y-99012045D01*
X120546262Y-98984758D01*
X120542288Y-98980151D01*
X120511199Y-98942269D01*
X120507455Y-98937471D01*
X120485522Y-98907898D01*
X120482017Y-98902922D01*
X120367184Y-98731063D01*
X120363926Y-98725918D01*
X120344991Y-98694325D01*
X120341992Y-98689030D01*
X120318891Y-98645809D01*
X120316155Y-98640374D01*
X120300414Y-98607092D01*
X120297948Y-98601528D01*
X120218855Y-98410578D01*
X120216665Y-98404901D01*
X120204263Y-98370240D01*
X120202354Y-98364462D01*
X120188128Y-98317567D01*
X120186505Y-98311703D01*
X120177555Y-98275977D01*
X120176221Y-98270035D01*
X120163696Y-98207069D01*
X119348203Y-98207069D01*
X119348203Y-99709069D01*
X117894500Y-99709069D01*
X117894500Y-99692358D01*
X117894500Y-99692355D01*
X117894499Y-99692353D01*
X117887571Y-99657522D01*
X117863737Y-99537703D01*
X117861874Y-99533206D01*
X117803397Y-99392027D01*
X117803390Y-99392014D01*
X117715789Y-99260911D01*
X117715786Y-99260907D01*
X117604292Y-99149413D01*
X117604288Y-99149410D01*
X117473185Y-99061809D01*
X117473172Y-99061802D01*
X117327501Y-99001464D01*
X117327489Y-99001461D01*
X117172845Y-98970700D01*
X117172842Y-98970700D01*
X117015158Y-98970700D01*
X117015155Y-98970700D01*
X116860510Y-99001461D01*
X116860498Y-99001464D01*
X116714827Y-99061802D01*
X116714814Y-99061809D01*
X116583711Y-99149410D01*
X116583707Y-99149413D01*
X116472213Y-99260907D01*
X116472210Y-99260911D01*
X116384609Y-99392014D01*
X116384602Y-99392027D01*
X116324264Y-99537698D01*
X116324261Y-99537710D01*
X116293500Y-99692353D01*
X115295500Y-99692353D01*
X115295500Y-99667858D01*
X115295649Y-99661775D01*
X115297455Y-99625003D01*
X115297903Y-99618933D01*
X115302706Y-99570161D01*
X115303451Y-99564120D01*
X115308855Y-99527689D01*
X115309896Y-99521692D01*
X115350221Y-99318965D01*
X115351555Y-99313023D01*
X115360505Y-99277297D01*
X115362128Y-99271433D01*
X115376354Y-99224538D01*
X115378263Y-99218760D01*
X115390665Y-99184099D01*
X115392855Y-99178422D01*
X115471948Y-98987472D01*
X115474414Y-98981908D01*
X115490155Y-98948626D01*
X115492891Y-98943191D01*
X115515992Y-98899970D01*
X115518991Y-98894675D01*
X115537926Y-98863082D01*
X115541184Y-98857937D01*
X115656017Y-98686078D01*
X115659522Y-98681102D01*
X115681455Y-98651529D01*
X115685199Y-98646731D01*
X115716288Y-98608849D01*
X115720262Y-98604242D01*
X115744993Y-98576955D01*
X115749191Y-98572546D01*
X115850203Y-98471534D01*
X115850203Y-98207069D01*
X114348203Y-98207069D01*
X114348203Y-99709069D01*
X113350203Y-99709069D01*
X113350203Y-98207069D01*
X111848203Y-98207069D01*
X111848203Y-99709069D01*
X110850203Y-99709069D01*
X110850203Y-98445413D01*
X110803105Y-98452873D01*
X110783707Y-98454400D01*
X110602693Y-98454400D01*
X110583295Y-98452873D01*
X110404510Y-98424556D01*
X110385590Y-98420014D01*
X110213435Y-98364078D01*
X110195458Y-98356632D01*
X110034174Y-98274453D01*
X110017584Y-98264286D01*
X109938831Y-98207069D01*
X109348203Y-98207069D01*
X109348203Y-99709069D01*
X108350203Y-99709069D01*
X108350203Y-98207069D01*
X106848203Y-98207069D01*
X106848203Y-99709069D01*
X104635332Y-99709069D01*
X104568247Y-99619455D01*
X104568244Y-99619452D01*
X104453035Y-99533206D01*
X104453028Y-99533202D01*
X104318182Y-99482908D01*
X104318183Y-99482908D01*
X104258583Y-99476501D01*
X104258581Y-99476500D01*
X104258573Y-99476500D01*
X104258565Y-99476500D01*
X104248009Y-99476500D01*
X104180970Y-99456815D01*
X104160328Y-99440181D01*
X103490108Y-98769962D01*
X103553693Y-98752925D01*
X103667707Y-98687099D01*
X103760799Y-98594007D01*
X103826625Y-98479993D01*
X103843662Y-98416409D01*
X104475970Y-99048717D01*
X104475970Y-99048716D01*
X104515322Y-98994554D01*
X104611795Y-98805217D01*
X104677457Y-98603130D01*
X104677457Y-98603127D01*
X104710700Y-98393246D01*
X104710700Y-98180753D01*
X104677457Y-97970872D01*
X104677457Y-97970869D01*
X104611795Y-97768782D01*
X104596596Y-97738953D01*
X121119500Y-97738953D01*
X121119500Y-97896646D01*
X121150261Y-98051289D01*
X121150264Y-98051301D01*
X121210602Y-98196972D01*
X121210609Y-98196985D01*
X121298210Y-98328088D01*
X121298213Y-98328092D01*
X121409707Y-98439586D01*
X121409711Y-98439589D01*
X121540814Y-98527190D01*
X121540827Y-98527197D01*
X121686498Y-98587535D01*
X121686503Y-98587537D01*
X121841153Y-98618299D01*
X121841156Y-98618300D01*
X121841158Y-98618300D01*
X121998844Y-98618300D01*
X121998845Y-98618299D01*
X122153497Y-98587537D01*
X122299179Y-98527194D01*
X122430289Y-98439589D01*
X122541789Y-98328089D01*
X122629394Y-98196979D01*
X122689737Y-98051297D01*
X122720500Y-97896642D01*
X122720500Y-97876350D01*
X124319900Y-97876350D01*
X124319900Y-98034043D01*
X124350661Y-98188686D01*
X124350664Y-98188698D01*
X124399975Y-98307746D01*
X124407444Y-98377215D01*
X124399975Y-98402650D01*
X124350664Y-98521698D01*
X124350661Y-98521710D01*
X124319900Y-98676353D01*
X124319900Y-98834046D01*
X124350661Y-98988689D01*
X124350664Y-98988701D01*
X124411002Y-99134372D01*
X124411009Y-99134385D01*
X124498610Y-99265488D01*
X124498613Y-99265492D01*
X124610107Y-99376986D01*
X124610111Y-99376989D01*
X124741214Y-99464590D01*
X124741227Y-99464597D01*
X124872437Y-99518945D01*
X124886903Y-99524937D01*
X125019413Y-99551295D01*
X125041553Y-99555699D01*
X125041556Y-99555700D01*
X125041558Y-99555700D01*
X125199244Y-99555700D01*
X125199245Y-99555699D01*
X125353897Y-99524937D01*
X125499579Y-99464594D01*
X125630689Y-99376989D01*
X125739298Y-99268380D01*
X126848203Y-99268380D01*
X126848203Y-99709069D01*
X128350203Y-99709069D01*
X129348203Y-99709069D01*
X129663608Y-99709069D01*
X134348203Y-99709069D01*
X135850203Y-99709069D01*
X136848203Y-99709069D01*
X137369252Y-99709069D01*
X137389044Y-99584110D01*
X137393586Y-99565190D01*
X137449522Y-99393035D01*
X137456968Y-99375058D01*
X137539147Y-99213774D01*
X137549314Y-99197184D01*
X137655711Y-99050740D01*
X137668348Y-99035944D01*
X137796344Y-98907948D01*
X137811140Y-98895311D01*
X137918197Y-98817530D01*
X139348203Y-98817530D01*
X139455260Y-98895311D01*
X139470056Y-98907948D01*
X139598052Y-99035944D01*
X139610689Y-99050740D01*
X139717086Y-99197184D01*
X139727253Y-99213774D01*
X139809432Y-99375058D01*
X139816878Y-99393035D01*
X139872814Y-99565190D01*
X139877356Y-99584110D01*
X139897148Y-99709069D01*
X140850203Y-99709069D01*
X141848203Y-99709069D01*
X142485501Y-99709069D01*
X142486713Y-99702977D01*
X142487758Y-99698217D01*
X142496911Y-99660100D01*
X142498138Y-99655395D01*
X142506131Y-99627053D01*
X142507545Y-99622393D01*
X142585342Y-99382960D01*
X142586936Y-99378363D01*
X142597121Y-99350753D01*
X142598893Y-99346225D01*
X142613891Y-99310008D01*
X142615846Y-99305539D01*
X142624925Y-99285842D01*
X142593195Y-99227733D01*
X142589233Y-99219819D01*
X142566975Y-99171082D01*
X142563587Y-99162902D01*
X142489931Y-98965418D01*
X142487452Y-98958079D01*
X142473847Y-98913228D01*
X142471832Y-98905752D01*
X142457484Y-98845037D01*
X142455939Y-98837445D01*
X142448028Y-98791240D01*
X142446959Y-98783567D01*
X142435788Y-98679645D01*
X142435477Y-98676336D01*
X142433865Y-98656299D01*
X142433643Y-98652987D01*
X142432214Y-98626305D01*
X142432081Y-98622987D01*
X142431545Y-98602936D01*
X142431501Y-98599622D01*
X142431501Y-98207069D01*
X141848203Y-98207069D01*
X141848203Y-99709069D01*
X140850203Y-99709069D01*
X140850203Y-98207069D01*
X139348203Y-98207069D01*
X139348203Y-98817530D01*
X137918197Y-98817530D01*
X137957584Y-98788914D01*
X137974174Y-98778747D01*
X138135458Y-98696568D01*
X138153435Y-98689122D01*
X138325590Y-98633186D01*
X138344509Y-98628644D01*
X138350203Y-98627742D01*
X138350203Y-98207069D01*
X136848203Y-98207069D01*
X136848203Y-99709069D01*
X135850203Y-99709069D01*
X135850203Y-98207069D01*
X134348203Y-98207069D01*
X134348203Y-99709069D01*
X129663608Y-99709069D01*
X129695131Y-99683199D01*
X129699929Y-99679455D01*
X129729502Y-99657522D01*
X129734478Y-99654017D01*
X129906337Y-99539184D01*
X129911482Y-99535926D01*
X129943075Y-99516991D01*
X129948370Y-99513992D01*
X129991591Y-99490891D01*
X129997026Y-99488155D01*
X130030308Y-99472414D01*
X130035872Y-99469948D01*
X130226822Y-99390855D01*
X130232499Y-99388665D01*
X130247205Y-99383403D01*
X131848203Y-99383403D01*
X131868160Y-99376263D01*
X131873938Y-99374354D01*
X131920833Y-99360128D01*
X131926697Y-99358505D01*
X131962423Y-99349555D01*
X131968365Y-99348221D01*
X132171092Y-99307896D01*
X132177089Y-99306855D01*
X132213520Y-99301451D01*
X132219561Y-99300706D01*
X132268333Y-99295903D01*
X132274403Y-99295455D01*
X132311175Y-99293649D01*
X132317258Y-99293500D01*
X132523942Y-99293500D01*
X132530025Y-99293649D01*
X132566797Y-99295455D01*
X132572867Y-99295903D01*
X132621639Y-99300706D01*
X132627680Y-99301451D01*
X132664111Y-99306855D01*
X132670108Y-99307896D01*
X132872835Y-99348221D01*
X132878777Y-99349555D01*
X132914503Y-99358505D01*
X132920367Y-99360128D01*
X132967262Y-99374354D01*
X132973040Y-99376263D01*
X133007701Y-99388665D01*
X133013378Y-99390855D01*
X133204328Y-99469948D01*
X133209892Y-99472414D01*
X133243174Y-99488155D01*
X133248609Y-99490891D01*
X133291830Y-99513992D01*
X133297125Y-99516991D01*
X133328718Y-99535926D01*
X133333863Y-99539184D01*
X133350203Y-99550102D01*
X133350203Y-98207069D01*
X131848203Y-98207069D01*
X131848203Y-99383403D01*
X130247205Y-99383403D01*
X130267160Y-99376263D01*
X130272938Y-99374354D01*
X130319833Y-99360128D01*
X130325697Y-99358505D01*
X130361423Y-99349555D01*
X130367365Y-99348221D01*
X130570092Y-99307896D01*
X130576089Y-99306855D01*
X130612520Y-99301451D01*
X130618561Y-99300706D01*
X130667333Y-99295903D01*
X130673403Y-99295455D01*
X130710175Y-99293649D01*
X130716258Y-99293500D01*
X130850203Y-99293500D01*
X130850203Y-98207069D01*
X129348203Y-98207069D01*
X129348203Y-99709069D01*
X128350203Y-99709069D01*
X128350203Y-98207069D01*
X126904034Y-98207069D01*
X126874568Y-98355198D01*
X126904504Y-98505692D01*
X126905545Y-98511689D01*
X126910949Y-98548120D01*
X126911694Y-98554161D01*
X126916497Y-98602933D01*
X126916945Y-98609003D01*
X126918751Y-98645775D01*
X126918900Y-98651858D01*
X126918900Y-98858542D01*
X126918751Y-98864625D01*
X126916945Y-98901397D01*
X126916497Y-98907467D01*
X126911694Y-98956239D01*
X126910949Y-98962280D01*
X126905545Y-98998711D01*
X126904504Y-99004708D01*
X126864179Y-99207435D01*
X126862845Y-99213377D01*
X126853895Y-99249103D01*
X126852272Y-99254967D01*
X126848203Y-99268380D01*
X125739298Y-99268380D01*
X125742189Y-99265489D01*
X125829794Y-99134379D01*
X125890137Y-98988697D01*
X125920900Y-98834042D01*
X125920900Y-98676358D01*
X125920900Y-98676355D01*
X125920899Y-98676353D01*
X125911409Y-98628644D01*
X125890137Y-98521703D01*
X125840823Y-98402649D01*
X125833355Y-98333181D01*
X125840824Y-98307746D01*
X125890137Y-98188694D01*
X125920900Y-98034039D01*
X125920900Y-97876355D01*
X125920900Y-97876352D01*
X125920899Y-97876350D01*
X125890138Y-97721707D01*
X125890137Y-97721700D01*
X125832319Y-97582113D01*
X125829797Y-97576024D01*
X125829790Y-97576011D01*
X125742189Y-97444908D01*
X125742186Y-97444904D01*
X125630692Y-97333410D01*
X125630688Y-97333407D01*
X125499585Y-97245806D01*
X125499572Y-97245799D01*
X125410897Y-97209069D01*
X126848203Y-97209069D01*
X128350203Y-97209069D01*
X128350203Y-96725100D01*
X128177393Y-96725100D01*
X128157995Y-96723573D01*
X127979210Y-96695256D01*
X127960290Y-96690714D01*
X127788135Y-96634778D01*
X127770158Y-96627332D01*
X127608874Y-96545153D01*
X127592284Y-96534986D01*
X127445840Y-96428589D01*
X127431044Y-96415952D01*
X127303048Y-96287956D01*
X127290411Y-96273160D01*
X127184014Y-96126716D01*
X127173847Y-96110126D01*
X127091668Y-95948842D01*
X127084222Y-95930865D01*
X127028286Y-95758710D01*
X127023744Y-95739790D01*
X127018561Y-95707069D01*
X126848203Y-95707069D01*
X126848203Y-97209069D01*
X125410897Y-97209069D01*
X125353901Y-97185461D01*
X125353889Y-97185458D01*
X125199245Y-97154697D01*
X125199242Y-97154697D01*
X125041558Y-97154697D01*
X125041555Y-97154697D01*
X124886910Y-97185458D01*
X124886898Y-97185461D01*
X124741227Y-97245799D01*
X124741214Y-97245806D01*
X124610111Y-97333407D01*
X124610107Y-97333410D01*
X124498613Y-97444904D01*
X124498610Y-97444908D01*
X124411009Y-97576011D01*
X124411002Y-97576024D01*
X124350664Y-97721695D01*
X124350661Y-97721707D01*
X124319900Y-97876350D01*
X122720500Y-97876350D01*
X122720500Y-97738958D01*
X122720500Y-97738955D01*
X122720499Y-97738953D01*
X122689737Y-97584303D01*
X122688830Y-97582113D01*
X122629397Y-97438627D01*
X122629390Y-97438614D01*
X122541789Y-97307511D01*
X122541786Y-97307507D01*
X122430292Y-97196013D01*
X122430288Y-97196010D01*
X122299185Y-97108409D01*
X122299172Y-97108402D01*
X122153501Y-97048064D01*
X122153489Y-97048061D01*
X121998845Y-97017300D01*
X121998842Y-97017300D01*
X121841158Y-97017300D01*
X121841155Y-97017300D01*
X121686510Y-97048061D01*
X121686498Y-97048064D01*
X121540827Y-97108402D01*
X121540814Y-97108409D01*
X121409711Y-97196010D01*
X121409707Y-97196013D01*
X121298213Y-97307507D01*
X121298210Y-97307511D01*
X121210609Y-97438614D01*
X121210602Y-97438627D01*
X121150264Y-97584298D01*
X121150261Y-97584310D01*
X121119500Y-97738953D01*
X104596596Y-97738953D01*
X104515324Y-97579449D01*
X104475970Y-97525282D01*
X104475969Y-97525282D01*
X103843662Y-98157590D01*
X103826625Y-98094007D01*
X103760799Y-97979993D01*
X103667707Y-97886901D01*
X103553693Y-97821075D01*
X103490109Y-97804037D01*
X104122416Y-97171728D01*
X104068250Y-97132375D01*
X103878917Y-97035904D01*
X103676829Y-96970242D01*
X103466946Y-96937000D01*
X103254454Y-96937000D01*
X103044572Y-96970242D01*
X103044569Y-96970242D01*
X102842482Y-97035904D01*
X102653139Y-97132380D01*
X102598982Y-97171727D01*
X102598982Y-97171728D01*
X103231291Y-97804037D01*
X103167707Y-97821075D01*
X103053693Y-97886901D01*
X102960601Y-97979993D01*
X102894775Y-98094007D01*
X102877737Y-98157591D01*
X102245428Y-97525282D01*
X102245427Y-97525282D01*
X102206080Y-97579439D01*
X102109604Y-97768782D01*
X102043942Y-97970869D01*
X102043942Y-97970872D01*
X102010700Y-98180753D01*
X102010700Y-98393246D01*
X102043942Y-98603127D01*
X102043942Y-98603130D01*
X102109604Y-98805217D01*
X102206075Y-98994550D01*
X102245428Y-99048716D01*
X102877737Y-98416408D01*
X102894775Y-98479993D01*
X102960601Y-98594007D01*
X103053693Y-98687099D01*
X103167707Y-98752925D01*
X103231290Y-98769962D01*
X102561070Y-99440181D01*
X102499747Y-99473666D01*
X102473398Y-99476500D01*
X102462834Y-99476500D01*
X102462823Y-99476501D01*
X102403216Y-99482908D01*
X102268371Y-99533202D01*
X102268364Y-99533206D01*
X102153155Y-99619452D01*
X102153152Y-99619455D01*
X102066906Y-99734664D01*
X102066902Y-99734671D01*
X102016608Y-99869517D01*
X102012024Y-99912160D01*
X102010201Y-99929123D01*
X102010200Y-99929135D01*
X101612474Y-99929135D01*
X101600204Y-96775853D01*
X101619627Y-96708742D01*
X101637743Y-96686490D01*
X102464532Y-95882353D01*
X104406300Y-95882353D01*
X104406300Y-96040046D01*
X104437061Y-96194689D01*
X104437064Y-96194701D01*
X104497402Y-96340372D01*
X104497409Y-96340385D01*
X104585010Y-96471488D01*
X104585013Y-96471492D01*
X104696507Y-96582986D01*
X104696511Y-96582989D01*
X104827614Y-96670590D01*
X104827627Y-96670597D01*
X104955879Y-96723720D01*
X104973303Y-96730937D01*
X105111665Y-96758459D01*
X105127953Y-96761699D01*
X105127956Y-96761700D01*
X105127958Y-96761700D01*
X105285644Y-96761700D01*
X105285645Y-96761699D01*
X105440297Y-96730937D01*
X105519310Y-96698209D01*
X106848203Y-96698209D01*
X106848203Y-97209069D01*
X108350203Y-97209069D01*
X109348203Y-97209069D01*
X109419200Y-97209069D01*
X109419200Y-97089893D01*
X109420727Y-97070495D01*
X109449044Y-96891710D01*
X109453586Y-96872790D01*
X109509522Y-96700635D01*
X109516968Y-96682658D01*
X109538198Y-96640993D01*
X111848203Y-96640993D01*
X111869432Y-96682658D01*
X111876878Y-96700635D01*
X111932814Y-96872790D01*
X111937356Y-96891710D01*
X111965673Y-97070495D01*
X111967200Y-97089893D01*
X111967200Y-97209069D01*
X113350203Y-97209069D01*
X113350203Y-97184400D01*
X113244293Y-97184400D01*
X113224895Y-97182873D01*
X113046110Y-97154556D01*
X113027190Y-97150014D01*
X112855035Y-97094078D01*
X112837058Y-97086632D01*
X112675774Y-97004453D01*
X112659184Y-96994286D01*
X112512740Y-96887889D01*
X112497944Y-96875252D01*
X112369948Y-96747256D01*
X112357311Y-96732460D01*
X112321396Y-96683027D01*
X114348203Y-96683027D01*
X114348203Y-97209069D01*
X115850203Y-97209069D01*
X116848203Y-97209069D01*
X118350203Y-97209069D01*
X119348203Y-97209069D01*
X120225463Y-97209069D01*
X120297948Y-97034072D01*
X120300414Y-97028508D01*
X120316155Y-96995226D01*
X120318891Y-96989791D01*
X120341992Y-96946570D01*
X120344991Y-96941275D01*
X120363926Y-96909682D01*
X120367184Y-96904537D01*
X120482017Y-96732678D01*
X120485522Y-96727702D01*
X120507455Y-96698129D01*
X120511199Y-96693331D01*
X120542288Y-96655449D01*
X120546262Y-96650842D01*
X120570993Y-96623555D01*
X120575191Y-96619146D01*
X120721346Y-96472991D01*
X120725755Y-96468793D01*
X120753042Y-96444062D01*
X120757649Y-96440088D01*
X120795531Y-96408999D01*
X120800329Y-96405255D01*
X120829902Y-96383322D01*
X120834878Y-96379817D01*
X120850203Y-96369577D01*
X120850203Y-96019300D01*
X121848203Y-96019300D01*
X122023342Y-96019300D01*
X122029425Y-96019449D01*
X122066197Y-96021255D01*
X122072267Y-96021703D01*
X122121039Y-96026506D01*
X122127080Y-96027251D01*
X122163511Y-96032655D01*
X122169508Y-96033696D01*
X122372235Y-96074021D01*
X122378177Y-96075355D01*
X122413903Y-96084305D01*
X122419767Y-96085928D01*
X122466662Y-96100154D01*
X122472440Y-96102063D01*
X122507101Y-96114465D01*
X122512778Y-96116655D01*
X122703728Y-96195748D01*
X122709292Y-96198214D01*
X122742574Y-96213955D01*
X122748009Y-96216691D01*
X122791230Y-96239792D01*
X122796525Y-96242791D01*
X122828118Y-96261726D01*
X122833263Y-96264984D01*
X123005122Y-96379817D01*
X123010098Y-96383322D01*
X123039671Y-96405255D01*
X123044469Y-96408999D01*
X123082351Y-96440088D01*
X123086958Y-96444062D01*
X123114245Y-96468793D01*
X123118654Y-96472991D01*
X123264809Y-96619146D01*
X123269007Y-96623555D01*
X123293738Y-96650842D01*
X123297712Y-96655449D01*
X123328801Y-96693331D01*
X123332545Y-96698129D01*
X123350203Y-96721937D01*
X123350203Y-96328368D01*
X124348203Y-96328368D01*
X124527622Y-96254052D01*
X124533299Y-96251862D01*
X124567960Y-96239460D01*
X124573738Y-96237551D01*
X124620633Y-96223325D01*
X124626497Y-96221702D01*
X124662223Y-96212752D01*
X124668165Y-96211418D01*
X124870892Y-96171093D01*
X124876889Y-96170052D01*
X124913320Y-96164648D01*
X124919361Y-96163903D01*
X124968133Y-96159100D01*
X124974203Y-96158652D01*
X125010975Y-96156846D01*
X125017058Y-96156697D01*
X125223742Y-96156697D01*
X125229825Y-96156846D01*
X125266597Y-96158652D01*
X125272667Y-96159100D01*
X125321439Y-96163903D01*
X125327480Y-96164648D01*
X125363911Y-96170052D01*
X125369908Y-96171093D01*
X125572635Y-96211418D01*
X125578577Y-96212752D01*
X125614303Y-96221702D01*
X125620167Y-96223325D01*
X125667062Y-96237551D01*
X125672840Y-96239460D01*
X125707501Y-96251862D01*
X125713178Y-96254052D01*
X125850203Y-96310808D01*
X125850203Y-95707069D01*
X124348203Y-95707069D01*
X124348203Y-96328368D01*
X123350203Y-96328368D01*
X123350203Y-95707069D01*
X121848203Y-95707069D01*
X121848203Y-96019300D01*
X120850203Y-96019300D01*
X120850203Y-95707069D01*
X119348203Y-95707069D01*
X119348203Y-97209069D01*
X118350203Y-97209069D01*
X118350203Y-95707069D01*
X116848203Y-95707069D01*
X116848203Y-97209069D01*
X115850203Y-97209069D01*
X115850203Y-95707069D01*
X114799778Y-95707069D01*
X114798145Y-95709271D01*
X114794401Y-95714069D01*
X114763312Y-95751951D01*
X114759338Y-95756558D01*
X114734607Y-95783845D01*
X114730409Y-95788254D01*
X114608800Y-95909863D01*
X114608800Y-96000907D01*
X114607273Y-96020305D01*
X114578956Y-96199090D01*
X114574414Y-96218010D01*
X114518478Y-96390165D01*
X114511032Y-96408142D01*
X114428853Y-96569426D01*
X114418686Y-96586016D01*
X114348203Y-96683027D01*
X112321396Y-96683027D01*
X112250914Y-96586016D01*
X112240747Y-96569426D01*
X112158568Y-96408142D01*
X112151122Y-96390165D01*
X112095186Y-96218010D01*
X112090644Y-96199090D01*
X112062327Y-96020305D01*
X112060800Y-96000907D01*
X112060800Y-95819893D01*
X112061648Y-95809111D01*
X112040791Y-95788254D01*
X112036593Y-95783845D01*
X112011862Y-95756558D01*
X112007888Y-95751951D01*
X111976799Y-95714069D01*
X111973055Y-95709271D01*
X111971422Y-95707069D01*
X111848203Y-95707069D01*
X111848203Y-96640993D01*
X109538198Y-96640993D01*
X109599147Y-96521374D01*
X109609314Y-96504784D01*
X109715711Y-96358340D01*
X109728348Y-96343544D01*
X109856344Y-96215548D01*
X109871140Y-96202911D01*
X110017584Y-96096514D01*
X110034174Y-96086347D01*
X110195458Y-96004168D01*
X110213435Y-95996722D01*
X110385590Y-95940786D01*
X110404510Y-95936244D01*
X110583295Y-95907927D01*
X110602693Y-95906400D01*
X110783707Y-95906400D01*
X110803105Y-95907927D01*
X110850203Y-95915386D01*
X110850203Y-95707069D01*
X109348203Y-95707069D01*
X109348203Y-97209069D01*
X108350203Y-97209069D01*
X108350203Y-95707069D01*
X106989985Y-95707069D01*
X106990904Y-95711691D01*
X106991945Y-95717689D01*
X106997349Y-95754120D01*
X106998094Y-95760161D01*
X107002897Y-95808933D01*
X107003345Y-95815003D01*
X107005151Y-95851775D01*
X107005300Y-95857858D01*
X107005300Y-96064542D01*
X107005151Y-96070625D01*
X107003345Y-96107397D01*
X107002897Y-96113467D01*
X106998094Y-96162239D01*
X106997349Y-96168280D01*
X106991945Y-96204711D01*
X106990904Y-96210708D01*
X106950579Y-96413435D01*
X106949245Y-96419377D01*
X106940295Y-96455103D01*
X106938672Y-96460967D01*
X106924446Y-96507862D01*
X106922537Y-96513640D01*
X106910135Y-96548301D01*
X106907945Y-96553978D01*
X106848203Y-96698209D01*
X105519310Y-96698209D01*
X105585979Y-96670594D01*
X105717089Y-96582989D01*
X105828589Y-96471489D01*
X105916194Y-96340379D01*
X105917221Y-96337901D01*
X105951452Y-96255257D01*
X105976537Y-96194697D01*
X106007300Y-96040042D01*
X106007300Y-95882358D01*
X106007300Y-95882355D01*
X106007299Y-95882353D01*
X105992695Y-95808933D01*
X105976537Y-95727703D01*
X105957099Y-95680775D01*
X105916197Y-95582027D01*
X105916190Y-95582014D01*
X105828589Y-95450911D01*
X105828586Y-95450907D01*
X105717092Y-95339413D01*
X105717088Y-95339410D01*
X105585985Y-95251809D01*
X105585972Y-95251802D01*
X105440301Y-95191464D01*
X105440289Y-95191461D01*
X105285645Y-95160700D01*
X105285642Y-95160700D01*
X105127958Y-95160700D01*
X105127955Y-95160700D01*
X104973310Y-95191461D01*
X104973298Y-95191464D01*
X104827627Y-95251802D01*
X104827614Y-95251809D01*
X104696511Y-95339410D01*
X104696507Y-95339413D01*
X104585013Y-95450907D01*
X104585010Y-95450911D01*
X104497409Y-95582014D01*
X104497402Y-95582027D01*
X104437064Y-95727698D01*
X104437061Y-95727710D01*
X104406300Y-95882353D01*
X102464532Y-95882353D01*
X104162586Y-94230821D01*
X106848203Y-94230821D01*
X106848203Y-94709069D01*
X108350203Y-94709069D01*
X108350203Y-94221457D01*
X106848203Y-94230821D01*
X104162586Y-94230821D01*
X104178611Y-94215235D01*
X109348203Y-94215235D01*
X109348203Y-94709069D01*
X110850203Y-94709069D01*
X110850203Y-94510753D01*
X112585100Y-94510753D01*
X112585100Y-94668446D01*
X112615861Y-94823089D01*
X112615864Y-94823101D01*
X112676202Y-94968772D01*
X112676209Y-94968785D01*
X112763810Y-95099888D01*
X112763813Y-95099892D01*
X112875307Y-95211386D01*
X112875311Y-95211389D01*
X113006414Y-95298990D01*
X113006427Y-95298997D01*
X113152098Y-95359335D01*
X113152103Y-95359337D01*
X113306753Y-95390099D01*
X113306756Y-95390100D01*
X113306758Y-95390100D01*
X113464444Y-95390100D01*
X113464445Y-95390099D01*
X113543606Y-95374353D01*
X129399900Y-95374353D01*
X129399900Y-95532046D01*
X129430661Y-95686689D01*
X129430664Y-95686701D01*
X129491002Y-95832372D01*
X129491009Y-95832385D01*
X129578610Y-95963488D01*
X129578613Y-95963492D01*
X129690107Y-96074986D01*
X129690111Y-96074989D01*
X129821214Y-96162590D01*
X129821227Y-96162597D01*
X129955008Y-96218010D01*
X129966903Y-96222937D01*
X130112318Y-96251862D01*
X130121553Y-96253699D01*
X130121556Y-96253700D01*
X130121558Y-96253700D01*
X130279244Y-96253700D01*
X130279245Y-96253699D01*
X130433897Y-96222937D01*
X130550212Y-96174758D01*
X131848203Y-96174758D01*
X131848203Y-97209069D01*
X133350203Y-97209069D01*
X134348203Y-97209069D01*
X135850203Y-97209069D01*
X136848203Y-97209069D01*
X138350203Y-97209069D01*
X139348203Y-97209069D01*
X140850203Y-97209069D01*
X141848203Y-97209069D01*
X142431500Y-97209069D01*
X142431500Y-96790535D01*
X143429500Y-96790535D01*
X143429500Y-98586270D01*
X143429501Y-98586276D01*
X143435908Y-98645883D01*
X143486202Y-98780728D01*
X143486206Y-98780735D01*
X143572452Y-98895944D01*
X143572455Y-98895947D01*
X143687664Y-98982193D01*
X143687671Y-98982197D01*
X143819082Y-99031210D01*
X143875016Y-99073081D01*
X143899433Y-99138545D01*
X143884582Y-99206818D01*
X143863431Y-99235073D01*
X143749889Y-99348615D01*
X143624951Y-99520579D01*
X143528444Y-99709985D01*
X143462753Y-99912160D01*
X143429500Y-100122113D01*
X143429500Y-100334686D01*
X143462166Y-100540935D01*
X143462754Y-100544643D01*
X143517396Y-100712814D01*
X143528444Y-100746814D01*
X143624951Y-100936220D01*
X143749890Y-101108186D01*
X143900213Y-101258509D01*
X144072182Y-101383450D01*
X144080946Y-101387916D01*
X144131742Y-101435891D01*
X144148536Y-101503712D01*
X144125998Y-101569847D01*
X144080946Y-101608884D01*
X144072182Y-101613349D01*
X143900213Y-101738290D01*
X143749890Y-101888613D01*
X143624951Y-102060579D01*
X143528444Y-102249985D01*
X143462753Y-102452160D01*
X143429500Y-102662113D01*
X143429500Y-102874686D01*
X143462735Y-103084527D01*
X143462754Y-103084643D01*
X143521099Y-103264211D01*
X143528444Y-103286814D01*
X143624951Y-103476220D01*
X143749890Y-103648186D01*
X143900213Y-103798509D01*
X144072179Y-103923448D01*
X144072181Y-103923449D01*
X144072184Y-103923451D01*
X144261588Y-104019957D01*
X144463757Y-104085646D01*
X144673713Y-104118900D01*
X144673714Y-104118900D01*
X144886286Y-104118900D01*
X144886287Y-104118900D01*
X145096243Y-104085646D01*
X145298412Y-104019957D01*
X145487816Y-103923451D01*
X145527964Y-103894282D01*
X145659786Y-103798509D01*
X145659788Y-103798506D01*
X145659792Y-103798504D01*
X145810104Y-103648192D01*
X145810106Y-103648188D01*
X145810109Y-103648186D01*
X145895890Y-103530117D01*
X145935051Y-103476216D01*
X145939793Y-103466908D01*
X145987763Y-103416111D01*
X146055583Y-103399311D01*
X146121719Y-103421845D01*
X146160763Y-103466900D01*
X146165373Y-103475947D01*
X146204728Y-103530116D01*
X146837037Y-102897808D01*
X146854075Y-102961393D01*
X146919901Y-103075407D01*
X147012993Y-103168499D01*
X147127007Y-103234325D01*
X147190590Y-103251362D01*
X146558282Y-103883669D01*
X146558282Y-103883670D01*
X146612449Y-103923024D01*
X146801782Y-104019495D01*
X147003870Y-104085157D01*
X147213754Y-104118400D01*
X147426246Y-104118400D01*
X147636127Y-104085157D01*
X147636130Y-104085157D01*
X147838217Y-104019495D01*
X148027554Y-103923022D01*
X148081716Y-103883670D01*
X148081717Y-103883670D01*
X147449408Y-103251362D01*
X147512993Y-103234325D01*
X147627007Y-103168499D01*
X147720099Y-103075407D01*
X147785925Y-102961393D01*
X147802962Y-102897809D01*
X148435270Y-103530117D01*
X148435270Y-103530116D01*
X148474622Y-103475954D01*
X148571095Y-103286617D01*
X148636757Y-103084530D01*
X148636757Y-103084527D01*
X148670000Y-102874646D01*
X148670000Y-102662153D01*
X148636757Y-102452272D01*
X148636757Y-102452269D01*
X148571095Y-102250182D01*
X148474624Y-102060849D01*
X148435270Y-102006682D01*
X148435269Y-102006682D01*
X147802962Y-102638990D01*
X147785925Y-102575407D01*
X147720099Y-102461393D01*
X147627007Y-102368301D01*
X147512993Y-102302475D01*
X147449409Y-102285437D01*
X148081716Y-101653128D01*
X148027547Y-101613773D01*
X148027547Y-101613772D01*
X148018500Y-101609163D01*
X147967706Y-101561188D01*
X147950912Y-101493366D01*
X147973451Y-101427232D01*
X148018508Y-101388193D01*
X148027816Y-101383451D01*
X148107594Y-101325489D01*
X148199786Y-101258509D01*
X148199788Y-101258506D01*
X148199792Y-101258504D01*
X148350104Y-101108192D01*
X148350106Y-101108188D01*
X148350109Y-101108186D01*
X148475048Y-100936220D01*
X148475047Y-100936220D01*
X148475051Y-100936216D01*
X148571557Y-100746812D01*
X148637246Y-100544643D01*
X148670500Y-100334687D01*
X148670500Y-100122113D01*
X148637246Y-99912157D01*
X148571557Y-99709988D01*
X148475051Y-99520584D01*
X148475049Y-99520581D01*
X148475048Y-99520579D01*
X148350109Y-99348613D01*
X148199786Y-99198290D01*
X148027820Y-99073351D01*
X148027115Y-99072991D01*
X148019054Y-99068885D01*
X147968259Y-99020912D01*
X147951463Y-98953092D01*
X147973999Y-98886956D01*
X148019054Y-98847915D01*
X148027816Y-98843451D01*
X148049789Y-98827486D01*
X148199786Y-98718509D01*
X148199788Y-98718506D01*
X148199792Y-98718504D01*
X148350104Y-98568192D01*
X148350106Y-98568188D01*
X148350109Y-98568186D01*
X148475048Y-98396220D01*
X148475047Y-98396220D01*
X148475051Y-98396216D01*
X148571557Y-98206812D01*
X148637246Y-98004643D01*
X148670500Y-97794687D01*
X148670500Y-97582113D01*
X148637246Y-97372157D01*
X148571557Y-97169988D01*
X148475051Y-96980584D01*
X148475049Y-96980581D01*
X148475048Y-96980579D01*
X148350109Y-96808613D01*
X148199786Y-96658290D01*
X148027820Y-96533351D01*
X147838414Y-96436844D01*
X147838413Y-96436843D01*
X147838412Y-96436843D01*
X147636243Y-96371154D01*
X147636241Y-96371153D01*
X147636240Y-96371153D01*
X147474957Y-96345608D01*
X147426287Y-96337900D01*
X147213713Y-96337900D01*
X147165042Y-96345608D01*
X147003760Y-96371153D01*
X146801585Y-96436844D01*
X146612179Y-96533351D01*
X146440215Y-96658289D01*
X146326673Y-96771831D01*
X146265350Y-96805315D01*
X146195658Y-96800331D01*
X146139725Y-96758459D01*
X146122810Y-96727482D01*
X146073797Y-96596071D01*
X146073793Y-96596064D01*
X145987547Y-96480855D01*
X145987544Y-96480852D01*
X145872335Y-96394606D01*
X145872328Y-96394602D01*
X145737482Y-96344308D01*
X145737483Y-96344308D01*
X145677883Y-96337901D01*
X145677881Y-96337900D01*
X145677873Y-96337900D01*
X145677864Y-96337900D01*
X143882129Y-96337900D01*
X143882123Y-96337901D01*
X143822516Y-96344308D01*
X143687671Y-96394602D01*
X143687664Y-96394606D01*
X143572455Y-96480852D01*
X143572452Y-96480855D01*
X143486206Y-96596064D01*
X143486202Y-96596071D01*
X143435908Y-96730917D01*
X143429501Y-96790516D01*
X143429500Y-96790535D01*
X142431500Y-96790535D01*
X142431500Y-96777152D01*
X142431545Y-96773828D01*
X142432084Y-96753727D01*
X142432217Y-96750407D01*
X142433649Y-96723720D01*
X142433871Y-96720411D01*
X142435481Y-96700418D01*
X142435792Y-96697115D01*
X142446962Y-96593225D01*
X142448029Y-96585557D01*
X142455936Y-96539371D01*
X142457481Y-96531781D01*
X142471826Y-96471070D01*
X142473842Y-96463591D01*
X142487450Y-96418728D01*
X142489929Y-96411388D01*
X142563587Y-96213898D01*
X142566975Y-96205718D01*
X142589233Y-96156981D01*
X142593195Y-96149067D01*
X142627372Y-96086477D01*
X142631890Y-96078863D01*
X142660854Y-96033796D01*
X142665902Y-96026526D01*
X142794886Y-95854227D01*
X142800439Y-95847336D01*
X142835519Y-95806851D01*
X142841551Y-95800372D01*
X142891972Y-95749951D01*
X142898451Y-95743919D01*
X142938936Y-95708839D01*
X142941132Y-95707069D01*
X141848203Y-95707069D01*
X141848203Y-97209069D01*
X140850203Y-97209069D01*
X140850203Y-95707069D01*
X139348203Y-95707069D01*
X139348203Y-97209069D01*
X138350203Y-97209069D01*
X138350203Y-95707069D01*
X136848203Y-95707069D01*
X136848203Y-97209069D01*
X135850203Y-97209069D01*
X135850203Y-95707069D01*
X134348203Y-95707069D01*
X134348203Y-97209069D01*
X133350203Y-97209069D01*
X133350203Y-95707069D01*
X131983637Y-95707069D01*
X131944179Y-95905435D01*
X131942845Y-95911377D01*
X131933895Y-95947103D01*
X131932272Y-95952967D01*
X131918046Y-95999862D01*
X131916137Y-96005640D01*
X131903735Y-96040301D01*
X131901545Y-96045978D01*
X131848203Y-96174758D01*
X130550212Y-96174758D01*
X130579572Y-96162597D01*
X130579572Y-96162596D01*
X130579579Y-96162594D01*
X130710689Y-96074989D01*
X130822189Y-95963489D01*
X130909794Y-95832379D01*
X130970137Y-95686697D01*
X131000900Y-95532042D01*
X131000900Y-95374358D01*
X131000900Y-95374355D01*
X131000899Y-95374353D01*
X130993949Y-95339413D01*
X130970137Y-95219703D01*
X130958439Y-95191461D01*
X130909797Y-95074027D01*
X130909790Y-95074014D01*
X130822189Y-94942911D01*
X130822186Y-94942907D01*
X130710692Y-94831413D01*
X130710688Y-94831410D01*
X130579585Y-94743809D01*
X130579572Y-94743802D01*
X130433901Y-94683464D01*
X130433889Y-94683461D01*
X130279245Y-94652700D01*
X130279242Y-94652700D01*
X130121558Y-94652700D01*
X130121555Y-94652700D01*
X129966910Y-94683461D01*
X129966898Y-94683464D01*
X129821227Y-94743802D01*
X129821214Y-94743809D01*
X129690111Y-94831410D01*
X129690107Y-94831413D01*
X129578613Y-94942907D01*
X129578610Y-94942911D01*
X129491009Y-95074014D01*
X129491002Y-95074027D01*
X129430664Y-95219698D01*
X129430661Y-95219710D01*
X129399900Y-95374353D01*
X113543606Y-95374353D01*
X113619097Y-95359337D01*
X113764779Y-95298994D01*
X113895889Y-95211389D01*
X114007389Y-95099889D01*
X114094994Y-94968779D01*
X114155337Y-94823097D01*
X114186100Y-94668442D01*
X114186100Y-94510758D01*
X114186100Y-94510755D01*
X114186099Y-94510753D01*
X114178711Y-94473611D01*
X114155337Y-94356103D01*
X114119830Y-94270380D01*
X114094997Y-94210427D01*
X114094990Y-94210414D01*
X114066968Y-94168477D01*
X116848203Y-94168477D01*
X116848203Y-94709069D01*
X118350203Y-94709069D01*
X118350203Y-94159113D01*
X116848203Y-94168477D01*
X114066968Y-94168477D01*
X114056554Y-94152891D01*
X119348203Y-94152891D01*
X119348203Y-94709069D01*
X120850203Y-94709069D01*
X120850203Y-94143527D01*
X119348203Y-94152891D01*
X114056554Y-94152891D01*
X114046140Y-94137305D01*
X121848203Y-94137305D01*
X121848203Y-94709069D01*
X123350203Y-94709069D01*
X123350203Y-94127941D01*
X121848203Y-94137305D01*
X114046140Y-94137305D01*
X114035726Y-94121719D01*
X124348203Y-94121719D01*
X124348203Y-94709069D01*
X125850203Y-94709069D01*
X125850203Y-94112355D01*
X124348203Y-94121719D01*
X114035726Y-94121719D01*
X114025311Y-94106133D01*
X126848203Y-94106133D01*
X126848203Y-94709069D01*
X127232267Y-94709069D01*
X127290411Y-94629040D01*
X127303048Y-94614244D01*
X127431044Y-94486248D01*
X127445840Y-94473611D01*
X127592284Y-94367214D01*
X127608874Y-94357047D01*
X127770158Y-94274868D01*
X127788135Y-94267422D01*
X127960290Y-94211486D01*
X127979210Y-94206944D01*
X128157995Y-94178627D01*
X128177393Y-94177100D01*
X128350203Y-94177100D01*
X128350203Y-94096768D01*
X126848203Y-94106133D01*
X114025311Y-94106133D01*
X114007389Y-94079311D01*
X114007386Y-94079307D01*
X114003040Y-94074961D01*
X131848203Y-94074961D01*
X131848203Y-94709069D01*
X133350203Y-94709069D01*
X133350203Y-94065596D01*
X131848203Y-94074961D01*
X114003040Y-94074961D01*
X113987454Y-94059375D01*
X134348203Y-94059375D01*
X134348203Y-94709069D01*
X135850203Y-94709069D01*
X135850203Y-94050010D01*
X134348203Y-94059375D01*
X113987454Y-94059375D01*
X113971868Y-94043789D01*
X136848203Y-94043789D01*
X136848203Y-94709069D01*
X138350203Y-94709069D01*
X138350203Y-94034424D01*
X136848203Y-94043789D01*
X113971868Y-94043789D01*
X113956282Y-94028203D01*
X139348203Y-94028203D01*
X139348203Y-94709069D01*
X140850203Y-94709069D01*
X140850203Y-94018838D01*
X139348203Y-94028203D01*
X113956282Y-94028203D01*
X113940696Y-94012617D01*
X141848203Y-94012617D01*
X141848203Y-94709069D01*
X143350203Y-94709069D01*
X144348203Y-94709069D01*
X145850203Y-94709069D01*
X145850203Y-94188663D01*
X145650894Y-94011500D01*
X144348203Y-94011500D01*
X144348203Y-94709069D01*
X143350203Y-94709069D01*
X143350203Y-94011500D01*
X142027508Y-94011500D01*
X141848203Y-94012617D01*
X113940696Y-94012617D01*
X113895892Y-93967813D01*
X113895888Y-93967810D01*
X113764785Y-93880209D01*
X113764772Y-93880202D01*
X113619101Y-93819864D01*
X113619089Y-93819861D01*
X113464445Y-93789100D01*
X113464442Y-93789100D01*
X113306758Y-93789100D01*
X113306755Y-93789100D01*
X113152110Y-93819861D01*
X113152098Y-93819864D01*
X113006427Y-93880202D01*
X113006414Y-93880209D01*
X112875311Y-93967810D01*
X112875307Y-93967813D01*
X112763813Y-94079307D01*
X112763810Y-94079311D01*
X112676209Y-94210414D01*
X112676202Y-94210427D01*
X112615864Y-94356098D01*
X112615861Y-94356110D01*
X112585100Y-94510753D01*
X110850203Y-94510753D01*
X110850203Y-94205871D01*
X109348203Y-94215235D01*
X104178611Y-94215235D01*
X105272626Y-93151193D01*
X105334404Y-93118565D01*
X105358294Y-93116088D01*
X121813239Y-93013501D01*
X121814012Y-93013500D01*
X145915890Y-93013500D01*
X145915892Y-93013500D01*
X146043186Y-92979392D01*
X146049607Y-92975684D01*
X146117500Y-92959209D01*
X146183529Y-92982056D01*
G37*
%TD.AperFunction*%
%TD*%
M02*
