%TF.GenerationSoftware,KiCad,Pcbnew,9.0.4*%
%TF.CreationDate,2025-12-07T20:09:45+03:30*%
%TF.ProjectId,MCU_Datalogger003_4Layer,4d43555f-4461-4746-916c-6f6767657230,2*%
%TF.SameCoordinates,Original*%
%TF.FileFunction,Copper,L2,Inr*%
%TF.FilePolarity,Positive*%
%FSLAX46Y46*%
G04 Gerber Fmt 4.6, Leading zero omitted, Abs format (unit mm)*
G04 Created by KiCad (PCBNEW 9.0.4) date 2025-12-07 20:09:45*
%MOMM*%
%LPD*%
G01*
G04 APERTURE LIST*
%TA.AperFunction,ComponentPad*%
%ADD10R,1.700000X1.700000*%
%TD*%
%TA.AperFunction,ComponentPad*%
%ADD11C,1.700000*%
%TD*%
%TA.AperFunction,ViaPad*%
%ADD12C,0.600000*%
%TD*%
%TA.AperFunction,Conductor*%
%ADD13C,0.200000*%
%TD*%
G04 APERTURE END LIST*
D10*
%TO.N,/MISO*%
%TO.C,J4*%
X144780000Y-97688400D03*
D11*
%TO.N,/Vcc*%
X147320000Y-97688400D03*
%TO.N,/SCK*%
X144780000Y-100228400D03*
%TO.N,/MOSI*%
X147320000Y-100228400D03*
%TO.N,/RESET*%
X144780000Y-102768400D03*
%TO.N,GND*%
X147320000Y-102768400D03*
%TD*%
D10*
%TO.N,/Vcc*%
%TO.C,BT1*%
X103360700Y-100827000D03*
D11*
%TO.N,GND*%
X103360700Y-98287000D03*
%TD*%
D10*
%TO.N,/D2*%
%TO.C,J3*%
X107780300Y-121096200D03*
D11*
%TO.N,/D3*%
X110320300Y-121096200D03*
%TO.N,/D4*%
X112860300Y-121096200D03*
%TO.N,/D5*%
X115400300Y-121096200D03*
%TO.N,/D6*%
X117940300Y-121096200D03*
%TO.N,/D7*%
X120480300Y-121096200D03*
%TO.N,/D8*%
X123020300Y-121096200D03*
%TO.N,GND*%
X125560300Y-121096200D03*
%TO.N,/Vcc*%
X128100300Y-121096200D03*
%TD*%
D10*
%TO.N,GND*%
%TO.C,J2*%
X134348700Y-121147000D03*
D11*
%TO.N,/Vcc*%
X136888700Y-121147000D03*
%TO.N,/RX*%
X139428700Y-121147000D03*
%TO.N,/TX*%
X141968700Y-121147000D03*
%TD*%
D10*
%TO.N,GND*%
%TO.C,J1*%
X146773900Y-107903000D03*
D11*
%TO.N,/Vcc*%
X146773900Y-110443000D03*
%TO.N,/SDA*%
X146773900Y-112983000D03*
%TO.N,/SCK*%
X146773900Y-115523000D03*
%TD*%
D12*
%TO.N,/SDA*%
X125831600Y-101854000D03*
X117094000Y-99771200D03*
%TO.N,/Vcc*%
X137414000Y-106273600D03*
X137363200Y-102260400D03*
X125669200Y-103479600D03*
X122021600Y-103886000D03*
X130200400Y-95453200D03*
X113385600Y-94589600D03*
X105206800Y-95961200D03*
X113639600Y-101803200D03*
X105968800Y-104394000D03*
X110947200Y-115112800D03*
%TO.N,GND*%
X123139200Y-103936800D03*
X138633200Y-99872800D03*
X128267900Y-95451100D03*
X110693200Y-97180400D03*
X113334800Y-95910400D03*
X113588800Y-103124000D03*
X126390400Y-103835200D03*
X138633200Y-112623600D03*
X106984800Y-113436400D03*
X105968800Y-105613200D03*
%TO.N,/RESET*%
X125120400Y-97955197D03*
%TO.N,/MISO*%
X129032000Y-109270800D03*
%TO.N,/SCK*%
X121920000Y-97817800D03*
X125120400Y-98755200D03*
%TO.N,Net-(U4-PB6)*%
X132420600Y-114706400D03*
X130819600Y-114604800D03*
%TO.N,/SCK*%
X135072706Y-105127667D03*
X143572592Y-110994721D03*
%TO.N,/SDA*%
X135229600Y-104343200D03*
X142646400Y-109159600D03*
%TO.N,Net-(U4-AREF)*%
X134183729Y-109159600D03*
X130079450Y-105969985D03*
%TO.N,Net-(U4-PB7)*%
X119613600Y-112623600D03*
%TO.N,Net-(U4-PB6)*%
X126847600Y-112217200D03*
X122275600Y-106375200D03*
%TO.N,Net-(U4-PB7)*%
X117998800Y-106984800D03*
X116779600Y-102319273D03*
%TO.N,/SCK*%
X132420600Y-106273600D03*
X130819600Y-106273600D03*
%TO.N,/SDA*%
X130819600Y-101092000D03*
X132420600Y-101092000D03*
%TO.N,/MOSI*%
X126695200Y-106984800D03*
X133502400Y-108559600D03*
%TD*%
D13*
%TO.N,/SDA*%
X117094000Y-99771200D02*
X123748800Y-99771200D01*
X123748800Y-99771200D02*
X125831600Y-101854000D01*
%TO.N,Net-(U4-PB6)*%
X122986800Y-106375200D02*
X122275600Y-106375200D01*
X126847600Y-110236000D02*
X122986800Y-106375200D01*
X126847600Y-112217200D02*
X126847600Y-110236000D01*
%TO.N,/RESET*%
X145931000Y-101617400D02*
X144780000Y-102768400D01*
X143137000Y-99077400D02*
X145256760Y-99077400D01*
X143179800Y-99034600D02*
X143137000Y-99077400D01*
X126606397Y-96469200D02*
X140614400Y-96469200D01*
X145256760Y-99077400D02*
X145931000Y-99751640D01*
X145931000Y-99751640D02*
X145931000Y-101617400D01*
X125120400Y-97955197D02*
X126606397Y-96469200D01*
X140614400Y-96469200D02*
X143179800Y-99034600D01*
%TO.N,Net-(U4-PB7)*%
X119613600Y-112450800D02*
X119613600Y-112623600D01*
X117998800Y-110836000D02*
X119613600Y-112450800D01*
X117998800Y-106984800D02*
X117998800Y-110836000D01*
%TO.N,Net-(U4-PB6)*%
X132319000Y-114604800D02*
X132420600Y-114706400D01*
X130819600Y-114604800D02*
X132319000Y-114604800D01*
%TO.N,/SCK*%
X143629000Y-101379400D02*
X144780000Y-100228400D01*
X143629000Y-110845600D02*
X143629000Y-101379400D01*
X143620113Y-110854487D02*
X143629000Y-110845600D01*
X143620113Y-110947200D02*
X143620113Y-110854487D01*
X143256000Y-110693200D02*
X137515600Y-104952800D01*
X143271070Y-110693200D02*
X143256000Y-110693200D01*
X137515600Y-104952800D02*
X135247573Y-104952800D01*
X143572592Y-110994721D02*
X143620113Y-110947200D01*
X135247573Y-104952800D02*
X135072706Y-105127667D01*
X143572592Y-110994721D02*
X143271070Y-110693200D01*
X121920000Y-97891600D02*
X121920000Y-97817800D01*
X122783600Y-98755200D02*
X121920000Y-97891600D01*
X125120400Y-98755200D02*
X122783600Y-98755200D01*
%TO.N,/SDA*%
X142646400Y-109159600D02*
X142586000Y-109159600D01*
X137769600Y-104343200D02*
X135229600Y-104343200D01*
X142586000Y-109159600D02*
X137769600Y-104343200D01*
%TO.N,Net-(U4-AREF)*%
X134183729Y-108390986D02*
X134183729Y-109159600D01*
X133751343Y-107958600D02*
X134183729Y-108390986D01*
X130079450Y-105969985D02*
X130079450Y-106609850D01*
X130079450Y-106609850D02*
X131428200Y-107958600D01*
X131428200Y-107958600D02*
X133751343Y-107958600D01*
%TO.N,Net-(U4-PB7)*%
X117998800Y-103538473D02*
X116779600Y-102319273D01*
X117998800Y-106984800D02*
X117998800Y-103538473D01*
%TO.N,/SDA*%
X132420600Y-101092000D02*
X130819600Y-101092000D01*
%TO.N,/MOSI*%
X126746000Y-107035600D02*
X126695200Y-106984800D01*
X127457200Y-107035600D02*
X126746000Y-107035600D01*
X133502400Y-108559600D02*
X128981200Y-108559600D01*
X128981200Y-108559600D02*
X127457200Y-107035600D01*
%TO.N,/SCK*%
X132420600Y-106273600D02*
X130819600Y-106273600D01*
%TD*%
M02*
