%TF.GenerationSoftware,KiCad,Pcbnew,9.0.4*%
%TF.CreationDate,2025-12-07T20:09:46+03:30*%
%TF.ProjectId,MCU_Datalogger003_4Layer,4d43555f-4461-4746-916c-6f6767657230,2*%
%TF.SameCoordinates,Original*%
%TF.FileFunction,Legend,Bot*%
%TF.FilePolarity,Positive*%
%FSLAX46Y46*%
G04 Gerber Fmt 4.6, Leading zero omitted, Abs format (unit mm)*
G04 Created by KiCad (PCBNEW 9.0.4) date 2025-12-07 20:09:46*
%MOMM*%
%LPD*%
G01*
G04 APERTURE LIST*
%ADD10C,0.400000*%
%ADD11C,0.300000*%
%ADD12C,0.200000*%
%ADD13C,0.010000*%
G04 APERTURE END LIST*
D10*
X144654552Y-109435757D02*
X143130743Y-109435757D01*
X140654552Y-110197662D02*
X140654552Y-108197662D01*
X139797409Y-108388138D02*
X139702171Y-108292900D01*
X139702171Y-108292900D02*
X139511695Y-108197662D01*
X139511695Y-108197662D02*
X139035504Y-108197662D01*
X139035504Y-108197662D02*
X138845028Y-108292900D01*
X138845028Y-108292900D02*
X138749790Y-108388138D01*
X138749790Y-108388138D02*
X138654552Y-108578614D01*
X138654552Y-108578614D02*
X138654552Y-108769090D01*
X138654552Y-108769090D02*
X138749790Y-109054804D01*
X138749790Y-109054804D02*
X139892647Y-110197662D01*
X139892647Y-110197662D02*
X138654552Y-110197662D01*
X136654552Y-110007185D02*
X136749790Y-110102424D01*
X136749790Y-110102424D02*
X137035504Y-110197662D01*
X137035504Y-110197662D02*
X137225980Y-110197662D01*
X137225980Y-110197662D02*
X137511695Y-110102424D01*
X137511695Y-110102424D02*
X137702171Y-109911947D01*
X137702171Y-109911947D02*
X137797409Y-109721471D01*
X137797409Y-109721471D02*
X137892647Y-109340519D01*
X137892647Y-109340519D02*
X137892647Y-109054804D01*
X137892647Y-109054804D02*
X137797409Y-108673852D01*
X137797409Y-108673852D02*
X137702171Y-108483376D01*
X137702171Y-108483376D02*
X137511695Y-108292900D01*
X137511695Y-108292900D02*
X137225980Y-108197662D01*
X137225980Y-108197662D02*
X137035504Y-108197662D01*
X137035504Y-108197662D02*
X136749790Y-108292900D01*
X136749790Y-108292900D02*
X136654552Y-108388138D01*
X135702171Y-110102424D02*
X135702171Y-110197662D01*
X135702171Y-110197662D02*
X135797409Y-110388138D01*
X135797409Y-110388138D02*
X135892647Y-110483376D01*
X134940266Y-110102424D02*
X134654552Y-110197662D01*
X134654552Y-110197662D02*
X134178361Y-110197662D01*
X134178361Y-110197662D02*
X133987885Y-110102424D01*
X133987885Y-110102424D02*
X133892647Y-110007185D01*
X133892647Y-110007185D02*
X133797409Y-109816709D01*
X133797409Y-109816709D02*
X133797409Y-109626233D01*
X133797409Y-109626233D02*
X133892647Y-109435757D01*
X133892647Y-109435757D02*
X133987885Y-109340519D01*
X133987885Y-109340519D02*
X134178361Y-109245281D01*
X134178361Y-109245281D02*
X134559314Y-109150043D01*
X134559314Y-109150043D02*
X134749790Y-109054804D01*
X134749790Y-109054804D02*
X134845028Y-108959566D01*
X134845028Y-108959566D02*
X134940266Y-108769090D01*
X134940266Y-108769090D02*
X134940266Y-108578614D01*
X134940266Y-108578614D02*
X134845028Y-108388138D01*
X134845028Y-108388138D02*
X134749790Y-108292900D01*
X134749790Y-108292900D02*
X134559314Y-108197662D01*
X134559314Y-108197662D02*
X134083123Y-108197662D01*
X134083123Y-108197662D02*
X133797409Y-108292900D01*
X132940266Y-110197662D02*
X132940266Y-108197662D01*
X132940266Y-108197662D02*
X132178361Y-108197662D01*
X132178361Y-108197662D02*
X131987885Y-108292900D01*
X131987885Y-108292900D02*
X131892647Y-108388138D01*
X131892647Y-108388138D02*
X131797409Y-108578614D01*
X131797409Y-108578614D02*
X131797409Y-108864328D01*
X131797409Y-108864328D02*
X131892647Y-109054804D01*
X131892647Y-109054804D02*
X131987885Y-109150043D01*
X131987885Y-109150043D02*
X132178361Y-109245281D01*
X132178361Y-109245281D02*
X132940266Y-109245281D01*
X130940266Y-110197662D02*
X130940266Y-108197662D01*
X129892647Y-110102424D02*
X129892647Y-110197662D01*
X129892647Y-110197662D02*
X129987885Y-110388138D01*
X129987885Y-110388138D02*
X130083123Y-110483376D01*
X127987885Y-108292900D02*
X128178361Y-108197662D01*
X128178361Y-108197662D02*
X128464075Y-108197662D01*
X128464075Y-108197662D02*
X128749790Y-108292900D01*
X128749790Y-108292900D02*
X128940266Y-108483376D01*
X128940266Y-108483376D02*
X129035504Y-108673852D01*
X129035504Y-108673852D02*
X129130742Y-109054804D01*
X129130742Y-109054804D02*
X129130742Y-109340519D01*
X129130742Y-109340519D02*
X129035504Y-109721471D01*
X129035504Y-109721471D02*
X128940266Y-109911947D01*
X128940266Y-109911947D02*
X128749790Y-110102424D01*
X128749790Y-110102424D02*
X128464075Y-110197662D01*
X128464075Y-110197662D02*
X128273599Y-110197662D01*
X128273599Y-110197662D02*
X127987885Y-110102424D01*
X127987885Y-110102424D02*
X127892647Y-110007185D01*
X127892647Y-110007185D02*
X127892647Y-109340519D01*
X127892647Y-109340519D02*
X128273599Y-109340519D01*
X127035504Y-110197662D02*
X127035504Y-108197662D01*
X127035504Y-108197662D02*
X126273599Y-108197662D01*
X126273599Y-108197662D02*
X126083123Y-108292900D01*
X126083123Y-108292900D02*
X125987885Y-108388138D01*
X125987885Y-108388138D02*
X125892647Y-108578614D01*
X125892647Y-108578614D02*
X125892647Y-108864328D01*
X125892647Y-108864328D02*
X125987885Y-109054804D01*
X125987885Y-109054804D02*
X126083123Y-109150043D01*
X126083123Y-109150043D02*
X126273599Y-109245281D01*
X126273599Y-109245281D02*
X127035504Y-109245281D01*
X125035504Y-110197662D02*
X125035504Y-108197662D01*
X123702171Y-108197662D02*
X123321218Y-108197662D01*
X123321218Y-108197662D02*
X123130742Y-108292900D01*
X123130742Y-108292900D02*
X122940266Y-108483376D01*
X122940266Y-108483376D02*
X122845028Y-108864328D01*
X122845028Y-108864328D02*
X122845028Y-109530995D01*
X122845028Y-109530995D02*
X122940266Y-109911947D01*
X122940266Y-109911947D02*
X123130742Y-110102424D01*
X123130742Y-110102424D02*
X123321218Y-110197662D01*
X123321218Y-110197662D02*
X123702171Y-110197662D01*
X123702171Y-110197662D02*
X123892647Y-110102424D01*
X123892647Y-110102424D02*
X124083123Y-109911947D01*
X124083123Y-109911947D02*
X124178361Y-109530995D01*
X124178361Y-109530995D02*
X124178361Y-108864328D01*
X124178361Y-108864328D02*
X124083123Y-108483376D01*
X124083123Y-108483376D02*
X123892647Y-108292900D01*
X123892647Y-108292900D02*
X123702171Y-108197662D01*
X122083123Y-110102424D02*
X121892647Y-110197662D01*
X121892647Y-110197662D02*
X121511695Y-110197662D01*
X121511695Y-110197662D02*
X121321218Y-110102424D01*
X121321218Y-110102424D02*
X121225980Y-109911947D01*
X121225980Y-109911947D02*
X121225980Y-109816709D01*
X121225980Y-109816709D02*
X121321218Y-109626233D01*
X121321218Y-109626233D02*
X121511695Y-109530995D01*
X121511695Y-109530995D02*
X121797409Y-109530995D01*
X121797409Y-109530995D02*
X121987885Y-109435757D01*
X121987885Y-109435757D02*
X122083123Y-109245281D01*
X122083123Y-109245281D02*
X122083123Y-109150043D01*
X122083123Y-109150043D02*
X121987885Y-108959566D01*
X121987885Y-108959566D02*
X121797409Y-108864328D01*
X121797409Y-108864328D02*
X121511695Y-108864328D01*
X121511695Y-108864328D02*
X121321218Y-108959566D01*
X144654552Y-112655645D02*
X143130743Y-112655645D01*
X139511695Y-113417550D02*
X140178362Y-112465169D01*
X140654552Y-113417550D02*
X140654552Y-111417550D01*
X140654552Y-111417550D02*
X139892647Y-111417550D01*
X139892647Y-111417550D02*
X139702171Y-111512788D01*
X139702171Y-111512788D02*
X139606933Y-111608026D01*
X139606933Y-111608026D02*
X139511695Y-111798502D01*
X139511695Y-111798502D02*
X139511695Y-112084216D01*
X139511695Y-112084216D02*
X139606933Y-112274692D01*
X139606933Y-112274692D02*
X139702171Y-112369931D01*
X139702171Y-112369931D02*
X139892647Y-112465169D01*
X139892647Y-112465169D02*
X140654552Y-112465169D01*
X138940266Y-111417550D02*
X137797409Y-111417550D01*
X138368838Y-113417550D02*
X138368838Y-111417550D01*
X135987885Y-113227073D02*
X136083123Y-113322312D01*
X136083123Y-113322312D02*
X136368837Y-113417550D01*
X136368837Y-113417550D02*
X136559313Y-113417550D01*
X136559313Y-113417550D02*
X136845028Y-113322312D01*
X136845028Y-113322312D02*
X137035504Y-113131835D01*
X137035504Y-113131835D02*
X137130742Y-112941359D01*
X137130742Y-112941359D02*
X137225980Y-112560407D01*
X137225980Y-112560407D02*
X137225980Y-112274692D01*
X137225980Y-112274692D02*
X137130742Y-111893740D01*
X137130742Y-111893740D02*
X137035504Y-111703264D01*
X137035504Y-111703264D02*
X136845028Y-111512788D01*
X136845028Y-111512788D02*
X136559313Y-111417550D01*
X136559313Y-111417550D02*
X136368837Y-111417550D01*
X136368837Y-111417550D02*
X136083123Y-111512788D01*
X136083123Y-111512788D02*
X135987885Y-111608026D01*
X144654552Y-115875533D02*
X143130743Y-115875533D01*
X140749790Y-114827914D02*
X140654552Y-114732676D01*
X140654552Y-114732676D02*
X140464076Y-114637438D01*
X140464076Y-114637438D02*
X139987885Y-114637438D01*
X139987885Y-114637438D02*
X139797409Y-114732676D01*
X139797409Y-114732676D02*
X139702171Y-114827914D01*
X139702171Y-114827914D02*
X139606933Y-115018390D01*
X139606933Y-115018390D02*
X139606933Y-115208866D01*
X139606933Y-115208866D02*
X139702171Y-115494580D01*
X139702171Y-115494580D02*
X140845028Y-116637438D01*
X140845028Y-116637438D02*
X139606933Y-116637438D01*
X138749790Y-116637438D02*
X138749790Y-114637438D01*
X138749790Y-114637438D02*
X138083123Y-116066009D01*
X138083123Y-116066009D02*
X137416457Y-114637438D01*
X137416457Y-114637438D02*
X137416457Y-116637438D01*
X136464076Y-116637438D02*
X136464076Y-114637438D01*
X136464076Y-115399342D02*
X136273600Y-115304104D01*
X136273600Y-115304104D02*
X135892647Y-115304104D01*
X135892647Y-115304104D02*
X135702171Y-115399342D01*
X135702171Y-115399342D02*
X135606933Y-115494580D01*
X135606933Y-115494580D02*
X135511695Y-115685057D01*
X135511695Y-115685057D02*
X135511695Y-116256485D01*
X135511695Y-116256485D02*
X135606933Y-116446961D01*
X135606933Y-116446961D02*
X135702171Y-116542200D01*
X135702171Y-116542200D02*
X135892647Y-116637438D01*
X135892647Y-116637438D02*
X136273600Y-116637438D01*
X136273600Y-116637438D02*
X136464076Y-116542200D01*
X134654552Y-116637438D02*
X134654552Y-115304104D01*
X134654552Y-114637438D02*
X134749790Y-114732676D01*
X134749790Y-114732676D02*
X134654552Y-114827914D01*
X134654552Y-114827914D02*
X134559314Y-114732676D01*
X134559314Y-114732676D02*
X134654552Y-114637438D01*
X134654552Y-114637438D02*
X134654552Y-114827914D01*
X133987885Y-115304104D02*
X133225981Y-115304104D01*
X133702171Y-114637438D02*
X133702171Y-116351723D01*
X133702171Y-116351723D02*
X133606933Y-116542200D01*
X133606933Y-116542200D02*
X133416457Y-116637438D01*
X133416457Y-116637438D02*
X133225981Y-116637438D01*
X131035504Y-115589819D02*
X130368837Y-115589819D01*
X130083123Y-116637438D02*
X131035504Y-116637438D01*
X131035504Y-116637438D02*
X131035504Y-114637438D01*
X131035504Y-114637438D02*
X130083123Y-114637438D01*
X129225980Y-115589819D02*
X128559313Y-115589819D01*
X128273599Y-116637438D02*
X129225980Y-116637438D01*
X129225980Y-116637438D02*
X129225980Y-114637438D01*
X129225980Y-114637438D02*
X128273599Y-114637438D01*
X127416456Y-116637438D02*
X127416456Y-114637438D01*
X127416456Y-114637438D02*
X126654551Y-114637438D01*
X126654551Y-114637438D02*
X126464075Y-114732676D01*
X126464075Y-114732676D02*
X126368837Y-114827914D01*
X126368837Y-114827914D02*
X126273599Y-115018390D01*
X126273599Y-115018390D02*
X126273599Y-115304104D01*
X126273599Y-115304104D02*
X126368837Y-115494580D01*
X126368837Y-115494580D02*
X126464075Y-115589819D01*
X126464075Y-115589819D02*
X126654551Y-115685057D01*
X126654551Y-115685057D02*
X127416456Y-115685057D01*
X124273599Y-116637438D02*
X124940266Y-115685057D01*
X125416456Y-116637438D02*
X125416456Y-114637438D01*
X125416456Y-114637438D02*
X124654551Y-114637438D01*
X124654551Y-114637438D02*
X124464075Y-114732676D01*
X124464075Y-114732676D02*
X124368837Y-114827914D01*
X124368837Y-114827914D02*
X124273599Y-115018390D01*
X124273599Y-115018390D02*
X124273599Y-115304104D01*
X124273599Y-115304104D02*
X124368837Y-115494580D01*
X124368837Y-115494580D02*
X124464075Y-115589819D01*
X124464075Y-115589819D02*
X124654551Y-115685057D01*
X124654551Y-115685057D02*
X125416456Y-115685057D01*
X123035504Y-114637438D02*
X122654551Y-114637438D01*
X122654551Y-114637438D02*
X122464075Y-114732676D01*
X122464075Y-114732676D02*
X122273599Y-114923152D01*
X122273599Y-114923152D02*
X122178361Y-115304104D01*
X122178361Y-115304104D02*
X122178361Y-115970771D01*
X122178361Y-115970771D02*
X122273599Y-116351723D01*
X122273599Y-116351723D02*
X122464075Y-116542200D01*
X122464075Y-116542200D02*
X122654551Y-116637438D01*
X122654551Y-116637438D02*
X123035504Y-116637438D01*
X123035504Y-116637438D02*
X123225980Y-116542200D01*
X123225980Y-116542200D02*
X123416456Y-116351723D01*
X123416456Y-116351723D02*
X123511694Y-115970771D01*
X123511694Y-115970771D02*
X123511694Y-115304104D01*
X123511694Y-115304104D02*
X123416456Y-114923152D01*
X123416456Y-114923152D02*
X123225980Y-114732676D01*
X123225980Y-114732676D02*
X123035504Y-114637438D01*
X121321218Y-116637438D02*
X121321218Y-114637438D01*
X121321218Y-114637438D02*
X120654551Y-116066009D01*
X120654551Y-116066009D02*
X119987885Y-114637438D01*
X119987885Y-114637438D02*
X119987885Y-116637438D01*
D11*
X141001692Y-98726612D02*
X140644549Y-99726612D01*
X140644549Y-99726612D02*
X140287406Y-98726612D01*
X139787406Y-98369469D02*
X139715978Y-98298041D01*
X139715978Y-98298041D02*
X139573121Y-98226612D01*
X139573121Y-98226612D02*
X139215978Y-98226612D01*
X139215978Y-98226612D02*
X139073121Y-98298041D01*
X139073121Y-98298041D02*
X139001692Y-98369469D01*
X139001692Y-98369469D02*
X138930263Y-98512326D01*
X138930263Y-98512326D02*
X138930263Y-98655184D01*
X138930263Y-98655184D02*
X139001692Y-98869469D01*
X139001692Y-98869469D02*
X139858835Y-99726612D01*
X139858835Y-99726612D02*
X138930263Y-99726612D01*
X148465979Y-102141528D02*
X148465979Y-100641528D01*
X148465979Y-100641528D02*
X148108836Y-100641528D01*
X148108836Y-100641528D02*
X147894550Y-100712957D01*
X147894550Y-100712957D02*
X147751693Y-100855814D01*
X147751693Y-100855814D02*
X147680264Y-100998671D01*
X147680264Y-100998671D02*
X147608836Y-101284385D01*
X147608836Y-101284385D02*
X147608836Y-101498671D01*
X147608836Y-101498671D02*
X147680264Y-101784385D01*
X147680264Y-101784385D02*
X147751693Y-101927242D01*
X147751693Y-101927242D02*
X147894550Y-102070100D01*
X147894550Y-102070100D02*
X148108836Y-102141528D01*
X148108836Y-102141528D02*
X148465979Y-102141528D01*
X146323122Y-102141528D02*
X146323122Y-101355814D01*
X146323122Y-101355814D02*
X146394550Y-101212957D01*
X146394550Y-101212957D02*
X146537407Y-101141528D01*
X146537407Y-101141528D02*
X146823122Y-101141528D01*
X146823122Y-101141528D02*
X146965979Y-101212957D01*
X146323122Y-102070100D02*
X146465979Y-102141528D01*
X146465979Y-102141528D02*
X146823122Y-102141528D01*
X146823122Y-102141528D02*
X146965979Y-102070100D01*
X146965979Y-102070100D02*
X147037407Y-101927242D01*
X147037407Y-101927242D02*
X147037407Y-101784385D01*
X147037407Y-101784385D02*
X146965979Y-101641528D01*
X146965979Y-101641528D02*
X146823122Y-101570100D01*
X146823122Y-101570100D02*
X146465979Y-101570100D01*
X146465979Y-101570100D02*
X146323122Y-101498671D01*
X145823121Y-101141528D02*
X145251693Y-101141528D01*
X145608836Y-100641528D02*
X145608836Y-101927242D01*
X145608836Y-101927242D02*
X145537407Y-102070100D01*
X145537407Y-102070100D02*
X145394550Y-102141528D01*
X145394550Y-102141528D02*
X145251693Y-102141528D01*
X144108836Y-102141528D02*
X144108836Y-101355814D01*
X144108836Y-101355814D02*
X144180264Y-101212957D01*
X144180264Y-101212957D02*
X144323121Y-101141528D01*
X144323121Y-101141528D02*
X144608836Y-101141528D01*
X144608836Y-101141528D02*
X144751693Y-101212957D01*
X144108836Y-102070100D02*
X144251693Y-102141528D01*
X144251693Y-102141528D02*
X144608836Y-102141528D01*
X144608836Y-102141528D02*
X144751693Y-102070100D01*
X144751693Y-102070100D02*
X144823121Y-101927242D01*
X144823121Y-101927242D02*
X144823121Y-101784385D01*
X144823121Y-101784385D02*
X144751693Y-101641528D01*
X144751693Y-101641528D02*
X144608836Y-101570100D01*
X144608836Y-101570100D02*
X144251693Y-101570100D01*
X144251693Y-101570100D02*
X144108836Y-101498671D01*
X143180264Y-102141528D02*
X143323121Y-102070100D01*
X143323121Y-102070100D02*
X143394550Y-101927242D01*
X143394550Y-101927242D02*
X143394550Y-100641528D01*
X142394550Y-102141528D02*
X142537407Y-102070100D01*
X142537407Y-102070100D02*
X142608836Y-101998671D01*
X142608836Y-101998671D02*
X142680264Y-101855814D01*
X142680264Y-101855814D02*
X142680264Y-101427242D01*
X142680264Y-101427242D02*
X142608836Y-101284385D01*
X142608836Y-101284385D02*
X142537407Y-101212957D01*
X142537407Y-101212957D02*
X142394550Y-101141528D01*
X142394550Y-101141528D02*
X142180264Y-101141528D01*
X142180264Y-101141528D02*
X142037407Y-101212957D01*
X142037407Y-101212957D02*
X141965979Y-101284385D01*
X141965979Y-101284385D02*
X141894550Y-101427242D01*
X141894550Y-101427242D02*
X141894550Y-101855814D01*
X141894550Y-101855814D02*
X141965979Y-101998671D01*
X141965979Y-101998671D02*
X142037407Y-102070100D01*
X142037407Y-102070100D02*
X142180264Y-102141528D01*
X142180264Y-102141528D02*
X142394550Y-102141528D01*
X140608836Y-101141528D02*
X140608836Y-102355814D01*
X140608836Y-102355814D02*
X140680264Y-102498671D01*
X140680264Y-102498671D02*
X140751693Y-102570100D01*
X140751693Y-102570100D02*
X140894550Y-102641528D01*
X140894550Y-102641528D02*
X141108836Y-102641528D01*
X141108836Y-102641528D02*
X141251693Y-102570100D01*
X140608836Y-102070100D02*
X140751693Y-102141528D01*
X140751693Y-102141528D02*
X141037407Y-102141528D01*
X141037407Y-102141528D02*
X141180264Y-102070100D01*
X141180264Y-102070100D02*
X141251693Y-101998671D01*
X141251693Y-101998671D02*
X141323121Y-101855814D01*
X141323121Y-101855814D02*
X141323121Y-101427242D01*
X141323121Y-101427242D02*
X141251693Y-101284385D01*
X141251693Y-101284385D02*
X141180264Y-101212957D01*
X141180264Y-101212957D02*
X141037407Y-101141528D01*
X141037407Y-101141528D02*
X140751693Y-101141528D01*
X140751693Y-101141528D02*
X140608836Y-101212957D01*
X139251693Y-101141528D02*
X139251693Y-102355814D01*
X139251693Y-102355814D02*
X139323121Y-102498671D01*
X139323121Y-102498671D02*
X139394550Y-102570100D01*
X139394550Y-102570100D02*
X139537407Y-102641528D01*
X139537407Y-102641528D02*
X139751693Y-102641528D01*
X139751693Y-102641528D02*
X139894550Y-102570100D01*
X139251693Y-102070100D02*
X139394550Y-102141528D01*
X139394550Y-102141528D02*
X139680264Y-102141528D01*
X139680264Y-102141528D02*
X139823121Y-102070100D01*
X139823121Y-102070100D02*
X139894550Y-101998671D01*
X139894550Y-101998671D02*
X139965978Y-101855814D01*
X139965978Y-101855814D02*
X139965978Y-101427242D01*
X139965978Y-101427242D02*
X139894550Y-101284385D01*
X139894550Y-101284385D02*
X139823121Y-101212957D01*
X139823121Y-101212957D02*
X139680264Y-101141528D01*
X139680264Y-101141528D02*
X139394550Y-101141528D01*
X139394550Y-101141528D02*
X139251693Y-101212957D01*
X137965978Y-102070100D02*
X138108835Y-102141528D01*
X138108835Y-102141528D02*
X138394550Y-102141528D01*
X138394550Y-102141528D02*
X138537407Y-102070100D01*
X138537407Y-102070100D02*
X138608835Y-101927242D01*
X138608835Y-101927242D02*
X138608835Y-101355814D01*
X138608835Y-101355814D02*
X138537407Y-101212957D01*
X138537407Y-101212957D02*
X138394550Y-101141528D01*
X138394550Y-101141528D02*
X138108835Y-101141528D01*
X138108835Y-101141528D02*
X137965978Y-101212957D01*
X137965978Y-101212957D02*
X137894550Y-101355814D01*
X137894550Y-101355814D02*
X137894550Y-101498671D01*
X137894550Y-101498671D02*
X138608835Y-101641528D01*
X137251693Y-102141528D02*
X137251693Y-101141528D01*
X137251693Y-101427242D02*
X137180264Y-101284385D01*
X137180264Y-101284385D02*
X137108836Y-101212957D01*
X137108836Y-101212957D02*
X136965978Y-101141528D01*
X136965978Y-101141528D02*
X136823121Y-101141528D01*
X135323122Y-101141528D02*
X135037408Y-102141528D01*
X135037408Y-102141528D02*
X134751693Y-101427242D01*
X134751693Y-101427242D02*
X134465979Y-102141528D01*
X134465979Y-102141528D02*
X134180265Y-101141528D01*
X133608836Y-102141528D02*
X133608836Y-101141528D01*
X133608836Y-100641528D02*
X133680264Y-100712957D01*
X133680264Y-100712957D02*
X133608836Y-100784385D01*
X133608836Y-100784385D02*
X133537407Y-100712957D01*
X133537407Y-100712957D02*
X133608836Y-100641528D01*
X133608836Y-100641528D02*
X133608836Y-100784385D01*
X133108835Y-101141528D02*
X132537407Y-101141528D01*
X132894550Y-100641528D02*
X132894550Y-101927242D01*
X132894550Y-101927242D02*
X132823121Y-102070100D01*
X132823121Y-102070100D02*
X132680264Y-102141528D01*
X132680264Y-102141528D02*
X132537407Y-102141528D01*
X132037407Y-102141528D02*
X132037407Y-100641528D01*
X131394550Y-102141528D02*
X131394550Y-101355814D01*
X131394550Y-101355814D02*
X131465978Y-101212957D01*
X131465978Y-101212957D02*
X131608835Y-101141528D01*
X131608835Y-101141528D02*
X131823121Y-101141528D01*
X131823121Y-101141528D02*
X131965978Y-101212957D01*
X131965978Y-101212957D02*
X132037407Y-101284385D01*
X146108834Y-104127873D02*
X145394549Y-104127873D01*
X146251691Y-104556444D02*
X145751691Y-103056444D01*
X145751691Y-103056444D02*
X145251691Y-104556444D01*
X144965977Y-103056444D02*
X144108835Y-103056444D01*
X144537406Y-104556444D02*
X144537406Y-103056444D01*
X143608835Y-104556444D02*
X143608835Y-103056444D01*
X143608835Y-103056444D02*
X143108835Y-104127873D01*
X143108835Y-104127873D02*
X142608835Y-103056444D01*
X142608835Y-103056444D02*
X142608835Y-104556444D01*
X141894549Y-103770730D02*
X141394549Y-103770730D01*
X141180263Y-104556444D02*
X141894549Y-104556444D01*
X141894549Y-104556444D02*
X141894549Y-103056444D01*
X141894549Y-103056444D02*
X141180263Y-103056444D01*
X139751691Y-103127873D02*
X139894549Y-103056444D01*
X139894549Y-103056444D02*
X140108834Y-103056444D01*
X140108834Y-103056444D02*
X140323120Y-103127873D01*
X140323120Y-103127873D02*
X140465977Y-103270730D01*
X140465977Y-103270730D02*
X140537406Y-103413587D01*
X140537406Y-103413587D02*
X140608834Y-103699301D01*
X140608834Y-103699301D02*
X140608834Y-103913587D01*
X140608834Y-103913587D02*
X140537406Y-104199301D01*
X140537406Y-104199301D02*
X140465977Y-104342158D01*
X140465977Y-104342158D02*
X140323120Y-104485016D01*
X140323120Y-104485016D02*
X140108834Y-104556444D01*
X140108834Y-104556444D02*
X139965977Y-104556444D01*
X139965977Y-104556444D02*
X139751691Y-104485016D01*
X139751691Y-104485016D02*
X139680263Y-104413587D01*
X139680263Y-104413587D02*
X139680263Y-103913587D01*
X139680263Y-103913587D02*
X139965977Y-103913587D01*
X139108834Y-104127873D02*
X138394549Y-104127873D01*
X139251691Y-104556444D02*
X138751691Y-103056444D01*
X138751691Y-103056444D02*
X138251691Y-104556444D01*
X137894549Y-103056444D02*
X136965977Y-103056444D01*
X136965977Y-103056444D02*
X137465977Y-103627873D01*
X137465977Y-103627873D02*
X137251692Y-103627873D01*
X137251692Y-103627873D02*
X137108835Y-103699301D01*
X137108835Y-103699301D02*
X137037406Y-103770730D01*
X137037406Y-103770730D02*
X136965977Y-103913587D01*
X136965977Y-103913587D02*
X136965977Y-104270730D01*
X136965977Y-104270730D02*
X137037406Y-104413587D01*
X137037406Y-104413587D02*
X137108835Y-104485016D01*
X137108835Y-104485016D02*
X137251692Y-104556444D01*
X137251692Y-104556444D02*
X137680263Y-104556444D01*
X137680263Y-104556444D02*
X137823120Y-104485016D01*
X137823120Y-104485016D02*
X137894549Y-104413587D01*
X136394549Y-103199301D02*
X136323121Y-103127873D01*
X136323121Y-103127873D02*
X136180264Y-103056444D01*
X136180264Y-103056444D02*
X135823121Y-103056444D01*
X135823121Y-103056444D02*
X135680264Y-103127873D01*
X135680264Y-103127873D02*
X135608835Y-103199301D01*
X135608835Y-103199301D02*
X135537406Y-103342158D01*
X135537406Y-103342158D02*
X135537406Y-103485016D01*
X135537406Y-103485016D02*
X135608835Y-103699301D01*
X135608835Y-103699301D02*
X136465978Y-104556444D01*
X136465978Y-104556444D02*
X135537406Y-104556444D01*
X134680264Y-103699301D02*
X134823121Y-103627873D01*
X134823121Y-103627873D02*
X134894550Y-103556444D01*
X134894550Y-103556444D02*
X134965978Y-103413587D01*
X134965978Y-103413587D02*
X134965978Y-103342158D01*
X134965978Y-103342158D02*
X134894550Y-103199301D01*
X134894550Y-103199301D02*
X134823121Y-103127873D01*
X134823121Y-103127873D02*
X134680264Y-103056444D01*
X134680264Y-103056444D02*
X134394550Y-103056444D01*
X134394550Y-103056444D02*
X134251693Y-103127873D01*
X134251693Y-103127873D02*
X134180264Y-103199301D01*
X134180264Y-103199301D02*
X134108835Y-103342158D01*
X134108835Y-103342158D02*
X134108835Y-103413587D01*
X134108835Y-103413587D02*
X134180264Y-103556444D01*
X134180264Y-103556444D02*
X134251693Y-103627873D01*
X134251693Y-103627873D02*
X134394550Y-103699301D01*
X134394550Y-103699301D02*
X134680264Y-103699301D01*
X134680264Y-103699301D02*
X134823121Y-103770730D01*
X134823121Y-103770730D02*
X134894550Y-103842158D01*
X134894550Y-103842158D02*
X134965978Y-103985016D01*
X134965978Y-103985016D02*
X134965978Y-104270730D01*
X134965978Y-104270730D02*
X134894550Y-104413587D01*
X134894550Y-104413587D02*
X134823121Y-104485016D01*
X134823121Y-104485016D02*
X134680264Y-104556444D01*
X134680264Y-104556444D02*
X134394550Y-104556444D01*
X134394550Y-104556444D02*
X134251693Y-104485016D01*
X134251693Y-104485016D02*
X134180264Y-104413587D01*
X134180264Y-104413587D02*
X134108835Y-104270730D01*
X134108835Y-104270730D02*
X134108835Y-103985016D01*
X134108835Y-103985016D02*
X134180264Y-103842158D01*
X134180264Y-103842158D02*
X134251693Y-103770730D01*
X134251693Y-103770730D02*
X134394550Y-103699301D01*
X133465979Y-104556444D02*
X133465979Y-103056444D01*
X133465979Y-103056444D02*
X132894550Y-103056444D01*
X132894550Y-103056444D02*
X132751693Y-103127873D01*
X132751693Y-103127873D02*
X132680264Y-103199301D01*
X132680264Y-103199301D02*
X132608836Y-103342158D01*
X132608836Y-103342158D02*
X132608836Y-103556444D01*
X132608836Y-103556444D02*
X132680264Y-103699301D01*
X132680264Y-103699301D02*
X132751693Y-103770730D01*
X132751693Y-103770730D02*
X132894550Y-103842158D01*
X132894550Y-103842158D02*
X133465979Y-103842158D01*
D12*
X110945898Y-116780036D02*
X110993517Y-116827656D01*
X110993517Y-116827656D02*
X111136374Y-116875275D01*
X111136374Y-116875275D02*
X111231612Y-116875275D01*
X111231612Y-116875275D02*
X111374469Y-116827656D01*
X111374469Y-116827656D02*
X111469707Y-116732417D01*
X111469707Y-116732417D02*
X111517326Y-116637179D01*
X111517326Y-116637179D02*
X111564945Y-116446703D01*
X111564945Y-116446703D02*
X111564945Y-116303846D01*
X111564945Y-116303846D02*
X111517326Y-116113370D01*
X111517326Y-116113370D02*
X111469707Y-116018132D01*
X111469707Y-116018132D02*
X111374469Y-115922894D01*
X111374469Y-115922894D02*
X111231612Y-115875275D01*
X111231612Y-115875275D02*
X111136374Y-115875275D01*
X111136374Y-115875275D02*
X110993517Y-115922894D01*
X110993517Y-115922894D02*
X110945898Y-115970513D01*
X110517326Y-116875275D02*
X110517326Y-116208608D01*
X110517326Y-116399084D02*
X110469707Y-116303846D01*
X110469707Y-116303846D02*
X110422088Y-116256227D01*
X110422088Y-116256227D02*
X110326850Y-116208608D01*
X110326850Y-116208608D02*
X110231612Y-116208608D01*
X109517326Y-116827656D02*
X109612564Y-116875275D01*
X109612564Y-116875275D02*
X109803040Y-116875275D01*
X109803040Y-116875275D02*
X109898278Y-116827656D01*
X109898278Y-116827656D02*
X109945897Y-116732417D01*
X109945897Y-116732417D02*
X109945897Y-116351465D01*
X109945897Y-116351465D02*
X109898278Y-116256227D01*
X109898278Y-116256227D02*
X109803040Y-116208608D01*
X109803040Y-116208608D02*
X109612564Y-116208608D01*
X109612564Y-116208608D02*
X109517326Y-116256227D01*
X109517326Y-116256227D02*
X109469707Y-116351465D01*
X109469707Y-116351465D02*
X109469707Y-116446703D01*
X109469707Y-116446703D02*
X109945897Y-116541941D01*
X108612564Y-116875275D02*
X108612564Y-116351465D01*
X108612564Y-116351465D02*
X108660183Y-116256227D01*
X108660183Y-116256227D02*
X108755421Y-116208608D01*
X108755421Y-116208608D02*
X108945897Y-116208608D01*
X108945897Y-116208608D02*
X109041135Y-116256227D01*
X108612564Y-116827656D02*
X108707802Y-116875275D01*
X108707802Y-116875275D02*
X108945897Y-116875275D01*
X108945897Y-116875275D02*
X109041135Y-116827656D01*
X109041135Y-116827656D02*
X109088754Y-116732417D01*
X109088754Y-116732417D02*
X109088754Y-116637179D01*
X109088754Y-116637179D02*
X109041135Y-116541941D01*
X109041135Y-116541941D02*
X108945897Y-116494322D01*
X108945897Y-116494322D02*
X108707802Y-116494322D01*
X108707802Y-116494322D02*
X108612564Y-116446703D01*
X108279230Y-116208608D02*
X107898278Y-116208608D01*
X108136373Y-115875275D02*
X108136373Y-116732417D01*
X108136373Y-116732417D02*
X108088754Y-116827656D01*
X108088754Y-116827656D02*
X107993516Y-116875275D01*
X107993516Y-116875275D02*
X107898278Y-116875275D01*
X107183992Y-116827656D02*
X107279230Y-116875275D01*
X107279230Y-116875275D02*
X107469706Y-116875275D01*
X107469706Y-116875275D02*
X107564944Y-116827656D01*
X107564944Y-116827656D02*
X107612563Y-116732417D01*
X107612563Y-116732417D02*
X107612563Y-116351465D01*
X107612563Y-116351465D02*
X107564944Y-116256227D01*
X107564944Y-116256227D02*
X107469706Y-116208608D01*
X107469706Y-116208608D02*
X107279230Y-116208608D01*
X107279230Y-116208608D02*
X107183992Y-116256227D01*
X107183992Y-116256227D02*
X107136373Y-116351465D01*
X107136373Y-116351465D02*
X107136373Y-116446703D01*
X107136373Y-116446703D02*
X107612563Y-116541941D01*
X106279230Y-116875275D02*
X106279230Y-115875275D01*
X106279230Y-116827656D02*
X106374468Y-116875275D01*
X106374468Y-116875275D02*
X106564944Y-116875275D01*
X106564944Y-116875275D02*
X106660182Y-116827656D01*
X106660182Y-116827656D02*
X106707801Y-116780036D01*
X106707801Y-116780036D02*
X106755420Y-116684798D01*
X106755420Y-116684798D02*
X106755420Y-116399084D01*
X106755420Y-116399084D02*
X106707801Y-116303846D01*
X106707801Y-116303846D02*
X106660182Y-116256227D01*
X106660182Y-116256227D02*
X106564944Y-116208608D01*
X106564944Y-116208608D02*
X106374468Y-116208608D01*
X106374468Y-116208608D02*
X106279230Y-116256227D01*
X104707801Y-116351465D02*
X104564944Y-116399084D01*
X104564944Y-116399084D02*
X104517325Y-116446703D01*
X104517325Y-116446703D02*
X104469706Y-116541941D01*
X104469706Y-116541941D02*
X104469706Y-116684798D01*
X104469706Y-116684798D02*
X104517325Y-116780036D01*
X104517325Y-116780036D02*
X104564944Y-116827656D01*
X104564944Y-116827656D02*
X104660182Y-116875275D01*
X104660182Y-116875275D02*
X105041134Y-116875275D01*
X105041134Y-116875275D02*
X105041134Y-115875275D01*
X105041134Y-115875275D02*
X104707801Y-115875275D01*
X104707801Y-115875275D02*
X104612563Y-115922894D01*
X104612563Y-115922894D02*
X104564944Y-115970513D01*
X104564944Y-115970513D02*
X104517325Y-116065751D01*
X104517325Y-116065751D02*
X104517325Y-116160989D01*
X104517325Y-116160989D02*
X104564944Y-116256227D01*
X104564944Y-116256227D02*
X104612563Y-116303846D01*
X104612563Y-116303846D02*
X104707801Y-116351465D01*
X104707801Y-116351465D02*
X105041134Y-116351465D01*
X104136372Y-116208608D02*
X103898277Y-116875275D01*
X103660182Y-116208608D02*
X103898277Y-116875275D01*
X103898277Y-116875275D02*
X103993515Y-117113370D01*
X103993515Y-117113370D02*
X104041134Y-117160989D01*
X104041134Y-117160989D02*
X104136372Y-117208608D01*
X111326850Y-118009028D02*
X111326850Y-118485219D01*
X111660183Y-117485219D02*
X111326850Y-118009028D01*
X111326850Y-118009028D02*
X110993517Y-117485219D01*
X110660183Y-117485219D02*
X110660183Y-118294742D01*
X110660183Y-118294742D02*
X110612564Y-118389980D01*
X110612564Y-118389980D02*
X110564945Y-118437600D01*
X110564945Y-118437600D02*
X110469707Y-118485219D01*
X110469707Y-118485219D02*
X110279231Y-118485219D01*
X110279231Y-118485219D02*
X110183993Y-118437600D01*
X110183993Y-118437600D02*
X110136374Y-118389980D01*
X110136374Y-118389980D02*
X110088755Y-118294742D01*
X110088755Y-118294742D02*
X110088755Y-117485219D01*
X109612564Y-118485219D02*
X109612564Y-117485219D01*
X109041136Y-118485219D02*
X109469707Y-117913790D01*
X109041136Y-117485219D02*
X109612564Y-118056647D01*
X108612564Y-117961409D02*
X108279231Y-117961409D01*
X108136374Y-118485219D02*
X108612564Y-118485219D01*
X108612564Y-118485219D02*
X108612564Y-117485219D01*
X108612564Y-117485219D02*
X108136374Y-117485219D01*
X107755421Y-118437600D02*
X107612564Y-118485219D01*
X107612564Y-118485219D02*
X107374469Y-118485219D01*
X107374469Y-118485219D02*
X107279231Y-118437600D01*
X107279231Y-118437600D02*
X107231612Y-118389980D01*
X107231612Y-118389980D02*
X107183993Y-118294742D01*
X107183993Y-118294742D02*
X107183993Y-118199504D01*
X107183993Y-118199504D02*
X107231612Y-118104266D01*
X107231612Y-118104266D02*
X107279231Y-118056647D01*
X107279231Y-118056647D02*
X107374469Y-118009028D01*
X107374469Y-118009028D02*
X107564945Y-117961409D01*
X107564945Y-117961409D02*
X107660183Y-117913790D01*
X107660183Y-117913790D02*
X107707802Y-117866171D01*
X107707802Y-117866171D02*
X107755421Y-117770933D01*
X107755421Y-117770933D02*
X107755421Y-117675695D01*
X107755421Y-117675695D02*
X107707802Y-117580457D01*
X107707802Y-117580457D02*
X107660183Y-117532838D01*
X107660183Y-117532838D02*
X107564945Y-117485219D01*
X107564945Y-117485219D02*
X107326850Y-117485219D01*
X107326850Y-117485219D02*
X107183993Y-117532838D01*
X106755421Y-118485219D02*
X106755421Y-117485219D01*
X106755421Y-117961409D02*
X106183993Y-117961409D01*
X106183993Y-118485219D02*
X106183993Y-117485219D01*
X104993516Y-118437600D02*
X104850659Y-118485219D01*
X104850659Y-118485219D02*
X104612564Y-118485219D01*
X104612564Y-118485219D02*
X104517326Y-118437600D01*
X104517326Y-118437600D02*
X104469707Y-118389980D01*
X104469707Y-118389980D02*
X104422088Y-118294742D01*
X104422088Y-118294742D02*
X104422088Y-118199504D01*
X104422088Y-118199504D02*
X104469707Y-118104266D01*
X104469707Y-118104266D02*
X104517326Y-118056647D01*
X104517326Y-118056647D02*
X104612564Y-118009028D01*
X104612564Y-118009028D02*
X104803040Y-117961409D01*
X104803040Y-117961409D02*
X104898278Y-117913790D01*
X104898278Y-117913790D02*
X104945897Y-117866171D01*
X104945897Y-117866171D02*
X104993516Y-117770933D01*
X104993516Y-117770933D02*
X104993516Y-117675695D01*
X104993516Y-117675695D02*
X104945897Y-117580457D01*
X104945897Y-117580457D02*
X104898278Y-117532838D01*
X104898278Y-117532838D02*
X104803040Y-117485219D01*
X104803040Y-117485219D02*
X104564945Y-117485219D01*
X104564945Y-117485219D02*
X104422088Y-117532838D01*
D13*
%TO.C,REF\u002A\u002A*%
X109114502Y-103156042D02*
X109148747Y-103176942D01*
X109184229Y-103205673D01*
X109184229Y-104067671D01*
X109148747Y-104096402D01*
X109106995Y-104119667D01*
X109059332Y-104120780D01*
X109017476Y-104093496D01*
X109012315Y-104087286D01*
X109005038Y-104074681D01*
X108999437Y-104056466D01*
X108995294Y-104029147D01*
X108992392Y-103989233D01*
X108990514Y-103933230D01*
X108989441Y-103857647D01*
X108988957Y-103758990D01*
X108988844Y-103633766D01*
X108988844Y-103205673D01*
X109024326Y-103176942D01*
X109055896Y-103157277D01*
X109086537Y-103148210D01*
X109114502Y-103156042D01*
G36*
X109114502Y-103156042D02*
G01*
X109148747Y-103176942D01*
X109184229Y-103205673D01*
X109184229Y-104067671D01*
X109148747Y-104096402D01*
X109106995Y-104119667D01*
X109059332Y-104120780D01*
X109017476Y-104093496D01*
X109012315Y-104087286D01*
X109005038Y-104074681D01*
X108999437Y-104056466D01*
X108995294Y-104029147D01*
X108992392Y-103989233D01*
X108990514Y-103933230D01*
X108989441Y-103857647D01*
X108988957Y-103758990D01*
X108988844Y-103633766D01*
X108988844Y-103205673D01*
X109024326Y-103176942D01*
X109055896Y-103157277D01*
X109086537Y-103148210D01*
X109114502Y-103156042D01*
G37*
X118608079Y-103154064D02*
X118653551Y-103185101D01*
X118690442Y-103221992D01*
X118690442Y-103638778D01*
X118690387Y-103750652D01*
X118690043Y-103849468D01*
X118689150Y-103925026D01*
X118687449Y-103980904D01*
X118684681Y-104020682D01*
X118680588Y-104047936D01*
X118674909Y-104066247D01*
X118667388Y-104079191D01*
X118657763Y-104090348D01*
X118615874Y-104118925D01*
X118569056Y-104121276D01*
X118525117Y-104095074D01*
X118518051Y-104087261D01*
X118510796Y-104075167D01*
X118505250Y-104057405D01*
X118501183Y-104030490D01*
X118498369Y-103990938D01*
X118496577Y-103935265D01*
X118495581Y-103859985D01*
X118495150Y-103761616D01*
X118495057Y-103636672D01*
X118495110Y-103535940D01*
X118495449Y-103432214D01*
X118496307Y-103352319D01*
X118497910Y-103292771D01*
X118500488Y-103250084D01*
X118504269Y-103220775D01*
X118509482Y-103201359D01*
X118516355Y-103188352D01*
X118525117Y-103178270D01*
X118563970Y-103152945D01*
X118608079Y-103154064D01*
G36*
X118608079Y-103154064D02*
G01*
X118653551Y-103185101D01*
X118690442Y-103221992D01*
X118690442Y-103638778D01*
X118690387Y-103750652D01*
X118690043Y-103849468D01*
X118689150Y-103925026D01*
X118687449Y-103980904D01*
X118684681Y-104020682D01*
X118680588Y-104047936D01*
X118674909Y-104066247D01*
X118667388Y-104079191D01*
X118657763Y-104090348D01*
X118615874Y-104118925D01*
X118569056Y-104121276D01*
X118525117Y-104095074D01*
X118518051Y-104087261D01*
X118510796Y-104075167D01*
X118505250Y-104057405D01*
X118501183Y-104030490D01*
X118498369Y-103990938D01*
X118496577Y-103935265D01*
X118495581Y-103859985D01*
X118495150Y-103761616D01*
X118495057Y-103636672D01*
X118495110Y-103535940D01*
X118495449Y-103432214D01*
X118496307Y-103352319D01*
X118497910Y-103292771D01*
X118500488Y-103250084D01*
X118504269Y-103220775D01*
X118509482Y-103201359D01*
X118516355Y-103188352D01*
X118525117Y-103178270D01*
X118563970Y-103152945D01*
X118608079Y-103154064D01*
G37*
X118693837Y-94612639D02*
X118833279Y-94646805D01*
X118965455Y-94708125D01*
X119086199Y-94796610D01*
X119191346Y-94912270D01*
X119276730Y-95055113D01*
X119299621Y-95105433D01*
X119318166Y-95156436D01*
X119328572Y-95207424D01*
X119333133Y-95270491D01*
X119334143Y-95357729D01*
X119333532Y-95430339D01*
X119329850Y-95497070D01*
X119320822Y-95549134D01*
X119304194Y-95598486D01*
X119277712Y-95657086D01*
X119270052Y-95672702D01*
X119179506Y-95815693D01*
X119065625Y-95933343D01*
X118931641Y-96022889D01*
X118780786Y-96081572D01*
X118703381Y-96097947D01*
X118546349Y-96105610D01*
X118394253Y-96080816D01*
X118251554Y-96026106D01*
X118122712Y-95944023D01*
X118012186Y-95837109D01*
X117924436Y-95707907D01*
X117863923Y-95558958D01*
X117841783Y-95437065D01*
X117839788Y-95302551D01*
X117857795Y-95171708D01*
X117894946Y-95058372D01*
X117937872Y-94977343D01*
X118033433Y-94848787D01*
X118146721Y-94747327D01*
X118273571Y-94672972D01*
X118409818Y-94625733D01*
X118551295Y-94605618D01*
X118693837Y-94612639D01*
G36*
X118693837Y-94612639D02*
G01*
X118833279Y-94646805D01*
X118965455Y-94708125D01*
X119086199Y-94796610D01*
X119191346Y-94912270D01*
X119276730Y-95055113D01*
X119299621Y-95105433D01*
X119318166Y-95156436D01*
X119328572Y-95207424D01*
X119333133Y-95270491D01*
X119334143Y-95357729D01*
X119333532Y-95430339D01*
X119329850Y-95497070D01*
X119320822Y-95549134D01*
X119304194Y-95598486D01*
X119277712Y-95657086D01*
X119270052Y-95672702D01*
X119179506Y-95815693D01*
X119065625Y-95933343D01*
X118931641Y-96022889D01*
X118780786Y-96081572D01*
X118703381Y-96097947D01*
X118546349Y-96105610D01*
X118394253Y-96080816D01*
X118251554Y-96026106D01*
X118122712Y-95944023D01*
X118012186Y-95837109D01*
X117924436Y-95707907D01*
X117863923Y-95558958D01*
X117841783Y-95437065D01*
X117839788Y-95302551D01*
X117857795Y-95171708D01*
X117894946Y-95058372D01*
X117937872Y-94977343D01*
X118033433Y-94848787D01*
X118146721Y-94747327D01*
X118273571Y-94672972D01*
X118409818Y-94625733D01*
X118551295Y-94605618D01*
X118693837Y-94612639D01*
G37*
X108183031Y-103148212D02*
X108308343Y-103148332D01*
X108407548Y-103148784D01*
X108483978Y-103149772D01*
X108540959Y-103151497D01*
X108581823Y-103154161D01*
X108609897Y-103157969D01*
X108628512Y-103163121D01*
X108640996Y-103169820D01*
X108650679Y-103178270D01*
X108675716Y-103221829D01*
X108677642Y-103271857D01*
X108655864Y-103316110D01*
X108654053Y-103318045D01*
X108639138Y-103329176D01*
X108616368Y-103336571D01*
X108580196Y-103340957D01*
X108525073Y-103343056D01*
X108445450Y-103343595D01*
X108259909Y-103343595D01*
X108259909Y-103694763D01*
X108259809Y-103795718D01*
X108259266Y-103884474D01*
X108257958Y-103950755D01*
X108255567Y-103998573D01*
X108251771Y-104031946D01*
X108246252Y-104054886D01*
X108238688Y-104071410D01*
X108228759Y-104085533D01*
X108225710Y-104089269D01*
X108184200Y-104119414D01*
X108138429Y-104121496D01*
X108094584Y-104095074D01*
X108085293Y-104084323D01*
X108078008Y-104070212D01*
X108072656Y-104049119D01*
X108068940Y-104017198D01*
X108066564Y-103970602D01*
X108065234Y-103905485D01*
X108064653Y-103818001D01*
X108064525Y-103704305D01*
X108064525Y-103343595D01*
X107870231Y-103343595D01*
X107855453Y-103343594D01*
X107780208Y-103343294D01*
X107728492Y-103341777D01*
X107694685Y-103338050D01*
X107673168Y-103331118D01*
X107658321Y-103319986D01*
X107644524Y-103303660D01*
X107623426Y-103262803D01*
X107627556Y-103217829D01*
X107661697Y-103174512D01*
X107668275Y-103169563D01*
X107681869Y-103163125D01*
X107702406Y-103158114D01*
X107733189Y-103154357D01*
X107777520Y-103151676D01*
X107838701Y-103149896D01*
X107920035Y-103148843D01*
X108024823Y-103148339D01*
X108156367Y-103148210D01*
X108183031Y-103148212D01*
G36*
X108183031Y-103148212D02*
G01*
X108308343Y-103148332D01*
X108407548Y-103148784D01*
X108483978Y-103149772D01*
X108540959Y-103151497D01*
X108581823Y-103154161D01*
X108609897Y-103157969D01*
X108628512Y-103163121D01*
X108640996Y-103169820D01*
X108650679Y-103178270D01*
X108675716Y-103221829D01*
X108677642Y-103271857D01*
X108655864Y-103316110D01*
X108654053Y-103318045D01*
X108639138Y-103329176D01*
X108616368Y-103336571D01*
X108580196Y-103340957D01*
X108525073Y-103343056D01*
X108445450Y-103343595D01*
X108259909Y-103343595D01*
X108259909Y-103694763D01*
X108259809Y-103795718D01*
X108259266Y-103884474D01*
X108257958Y-103950755D01*
X108255567Y-103998573D01*
X108251771Y-104031946D01*
X108246252Y-104054886D01*
X108238688Y-104071410D01*
X108228759Y-104085533D01*
X108225710Y-104089269D01*
X108184200Y-104119414D01*
X108138429Y-104121496D01*
X108094584Y-104095074D01*
X108085293Y-104084323D01*
X108078008Y-104070212D01*
X108072656Y-104049119D01*
X108068940Y-104017198D01*
X108066564Y-103970602D01*
X108065234Y-103905485D01*
X108064653Y-103818001D01*
X108064525Y-103704305D01*
X108064525Y-103343595D01*
X107870231Y-103343595D01*
X107855453Y-103343594D01*
X107780208Y-103343294D01*
X107728492Y-103341777D01*
X107694685Y-103338050D01*
X107673168Y-103331118D01*
X107658321Y-103319986D01*
X107644524Y-103303660D01*
X107623426Y-103262803D01*
X107627556Y-103217829D01*
X107661697Y-103174512D01*
X107668275Y-103169563D01*
X107681869Y-103163125D01*
X107702406Y-103158114D01*
X107733189Y-103154357D01*
X107777520Y-103151676D01*
X107838701Y-103149896D01*
X107920035Y-103148843D01*
X108024823Y-103148339D01*
X108156367Y-103148210D01*
X108183031Y-103148212D01*
G37*
X107282986Y-103178270D02*
X107290485Y-103186511D01*
X107297262Y-103197436D01*
X107302702Y-103213115D01*
X107306934Y-103236359D01*
X107310084Y-103269981D01*
X107312282Y-103316792D01*
X107313655Y-103379603D01*
X107314332Y-103461227D01*
X107314440Y-103564474D01*
X107314108Y-103692157D01*
X107313464Y-103847086D01*
X107313372Y-103865958D01*
X107312592Y-103948186D01*
X107310831Y-104006344D01*
X107307442Y-104045460D01*
X107301777Y-104070561D01*
X107293188Y-104086676D01*
X107281027Y-104098832D01*
X107236483Y-104122020D01*
X107189954Y-104118157D01*
X107148811Y-104085533D01*
X107136816Y-104067955D01*
X107126896Y-104043277D01*
X107121081Y-104008624D01*
X107118345Y-103957305D01*
X107117661Y-103882633D01*
X107117661Y-103719335D01*
X106456359Y-103719335D01*
X106456359Y-103898838D01*
X106456262Y-103946488D01*
X106455247Y-104008170D01*
X106452349Y-104048822D01*
X106446628Y-104074158D01*
X106437144Y-104089892D01*
X106422956Y-104101737D01*
X106380018Y-104121800D01*
X106333039Y-104118249D01*
X106292125Y-104085533D01*
X106285926Y-104077205D01*
X106278024Y-104063194D01*
X106271991Y-104044648D01*
X106267577Y-104017923D01*
X106264529Y-103979370D01*
X106262597Y-103925344D01*
X106261528Y-103852198D01*
X106261071Y-103756286D01*
X106260975Y-103633962D01*
X106260975Y-103221992D01*
X106297865Y-103185101D01*
X106339641Y-103155488D01*
X106383881Y-103151907D01*
X106426300Y-103178270D01*
X106437331Y-103191278D01*
X106447199Y-103212436D01*
X106452974Y-103244345D01*
X106455684Y-103293436D01*
X106456359Y-103366139D01*
X106456359Y-103523950D01*
X107117661Y-103523950D01*
X107117661Y-103370160D01*
X107118244Y-103301333D01*
X107120859Y-103255368D01*
X107126871Y-103225311D01*
X107137647Y-103204207D01*
X107154552Y-103185101D01*
X107196328Y-103155488D01*
X107240567Y-103151907D01*
X107282986Y-103178270D01*
G36*
X107282986Y-103178270D02*
G01*
X107290485Y-103186511D01*
X107297262Y-103197436D01*
X107302702Y-103213115D01*
X107306934Y-103236359D01*
X107310084Y-103269981D01*
X107312282Y-103316792D01*
X107313655Y-103379603D01*
X107314332Y-103461227D01*
X107314440Y-103564474D01*
X107314108Y-103692157D01*
X107313464Y-103847086D01*
X107313372Y-103865958D01*
X107312592Y-103948186D01*
X107310831Y-104006344D01*
X107307442Y-104045460D01*
X107301777Y-104070561D01*
X107293188Y-104086676D01*
X107281027Y-104098832D01*
X107236483Y-104122020D01*
X107189954Y-104118157D01*
X107148811Y-104085533D01*
X107136816Y-104067955D01*
X107126896Y-104043277D01*
X107121081Y-104008624D01*
X107118345Y-103957305D01*
X107117661Y-103882633D01*
X107117661Y-103719335D01*
X106456359Y-103719335D01*
X106456359Y-103898838D01*
X106456262Y-103946488D01*
X106455247Y-104008170D01*
X106452349Y-104048822D01*
X106446628Y-104074158D01*
X106437144Y-104089892D01*
X106422956Y-104101737D01*
X106380018Y-104121800D01*
X106333039Y-104118249D01*
X106292125Y-104085533D01*
X106285926Y-104077205D01*
X106278024Y-104063194D01*
X106271991Y-104044648D01*
X106267577Y-104017923D01*
X106264529Y-103979370D01*
X106262597Y-103925344D01*
X106261528Y-103852198D01*
X106261071Y-103756286D01*
X106260975Y-103633962D01*
X106260975Y-103221992D01*
X106297865Y-103185101D01*
X106339641Y-103155488D01*
X106383881Y-103151907D01*
X106426300Y-103178270D01*
X106437331Y-103191278D01*
X106447199Y-103212436D01*
X106452974Y-103244345D01*
X106455684Y-103293436D01*
X106456359Y-103366139D01*
X106456359Y-103523950D01*
X107117661Y-103523950D01*
X107117661Y-103370160D01*
X107118244Y-103301333D01*
X107120859Y-103255368D01*
X107126871Y-103225311D01*
X107137647Y-103204207D01*
X107154552Y-103185101D01*
X107196328Y-103155488D01*
X107240567Y-103151907D01*
X107282986Y-103178270D01*
G37*
X113547571Y-103962111D02*
X113544949Y-104005750D01*
X113541050Y-104036266D01*
X113535622Y-104057304D01*
X113528414Y-104072511D01*
X113519174Y-104085533D01*
X113488024Y-104125134D01*
X113267428Y-104124343D01*
X113221102Y-104123946D01*
X113089985Y-104119379D01*
X112982196Y-104109151D01*
X112892869Y-104092432D01*
X112817137Y-104068395D01*
X112750134Y-104036209D01*
X112745662Y-104033657D01*
X112668694Y-103984772D01*
X112612305Y-103935557D01*
X112568615Y-103877662D01*
X112529739Y-103802737D01*
X112524039Y-103789935D01*
X112493980Y-103705812D01*
X112486345Y-103645162D01*
X112685044Y-103645162D01*
X112692517Y-103678084D01*
X112700140Y-103699224D01*
X112743982Y-103778983D01*
X112807006Y-103839897D01*
X112891901Y-103884012D01*
X113001351Y-103913375D01*
X113005070Y-103914043D01*
X113066693Y-103921981D01*
X113141777Y-103927610D01*
X113214918Y-103929749D01*
X113339909Y-103929749D01*
X113339909Y-103343595D01*
X113223430Y-103344192D01*
X113134336Y-103347488D01*
X113011321Y-103362468D01*
X112905724Y-103388482D01*
X112823213Y-103424394D01*
X112782021Y-103451991D01*
X112744583Y-103491620D01*
X112713510Y-103548107D01*
X112704021Y-103569364D01*
X112688279Y-103612636D01*
X112685044Y-103645162D01*
X112486345Y-103645162D01*
X112484699Y-103632084D01*
X112496151Y-103558824D01*
X112528292Y-103476104D01*
X112529351Y-103473850D01*
X112583207Y-103381424D01*
X112650686Y-103306071D01*
X112734197Y-103246735D01*
X112836147Y-103202363D01*
X112958945Y-103171901D01*
X113104999Y-103154293D01*
X113276717Y-103148487D01*
X113281472Y-103148481D01*
X113361381Y-103148667D01*
X113417206Y-103150047D01*
X113454635Y-103153501D01*
X113479357Y-103159908D01*
X113497060Y-103170148D01*
X113513433Y-103185101D01*
X113550324Y-103221992D01*
X113550324Y-103633962D01*
X113550290Y-103715981D01*
X113549990Y-103820872D01*
X113549168Y-103901700D01*
X113548426Y-103929749D01*
X113547571Y-103962111D01*
G36*
X113547571Y-103962111D02*
G01*
X113544949Y-104005750D01*
X113541050Y-104036266D01*
X113535622Y-104057304D01*
X113528414Y-104072511D01*
X113519174Y-104085533D01*
X113488024Y-104125134D01*
X113267428Y-104124343D01*
X113221102Y-104123946D01*
X113089985Y-104119379D01*
X112982196Y-104109151D01*
X112892869Y-104092432D01*
X112817137Y-104068395D01*
X112750134Y-104036209D01*
X112745662Y-104033657D01*
X112668694Y-103984772D01*
X112612305Y-103935557D01*
X112568615Y-103877662D01*
X112529739Y-103802737D01*
X112524039Y-103789935D01*
X112493980Y-103705812D01*
X112486345Y-103645162D01*
X112685044Y-103645162D01*
X112692517Y-103678084D01*
X112700140Y-103699224D01*
X112743982Y-103778983D01*
X112807006Y-103839897D01*
X112891901Y-103884012D01*
X113001351Y-103913375D01*
X113005070Y-103914043D01*
X113066693Y-103921981D01*
X113141777Y-103927610D01*
X113214918Y-103929749D01*
X113339909Y-103929749D01*
X113339909Y-103343595D01*
X113223430Y-103344192D01*
X113134336Y-103347488D01*
X113011321Y-103362468D01*
X112905724Y-103388482D01*
X112823213Y-103424394D01*
X112782021Y-103451991D01*
X112744583Y-103491620D01*
X112713510Y-103548107D01*
X112704021Y-103569364D01*
X112688279Y-103612636D01*
X112685044Y-103645162D01*
X112486345Y-103645162D01*
X112484699Y-103632084D01*
X112496151Y-103558824D01*
X112528292Y-103476104D01*
X112529351Y-103473850D01*
X112583207Y-103381424D01*
X112650686Y-103306071D01*
X112734197Y-103246735D01*
X112836147Y-103202363D01*
X112958945Y-103171901D01*
X113104999Y-103154293D01*
X113276717Y-103148487D01*
X113281472Y-103148481D01*
X113361381Y-103148667D01*
X113417206Y-103150047D01*
X113454635Y-103153501D01*
X113479357Y-103159908D01*
X113497060Y-103170148D01*
X113513433Y-103185101D01*
X113550324Y-103221992D01*
X113550324Y-103633962D01*
X113550290Y-103715981D01*
X113549990Y-103820872D01*
X113549168Y-103901700D01*
X113548426Y-103929749D01*
X113547571Y-103962111D01*
G37*
X122989162Y-103394992D02*
X122989234Y-103502319D01*
X122988903Y-103636672D01*
X122988851Y-103737405D01*
X122988511Y-103841130D01*
X122987654Y-103921025D01*
X122986051Y-103980573D01*
X122983473Y-104023260D01*
X122979692Y-104052569D01*
X122974479Y-104071985D01*
X122967606Y-104084992D01*
X122958844Y-104095074D01*
X122949568Y-104103374D01*
X122932263Y-104113093D01*
X122906770Y-104119422D01*
X122867623Y-104123066D01*
X122809355Y-104124735D01*
X122726500Y-104125134D01*
X122661334Y-104124634D01*
X122519066Y-104118738D01*
X122400271Y-104105308D01*
X122300688Y-104083223D01*
X122216052Y-104051363D01*
X122142100Y-104008608D01*
X122074567Y-103953838D01*
X122066595Y-103946046D01*
X122017511Y-103881463D01*
X121976107Y-103800505D01*
X121947505Y-103714974D01*
X121940474Y-103663393D01*
X122136474Y-103663393D01*
X122160814Y-103731206D01*
X122200316Y-103792338D01*
X122262486Y-103848800D01*
X122344217Y-103888478D01*
X122449590Y-103913955D01*
X122451574Y-103914272D01*
X122516772Y-103921983D01*
X122594915Y-103927496D01*
X122669525Y-103929635D01*
X122793519Y-103929749D01*
X122793519Y-103343595D01*
X122692069Y-103343576D01*
X122688038Y-103343588D01*
X122619979Y-103346204D01*
X122539961Y-103352494D01*
X122464461Y-103361186D01*
X122397949Y-103373563D01*
X122298427Y-103408535D01*
X122221862Y-103460856D01*
X122166609Y-103531465D01*
X122138361Y-103599719D01*
X122136474Y-103663393D01*
X121940474Y-103663393D01*
X121936832Y-103636672D01*
X121938535Y-103608425D01*
X121954927Y-103531984D01*
X121984921Y-103452221D01*
X122023837Y-103380262D01*
X122066995Y-103327233D01*
X122093012Y-103304569D01*
X122165853Y-103252397D01*
X122246138Y-103212283D01*
X122338263Y-103183046D01*
X122446625Y-103163499D01*
X122575619Y-103152460D01*
X122729643Y-103148744D01*
X122782208Y-103148209D01*
X122843066Y-103147659D01*
X122890729Y-103150061D01*
X122926797Y-103158425D01*
X122952868Y-103175760D01*
X122970541Y-103205075D01*
X122981415Y-103249379D01*
X122987090Y-103311681D01*
X122987884Y-103343595D01*
X122989162Y-103394992D01*
G36*
X122989162Y-103394992D02*
G01*
X122989234Y-103502319D01*
X122988903Y-103636672D01*
X122988851Y-103737405D01*
X122988511Y-103841130D01*
X122987654Y-103921025D01*
X122986051Y-103980573D01*
X122983473Y-104023260D01*
X122979692Y-104052569D01*
X122974479Y-104071985D01*
X122967606Y-104084992D01*
X122958844Y-104095074D01*
X122949568Y-104103374D01*
X122932263Y-104113093D01*
X122906770Y-104119422D01*
X122867623Y-104123066D01*
X122809355Y-104124735D01*
X122726500Y-104125134D01*
X122661334Y-104124634D01*
X122519066Y-104118738D01*
X122400271Y-104105308D01*
X122300688Y-104083223D01*
X122216052Y-104051363D01*
X122142100Y-104008608D01*
X122074567Y-103953838D01*
X122066595Y-103946046D01*
X122017511Y-103881463D01*
X121976107Y-103800505D01*
X121947505Y-103714974D01*
X121940474Y-103663393D01*
X122136474Y-103663393D01*
X122160814Y-103731206D01*
X122200316Y-103792338D01*
X122262486Y-103848800D01*
X122344217Y-103888478D01*
X122449590Y-103913955D01*
X122451574Y-103914272D01*
X122516772Y-103921983D01*
X122594915Y-103927496D01*
X122669525Y-103929635D01*
X122793519Y-103929749D01*
X122793519Y-103343595D01*
X122692069Y-103343576D01*
X122688038Y-103343588D01*
X122619979Y-103346204D01*
X122539961Y-103352494D01*
X122464461Y-103361186D01*
X122397949Y-103373563D01*
X122298427Y-103408535D01*
X122221862Y-103460856D01*
X122166609Y-103531465D01*
X122138361Y-103599719D01*
X122136474Y-103663393D01*
X121940474Y-103663393D01*
X121936832Y-103636672D01*
X121938535Y-103608425D01*
X121954927Y-103531984D01*
X121984921Y-103452221D01*
X122023837Y-103380262D01*
X122066995Y-103327233D01*
X122093012Y-103304569D01*
X122165853Y-103252397D01*
X122246138Y-103212283D01*
X122338263Y-103183046D01*
X122446625Y-103163499D01*
X122575619Y-103152460D01*
X122729643Y-103148744D01*
X122782208Y-103148209D01*
X122843066Y-103147659D01*
X122890729Y-103150061D01*
X122926797Y-103158425D01*
X122952868Y-103175760D01*
X122970541Y-103205075D01*
X122981415Y-103249379D01*
X122987090Y-103311681D01*
X122987884Y-103343595D01*
X122989162Y-103394992D01*
G37*
X116405684Y-103146646D02*
X116420872Y-103154817D01*
X116434916Y-103169012D01*
X116449943Y-103187811D01*
X116455871Y-103195748D01*
X116463857Y-103209720D01*
X116469954Y-103228127D01*
X116474416Y-103254627D01*
X116477497Y-103292883D01*
X116479451Y-103346555D01*
X116480533Y-103419303D01*
X116480995Y-103514788D01*
X116481093Y-103636672D01*
X116481062Y-103714597D01*
X116480772Y-103819891D01*
X116479961Y-103901027D01*
X116478375Y-103961666D01*
X116475762Y-104005469D01*
X116471866Y-104036096D01*
X116466433Y-104057209D01*
X116459210Y-104072467D01*
X116449943Y-104085533D01*
X116409431Y-104118009D01*
X116362910Y-104121842D01*
X116313675Y-104096426D01*
X116308105Y-104091800D01*
X116297220Y-104080446D01*
X116289151Y-104065068D01*
X116283316Y-104041326D01*
X116279133Y-104004884D01*
X116276021Y-103951404D01*
X116273397Y-103876547D01*
X116270679Y-103775977D01*
X116263164Y-103484235D01*
X115909969Y-103804614D01*
X115811669Y-103893518D01*
X115724891Y-103970891D01*
X115655402Y-104030746D01*
X115600717Y-104074577D01*
X115558354Y-104103877D01*
X115525832Y-104120140D01*
X115500666Y-104124860D01*
X115480375Y-104119531D01*
X115462476Y-104105646D01*
X115444487Y-104084699D01*
X115436172Y-104073405D01*
X115428674Y-104059323D01*
X115423068Y-104040473D01*
X115419138Y-104013243D01*
X115416668Y-103974021D01*
X115415444Y-103919194D01*
X115415251Y-103845148D01*
X115415873Y-103748271D01*
X115417094Y-103624950D01*
X115421507Y-103205635D01*
X115456989Y-103176923D01*
X115491691Y-103155366D01*
X115535437Y-103151677D01*
X115581410Y-103176910D01*
X115587151Y-103181682D01*
X115597978Y-103193038D01*
X115606005Y-103208471D01*
X115611810Y-103232310D01*
X115615974Y-103268884D01*
X115619076Y-103322522D01*
X115621693Y-103397554D01*
X115624406Y-103498308D01*
X115631921Y-103791007D01*
X115872395Y-103572938D01*
X115987874Y-103468248D01*
X116088753Y-103377192D01*
X116171479Y-103303502D01*
X116238178Y-103245760D01*
X116290976Y-103202549D01*
X116331999Y-103172449D01*
X116363374Y-103154044D01*
X116387227Y-103145916D01*
X116405684Y-103146646D01*
G36*
X116405684Y-103146646D02*
G01*
X116420872Y-103154817D01*
X116434916Y-103169012D01*
X116449943Y-103187811D01*
X116455871Y-103195748D01*
X116463857Y-103209720D01*
X116469954Y-103228127D01*
X116474416Y-103254627D01*
X116477497Y-103292883D01*
X116479451Y-103346555D01*
X116480533Y-103419303D01*
X116480995Y-103514788D01*
X116481093Y-103636672D01*
X116481062Y-103714597D01*
X116480772Y-103819891D01*
X116479961Y-103901027D01*
X116478375Y-103961666D01*
X116475762Y-104005469D01*
X116471866Y-104036096D01*
X116466433Y-104057209D01*
X116459210Y-104072467D01*
X116449943Y-104085533D01*
X116409431Y-104118009D01*
X116362910Y-104121842D01*
X116313675Y-104096426D01*
X116308105Y-104091800D01*
X116297220Y-104080446D01*
X116289151Y-104065068D01*
X116283316Y-104041326D01*
X116279133Y-104004884D01*
X116276021Y-103951404D01*
X116273397Y-103876547D01*
X116270679Y-103775977D01*
X116263164Y-103484235D01*
X115909969Y-103804614D01*
X115811669Y-103893518D01*
X115724891Y-103970891D01*
X115655402Y-104030746D01*
X115600717Y-104074577D01*
X115558354Y-104103877D01*
X115525832Y-104120140D01*
X115500666Y-104124860D01*
X115480375Y-104119531D01*
X115462476Y-104105646D01*
X115444487Y-104084699D01*
X115436172Y-104073405D01*
X115428674Y-104059323D01*
X115423068Y-104040473D01*
X115419138Y-104013243D01*
X115416668Y-103974021D01*
X115415444Y-103919194D01*
X115415251Y-103845148D01*
X115415873Y-103748271D01*
X115417094Y-103624950D01*
X115421507Y-103205635D01*
X115456989Y-103176923D01*
X115491691Y-103155366D01*
X115535437Y-103151677D01*
X115581410Y-103176910D01*
X115587151Y-103181682D01*
X115597978Y-103193038D01*
X115606005Y-103208471D01*
X115611810Y-103232310D01*
X115615974Y-103268884D01*
X115619076Y-103322522D01*
X115621693Y-103397554D01*
X115624406Y-103498308D01*
X115631921Y-103791007D01*
X115872395Y-103572938D01*
X115987874Y-103468248D01*
X116088753Y-103377192D01*
X116171479Y-103303502D01*
X116238178Y-103245760D01*
X116290976Y-103202549D01*
X116331999Y-103172449D01*
X116363374Y-103154044D01*
X116387227Y-103145916D01*
X116405684Y-103146646D01*
G37*
X117467121Y-103155017D02*
X117608254Y-103176738D01*
X117733152Y-103214085D01*
X117838057Y-103265883D01*
X117919209Y-103330962D01*
X117953918Y-103374713D01*
X117993203Y-103440214D01*
X118026849Y-103511919D01*
X118050347Y-103580041D01*
X118059188Y-103634793D01*
X118057111Y-103661041D01*
X118039881Y-103729383D01*
X118009043Y-103804640D01*
X117969246Y-103876422D01*
X117925140Y-103934342D01*
X117911565Y-103948119D01*
X117822250Y-104017050D01*
X117715574Y-104070162D01*
X117600797Y-104102649D01*
X117527620Y-104113449D01*
X117403200Y-104122242D01*
X117283670Y-104119463D01*
X117173846Y-104105823D01*
X117078544Y-104082032D01*
X117002579Y-104048798D01*
X116950767Y-104006833D01*
X116948936Y-104004203D01*
X116939500Y-103970618D01*
X116933856Y-103907710D01*
X116931980Y-103815228D01*
X116933125Y-103732374D01*
X116939409Y-103669291D01*
X116954972Y-103626550D01*
X116983955Y-103600519D01*
X117030498Y-103587564D01*
X117098741Y-103584053D01*
X117192824Y-103586354D01*
X117257555Y-103590364D01*
X117324384Y-103601271D01*
X117367645Y-103619981D01*
X117390889Y-103648253D01*
X117397667Y-103687848D01*
X117397526Y-103693894D01*
X117385940Y-103740217D01*
X117353975Y-103771394D01*
X117299036Y-103788968D01*
X117218531Y-103794483D01*
X117127365Y-103794483D01*
X117127365Y-103845543D01*
X117127432Y-103857706D01*
X117130388Y-103880673D01*
X117142726Y-103894378D01*
X117171192Y-103903614D01*
X117222531Y-103913176D01*
X117229819Y-103914420D01*
X117358895Y-103927605D01*
X117478706Y-103923718D01*
X117586424Y-103904107D01*
X117679218Y-103870117D01*
X117754260Y-103823093D01*
X117808720Y-103764381D01*
X117839770Y-103695327D01*
X117844579Y-103617278D01*
X117837232Y-103578808D01*
X117801707Y-103504399D01*
X117740213Y-103443610D01*
X117653699Y-103397231D01*
X117543114Y-103366052D01*
X117510263Y-103360129D01*
X117391334Y-103346151D01*
X117285082Y-103347787D01*
X117181113Y-103365009D01*
X117134324Y-103374048D01*
X117073830Y-103375403D01*
X117032139Y-103358719D01*
X117005307Y-103323056D01*
X116996808Y-103285449D01*
X117009438Y-103243878D01*
X117021858Y-103226004D01*
X117067436Y-103194675D01*
X117137495Y-103170882D01*
X117228716Y-103155576D01*
X117337779Y-103149709D01*
X117467121Y-103155017D01*
G36*
X117467121Y-103155017D02*
G01*
X117608254Y-103176738D01*
X117733152Y-103214085D01*
X117838057Y-103265883D01*
X117919209Y-103330962D01*
X117953918Y-103374713D01*
X117993203Y-103440214D01*
X118026849Y-103511919D01*
X118050347Y-103580041D01*
X118059188Y-103634793D01*
X118057111Y-103661041D01*
X118039881Y-103729383D01*
X118009043Y-103804640D01*
X117969246Y-103876422D01*
X117925140Y-103934342D01*
X117911565Y-103948119D01*
X117822250Y-104017050D01*
X117715574Y-104070162D01*
X117600797Y-104102649D01*
X117527620Y-104113449D01*
X117403200Y-104122242D01*
X117283670Y-104119463D01*
X117173846Y-104105823D01*
X117078544Y-104082032D01*
X117002579Y-104048798D01*
X116950767Y-104006833D01*
X116948936Y-104004203D01*
X116939500Y-103970618D01*
X116933856Y-103907710D01*
X116931980Y-103815228D01*
X116933125Y-103732374D01*
X116939409Y-103669291D01*
X116954972Y-103626550D01*
X116983955Y-103600519D01*
X117030498Y-103587564D01*
X117098741Y-103584053D01*
X117192824Y-103586354D01*
X117257555Y-103590364D01*
X117324384Y-103601271D01*
X117367645Y-103619981D01*
X117390889Y-103648253D01*
X117397667Y-103687848D01*
X117397526Y-103693894D01*
X117385940Y-103740217D01*
X117353975Y-103771394D01*
X117299036Y-103788968D01*
X117218531Y-103794483D01*
X117127365Y-103794483D01*
X117127365Y-103845543D01*
X117127432Y-103857706D01*
X117130388Y-103880673D01*
X117142726Y-103894378D01*
X117171192Y-103903614D01*
X117222531Y-103913176D01*
X117229819Y-103914420D01*
X117358895Y-103927605D01*
X117478706Y-103923718D01*
X117586424Y-103904107D01*
X117679218Y-103870117D01*
X117754260Y-103823093D01*
X117808720Y-103764381D01*
X117839770Y-103695327D01*
X117844579Y-103617278D01*
X117837232Y-103578808D01*
X117801707Y-103504399D01*
X117740213Y-103443610D01*
X117653699Y-103397231D01*
X117543114Y-103366052D01*
X117510263Y-103360129D01*
X117391334Y-103346151D01*
X117285082Y-103347787D01*
X117181113Y-103365009D01*
X117134324Y-103374048D01*
X117073830Y-103375403D01*
X117032139Y-103358719D01*
X117005307Y-103323056D01*
X116996808Y-103285449D01*
X117009438Y-103243878D01*
X117021858Y-103226004D01*
X117067436Y-103194675D01*
X117137495Y-103170882D01*
X117228716Y-103155576D01*
X117337779Y-103149709D01*
X117467121Y-103155017D01*
G37*
X114871836Y-103187811D02*
X114878425Y-103196710D01*
X114886206Y-103210784D01*
X114892145Y-103229539D01*
X114896491Y-103256599D01*
X114899490Y-103295590D01*
X114901392Y-103350139D01*
X114902443Y-103423869D01*
X114902892Y-103520408D01*
X114902986Y-103643380D01*
X114902948Y-103731139D01*
X114902639Y-103835407D01*
X114901813Y-103915645D01*
X114900225Y-103975421D01*
X114897632Y-104018302D01*
X114893791Y-104047856D01*
X114888458Y-104067652D01*
X114881390Y-104081257D01*
X114872342Y-104092240D01*
X114866331Y-104098441D01*
X114855374Y-104107077D01*
X114840250Y-104113616D01*
X114817260Y-104118350D01*
X114782704Y-104121569D01*
X114732886Y-104123566D01*
X114664104Y-104124631D01*
X114572661Y-104125056D01*
X114454857Y-104125134D01*
X114428663Y-104125125D01*
X114312802Y-104124770D01*
X114222732Y-104123751D01*
X114154893Y-104121868D01*
X114105724Y-104118923D01*
X114071662Y-104114719D01*
X114049146Y-104109056D01*
X114034615Y-104101737D01*
X114020645Y-104088442D01*
X114002990Y-104047014D01*
X114004564Y-103999234D01*
X114026085Y-103957234D01*
X114029000Y-103954204D01*
X114040566Y-103945859D01*
X114058329Y-103939647D01*
X114086265Y-103935258D01*
X114128351Y-103932384D01*
X114188565Y-103930714D01*
X114270882Y-103929939D01*
X114379280Y-103929749D01*
X114707602Y-103929749D01*
X114707602Y-103719335D01*
X114491338Y-103719335D01*
X114443850Y-103719228D01*
X114369600Y-103718166D01*
X114317493Y-103715497D01*
X114282274Y-103710649D01*
X114258685Y-103703049D01*
X114241471Y-103692125D01*
X114236621Y-103687886D01*
X114212114Y-103646647D01*
X114211270Y-103598271D01*
X114234620Y-103553511D01*
X114234703Y-103553420D01*
X114247578Y-103541935D01*
X114265277Y-103533873D01*
X114292846Y-103528639D01*
X114335331Y-103525637D01*
X114397779Y-103524273D01*
X114485237Y-103523950D01*
X114709102Y-103523950D01*
X114704594Y-103437530D01*
X114700087Y-103351110D01*
X114377795Y-103347045D01*
X114344489Y-103346609D01*
X114235824Y-103344639D01*
X114152854Y-103341465D01*
X114092126Y-103336145D01*
X114050185Y-103327740D01*
X114023578Y-103315306D01*
X114008849Y-103297903D01*
X114002545Y-103274590D01*
X114001211Y-103244426D01*
X114001219Y-103241276D01*
X114002755Y-103214608D01*
X114009143Y-103193582D01*
X114023532Y-103177531D01*
X114049073Y-103165784D01*
X114088919Y-103157674D01*
X114146218Y-103152530D01*
X114224123Y-103149684D01*
X114325784Y-103148467D01*
X114454352Y-103148210D01*
X114840686Y-103148210D01*
X114871836Y-103187811D01*
G36*
X114871836Y-103187811D02*
G01*
X114878425Y-103196710D01*
X114886206Y-103210784D01*
X114892145Y-103229539D01*
X114896491Y-103256599D01*
X114899490Y-103295590D01*
X114901392Y-103350139D01*
X114902443Y-103423869D01*
X114902892Y-103520408D01*
X114902986Y-103643380D01*
X114902948Y-103731139D01*
X114902639Y-103835407D01*
X114901813Y-103915645D01*
X114900225Y-103975421D01*
X114897632Y-104018302D01*
X114893791Y-104047856D01*
X114888458Y-104067652D01*
X114881390Y-104081257D01*
X114872342Y-104092240D01*
X114866331Y-104098441D01*
X114855374Y-104107077D01*
X114840250Y-104113616D01*
X114817260Y-104118350D01*
X114782704Y-104121569D01*
X114732886Y-104123566D01*
X114664104Y-104124631D01*
X114572661Y-104125056D01*
X114454857Y-104125134D01*
X114428663Y-104125125D01*
X114312802Y-104124770D01*
X114222732Y-104123751D01*
X114154893Y-104121868D01*
X114105724Y-104118923D01*
X114071662Y-104114719D01*
X114049146Y-104109056D01*
X114034615Y-104101737D01*
X114020645Y-104088442D01*
X114002990Y-104047014D01*
X114004564Y-103999234D01*
X114026085Y-103957234D01*
X114029000Y-103954204D01*
X114040566Y-103945859D01*
X114058329Y-103939647D01*
X114086265Y-103935258D01*
X114128351Y-103932384D01*
X114188565Y-103930714D01*
X114270882Y-103929939D01*
X114379280Y-103929749D01*
X114707602Y-103929749D01*
X114707602Y-103719335D01*
X114491338Y-103719335D01*
X114443850Y-103719228D01*
X114369600Y-103718166D01*
X114317493Y-103715497D01*
X114282274Y-103710649D01*
X114258685Y-103703049D01*
X114241471Y-103692125D01*
X114236621Y-103687886D01*
X114212114Y-103646647D01*
X114211270Y-103598271D01*
X114234620Y-103553511D01*
X114234703Y-103553420D01*
X114247578Y-103541935D01*
X114265277Y-103533873D01*
X114292846Y-103528639D01*
X114335331Y-103525637D01*
X114397779Y-103524273D01*
X114485237Y-103523950D01*
X114709102Y-103523950D01*
X114704594Y-103437530D01*
X114700087Y-103351110D01*
X114377795Y-103347045D01*
X114344489Y-103346609D01*
X114235824Y-103344639D01*
X114152854Y-103341465D01*
X114092126Y-103336145D01*
X114050185Y-103327740D01*
X114023578Y-103315306D01*
X114008849Y-103297903D01*
X114002545Y-103274590D01*
X114001211Y-103244426D01*
X114001219Y-103241276D01*
X114002755Y-103214608D01*
X114009143Y-103193582D01*
X114023532Y-103177531D01*
X114049073Y-103165784D01*
X114088919Y-103157674D01*
X114146218Y-103152530D01*
X114224123Y-103149684D01*
X114325784Y-103148467D01*
X114454352Y-103148210D01*
X114840686Y-103148210D01*
X114871836Y-103187811D01*
G37*
X121098520Y-103148232D02*
X121201163Y-103148488D01*
X121279642Y-103149266D01*
X121337672Y-103150852D01*
X121378969Y-103153532D01*
X121407250Y-103157590D01*
X121426232Y-103163312D01*
X121439629Y-103170983D01*
X121451160Y-103180890D01*
X121453536Y-103183127D01*
X121463180Y-103193164D01*
X121470691Y-103205170D01*
X121476337Y-103222657D01*
X121480383Y-103249134D01*
X121483096Y-103288115D01*
X121484742Y-103343110D01*
X121485588Y-103417630D01*
X121485900Y-103515187D01*
X121485945Y-103639292D01*
X121485896Y-103736201D01*
X121485565Y-103840281D01*
X121484718Y-103920448D01*
X121483124Y-103980198D01*
X121480553Y-104023028D01*
X121476775Y-104052434D01*
X121471558Y-104071912D01*
X121464671Y-104084960D01*
X121455886Y-104095074D01*
X121451447Y-104099304D01*
X121440101Y-104107440D01*
X121424122Y-104113663D01*
X121399877Y-104118230D01*
X121363735Y-104121395D01*
X121312063Y-104123413D01*
X121241228Y-104124539D01*
X121147598Y-104125027D01*
X121027543Y-104125134D01*
X120971481Y-104125118D01*
X120863445Y-104124875D01*
X120780245Y-104124139D01*
X120718249Y-104122654D01*
X120673825Y-104120165D01*
X120643340Y-104116418D01*
X120623162Y-104111157D01*
X120609659Y-104104127D01*
X120599199Y-104095074D01*
X120579593Y-104066318D01*
X120569140Y-104027441D01*
X120576461Y-103995613D01*
X120599199Y-103959808D01*
X120605828Y-103953673D01*
X120618842Y-103945303D01*
X120637635Y-103939145D01*
X120666253Y-103934863D01*
X120708743Y-103932120D01*
X120769151Y-103930578D01*
X120851524Y-103929900D01*
X120959909Y-103929749D01*
X121290560Y-103929749D01*
X121290560Y-103719335D01*
X121075975Y-103719335D01*
X121028289Y-103719141D01*
X120940920Y-103716848D01*
X120878025Y-103710943D01*
X120835774Y-103700153D01*
X120810337Y-103683204D01*
X120797884Y-103658821D01*
X120794584Y-103625731D01*
X120795646Y-103598763D01*
X120802638Y-103569705D01*
X120819671Y-103549267D01*
X120850745Y-103535959D01*
X120899857Y-103528296D01*
X120971008Y-103524789D01*
X121068196Y-103523950D01*
X121292060Y-103523950D01*
X121283046Y-103351110D01*
X120953245Y-103347051D01*
X120869914Y-103345881D01*
X120778768Y-103343958D01*
X120710996Y-103341388D01*
X120662730Y-103337859D01*
X120630102Y-103333061D01*
X120609246Y-103326685D01*
X120596293Y-103318420D01*
X120588284Y-103309895D01*
X120570965Y-103267716D01*
X120575705Y-103220204D01*
X120602033Y-103178855D01*
X120606363Y-103174963D01*
X120618318Y-103166507D01*
X120634432Y-103160047D01*
X120658405Y-103155315D01*
X120693937Y-103152044D01*
X120744727Y-103149965D01*
X120814476Y-103148812D01*
X120906884Y-103148316D01*
X121025650Y-103148210D01*
X121098520Y-103148232D01*
G36*
X121098520Y-103148232D02*
G01*
X121201163Y-103148488D01*
X121279642Y-103149266D01*
X121337672Y-103150852D01*
X121378969Y-103153532D01*
X121407250Y-103157590D01*
X121426232Y-103163312D01*
X121439629Y-103170983D01*
X121451160Y-103180890D01*
X121453536Y-103183127D01*
X121463180Y-103193164D01*
X121470691Y-103205170D01*
X121476337Y-103222657D01*
X121480383Y-103249134D01*
X121483096Y-103288115D01*
X121484742Y-103343110D01*
X121485588Y-103417630D01*
X121485900Y-103515187D01*
X121485945Y-103639292D01*
X121485896Y-103736201D01*
X121485565Y-103840281D01*
X121484718Y-103920448D01*
X121483124Y-103980198D01*
X121480553Y-104023028D01*
X121476775Y-104052434D01*
X121471558Y-104071912D01*
X121464671Y-104084960D01*
X121455886Y-104095074D01*
X121451447Y-104099304D01*
X121440101Y-104107440D01*
X121424122Y-104113663D01*
X121399877Y-104118230D01*
X121363735Y-104121395D01*
X121312063Y-104123413D01*
X121241228Y-104124539D01*
X121147598Y-104125027D01*
X121027543Y-104125134D01*
X120971481Y-104125118D01*
X120863445Y-104124875D01*
X120780245Y-104124139D01*
X120718249Y-104122654D01*
X120673825Y-104120165D01*
X120643340Y-104116418D01*
X120623162Y-104111157D01*
X120609659Y-104104127D01*
X120599199Y-104095074D01*
X120579593Y-104066318D01*
X120569140Y-104027441D01*
X120576461Y-103995613D01*
X120599199Y-103959808D01*
X120605828Y-103953673D01*
X120618842Y-103945303D01*
X120637635Y-103939145D01*
X120666253Y-103934863D01*
X120708743Y-103932120D01*
X120769151Y-103930578D01*
X120851524Y-103929900D01*
X120959909Y-103929749D01*
X121290560Y-103929749D01*
X121290560Y-103719335D01*
X121075975Y-103719335D01*
X121028289Y-103719141D01*
X120940920Y-103716848D01*
X120878025Y-103710943D01*
X120835774Y-103700153D01*
X120810337Y-103683204D01*
X120797884Y-103658821D01*
X120794584Y-103625731D01*
X120795646Y-103598763D01*
X120802638Y-103569705D01*
X120819671Y-103549267D01*
X120850745Y-103535959D01*
X120899857Y-103528296D01*
X120971008Y-103524789D01*
X121068196Y-103523950D01*
X121292060Y-103523950D01*
X121283046Y-103351110D01*
X120953245Y-103347051D01*
X120869914Y-103345881D01*
X120778768Y-103343958D01*
X120710996Y-103341388D01*
X120662730Y-103337859D01*
X120630102Y-103333061D01*
X120609246Y-103326685D01*
X120596293Y-103318420D01*
X120588284Y-103309895D01*
X120570965Y-103267716D01*
X120575705Y-103220204D01*
X120602033Y-103178855D01*
X120606363Y-103174963D01*
X120618318Y-103166507D01*
X120634432Y-103160047D01*
X120658405Y-103155315D01*
X120693937Y-103152044D01*
X120744727Y-103149965D01*
X120814476Y-103148812D01*
X120906884Y-103148316D01*
X121025650Y-103148210D01*
X121098520Y-103148232D01*
G37*
X109692708Y-103160740D02*
X109716619Y-103185385D01*
X109744046Y-103226766D01*
X109777107Y-103287590D01*
X109817920Y-103370563D01*
X109868604Y-103478394D01*
X109888087Y-103520176D01*
X109927693Y-103604296D01*
X109962435Y-103676996D01*
X109990386Y-103734307D01*
X110009620Y-103772255D01*
X110018211Y-103786869D01*
X110020020Y-103786096D01*
X110033323Y-103767527D01*
X110056344Y-103728201D01*
X110086428Y-103672794D01*
X110120922Y-103605980D01*
X110142187Y-103564058D01*
X110180730Y-103490362D01*
X110210670Y-103438417D01*
X110234922Y-103404497D01*
X110256398Y-103384879D01*
X110278012Y-103375840D01*
X110302677Y-103373654D01*
X110316660Y-103374287D01*
X110338116Y-103379888D01*
X110358505Y-103394352D01*
X110380603Y-103421342D01*
X110407189Y-103464525D01*
X110441040Y-103527565D01*
X110484934Y-103614128D01*
X110497892Y-103639763D01*
X110530454Y-103701896D01*
X110557395Y-103750041D01*
X110576210Y-103779849D01*
X110584397Y-103786968D01*
X110586217Y-103782613D01*
X110598698Y-103754775D01*
X110621146Y-103705596D01*
X110651656Y-103639226D01*
X110688323Y-103559814D01*
X110729242Y-103471507D01*
X110764809Y-103395325D01*
X110804249Y-103312795D01*
X110834965Y-103251900D01*
X110858901Y-103209242D01*
X110878002Y-103181425D01*
X110894213Y-103165053D01*
X110909478Y-103156731D01*
X110922006Y-103152880D01*
X110955430Y-103152682D01*
X110991567Y-103173108D01*
X110993298Y-103174420D01*
X111022700Y-103204556D01*
X111037409Y-103234145D01*
X111037471Y-103234997D01*
X111031426Y-103258511D01*
X111014299Y-103304531D01*
X110987993Y-103368896D01*
X110954410Y-103447445D01*
X110915452Y-103536021D01*
X110873022Y-103630461D01*
X110829022Y-103726607D01*
X110785354Y-103820299D01*
X110743920Y-103907376D01*
X110706623Y-103983680D01*
X110675364Y-104045049D01*
X110652046Y-104087325D01*
X110638571Y-104106347D01*
X110592762Y-104124145D01*
X110537248Y-104115676D01*
X110530106Y-104109422D01*
X110509032Y-104079931D01*
X110479473Y-104030990D01*
X110444303Y-103967461D01*
X110406394Y-103894207D01*
X110300186Y-103682197D01*
X110202748Y-103877363D01*
X110189840Y-103903046D01*
X110153921Y-103972740D01*
X110121931Y-104032371D01*
X110096949Y-104076286D01*
X110082056Y-104098832D01*
X110080530Y-104100487D01*
X110043091Y-104120839D01*
X109996411Y-104123080D01*
X109955084Y-104106347D01*
X109951854Y-104102554D01*
X109935531Y-104075094D01*
X109909254Y-104025100D01*
X109874766Y-103956098D01*
X109833810Y-103871614D01*
X109788130Y-103775173D01*
X109739469Y-103670303D01*
X109712522Y-103611559D01*
X109663564Y-103504081D01*
X109625678Y-103419302D01*
X109597687Y-103354153D01*
X109578412Y-103305564D01*
X109566678Y-103270467D01*
X109561305Y-103245792D01*
X109561116Y-103228472D01*
X109564934Y-103215436D01*
X109584448Y-103187634D01*
X109619866Y-103160606D01*
X109620872Y-103160150D01*
X109646953Y-103150830D01*
X109670192Y-103150124D01*
X109692708Y-103160740D01*
G36*
X109692708Y-103160740D02*
G01*
X109716619Y-103185385D01*
X109744046Y-103226766D01*
X109777107Y-103287590D01*
X109817920Y-103370563D01*
X109868604Y-103478394D01*
X109888087Y-103520176D01*
X109927693Y-103604296D01*
X109962435Y-103676996D01*
X109990386Y-103734307D01*
X110009620Y-103772255D01*
X110018211Y-103786869D01*
X110020020Y-103786096D01*
X110033323Y-103767527D01*
X110056344Y-103728201D01*
X110086428Y-103672794D01*
X110120922Y-103605980D01*
X110142187Y-103564058D01*
X110180730Y-103490362D01*
X110210670Y-103438417D01*
X110234922Y-103404497D01*
X110256398Y-103384879D01*
X110278012Y-103375840D01*
X110302677Y-103373654D01*
X110316660Y-103374287D01*
X110338116Y-103379888D01*
X110358505Y-103394352D01*
X110380603Y-103421342D01*
X110407189Y-103464525D01*
X110441040Y-103527565D01*
X110484934Y-103614128D01*
X110497892Y-103639763D01*
X110530454Y-103701896D01*
X110557395Y-103750041D01*
X110576210Y-103779849D01*
X110584397Y-103786968D01*
X110586217Y-103782613D01*
X110598698Y-103754775D01*
X110621146Y-103705596D01*
X110651656Y-103639226D01*
X110688323Y-103559814D01*
X110729242Y-103471507D01*
X110764809Y-103395325D01*
X110804249Y-103312795D01*
X110834965Y-103251900D01*
X110858901Y-103209242D01*
X110878002Y-103181425D01*
X110894213Y-103165053D01*
X110909478Y-103156731D01*
X110922006Y-103152880D01*
X110955430Y-103152682D01*
X110991567Y-103173108D01*
X110993298Y-103174420D01*
X111022700Y-103204556D01*
X111037409Y-103234145D01*
X111037471Y-103234997D01*
X111031426Y-103258511D01*
X111014299Y-103304531D01*
X110987993Y-103368896D01*
X110954410Y-103447445D01*
X110915452Y-103536021D01*
X110873022Y-103630461D01*
X110829022Y-103726607D01*
X110785354Y-103820299D01*
X110743920Y-103907376D01*
X110706623Y-103983680D01*
X110675364Y-104045049D01*
X110652046Y-104087325D01*
X110638571Y-104106347D01*
X110592762Y-104124145D01*
X110537248Y-104115676D01*
X110530106Y-104109422D01*
X110509032Y-104079931D01*
X110479473Y-104030990D01*
X110444303Y-103967461D01*
X110406394Y-103894207D01*
X110300186Y-103682197D01*
X110202748Y-103877363D01*
X110189840Y-103903046D01*
X110153921Y-103972740D01*
X110121931Y-104032371D01*
X110096949Y-104076286D01*
X110082056Y-104098832D01*
X110080530Y-104100487D01*
X110043091Y-104120839D01*
X109996411Y-104123080D01*
X109955084Y-104106347D01*
X109951854Y-104102554D01*
X109935531Y-104075094D01*
X109909254Y-104025100D01*
X109874766Y-103956098D01*
X109833810Y-103871614D01*
X109788130Y-103775173D01*
X109739469Y-103670303D01*
X109712522Y-103611559D01*
X109663564Y-103504081D01*
X109625678Y-103419302D01*
X109597687Y-103354153D01*
X109578412Y-103305564D01*
X109566678Y-103270467D01*
X109561305Y-103245792D01*
X109561116Y-103228472D01*
X109564934Y-103215436D01*
X109584448Y-103187634D01*
X109619866Y-103160606D01*
X109620872Y-103160150D01*
X109646953Y-103150830D01*
X109670192Y-103150124D01*
X109692708Y-103160740D01*
G37*
X119746015Y-103149368D02*
X119834213Y-103156597D01*
X119907838Y-103169376D01*
X119975581Y-103189161D01*
X120070524Y-103233272D01*
X120138632Y-103290098D01*
X120179669Y-103359415D01*
X120193401Y-103440999D01*
X120192153Y-103482602D01*
X120184441Y-103515616D01*
X120164727Y-103544466D01*
X120127486Y-103580880D01*
X120116864Y-103590637D01*
X120085298Y-103618466D01*
X120055484Y-103641060D01*
X120023486Y-103659637D01*
X119985372Y-103675415D01*
X119937208Y-103689612D01*
X119875060Y-103703447D01*
X119794994Y-103718138D01*
X119693076Y-103734903D01*
X119565374Y-103754961D01*
X119540925Y-103759000D01*
X119457942Y-103777134D01*
X119397741Y-103798081D01*
X119362747Y-103820809D01*
X119355386Y-103844287D01*
X119358875Y-103849972D01*
X119382750Y-103870029D01*
X119420195Y-103892175D01*
X119437236Y-103900151D01*
X119465592Y-103909727D01*
X119500721Y-103916087D01*
X119548443Y-103919840D01*
X119614576Y-103921594D01*
X119704939Y-103921958D01*
X119728617Y-103921861D01*
X119818645Y-103920382D01*
X119905102Y-103917419D01*
X119979159Y-103913337D01*
X120031989Y-103908498D01*
X120079267Y-103903082D01*
X120118212Y-103902040D01*
X120143376Y-103908163D01*
X120163498Y-103922376D01*
X120168366Y-103927159D01*
X120190123Y-103969462D01*
X120188365Y-104016930D01*
X120163127Y-104057695D01*
X120136006Y-104073146D01*
X120088099Y-104090048D01*
X120031618Y-104103428D01*
X120027024Y-104104225D01*
X119970216Y-104111170D01*
X119893813Y-104116993D01*
X119807252Y-104121104D01*
X119719969Y-104122913D01*
X119698357Y-104122969D01*
X119567468Y-104119670D01*
X119460890Y-104109011D01*
X119374112Y-104089664D01*
X119302624Y-104060302D01*
X119241913Y-104019598D01*
X119187469Y-103966224D01*
X119160681Y-103931307D01*
X119145202Y-103891969D01*
X119141330Y-103839092D01*
X119141517Y-103823157D01*
X119146673Y-103779646D01*
X119163162Y-103744331D01*
X119196665Y-103703260D01*
X119224906Y-103673784D01*
X119260049Y-103643767D01*
X119299613Y-103619313D01*
X119347847Y-103599002D01*
X119409000Y-103581412D01*
X119487319Y-103565123D01*
X119587054Y-103548713D01*
X119712454Y-103530762D01*
X119772780Y-103521430D01*
X119863252Y-103502046D01*
X119928669Y-103480080D01*
X119968034Y-103456251D01*
X119980350Y-103431282D01*
X119964618Y-103405893D01*
X119919842Y-103380805D01*
X119915787Y-103379189D01*
X119854066Y-103363109D01*
X119770656Y-103352191D01*
X119672889Y-103346652D01*
X119568098Y-103346709D01*
X119463615Y-103352578D01*
X119366773Y-103364475D01*
X119361545Y-103365339D01*
X119296553Y-103375600D01*
X119253614Y-103380408D01*
X119225659Y-103379613D01*
X119205617Y-103373061D01*
X119186418Y-103360601D01*
X119184861Y-103359442D01*
X119152220Y-103319004D01*
X119145838Y-103271739D01*
X119166883Y-103225699D01*
X119172935Y-103219766D01*
X119212362Y-103199610D01*
X119274912Y-103182138D01*
X119355198Y-103167759D01*
X119447837Y-103156884D01*
X119547442Y-103149921D01*
X119648630Y-103147279D01*
X119746015Y-103149368D01*
G36*
X119746015Y-103149368D02*
G01*
X119834213Y-103156597D01*
X119907838Y-103169376D01*
X119975581Y-103189161D01*
X120070524Y-103233272D01*
X120138632Y-103290098D01*
X120179669Y-103359415D01*
X120193401Y-103440999D01*
X120192153Y-103482602D01*
X120184441Y-103515616D01*
X120164727Y-103544466D01*
X120127486Y-103580880D01*
X120116864Y-103590637D01*
X120085298Y-103618466D01*
X120055484Y-103641060D01*
X120023486Y-103659637D01*
X119985372Y-103675415D01*
X119937208Y-103689612D01*
X119875060Y-103703447D01*
X119794994Y-103718138D01*
X119693076Y-103734903D01*
X119565374Y-103754961D01*
X119540925Y-103759000D01*
X119457942Y-103777134D01*
X119397741Y-103798081D01*
X119362747Y-103820809D01*
X119355386Y-103844287D01*
X119358875Y-103849972D01*
X119382750Y-103870029D01*
X119420195Y-103892175D01*
X119437236Y-103900151D01*
X119465592Y-103909727D01*
X119500721Y-103916087D01*
X119548443Y-103919840D01*
X119614576Y-103921594D01*
X119704939Y-103921958D01*
X119728617Y-103921861D01*
X119818645Y-103920382D01*
X119905102Y-103917419D01*
X119979159Y-103913337D01*
X120031989Y-103908498D01*
X120079267Y-103903082D01*
X120118212Y-103902040D01*
X120143376Y-103908163D01*
X120163498Y-103922376D01*
X120168366Y-103927159D01*
X120190123Y-103969462D01*
X120188365Y-104016930D01*
X120163127Y-104057695D01*
X120136006Y-104073146D01*
X120088099Y-104090048D01*
X120031618Y-104103428D01*
X120027024Y-104104225D01*
X119970216Y-104111170D01*
X119893813Y-104116993D01*
X119807252Y-104121104D01*
X119719969Y-104122913D01*
X119698357Y-104122969D01*
X119567468Y-104119670D01*
X119460890Y-104109011D01*
X119374112Y-104089664D01*
X119302624Y-104060302D01*
X119241913Y-104019598D01*
X119187469Y-103966224D01*
X119160681Y-103931307D01*
X119145202Y-103891969D01*
X119141330Y-103839092D01*
X119141517Y-103823157D01*
X119146673Y-103779646D01*
X119163162Y-103744331D01*
X119196665Y-103703260D01*
X119224906Y-103673784D01*
X119260049Y-103643767D01*
X119299613Y-103619313D01*
X119347847Y-103599002D01*
X119409000Y-103581412D01*
X119487319Y-103565123D01*
X119587054Y-103548713D01*
X119712454Y-103530762D01*
X119772780Y-103521430D01*
X119863252Y-103502046D01*
X119928669Y-103480080D01*
X119968034Y-103456251D01*
X119980350Y-103431282D01*
X119964618Y-103405893D01*
X119919842Y-103380805D01*
X119915787Y-103379189D01*
X119854066Y-103363109D01*
X119770656Y-103352191D01*
X119672889Y-103346652D01*
X119568098Y-103346709D01*
X119463615Y-103352578D01*
X119366773Y-103364475D01*
X119361545Y-103365339D01*
X119296553Y-103375600D01*
X119253614Y-103380408D01*
X119225659Y-103379613D01*
X119205617Y-103373061D01*
X119186418Y-103360601D01*
X119184861Y-103359442D01*
X119152220Y-103319004D01*
X119145838Y-103271739D01*
X119166883Y-103225699D01*
X119172935Y-103219766D01*
X119212362Y-103199610D01*
X119274912Y-103182138D01*
X119355198Y-103167759D01*
X119447837Y-103156884D01*
X119547442Y-103149921D01*
X119648630Y-103147279D01*
X119746015Y-103149368D01*
G37*
X114581334Y-96107831D02*
X114825138Y-96130213D01*
X115051632Y-96175351D01*
X115269242Y-96245145D01*
X115486391Y-96341496D01*
X115701345Y-96464515D01*
X115932034Y-96632222D01*
X116145959Y-96826123D01*
X116338411Y-97041418D01*
X116504680Y-97273307D01*
X116640053Y-97516990D01*
X116652341Y-97543058D01*
X116755250Y-97794681D01*
X116833446Y-98056145D01*
X116887939Y-98332446D01*
X116919741Y-98628579D01*
X116929860Y-98949539D01*
X116917556Y-99281328D01*
X116878501Y-99608076D01*
X116812090Y-99913949D01*
X116717727Y-100201117D01*
X116594820Y-100471749D01*
X116442773Y-100728014D01*
X116299950Y-100923800D01*
X116102743Y-101144089D01*
X115887796Y-101332774D01*
X115655203Y-101489793D01*
X115405058Y-101615085D01*
X115137457Y-101708586D01*
X114852492Y-101770237D01*
X114849240Y-101770717D01*
X114794362Y-101775532D01*
X114711549Y-101779104D01*
X114608458Y-101781265D01*
X114492746Y-101781850D01*
X114372072Y-101780691D01*
X114287497Y-101778992D01*
X114162012Y-101775058D01*
X114061458Y-101769426D01*
X113978583Y-101761494D01*
X113906134Y-101750663D01*
X113836857Y-101736330D01*
X113758916Y-101717807D01*
X113677599Y-101696714D01*
X113604056Y-101674587D01*
X113531612Y-101648833D01*
X113453593Y-101616860D01*
X113363325Y-101576078D01*
X113254131Y-101523893D01*
X113119339Y-101457715D01*
X112746536Y-101273477D01*
X113045128Y-100783031D01*
X113084219Y-100718841D01*
X113154450Y-100603610D01*
X113217311Y-100500594D01*
X113270504Y-100413548D01*
X113311733Y-100346232D01*
X113338700Y-100302401D01*
X113349107Y-100285815D01*
X113352002Y-100286310D01*
X113375320Y-100302542D01*
X113416286Y-100336229D01*
X113468427Y-100382145D01*
X113561287Y-100461478D01*
X113727062Y-100578790D01*
X113887903Y-100660571D01*
X114004131Y-100701411D01*
X114200722Y-100743148D01*
X114393878Y-100750546D01*
X114580799Y-100724109D01*
X114758683Y-100664340D01*
X114924730Y-100571743D01*
X115076137Y-100446822D01*
X115160386Y-100354814D01*
X115279074Y-100184631D01*
X115376464Y-99987142D01*
X115453019Y-99761336D01*
X115509207Y-99506201D01*
X115511756Y-99490362D01*
X115523533Y-99387703D01*
X115532300Y-99260151D01*
X115537986Y-99116422D01*
X115540521Y-98965231D01*
X115539833Y-98815293D01*
X115535852Y-98675324D01*
X115528506Y-98554041D01*
X115517725Y-98460157D01*
X115476400Y-98247492D01*
X115406865Y-97999070D01*
X115319415Y-97781581D01*
X115214165Y-97595193D01*
X115091232Y-97440073D01*
X114950735Y-97316390D01*
X114792788Y-97224312D01*
X114617510Y-97164009D01*
X114578621Y-97156524D01*
X114481166Y-97146751D01*
X114367273Y-97143561D01*
X114249704Y-97146779D01*
X114141217Y-97156229D01*
X114054572Y-97171736D01*
X113910232Y-97221113D01*
X113742728Y-97311256D01*
X113593580Y-97429884D01*
X113567256Y-97454873D01*
X113519557Y-97499085D01*
X113485845Y-97528842D01*
X113472149Y-97538741D01*
X113468777Y-97534007D01*
X113448023Y-97504113D01*
X113410528Y-97449833D01*
X113358770Y-97374762D01*
X113295228Y-97282494D01*
X113222377Y-97176623D01*
X113142697Y-97060744D01*
X112816786Y-96586617D01*
X112889592Y-96564804D01*
X112897190Y-96562332D01*
X112946645Y-96542698D01*
X113017947Y-96511039D01*
X113102728Y-96471162D01*
X113192620Y-96426876D01*
X113231792Y-96407296D01*
X113449304Y-96306209D01*
X113649783Y-96228038D01*
X113840938Y-96170785D01*
X114030481Y-96132449D01*
X114226122Y-96111031D01*
X114435572Y-96104531D01*
X114581334Y-96107831D01*
G36*
X114581334Y-96107831D02*
G01*
X114825138Y-96130213D01*
X115051632Y-96175351D01*
X115269242Y-96245145D01*
X115486391Y-96341496D01*
X115701345Y-96464515D01*
X115932034Y-96632222D01*
X116145959Y-96826123D01*
X116338411Y-97041418D01*
X116504680Y-97273307D01*
X116640053Y-97516990D01*
X116652341Y-97543058D01*
X116755250Y-97794681D01*
X116833446Y-98056145D01*
X116887939Y-98332446D01*
X116919741Y-98628579D01*
X116929860Y-98949539D01*
X116917556Y-99281328D01*
X116878501Y-99608076D01*
X116812090Y-99913949D01*
X116717727Y-100201117D01*
X116594820Y-100471749D01*
X116442773Y-100728014D01*
X116299950Y-100923800D01*
X116102743Y-101144089D01*
X115887796Y-101332774D01*
X115655203Y-101489793D01*
X115405058Y-101615085D01*
X115137457Y-101708586D01*
X114852492Y-101770237D01*
X114849240Y-101770717D01*
X114794362Y-101775532D01*
X114711549Y-101779104D01*
X114608458Y-101781265D01*
X114492746Y-101781850D01*
X114372072Y-101780691D01*
X114287497Y-101778992D01*
X114162012Y-101775058D01*
X114061458Y-101769426D01*
X113978583Y-101761494D01*
X113906134Y-101750663D01*
X113836857Y-101736330D01*
X113758916Y-101717807D01*
X113677599Y-101696714D01*
X113604056Y-101674587D01*
X113531612Y-101648833D01*
X113453593Y-101616860D01*
X113363325Y-101576078D01*
X113254131Y-101523893D01*
X113119339Y-101457715D01*
X112746536Y-101273477D01*
X113045128Y-100783031D01*
X113084219Y-100718841D01*
X113154450Y-100603610D01*
X113217311Y-100500594D01*
X113270504Y-100413548D01*
X113311733Y-100346232D01*
X113338700Y-100302401D01*
X113349107Y-100285815D01*
X113352002Y-100286310D01*
X113375320Y-100302542D01*
X113416286Y-100336229D01*
X113468427Y-100382145D01*
X113561287Y-100461478D01*
X113727062Y-100578790D01*
X113887903Y-100660571D01*
X114004131Y-100701411D01*
X114200722Y-100743148D01*
X114393878Y-100750546D01*
X114580799Y-100724109D01*
X114758683Y-100664340D01*
X114924730Y-100571743D01*
X115076137Y-100446822D01*
X115160386Y-100354814D01*
X115279074Y-100184631D01*
X115376464Y-99987142D01*
X115453019Y-99761336D01*
X115509207Y-99506201D01*
X115511756Y-99490362D01*
X115523533Y-99387703D01*
X115532300Y-99260151D01*
X115537986Y-99116422D01*
X115540521Y-98965231D01*
X115539833Y-98815293D01*
X115535852Y-98675324D01*
X115528506Y-98554041D01*
X115517725Y-98460157D01*
X115476400Y-98247492D01*
X115406865Y-97999070D01*
X115319415Y-97781581D01*
X115214165Y-97595193D01*
X115091232Y-97440073D01*
X114950735Y-97316390D01*
X114792788Y-97224312D01*
X114617510Y-97164009D01*
X114578621Y-97156524D01*
X114481166Y-97146751D01*
X114367273Y-97143561D01*
X114249704Y-97146779D01*
X114141217Y-97156229D01*
X114054572Y-97171736D01*
X113910232Y-97221113D01*
X113742728Y-97311256D01*
X113593580Y-97429884D01*
X113567256Y-97454873D01*
X113519557Y-97499085D01*
X113485845Y-97528842D01*
X113472149Y-97538741D01*
X113468777Y-97534007D01*
X113448023Y-97504113D01*
X113410528Y-97449833D01*
X113358770Y-97374762D01*
X113295228Y-97282494D01*
X113222377Y-97176623D01*
X113142697Y-97060744D01*
X112816786Y-96586617D01*
X112889592Y-96564804D01*
X112897190Y-96562332D01*
X112946645Y-96542698D01*
X113017947Y-96511039D01*
X113102728Y-96471162D01*
X113192620Y-96426876D01*
X113231792Y-96407296D01*
X113449304Y-96306209D01*
X113649783Y-96228038D01*
X113840938Y-96170785D01*
X114030481Y-96132449D01*
X114226122Y-96111031D01*
X114435572Y-96104531D01*
X114581334Y-96107831D01*
G37*
X108654605Y-99888337D02*
X108650755Y-100056233D01*
X108639747Y-100204302D01*
X108620729Y-100340598D01*
X108592849Y-100473175D01*
X108555254Y-100610086D01*
X108498243Y-100773736D01*
X108393536Y-100994657D01*
X108265098Y-101192534D01*
X108114893Y-101365497D01*
X107944887Y-101511676D01*
X107757045Y-101629201D01*
X107553332Y-101716202D01*
X107335712Y-101770809D01*
X107333093Y-101771247D01*
X107174053Y-101786550D01*
X106999309Y-101784507D01*
X106821320Y-101766379D01*
X106652546Y-101733424D01*
X106505448Y-101686901D01*
X106442661Y-101658591D01*
X106360887Y-101615561D01*
X106276859Y-101566346D01*
X106199345Y-101516363D01*
X106137112Y-101471029D01*
X106098929Y-101435760D01*
X106090163Y-101426077D01*
X106079714Y-101422692D01*
X106072729Y-101439496D01*
X106067582Y-101481845D01*
X106062643Y-101555095D01*
X106053572Y-101707729D01*
X104663860Y-101717233D01*
X104711939Y-101635193D01*
X104714805Y-101630343D01*
X104728785Y-101607572D01*
X104741469Y-101587287D01*
X104752923Y-101567725D01*
X104763215Y-101547124D01*
X104772415Y-101523720D01*
X104780590Y-101495753D01*
X104787809Y-101461460D01*
X104794140Y-101419078D01*
X104799651Y-101366846D01*
X104804410Y-101303000D01*
X104808485Y-101225779D01*
X104811946Y-101133420D01*
X104814859Y-101024161D01*
X104817294Y-100896240D01*
X104819318Y-100747894D01*
X104821001Y-100577362D01*
X104822409Y-100382881D01*
X104823612Y-100162688D01*
X104824677Y-99915021D01*
X104825673Y-99638118D01*
X104826668Y-99330217D01*
X104827731Y-98989556D01*
X104828667Y-98696384D01*
X106144286Y-98696384D01*
X106144286Y-100582356D01*
X106235000Y-100641857D01*
X106269886Y-100663291D01*
X106349765Y-100706111D01*
X106425500Y-100740210D01*
X106458668Y-100751755D01*
X106564205Y-100774804D01*
X106697643Y-100786573D01*
X106765496Y-100789022D01*
X106828480Y-100788466D01*
X106875366Y-100782175D01*
X106917420Y-100768426D01*
X106965909Y-100745492D01*
X107059095Y-100684059D01*
X107139824Y-100597158D01*
X107204445Y-100485169D01*
X107253573Y-100346339D01*
X107287821Y-100178911D01*
X107307806Y-99981129D01*
X107314141Y-99751240D01*
X107313833Y-99698975D01*
X107304725Y-99456815D01*
X107282609Y-99246102D01*
X107246947Y-99064614D01*
X107197201Y-98910127D01*
X107132833Y-98780419D01*
X107053305Y-98673266D01*
X107020312Y-98640563D01*
X106918060Y-98572432D01*
X106798026Y-98530973D01*
X106665410Y-98516422D01*
X106525413Y-98529014D01*
X106383233Y-98568985D01*
X106244072Y-98636571D01*
X106144286Y-98696384D01*
X104828667Y-98696384D01*
X104828929Y-98614372D01*
X104838000Y-95847586D01*
X105559179Y-95842842D01*
X105611624Y-95842523D01*
X105765929Y-95841889D01*
X105907064Y-95841761D01*
X106031177Y-95842111D01*
X106134415Y-95842912D01*
X106212926Y-95844140D01*
X106262857Y-95845767D01*
X106280357Y-95847767D01*
X106278118Y-95854105D01*
X106261417Y-95884156D01*
X106233755Y-95927857D01*
X106230995Y-95932035D01*
X106209548Y-95965777D01*
X106191565Y-95998606D01*
X106176742Y-96033905D01*
X106164774Y-96075055D01*
X106155356Y-96125438D01*
X106148183Y-96188434D01*
X106142950Y-96267427D01*
X106139352Y-96365797D01*
X106137084Y-96486926D01*
X106135842Y-96634196D01*
X106135321Y-96810988D01*
X106135214Y-97020684D01*
X106135405Y-97184403D01*
X106135987Y-97345139D01*
X106136919Y-97490883D01*
X106138159Y-97618086D01*
X106139664Y-97723200D01*
X106141393Y-97802675D01*
X106143302Y-97852963D01*
X106145350Y-97870514D01*
X106151955Y-97867790D01*
X106180990Y-97848607D01*
X106222457Y-97817103D01*
X106282572Y-97774736D01*
X106395521Y-97712311D01*
X106524616Y-97656628D01*
X106657809Y-97613325D01*
X106769715Y-97591244D01*
X106909087Y-97577168D01*
X107059926Y-97572292D01*
X107210593Y-97576620D01*
X107349446Y-97590159D01*
X107464845Y-97612915D01*
X107582347Y-97651247D01*
X107778369Y-97744171D01*
X107959871Y-97867708D01*
X108123504Y-98019012D01*
X108265919Y-98195240D01*
X108383770Y-98393546D01*
X108413028Y-98454356D01*
X108495018Y-98659470D01*
X108559119Y-98882085D01*
X108606142Y-99126125D01*
X108636895Y-99395513D01*
X108652190Y-99694174D01*
X108652900Y-99751240D01*
X108654605Y-99888337D01*
G36*
X108654605Y-99888337D02*
G01*
X108650755Y-100056233D01*
X108639747Y-100204302D01*
X108620729Y-100340598D01*
X108592849Y-100473175D01*
X108555254Y-100610086D01*
X108498243Y-100773736D01*
X108393536Y-100994657D01*
X108265098Y-101192534D01*
X108114893Y-101365497D01*
X107944887Y-101511676D01*
X107757045Y-101629201D01*
X107553332Y-101716202D01*
X107335712Y-101770809D01*
X107333093Y-101771247D01*
X107174053Y-101786550D01*
X106999309Y-101784507D01*
X106821320Y-101766379D01*
X106652546Y-101733424D01*
X106505448Y-101686901D01*
X106442661Y-101658591D01*
X106360887Y-101615561D01*
X106276859Y-101566346D01*
X106199345Y-101516363D01*
X106137112Y-101471029D01*
X106098929Y-101435760D01*
X106090163Y-101426077D01*
X106079714Y-101422692D01*
X106072729Y-101439496D01*
X106067582Y-101481845D01*
X106062643Y-101555095D01*
X106053572Y-101707729D01*
X104663860Y-101717233D01*
X104711939Y-101635193D01*
X104714805Y-101630343D01*
X104728785Y-101607572D01*
X104741469Y-101587287D01*
X104752923Y-101567725D01*
X104763215Y-101547124D01*
X104772415Y-101523720D01*
X104780590Y-101495753D01*
X104787809Y-101461460D01*
X104794140Y-101419078D01*
X104799651Y-101366846D01*
X104804410Y-101303000D01*
X104808485Y-101225779D01*
X104811946Y-101133420D01*
X104814859Y-101024161D01*
X104817294Y-100896240D01*
X104819318Y-100747894D01*
X104821001Y-100577362D01*
X104822409Y-100382881D01*
X104823612Y-100162688D01*
X104824677Y-99915021D01*
X104825673Y-99638118D01*
X104826668Y-99330217D01*
X104827731Y-98989556D01*
X104828667Y-98696384D01*
X106144286Y-98696384D01*
X106144286Y-100582356D01*
X106235000Y-100641857D01*
X106269886Y-100663291D01*
X106349765Y-100706111D01*
X106425500Y-100740210D01*
X106458668Y-100751755D01*
X106564205Y-100774804D01*
X106697643Y-100786573D01*
X106765496Y-100789022D01*
X106828480Y-100788466D01*
X106875366Y-100782175D01*
X106917420Y-100768426D01*
X106965909Y-100745492D01*
X107059095Y-100684059D01*
X107139824Y-100597158D01*
X107204445Y-100485169D01*
X107253573Y-100346339D01*
X107287821Y-100178911D01*
X107307806Y-99981129D01*
X107314141Y-99751240D01*
X107313833Y-99698975D01*
X107304725Y-99456815D01*
X107282609Y-99246102D01*
X107246947Y-99064614D01*
X107197201Y-98910127D01*
X107132833Y-98780419D01*
X107053305Y-98673266D01*
X107020312Y-98640563D01*
X106918060Y-98572432D01*
X106798026Y-98530973D01*
X106665410Y-98516422D01*
X106525413Y-98529014D01*
X106383233Y-98568985D01*
X106244072Y-98636571D01*
X106144286Y-98696384D01*
X104828667Y-98696384D01*
X104828929Y-98614372D01*
X104838000Y-95847586D01*
X105559179Y-95842842D01*
X105611624Y-95842523D01*
X105765929Y-95841889D01*
X105907064Y-95841761D01*
X106031177Y-95842111D01*
X106134415Y-95842912D01*
X106212926Y-95844140D01*
X106262857Y-95845767D01*
X106280357Y-95847767D01*
X106278118Y-95854105D01*
X106261417Y-95884156D01*
X106233755Y-95927857D01*
X106230995Y-95932035D01*
X106209548Y-95965777D01*
X106191565Y-95998606D01*
X106176742Y-96033905D01*
X106164774Y-96075055D01*
X106155356Y-96125438D01*
X106148183Y-96188434D01*
X106142950Y-96267427D01*
X106139352Y-96365797D01*
X106137084Y-96486926D01*
X106135842Y-96634196D01*
X106135321Y-96810988D01*
X106135214Y-97020684D01*
X106135405Y-97184403D01*
X106135987Y-97345139D01*
X106136919Y-97490883D01*
X106138159Y-97618086D01*
X106139664Y-97723200D01*
X106141393Y-97802675D01*
X106143302Y-97852963D01*
X106145350Y-97870514D01*
X106151955Y-97867790D01*
X106180990Y-97848607D01*
X106222457Y-97817103D01*
X106282572Y-97774736D01*
X106395521Y-97712311D01*
X106524616Y-97656628D01*
X106657809Y-97613325D01*
X106769715Y-97591244D01*
X106909087Y-97577168D01*
X107059926Y-97572292D01*
X107210593Y-97576620D01*
X107349446Y-97590159D01*
X107464845Y-97612915D01*
X107582347Y-97651247D01*
X107778369Y-97744171D01*
X107959871Y-97867708D01*
X108123504Y-98019012D01*
X108265919Y-98195240D01*
X108383770Y-98393546D01*
X108413028Y-98454356D01*
X108495018Y-98659470D01*
X108559119Y-98882085D01*
X108606142Y-99126125D01*
X108636895Y-99395513D01*
X108652190Y-99694174D01*
X108652900Y-99751240D01*
X108654605Y-99888337D01*
G37*
X112755490Y-100459237D02*
X112747342Y-100605522D01*
X112729732Y-100741633D01*
X112703159Y-100855014D01*
X112660759Y-100971667D01*
X112562476Y-101163910D01*
X112436850Y-101333047D01*
X112285181Y-101477926D01*
X112108771Y-101597394D01*
X111908920Y-101690299D01*
X111686929Y-101755489D01*
X111596407Y-101770192D01*
X111467052Y-101780411D01*
X111326175Y-101782709D01*
X111185550Y-101777272D01*
X111056949Y-101764285D01*
X110952143Y-101743933D01*
X110899479Y-101727909D01*
X110779869Y-101681019D01*
X110658283Y-101621488D01*
X110547265Y-101555771D01*
X110459359Y-101490324D01*
X110458278Y-101489379D01*
X110410107Y-101448536D01*
X110373045Y-101419453D01*
X110355037Y-101408372D01*
X110353068Y-101411017D01*
X110348613Y-101439594D01*
X110345518Y-101492894D01*
X110344357Y-101562586D01*
X110344357Y-101716800D01*
X109664000Y-101716800D01*
X109645889Y-101716797D01*
X109493990Y-101716531D01*
X109354578Y-101715870D01*
X109231618Y-101714862D01*
X109129079Y-101713558D01*
X109050926Y-101712005D01*
X109001125Y-101710254D01*
X108983643Y-101708353D01*
X108984050Y-101706693D01*
X108995488Y-101682177D01*
X109019462Y-101636117D01*
X109051679Y-101576818D01*
X109119715Y-101453729D01*
X109129690Y-100238489D01*
X110416929Y-100238489D01*
X110417435Y-100334503D01*
X110419887Y-100435387D01*
X110424690Y-100508307D01*
X110432195Y-100558012D01*
X110442750Y-100589249D01*
X110456328Y-100611555D01*
X110507462Y-100672361D01*
X110575975Y-100735663D01*
X110651068Y-100792065D01*
X110721940Y-100832170D01*
X110761261Y-100846885D01*
X110851802Y-100866477D01*
X110970055Y-100876494D01*
X111094732Y-100874977D01*
X111213127Y-100854374D01*
X111311949Y-100811811D01*
X111397448Y-100745371D01*
X111421500Y-100720795D01*
X111484122Y-100636985D01*
X111518004Y-100546650D01*
X111528179Y-100437951D01*
X111525422Y-100380525D01*
X111498161Y-100262307D01*
X111440890Y-100160839D01*
X111352568Y-100074979D01*
X111232151Y-100003584D01*
X111078597Y-99945514D01*
X111016693Y-99930275D01*
X110941751Y-99919841D01*
X110847437Y-99914046D01*
X110725357Y-99912098D01*
X110705526Y-99912099D01*
X110614196Y-99913214D01*
X110535744Y-99915908D01*
X110477971Y-99919829D01*
X110448679Y-99924624D01*
X110445308Y-99926180D01*
X110434410Y-99935954D01*
X110426692Y-99955594D01*
X110421619Y-99990385D01*
X110418657Y-100045609D01*
X110417272Y-100126550D01*
X110416929Y-100238489D01*
X109129690Y-100238489D01*
X109130214Y-100174657D01*
X109131775Y-99988361D01*
X109133958Y-99750765D01*
X109136250Y-99544498D01*
X109138835Y-99366642D01*
X109141900Y-99214281D01*
X109145628Y-99084496D01*
X109150205Y-98974372D01*
X109155816Y-98880990D01*
X109162647Y-98801435D01*
X109170883Y-98732788D01*
X109180708Y-98672133D01*
X109192308Y-98616552D01*
X109205868Y-98563129D01*
X109221573Y-98508946D01*
X109239609Y-98451086D01*
X109310661Y-98269698D01*
X109407964Y-98102058D01*
X109529141Y-97958532D01*
X109675303Y-97838370D01*
X109847557Y-97740820D01*
X110047015Y-97665131D01*
X110274785Y-97610553D01*
X110531977Y-97576335D01*
X110621868Y-97569530D01*
X110773260Y-97564555D01*
X110923314Y-97569035D01*
X111079054Y-97583727D01*
X111247505Y-97609384D01*
X111435693Y-97646762D01*
X111650643Y-97696618D01*
X111700328Y-97708681D01*
X111825101Y-97738365D01*
X111943361Y-97765698D01*
X112047936Y-97789063D01*
X112131654Y-97806847D01*
X112187345Y-97817436D01*
X112315833Y-97838540D01*
X112135195Y-98276349D01*
X112090012Y-98385659D01*
X112045561Y-98492769D01*
X112007423Y-98584218D01*
X111977469Y-98655533D01*
X111957571Y-98702237D01*
X111949603Y-98719858D01*
X111948350Y-98720110D01*
X111925258Y-98712243D01*
X111879853Y-98692083D01*
X111820324Y-98663217D01*
X111696596Y-98607003D01*
X111526337Y-98545540D01*
X111352078Y-98498470D01*
X111180633Y-98466977D01*
X111018817Y-98452243D01*
X110873444Y-98455450D01*
X110751329Y-98477779D01*
X110666101Y-98513209D01*
X110569309Y-98585817D01*
X110494797Y-98684318D01*
X110444699Y-98805683D01*
X110421149Y-98946880D01*
X110412855Y-99077015D01*
X110845785Y-99078200D01*
X110991785Y-99079424D01*
X111153271Y-99083772D01*
X111291225Y-99091978D01*
X111412781Y-99104839D01*
X111525077Y-99123154D01*
X111635247Y-99147719D01*
X111750429Y-99179333D01*
X111922768Y-99239509D01*
X112125475Y-99338606D01*
X112303376Y-99459990D01*
X112454717Y-99601955D01*
X112577743Y-99762793D01*
X112670699Y-99940797D01*
X112731830Y-100134260D01*
X112741404Y-100186365D01*
X112753677Y-100315333D01*
X112755222Y-100437951D01*
X112755490Y-100459237D01*
G36*
X112755490Y-100459237D02*
G01*
X112747342Y-100605522D01*
X112729732Y-100741633D01*
X112703159Y-100855014D01*
X112660759Y-100971667D01*
X112562476Y-101163910D01*
X112436850Y-101333047D01*
X112285181Y-101477926D01*
X112108771Y-101597394D01*
X111908920Y-101690299D01*
X111686929Y-101755489D01*
X111596407Y-101770192D01*
X111467052Y-101780411D01*
X111326175Y-101782709D01*
X111185550Y-101777272D01*
X111056949Y-101764285D01*
X110952143Y-101743933D01*
X110899479Y-101727909D01*
X110779869Y-101681019D01*
X110658283Y-101621488D01*
X110547265Y-101555771D01*
X110459359Y-101490324D01*
X110458278Y-101489379D01*
X110410107Y-101448536D01*
X110373045Y-101419453D01*
X110355037Y-101408372D01*
X110353068Y-101411017D01*
X110348613Y-101439594D01*
X110345518Y-101492894D01*
X110344357Y-101562586D01*
X110344357Y-101716800D01*
X109664000Y-101716800D01*
X109645889Y-101716797D01*
X109493990Y-101716531D01*
X109354578Y-101715870D01*
X109231618Y-101714862D01*
X109129079Y-101713558D01*
X109050926Y-101712005D01*
X109001125Y-101710254D01*
X108983643Y-101708353D01*
X108984050Y-101706693D01*
X108995488Y-101682177D01*
X109019462Y-101636117D01*
X109051679Y-101576818D01*
X109119715Y-101453729D01*
X109129690Y-100238489D01*
X110416929Y-100238489D01*
X110417435Y-100334503D01*
X110419887Y-100435387D01*
X110424690Y-100508307D01*
X110432195Y-100558012D01*
X110442750Y-100589249D01*
X110456328Y-100611555D01*
X110507462Y-100672361D01*
X110575975Y-100735663D01*
X110651068Y-100792065D01*
X110721940Y-100832170D01*
X110761261Y-100846885D01*
X110851802Y-100866477D01*
X110970055Y-100876494D01*
X111094732Y-100874977D01*
X111213127Y-100854374D01*
X111311949Y-100811811D01*
X111397448Y-100745371D01*
X111421500Y-100720795D01*
X111484122Y-100636985D01*
X111518004Y-100546650D01*
X111528179Y-100437951D01*
X111525422Y-100380525D01*
X111498161Y-100262307D01*
X111440890Y-100160839D01*
X111352568Y-100074979D01*
X111232151Y-100003584D01*
X111078597Y-99945514D01*
X111016693Y-99930275D01*
X110941751Y-99919841D01*
X110847437Y-99914046D01*
X110725357Y-99912098D01*
X110705526Y-99912099D01*
X110614196Y-99913214D01*
X110535744Y-99915908D01*
X110477971Y-99919829D01*
X110448679Y-99924624D01*
X110445308Y-99926180D01*
X110434410Y-99935954D01*
X110426692Y-99955594D01*
X110421619Y-99990385D01*
X110418657Y-100045609D01*
X110417272Y-100126550D01*
X110416929Y-100238489D01*
X109129690Y-100238489D01*
X109130214Y-100174657D01*
X109131775Y-99988361D01*
X109133958Y-99750765D01*
X109136250Y-99544498D01*
X109138835Y-99366642D01*
X109141900Y-99214281D01*
X109145628Y-99084496D01*
X109150205Y-98974372D01*
X109155816Y-98880990D01*
X109162647Y-98801435D01*
X109170883Y-98732788D01*
X109180708Y-98672133D01*
X109192308Y-98616552D01*
X109205868Y-98563129D01*
X109221573Y-98508946D01*
X109239609Y-98451086D01*
X109310661Y-98269698D01*
X109407964Y-98102058D01*
X109529141Y-97958532D01*
X109675303Y-97838370D01*
X109847557Y-97740820D01*
X110047015Y-97665131D01*
X110274785Y-97610553D01*
X110531977Y-97576335D01*
X110621868Y-97569530D01*
X110773260Y-97564555D01*
X110923314Y-97569035D01*
X111079054Y-97583727D01*
X111247505Y-97609384D01*
X111435693Y-97646762D01*
X111650643Y-97696618D01*
X111700328Y-97708681D01*
X111825101Y-97738365D01*
X111943361Y-97765698D01*
X112047936Y-97789063D01*
X112131654Y-97806847D01*
X112187345Y-97817436D01*
X112315833Y-97838540D01*
X112135195Y-98276349D01*
X112090012Y-98385659D01*
X112045561Y-98492769D01*
X112007423Y-98584218D01*
X111977469Y-98655533D01*
X111957571Y-98702237D01*
X111949603Y-98719858D01*
X111948350Y-98720110D01*
X111925258Y-98712243D01*
X111879853Y-98692083D01*
X111820324Y-98663217D01*
X111696596Y-98607003D01*
X111526337Y-98545540D01*
X111352078Y-98498470D01*
X111180633Y-98466977D01*
X111018817Y-98452243D01*
X110873444Y-98455450D01*
X110751329Y-98477779D01*
X110666101Y-98513209D01*
X110569309Y-98585817D01*
X110494797Y-98684318D01*
X110444699Y-98805683D01*
X110421149Y-98946880D01*
X110412855Y-99077015D01*
X110845785Y-99078200D01*
X110991785Y-99079424D01*
X111153271Y-99083772D01*
X111291225Y-99091978D01*
X111412781Y-99104839D01*
X111525077Y-99123154D01*
X111635247Y-99147719D01*
X111750429Y-99179333D01*
X111922768Y-99239509D01*
X112125475Y-99338606D01*
X112303376Y-99459990D01*
X112454717Y-99601955D01*
X112577743Y-99762793D01*
X112670699Y-99940797D01*
X112731830Y-100134260D01*
X112741404Y-100186365D01*
X112753677Y-100315333D01*
X112755222Y-100437951D01*
X112755490Y-100459237D01*
G37*
X124926928Y-101752660D02*
X124925060Y-101893353D01*
X124922741Y-102014546D01*
X124919925Y-102117740D01*
X124916564Y-102204435D01*
X124912610Y-102276132D01*
X124908017Y-102334330D01*
X124902738Y-102380530D01*
X124896725Y-102416233D01*
X124889930Y-102442937D01*
X124882308Y-102462145D01*
X124873809Y-102475355D01*
X124864389Y-102484068D01*
X124853998Y-102489785D01*
X124842590Y-102494006D01*
X124830118Y-102498230D01*
X124816534Y-102503959D01*
X124808891Y-102506830D01*
X124794871Y-102509965D01*
X124774038Y-102512837D01*
X124744921Y-102515459D01*
X124706044Y-102517840D01*
X124655934Y-102519994D01*
X124593117Y-102521930D01*
X124516120Y-102523662D01*
X124423469Y-102525200D01*
X124313690Y-102526556D01*
X124185310Y-102527741D01*
X124036854Y-102528768D01*
X123866850Y-102529646D01*
X123673823Y-102530389D01*
X123456300Y-102531007D01*
X123212808Y-102531513D01*
X122941871Y-102531916D01*
X122642017Y-102532230D01*
X122311773Y-102532465D01*
X121949664Y-102532634D01*
X121554216Y-102532747D01*
X121123956Y-102532816D01*
X120987608Y-102532829D01*
X120566686Y-102532838D01*
X120180147Y-102532785D01*
X119826534Y-102532660D01*
X119504390Y-102532452D01*
X119212261Y-102532151D01*
X118948688Y-102531746D01*
X118712216Y-102531226D01*
X118501390Y-102530582D01*
X118314751Y-102529802D01*
X118150845Y-102528876D01*
X118008215Y-102527793D01*
X117885405Y-102526543D01*
X117780958Y-102525115D01*
X117693419Y-102523498D01*
X117621330Y-102521683D01*
X117563236Y-102519658D01*
X117517680Y-102517413D01*
X117483207Y-102514937D01*
X117458359Y-102512220D01*
X117441681Y-102509251D01*
X117431717Y-102506020D01*
X117428546Y-102504582D01*
X117415567Y-102499858D01*
X117403665Y-102496408D01*
X117392792Y-102492730D01*
X117382898Y-102487321D01*
X117373937Y-102478679D01*
X117365859Y-102465302D01*
X117358616Y-102445686D01*
X117352161Y-102418331D01*
X117346445Y-102381733D01*
X117341419Y-102334390D01*
X117337036Y-102274800D01*
X117333247Y-102201459D01*
X117330004Y-102112867D01*
X117327259Y-102007520D01*
X117324963Y-101883917D01*
X117323068Y-101740554D01*
X117322446Y-101674167D01*
X117800873Y-101674167D01*
X117801398Y-101680525D01*
X117811021Y-101685677D01*
X117832764Y-101689750D01*
X117869648Y-101692870D01*
X117924693Y-101695165D01*
X118000919Y-101696759D01*
X118101348Y-101697779D01*
X118229001Y-101698351D01*
X118386898Y-101698602D01*
X118578059Y-101698657D01*
X119378814Y-101698657D01*
X119311121Y-101576193D01*
X119243429Y-101453729D01*
X119243429Y-97897729D01*
X119311121Y-97775265D01*
X119378814Y-97652800D01*
X117947493Y-97652800D01*
X117942318Y-99535122D01*
X117937143Y-101417443D01*
X117886403Y-101525808D01*
X117859651Y-101579519D01*
X117829360Y-101633324D01*
X117806484Y-101666415D01*
X117806426Y-101666479D01*
X117800873Y-101674167D01*
X117322446Y-101674167D01*
X117321526Y-101575929D01*
X117320289Y-101388540D01*
X117319308Y-101176885D01*
X117318535Y-100939461D01*
X117317922Y-100674766D01*
X117317421Y-100381298D01*
X117316984Y-100057553D01*
X117316561Y-99702030D01*
X117316105Y-99313226D01*
X117315568Y-98889640D01*
X117315499Y-98838360D01*
X117314900Y-98417457D01*
X117314327Y-98031162D01*
X117313823Y-97677972D01*
X117313430Y-97356384D01*
X117313190Y-97064894D01*
X117313146Y-96802000D01*
X117313340Y-96566198D01*
X117313814Y-96355986D01*
X117314612Y-96169860D01*
X117315774Y-96006317D01*
X117317344Y-95863855D01*
X117319364Y-95740970D01*
X117321877Y-95636159D01*
X117324924Y-95547919D01*
X117328549Y-95474747D01*
X117332793Y-95415140D01*
X117337698Y-95367595D01*
X117343308Y-95330608D01*
X117349665Y-95302678D01*
X117356811Y-95282300D01*
X117364788Y-95267971D01*
X117373639Y-95258190D01*
X117383406Y-95251451D01*
X117394132Y-95246254D01*
X117405858Y-95241093D01*
X117418628Y-95234467D01*
X117422365Y-95232356D01*
X117478905Y-95211918D01*
X117540800Y-95203517D01*
X117610572Y-95203520D01*
X117611734Y-95362267D01*
X117612029Y-95380535D01*
X117634206Y-95566227D01*
X117690688Y-95740947D01*
X117780692Y-95902843D01*
X117903432Y-96050065D01*
X117969298Y-96110111D01*
X118115954Y-96209638D01*
X118275970Y-96279042D01*
X118444685Y-96318287D01*
X118617439Y-96327337D01*
X118789572Y-96306153D01*
X118956422Y-96254699D01*
X119093580Y-96183229D01*
X119700627Y-96183229D01*
X119780457Y-96240662D01*
X119847970Y-96294641D01*
X119943103Y-96382686D01*
X120051007Y-96493030D01*
X120167597Y-96621470D01*
X120288785Y-96763800D01*
X120319994Y-96801862D01*
X120373129Y-96867143D01*
X120442583Y-96952788D01*
X120526056Y-97055940D01*
X120621246Y-97173739D01*
X120725854Y-97303328D01*
X120837577Y-97441847D01*
X120954115Y-97586439D01*
X121007567Y-97652800D01*
X121073167Y-97734244D01*
X121192432Y-97882403D01*
X121309609Y-98028060D01*
X121422396Y-98168354D01*
X121528494Y-98300427D01*
X121625601Y-98421421D01*
X121711416Y-98528478D01*
X121783638Y-98618738D01*
X121839966Y-98689343D01*
X121878099Y-98737435D01*
X121895737Y-98760155D01*
X121897192Y-98768693D01*
X121892350Y-98784932D01*
X121879802Y-98810479D01*
X121858297Y-98847147D01*
X121826580Y-98896749D01*
X121783400Y-98961095D01*
X121727505Y-99041998D01*
X121657641Y-99141271D01*
X121572557Y-99260726D01*
X121470999Y-99402174D01*
X121351716Y-99567429D01*
X121213454Y-99758301D01*
X121054962Y-99976604D01*
X120928677Y-100150371D01*
X120774605Y-100362207D01*
X120639080Y-100548240D01*
X120520524Y-100710534D01*
X120417361Y-100851154D01*
X120328015Y-100972165D01*
X120250911Y-101075632D01*
X120184472Y-101163618D01*
X120127123Y-101238190D01*
X120077286Y-101301410D01*
X120033386Y-101355345D01*
X119993847Y-101402058D01*
X119957093Y-101443614D01*
X119921547Y-101482079D01*
X119885635Y-101519515D01*
X119847778Y-101557989D01*
X119708271Y-101698657D01*
X121583857Y-101698733D01*
X121577964Y-101585075D01*
X121577679Y-101579364D01*
X121576560Y-101533927D01*
X121578681Y-101490393D01*
X121585458Y-101446376D01*
X121598312Y-101399493D01*
X121618660Y-101347358D01*
X121647920Y-101287586D01*
X121687512Y-101217794D01*
X121738853Y-101135597D01*
X121803362Y-101038609D01*
X121882457Y-100924447D01*
X121977557Y-100790725D01*
X122090081Y-100635060D01*
X122221446Y-100455065D01*
X122373072Y-100248357D01*
X122908286Y-99519711D01*
X122913001Y-100364555D01*
X122913419Y-100443362D01*
X122914156Y-100655632D01*
X122913821Y-100836181D01*
X122912019Y-100988428D01*
X122908356Y-101115788D01*
X122902436Y-101221678D01*
X122893867Y-101309515D01*
X122882251Y-101382716D01*
X122867197Y-101444698D01*
X122848307Y-101498876D01*
X122825189Y-101548669D01*
X122797447Y-101597493D01*
X122764687Y-101648764D01*
X122731756Y-101698657D01*
X124443204Y-101698657D01*
X124398996Y-101639693D01*
X124392072Y-101630365D01*
X124336721Y-101544870D01*
X124298564Y-101458444D01*
X124273508Y-101359413D01*
X124257459Y-101236104D01*
X124257018Y-101230729D01*
X124254689Y-101179867D01*
X124252587Y-101095006D01*
X124250719Y-100978086D01*
X124249096Y-100831046D01*
X124247727Y-100655826D01*
X124246620Y-100454363D01*
X124245785Y-100228598D01*
X124245232Y-99980469D01*
X124244968Y-99711915D01*
X124245003Y-99424877D01*
X124245347Y-99121292D01*
X124246008Y-98803100D01*
X124246709Y-98517681D01*
X124247458Y-98206996D01*
X124248196Y-97929026D01*
X124249015Y-97681822D01*
X124250007Y-97463437D01*
X124251266Y-97271925D01*
X124252883Y-97105337D01*
X124254952Y-96961725D01*
X124257565Y-96839144D01*
X124260815Y-96735644D01*
X124264793Y-96649279D01*
X124269594Y-96578101D01*
X124275309Y-96520163D01*
X124282032Y-96473517D01*
X124289854Y-96436216D01*
X124298868Y-96406312D01*
X124309167Y-96381858D01*
X124320844Y-96360906D01*
X124333992Y-96341509D01*
X124348702Y-96321720D01*
X124365067Y-96299591D01*
X124380896Y-96277415D01*
X124411491Y-96233569D01*
X124429817Y-96205907D01*
X124430259Y-96204749D01*
X124423860Y-96199518D01*
X124401279Y-96195153D01*
X124360002Y-96191588D01*
X124297517Y-96188754D01*
X124211312Y-96186587D01*
X124098873Y-96185017D01*
X123957688Y-96183979D01*
X123785245Y-96183405D01*
X123579030Y-96183229D01*
X122714560Y-96183229D01*
X122760121Y-96237374D01*
X122786526Y-96274563D01*
X122830478Y-96362246D01*
X122868995Y-96471299D01*
X122898393Y-96592268D01*
X122900266Y-96603752D01*
X122905841Y-96664292D01*
X122910063Y-96757856D01*
X122912943Y-96885092D01*
X122914492Y-97046646D01*
X122914721Y-97243168D01*
X122913643Y-97475304D01*
X122908286Y-98250308D01*
X122354929Y-97550542D01*
X122339079Y-97530498D01*
X122198753Y-97352852D01*
X122078953Y-97200714D01*
X121977770Y-97071498D01*
X121893300Y-96962617D01*
X121823635Y-96871485D01*
X121766868Y-96795514D01*
X121721094Y-96732117D01*
X121684406Y-96678708D01*
X121654896Y-96632701D01*
X121630659Y-96591507D01*
X121609788Y-96552541D01*
X121590377Y-96513215D01*
X121560515Y-96443605D01*
X121541224Y-96370172D01*
X121536092Y-96290965D01*
X121536608Y-96183229D01*
X119700627Y-96183229D01*
X119093580Y-96183229D01*
X119113330Y-96172938D01*
X119255636Y-96060832D01*
X119295195Y-96021310D01*
X119412120Y-95874975D01*
X119495088Y-95716167D01*
X119544543Y-95543863D01*
X119560929Y-95357038D01*
X119560929Y-95203515D01*
X122165330Y-95203514D01*
X122328040Y-95203507D01*
X122677589Y-95203460D01*
X122993356Y-95203426D01*
X123277088Y-95203473D01*
X123530531Y-95203672D01*
X123755431Y-95204091D01*
X123953534Y-95204798D01*
X124126587Y-95205865D01*
X124276335Y-95207358D01*
X124404525Y-95209347D01*
X124512903Y-95211902D01*
X124603215Y-95215091D01*
X124677207Y-95218983D01*
X124736625Y-95223648D01*
X124783216Y-95229154D01*
X124818726Y-95235571D01*
X124844900Y-95242967D01*
X124863486Y-95251411D01*
X124876228Y-95260973D01*
X124884874Y-95271722D01*
X124891170Y-95283726D01*
X124896860Y-95297055D01*
X124903693Y-95311778D01*
X124903816Y-95312018D01*
X124907133Y-95321656D01*
X124910176Y-95337793D01*
X124912956Y-95361921D01*
X124915485Y-95395527D01*
X124917774Y-95440101D01*
X124919834Y-95497133D01*
X124921679Y-95568111D01*
X124923317Y-95654525D01*
X124924763Y-95757864D01*
X124926026Y-95879618D01*
X124927119Y-96021275D01*
X124928053Y-96184326D01*
X124928840Y-96370258D01*
X124929491Y-96580562D01*
X124930017Y-96816727D01*
X124930431Y-97080242D01*
X124930744Y-97372597D01*
X124930967Y-97695280D01*
X124931112Y-98049781D01*
X124931191Y-98437589D01*
X124931214Y-98860193D01*
X124931215Y-98943214D01*
X124931255Y-99361414D01*
X124931317Y-99745113D01*
X124931354Y-100095809D01*
X124931317Y-100415004D01*
X124931162Y-100704198D01*
X124930839Y-100964891D01*
X124930301Y-101198584D01*
X124929501Y-101406776D01*
X124928392Y-101590968D01*
X124927416Y-101698657D01*
X124926928Y-101752660D01*
G36*
X124926928Y-101752660D02*
G01*
X124925060Y-101893353D01*
X124922741Y-102014546D01*
X124919925Y-102117740D01*
X124916564Y-102204435D01*
X124912610Y-102276132D01*
X124908017Y-102334330D01*
X124902738Y-102380530D01*
X124896725Y-102416233D01*
X124889930Y-102442937D01*
X124882308Y-102462145D01*
X124873809Y-102475355D01*
X124864389Y-102484068D01*
X124853998Y-102489785D01*
X124842590Y-102494006D01*
X124830118Y-102498230D01*
X124816534Y-102503959D01*
X124808891Y-102506830D01*
X124794871Y-102509965D01*
X124774038Y-102512837D01*
X124744921Y-102515459D01*
X124706044Y-102517840D01*
X124655934Y-102519994D01*
X124593117Y-102521930D01*
X124516120Y-102523662D01*
X124423469Y-102525200D01*
X124313690Y-102526556D01*
X124185310Y-102527741D01*
X124036854Y-102528768D01*
X123866850Y-102529646D01*
X123673823Y-102530389D01*
X123456300Y-102531007D01*
X123212808Y-102531513D01*
X122941871Y-102531916D01*
X122642017Y-102532230D01*
X122311773Y-102532465D01*
X121949664Y-102532634D01*
X121554216Y-102532747D01*
X121123956Y-102532816D01*
X120987608Y-102532829D01*
X120566686Y-102532838D01*
X120180147Y-102532785D01*
X119826534Y-102532660D01*
X119504390Y-102532452D01*
X119212261Y-102532151D01*
X118948688Y-102531746D01*
X118712216Y-102531226D01*
X118501390Y-102530582D01*
X118314751Y-102529802D01*
X118150845Y-102528876D01*
X118008215Y-102527793D01*
X117885405Y-102526543D01*
X117780958Y-102525115D01*
X117693419Y-102523498D01*
X117621330Y-102521683D01*
X117563236Y-102519658D01*
X117517680Y-102517413D01*
X117483207Y-102514937D01*
X117458359Y-102512220D01*
X117441681Y-102509251D01*
X117431717Y-102506020D01*
X117428546Y-102504582D01*
X117415567Y-102499858D01*
X117403665Y-102496408D01*
X117392792Y-102492730D01*
X117382898Y-102487321D01*
X117373937Y-102478679D01*
X117365859Y-102465302D01*
X117358616Y-102445686D01*
X117352161Y-102418331D01*
X117346445Y-102381733D01*
X117341419Y-102334390D01*
X117337036Y-102274800D01*
X117333247Y-102201459D01*
X117330004Y-102112867D01*
X117327259Y-102007520D01*
X117324963Y-101883917D01*
X117323068Y-101740554D01*
X117322446Y-101674167D01*
X117800873Y-101674167D01*
X117801398Y-101680525D01*
X117811021Y-101685677D01*
X117832764Y-101689750D01*
X117869648Y-101692870D01*
X117924693Y-101695165D01*
X118000919Y-101696759D01*
X118101348Y-101697779D01*
X118229001Y-101698351D01*
X118386898Y-101698602D01*
X118578059Y-101698657D01*
X119378814Y-101698657D01*
X119311121Y-101576193D01*
X119243429Y-101453729D01*
X119243429Y-97897729D01*
X119311121Y-97775265D01*
X119378814Y-97652800D01*
X117947493Y-97652800D01*
X117942318Y-99535122D01*
X117937143Y-101417443D01*
X117886403Y-101525808D01*
X117859651Y-101579519D01*
X117829360Y-101633324D01*
X117806484Y-101666415D01*
X117806426Y-101666479D01*
X117800873Y-101674167D01*
X117322446Y-101674167D01*
X117321526Y-101575929D01*
X117320289Y-101388540D01*
X117319308Y-101176885D01*
X117318535Y-100939461D01*
X117317922Y-100674766D01*
X117317421Y-100381298D01*
X117316984Y-100057553D01*
X117316561Y-99702030D01*
X117316105Y-99313226D01*
X117315568Y-98889640D01*
X117315499Y-98838360D01*
X117314900Y-98417457D01*
X117314327Y-98031162D01*
X117313823Y-97677972D01*
X117313430Y-97356384D01*
X117313190Y-97064894D01*
X117313146Y-96802000D01*
X117313340Y-96566198D01*
X117313814Y-96355986D01*
X117314612Y-96169860D01*
X117315774Y-96006317D01*
X117317344Y-95863855D01*
X117319364Y-95740970D01*
X117321877Y-95636159D01*
X117324924Y-95547919D01*
X117328549Y-95474747D01*
X117332793Y-95415140D01*
X117337698Y-95367595D01*
X117343308Y-95330608D01*
X117349665Y-95302678D01*
X117356811Y-95282300D01*
X117364788Y-95267971D01*
X117373639Y-95258190D01*
X117383406Y-95251451D01*
X117394132Y-95246254D01*
X117405858Y-95241093D01*
X117418628Y-95234467D01*
X117422365Y-95232356D01*
X117478905Y-95211918D01*
X117540800Y-95203517D01*
X117610572Y-95203520D01*
X117611734Y-95362267D01*
X117612029Y-95380535D01*
X117634206Y-95566227D01*
X117690688Y-95740947D01*
X117780692Y-95902843D01*
X117903432Y-96050065D01*
X117969298Y-96110111D01*
X118115954Y-96209638D01*
X118275970Y-96279042D01*
X118444685Y-96318287D01*
X118617439Y-96327337D01*
X118789572Y-96306153D01*
X118956422Y-96254699D01*
X119093580Y-96183229D01*
X119700627Y-96183229D01*
X119780457Y-96240662D01*
X119847970Y-96294641D01*
X119943103Y-96382686D01*
X120051007Y-96493030D01*
X120167597Y-96621470D01*
X120288785Y-96763800D01*
X120319994Y-96801862D01*
X120373129Y-96867143D01*
X120442583Y-96952788D01*
X120526056Y-97055940D01*
X120621246Y-97173739D01*
X120725854Y-97303328D01*
X120837577Y-97441847D01*
X120954115Y-97586439D01*
X121007567Y-97652800D01*
X121073167Y-97734244D01*
X121192432Y-97882403D01*
X121309609Y-98028060D01*
X121422396Y-98168354D01*
X121528494Y-98300427D01*
X121625601Y-98421421D01*
X121711416Y-98528478D01*
X121783638Y-98618738D01*
X121839966Y-98689343D01*
X121878099Y-98737435D01*
X121895737Y-98760155D01*
X121897192Y-98768693D01*
X121892350Y-98784932D01*
X121879802Y-98810479D01*
X121858297Y-98847147D01*
X121826580Y-98896749D01*
X121783400Y-98961095D01*
X121727505Y-99041998D01*
X121657641Y-99141271D01*
X121572557Y-99260726D01*
X121470999Y-99402174D01*
X121351716Y-99567429D01*
X121213454Y-99758301D01*
X121054962Y-99976604D01*
X120928677Y-100150371D01*
X120774605Y-100362207D01*
X120639080Y-100548240D01*
X120520524Y-100710534D01*
X120417361Y-100851154D01*
X120328015Y-100972165D01*
X120250911Y-101075632D01*
X120184472Y-101163618D01*
X120127123Y-101238190D01*
X120077286Y-101301410D01*
X120033386Y-101355345D01*
X119993847Y-101402058D01*
X119957093Y-101443614D01*
X119921547Y-101482079D01*
X119885635Y-101519515D01*
X119847778Y-101557989D01*
X119708271Y-101698657D01*
X121583857Y-101698733D01*
X121577964Y-101585075D01*
X121577679Y-101579364D01*
X121576560Y-101533927D01*
X121578681Y-101490393D01*
X121585458Y-101446376D01*
X121598312Y-101399493D01*
X121618660Y-101347358D01*
X121647920Y-101287586D01*
X121687512Y-101217794D01*
X121738853Y-101135597D01*
X121803362Y-101038609D01*
X121882457Y-100924447D01*
X121977557Y-100790725D01*
X122090081Y-100635060D01*
X122221446Y-100455065D01*
X122373072Y-100248357D01*
X122908286Y-99519711D01*
X122913001Y-100364555D01*
X122913419Y-100443362D01*
X122914156Y-100655632D01*
X122913821Y-100836181D01*
X122912019Y-100988428D01*
X122908356Y-101115788D01*
X122902436Y-101221678D01*
X122893867Y-101309515D01*
X122882251Y-101382716D01*
X122867197Y-101444698D01*
X122848307Y-101498876D01*
X122825189Y-101548669D01*
X122797447Y-101597493D01*
X122764687Y-101648764D01*
X122731756Y-101698657D01*
X124443204Y-101698657D01*
X124398996Y-101639693D01*
X124392072Y-101630365D01*
X124336721Y-101544870D01*
X124298564Y-101458444D01*
X124273508Y-101359413D01*
X124257459Y-101236104D01*
X124257018Y-101230729D01*
X124254689Y-101179867D01*
X124252587Y-101095006D01*
X124250719Y-100978086D01*
X124249096Y-100831046D01*
X124247727Y-100655826D01*
X124246620Y-100454363D01*
X124245785Y-100228598D01*
X124245232Y-99980469D01*
X124244968Y-99711915D01*
X124245003Y-99424877D01*
X124245347Y-99121292D01*
X124246008Y-98803100D01*
X124246709Y-98517681D01*
X124247458Y-98206996D01*
X124248196Y-97929026D01*
X124249015Y-97681822D01*
X124250007Y-97463437D01*
X124251266Y-97271925D01*
X124252883Y-97105337D01*
X124254952Y-96961725D01*
X124257565Y-96839144D01*
X124260815Y-96735644D01*
X124264793Y-96649279D01*
X124269594Y-96578101D01*
X124275309Y-96520163D01*
X124282032Y-96473517D01*
X124289854Y-96436216D01*
X124298868Y-96406312D01*
X124309167Y-96381858D01*
X124320844Y-96360906D01*
X124333992Y-96341509D01*
X124348702Y-96321720D01*
X124365067Y-96299591D01*
X124380896Y-96277415D01*
X124411491Y-96233569D01*
X124429817Y-96205907D01*
X124430259Y-96204749D01*
X124423860Y-96199518D01*
X124401279Y-96195153D01*
X124360002Y-96191588D01*
X124297517Y-96188754D01*
X124211312Y-96186587D01*
X124098873Y-96185017D01*
X123957688Y-96183979D01*
X123785245Y-96183405D01*
X123579030Y-96183229D01*
X122714560Y-96183229D01*
X122760121Y-96237374D01*
X122786526Y-96274563D01*
X122830478Y-96362246D01*
X122868995Y-96471299D01*
X122898393Y-96592268D01*
X122900266Y-96603752D01*
X122905841Y-96664292D01*
X122910063Y-96757856D01*
X122912943Y-96885092D01*
X122914492Y-97046646D01*
X122914721Y-97243168D01*
X122913643Y-97475304D01*
X122908286Y-98250308D01*
X122354929Y-97550542D01*
X122339079Y-97530498D01*
X122198753Y-97352852D01*
X122078953Y-97200714D01*
X121977770Y-97071498D01*
X121893300Y-96962617D01*
X121823635Y-96871485D01*
X121766868Y-96795514D01*
X121721094Y-96732117D01*
X121684406Y-96678708D01*
X121654896Y-96632701D01*
X121630659Y-96591507D01*
X121609788Y-96552541D01*
X121590377Y-96513215D01*
X121560515Y-96443605D01*
X121541224Y-96370172D01*
X121536092Y-96290965D01*
X121536608Y-96183229D01*
X119700627Y-96183229D01*
X119093580Y-96183229D01*
X119113330Y-96172938D01*
X119255636Y-96060832D01*
X119295195Y-96021310D01*
X119412120Y-95874975D01*
X119495088Y-95716167D01*
X119544543Y-95543863D01*
X119560929Y-95357038D01*
X119560929Y-95203515D01*
X122165330Y-95203514D01*
X122328040Y-95203507D01*
X122677589Y-95203460D01*
X122993356Y-95203426D01*
X123277088Y-95203473D01*
X123530531Y-95203672D01*
X123755431Y-95204091D01*
X123953534Y-95204798D01*
X124126587Y-95205865D01*
X124276335Y-95207358D01*
X124404525Y-95209347D01*
X124512903Y-95211902D01*
X124603215Y-95215091D01*
X124677207Y-95218983D01*
X124736625Y-95223648D01*
X124783216Y-95229154D01*
X124818726Y-95235571D01*
X124844900Y-95242967D01*
X124863486Y-95251411D01*
X124876228Y-95260973D01*
X124884874Y-95271722D01*
X124891170Y-95283726D01*
X124896860Y-95297055D01*
X124903693Y-95311778D01*
X124903816Y-95312018D01*
X124907133Y-95321656D01*
X124910176Y-95337793D01*
X124912956Y-95361921D01*
X124915485Y-95395527D01*
X124917774Y-95440101D01*
X124919834Y-95497133D01*
X124921679Y-95568111D01*
X124923317Y-95654525D01*
X124924763Y-95757864D01*
X124926026Y-95879618D01*
X124927119Y-96021275D01*
X124928053Y-96184326D01*
X124928840Y-96370258D01*
X124929491Y-96580562D01*
X124930017Y-96816727D01*
X124930431Y-97080242D01*
X124930744Y-97372597D01*
X124930967Y-97695280D01*
X124931112Y-98049781D01*
X124931191Y-98437589D01*
X124931214Y-98860193D01*
X124931215Y-98943214D01*
X124931255Y-99361414D01*
X124931317Y-99745113D01*
X124931354Y-100095809D01*
X124931317Y-100415004D01*
X124931162Y-100704198D01*
X124930839Y-100964891D01*
X124930301Y-101198584D01*
X124929501Y-101406776D01*
X124928392Y-101590968D01*
X124927416Y-101698657D01*
X124926928Y-101752660D01*
G37*
%TD*%
M02*
