%TF.GenerationSoftware,KiCad,Pcbnew,9.0.4*%
%TF.CreationDate,2025-12-07T20:09:45+03:30*%
%TF.ProjectId,MCU_Datalogger003_4Layer,4d43555f-4461-4746-916c-6f6767657230,2*%
%TF.SameCoordinates,Original*%
%TF.FileFunction,Paste,Top*%
%TF.FilePolarity,Positive*%
%FSLAX46Y46*%
G04 Gerber Fmt 4.6, Leading zero omitted, Abs format (unit mm)*
G04 Created by KiCad (PCBNEW 9.0.4) date 2025-12-07 20:09:45*
%MOMM*%
%LPD*%
G01*
G04 APERTURE LIST*
G04 Aperture macros list*
%AMRoundRect*
0 Rectangle with rounded corners*
0 $1 Rounding radius*
0 $2 $3 $4 $5 $6 $7 $8 $9 X,Y pos of 4 corners*
0 Add a 4 corners polygon primitive as box body*
4,1,4,$2,$3,$4,$5,$6,$7,$8,$9,$2,$3,0*
0 Add four circle primitives for the rounded corners*
1,1,$1+$1,$2,$3*
1,1,$1+$1,$4,$5*
1,1,$1+$1,$6,$7*
1,1,$1+$1,$8,$9*
0 Add four rect primitives between the rounded corners*
20,1,$1+$1,$2,$3,$4,$5,0*
20,1,$1+$1,$4,$5,$6,$7,0*
20,1,$1+$1,$6,$7,$8,$9,0*
20,1,$1+$1,$8,$9,$2,$3,0*%
G04 Aperture macros list end*
%ADD10RoundRect,0.250000X0.250000X0.475000X-0.250000X0.475000X-0.250000X-0.475000X0.250000X-0.475000X0*%
%ADD11RoundRect,0.250000X-0.262500X-0.450000X0.262500X-0.450000X0.262500X0.450000X-0.262500X0.450000X0*%
%ADD12RoundRect,0.243750X-0.243750X-0.456250X0.243750X-0.456250X0.243750X0.456250X-0.243750X0.456250X0*%
%ADD13RoundRect,0.250000X-0.250000X-0.475000X0.250000X-0.475000X0.250000X0.475000X-0.250000X0.475000X0*%
%ADD14RoundRect,0.162500X-0.650000X-0.162500X0.650000X-0.162500X0.650000X0.162500X-0.650000X0.162500X0*%
%ADD15RoundRect,0.250000X0.262500X0.450000X-0.262500X0.450000X-0.262500X-0.450000X0.262500X-0.450000X0*%
%ADD16RoundRect,0.073750X-0.911250X-0.221250X0.911250X-0.221250X0.911250X0.221250X-0.911250X0.221250X0*%
%ADD17RoundRect,0.068750X-0.666250X-0.206250X0.666250X-0.206250X0.666250X0.206250X-0.666250X0.206250X0*%
%ADD18RoundRect,0.068750X-0.206250X-0.666250X0.206250X-0.666250X0.206250X0.666250X-0.206250X0.666250X0*%
%ADD19RoundRect,0.250001X0.949999X-1.499999X0.949999X1.499999X-0.949999X1.499999X-0.949999X-1.499999X0*%
%ADD20RoundRect,0.250001X-1.499999X-0.949999X1.499999X-0.949999X1.499999X0.949999X-1.499999X0.949999X0*%
G04 APERTURE END LIST*
D10*
%TO.C,C4*%
X134228800Y-110439200D03*
X136128800Y-110439200D03*
%TD*%
D11*
%TO.C,R7*%
X134341400Y-98274600D03*
X136166400Y-98274600D03*
%TD*%
D12*
%TO.C,D1*%
X138750000Y-94375000D03*
X140625000Y-94375000D03*
%TD*%
D11*
%TO.C,R6*%
X138673400Y-102198200D03*
X140498400Y-102198200D03*
%TD*%
D13*
%TO.C,C1*%
X119225500Y-94273800D03*
X121125500Y-94273800D03*
%TD*%
D10*
%TO.C,C3*%
X125799100Y-94273800D03*
X123899100Y-94273800D03*
%TD*%
D14*
%TO.C,U3*%
X107613700Y-94615000D03*
X107613700Y-95885000D03*
X107613700Y-97155000D03*
X107613700Y-98425000D03*
X114788700Y-98425000D03*
X114788700Y-97155000D03*
X114788700Y-95885000D03*
X114788700Y-94615000D03*
%TD*%
D15*
%TO.C,R3*%
X136166400Y-102287800D03*
X134341400Y-102287800D03*
%TD*%
%TO.C,R5*%
X140612500Y-98247200D03*
X138787500Y-98247200D03*
%TD*%
%TO.C,R1*%
X110943400Y-116535200D03*
X109118400Y-116535200D03*
%TD*%
D12*
%TO.C,D2*%
X134356400Y-94363000D03*
X136231400Y-94363000D03*
%TD*%
D13*
%TO.C,C2*%
X134323900Y-115089400D03*
X136223900Y-115089400D03*
%TD*%
D16*
%TO.C,U2*%
X108980200Y-109601000D03*
X108980200Y-110871000D03*
X108980200Y-112141000D03*
X108980200Y-113411000D03*
X113930200Y-113411000D03*
X113930200Y-112141000D03*
X113930200Y-110871000D03*
X113930200Y-109601000D03*
%TD*%
D17*
%TO.C,U4*%
X120499200Y-101463000D03*
X120499200Y-102263000D03*
X120499200Y-103063000D03*
X120499200Y-103863000D03*
X120499200Y-104663000D03*
X120499200Y-105463000D03*
X120499200Y-106263000D03*
X120499200Y-107063000D03*
D18*
X121869200Y-108433000D03*
X122669200Y-108433000D03*
X123469200Y-108433000D03*
X124269200Y-108433000D03*
X125069200Y-108433000D03*
X125869200Y-108433000D03*
X126669200Y-108433000D03*
X127469200Y-108433000D03*
D17*
X128839200Y-107063000D03*
X128839200Y-106263000D03*
X128839200Y-105463000D03*
X128839200Y-104663000D03*
X128839200Y-103863000D03*
X128839200Y-103063000D03*
X128839200Y-102263000D03*
X128839200Y-101463000D03*
D18*
X127469200Y-100093000D03*
X126669200Y-100093000D03*
X125869200Y-100093000D03*
X125069200Y-100093000D03*
X124269200Y-100093000D03*
X123469200Y-100093000D03*
X122669200Y-100093000D03*
X121869200Y-100093000D03*
%TD*%
D19*
%TO.C,Y1*%
X103716300Y-113028200D03*
X103716300Y-107828200D03*
%TD*%
D20*
%TO.C,Y2*%
X121606000Y-114554000D03*
X126806000Y-114554000D03*
%TD*%
D11*
%TO.C,R2*%
X113233200Y-116433600D03*
X115058200Y-116433600D03*
%TD*%
D14*
%TO.C,U1*%
X107664500Y-101868400D03*
X107664500Y-103138400D03*
X107664500Y-104408400D03*
X107664500Y-105678400D03*
X114839500Y-105678400D03*
X114839500Y-104408400D03*
X114839500Y-103138400D03*
X114839500Y-101868400D03*
%TD*%
D10*
%TO.C,C5*%
X130167900Y-94273800D03*
X128267900Y-94273800D03*
%TD*%
D15*
%TO.C,R4*%
X136166400Y-106301000D03*
X134341400Y-106301000D03*
%TD*%
M02*
