%TF.GenerationSoftware,KiCad,Pcbnew,9.0.4*%
%TF.CreationDate,2025-12-07T17:14:26+03:30*%
%TF.ProjectId,MCU_Data logger003,4d43555f-4461-4746-9120-6c6f67676572,1*%
%TF.SameCoordinates,Original*%
%TF.FileFunction,Plated,1,2,PTH,Drill*%
%TF.FilePolarity,Positive*%
%FSLAX46Y46*%
G04 Gerber Fmt 4.6, Leading zero omitted, Abs format (unit mm)*
G04 Created by KiCad (PCBNEW 9.0.4) date 2025-12-07 17:14:26*
%MOMM*%
%LPD*%
G01*
G04 APERTURE LIST*
%TA.AperFunction,ViaDrill*%
%ADD10C,0.400000*%
%TD*%
%TA.AperFunction,ComponentDrill*%
%ADD11C,1.000000*%
%TD*%
G04 APERTURE END LIST*
D10*
X106578400Y-99428000D03*
X106578400Y-101600000D03*
X107433900Y-108713000D03*
X107433900Y-111683000D03*
X110793900Y-97043000D03*
X113073900Y-103073000D03*
X113173900Y-101093400D03*
X114119781Y-102732207D03*
X114653900Y-99663000D03*
X117273900Y-100653000D03*
X117638900Y-103963400D03*
X118463900Y-109463000D03*
X119188900Y-105603000D03*
X120293900Y-99913000D03*
X121461908Y-109981008D03*
X122573900Y-110003000D03*
X122613900Y-102433000D03*
X122768901Y-101394501D03*
X123366263Y-98708000D03*
X123463900Y-103088000D03*
X123623903Y-110003000D03*
X124353900Y-102233000D03*
X124403900Y-97093000D03*
X124421512Y-95908660D03*
X124671416Y-110075273D03*
X125343900Y-97933001D03*
X126373900Y-119153000D03*
X126623900Y-103823000D03*
X126823900Y-106593000D03*
X127000000Y-96520000D03*
X127563900Y-104613000D03*
X129443900Y-109013000D03*
X130133900Y-95953000D03*
X130285003Y-105809908D03*
X130681908Y-110244992D03*
X132413900Y-111483000D03*
X132627900Y-101593969D03*
X132813900Y-106143000D03*
X134393900Y-104450000D03*
X136023900Y-118813000D03*
X136223900Y-99663000D03*
X137213900Y-111383000D03*
X138003900Y-117773000D03*
X139193900Y-96893000D03*
X139707792Y-104536892D03*
X140623900Y-114503000D03*
X141094258Y-100873358D03*
X148143900Y-96303000D03*
D11*
%TO.C,BT1*%
X103360700Y-98287000D03*
X103360700Y-100827000D03*
%TO.C,J3*%
X107780300Y-121096200D03*
X110320300Y-121096200D03*
X112860300Y-121096200D03*
X115400300Y-121096200D03*
X117940300Y-121096200D03*
X120480300Y-121096200D03*
X123020300Y-121096200D03*
X125560300Y-121096200D03*
X128100300Y-121096200D03*
%TO.C,J2*%
X134348700Y-121147000D03*
X136888700Y-121147000D03*
X139428700Y-121147000D03*
X141968700Y-121147000D03*
%TO.C,J4*%
X145021700Y-97779000D03*
X145021700Y-100319000D03*
X145021700Y-102859000D03*
%TO.C,J1*%
X146773900Y-107903000D03*
X146773900Y-110443000D03*
X146773900Y-112983000D03*
X146773900Y-115523000D03*
%TO.C,J4*%
X147561700Y-97779000D03*
X147561700Y-100319000D03*
X147561700Y-102859000D03*
M02*
